<?xml version="1.0" encoding="UTF-8"?>
<svg width="18px" height="16px" viewBox="0 0 18 16" version="1.1" xmlns="http://www.w3.org/2000/svg" xmlns:xlink="http://www.w3.org/1999/xlink">
    <!-- Generator: Sketch 46.2 (44496) - http://www.bohemiancoding.com/sketch -->
    <title>i-twitter</title>
    <desc>Created with Sketch.</desc>
    <defs></defs>
    <g id="Page-1" stroke="none" stroke-width="1" fill="none" fill-rule="evenodd">
        <g id="i-twitter" fill-rule="nonzero" fill="#333333">
            <path d="M11.226,0.886 C9.636,1.465 8.631,2.957 8.745,4.59 L8.783,5.22 L8.147,5.143 C5.832,4.847 3.809,3.844 2.091,2.159 L1.251,1.323 L1.036,1.94 C0.578,3.316 0.871,4.77 1.825,5.748 C2.334,6.288 2.219,6.365 1.342,6.044 C1.037,5.941 0.769,5.864 0.744,5.903 C0.655,5.993 0.96,7.163 1.202,7.627 C1.533,8.271 2.207,8.9 2.945,9.274 L3.569,9.57 L2.83,9.581 C2.118,9.581 2.092,9.594 2.169,9.865 C2.423,10.701 3.428,11.589 4.548,11.975 L5.337,12.245 L4.65,12.657 C3.632,13.25 2.436,13.584 1.24,13.608 C0.667,13.621 0.196,13.672 0.196,13.711 C0.196,13.839 1.749,14.559 2.651,14.843 C5.361,15.679 8.58,15.318 10.997,13.891 C12.715,12.875 14.432,10.855 15.234,8.899 C15.667,7.858 16.099,5.954 16.099,5.041 C16.099,4.449 16.137,4.372 16.849,3.665 C17.269,3.253 17.663,2.803 17.74,2.675 C17.868,2.43 17.854,2.43 17.206,2.649 C16.125,3.035 15.972,2.984 16.507,2.405 C16.901,1.993 17.372,1.247 17.372,1.029 C17.372,0.991 17.181,1.055 16.965,1.17 C16.736,1.299 16.227,1.492 15.845,1.607 L15.158,1.826 L14.535,1.4 C14.191,1.169 13.709,0.911 13.454,0.834 C12.804,0.654 11.812,0.68 11.226,0.886 L11.226,0.886 Z" id="Shape"></path>
        </g>
    </g>
</svg>