<?xml version="1.0" standalone="no"?>
<!DOCTYPE svg PUBLIC "-//W3C//DTD SVG 20010904//EN"
 "http://www.w3.org/TR/2001/REC-SVG-20010904/DTD/svg10.dtd">
<svg version="1.0" xmlns="http://www.w3.org/2000/svg"
 width="520.000000pt" height="520.000000pt" viewBox="0 0 520.000000 520.000000"
 preserveAspectRatio="xMidYMid meet">
<metadata>
Created by potrace 1.11, written by Peter Selinger 2001-2013
</metadata>
<g transform="translate(0.000000,520.000000) scale(0.100000,-0.100000)"
fill="#000000" stroke="none">
<path d="M2450 4239 c-201 -18 -395 -75 -543 -160 -45 -26 -106 -76 -163 -133
-79 -79 -98 -106 -143 -196 -82 -167 -95 -229 -95 -460 -1 -175 1 -203 22
-275 33 -113 82 -209 158 -304 141 -176 328 -300 664 -441 413 -173 594 -289
653 -419 25 -54 29 -180 9 -248 -30 -101 -127 -192 -247 -232 -104 -34 -185
-44 -345 -44 -226 0 -456 46 -675 137 -49 21 -96 38 -104 39 -9 1 -47 -88
-117 -273 -57 -151 -104 -275 -104 -276 0 -9 173 -71 287 -103 181 -51 347
-78 558 -92 424 -27 784 44 1013 200 272 184 402 453 402 828 0 216 -35 343
-138 495 -136 202 -342 348 -727 518 -423 187 -570 282 -632 409 -22 44 -27
68 -27 130 1 191 128 302 379 332 220 26 610 -43 807 -142 31 -16 59 -25 62
-21 2 4 45 116 94 247 50 132 95 252 101 267 10 27 9 29 -47 57 -161 80 -434
140 -732 161 -164 11 -234 11 -370 -1z"/>
</g>
</svg>
