<?xml version="1.0" standalone="no"?>
<!DOCTYPE svg PUBLIC "-//W3C//DTD SVG 20010904//EN"
 "http://www.w3.org/TR/2001/REC-SVG-20010904/DTD/svg10.dtd">
<svg version="1.0" xmlns="http://www.w3.org/2000/svg"
 width="1052.000000pt" height="1052.000000pt" viewBox="0 0 1052.000000 1052.000000"
 preserveAspectRatio="xMidYMid meet">
<metadata>
Created by potrace 1.11, written by Peter Selinger 2001-2013
</metadata>
<g transform="translate(0.000000,1052.000000) scale(0.100000,-0.100000)"
fill="#000000" stroke="none">
<path d="M7785 5733 c-106 -12 -235 -40 -330 -70 -405 -129 -694 -399 -830
-773 -47 -132 -66 -234 -72 -400 -15 -421 100 -744 360 -1017 205 -214 420
-343 952 -573 471 -203 599 -274 708 -388 68 -72 102 -140 119 -240 42 -245
-124 -460 -417 -538 -57 -16 -105 -19 -260 -19 -165 1 -201 4 -275 23 -182 49
-377 170 -501 313 -51 58 -157 199 -178 237 -7 13 -83 -28 -405 -214 -218
-126 -396 -234 -396 -239 0 -21 111 -198 177 -283 282 -364 686 -595 1198
-683 155 -27 505 -37 667 -19 744 81 1218 455 1350 1063 29 135 31 449 4 597
-23 124 -77 286 -127 380 -192 355 -527 598 -1249 905 -415 177 -544 249 -648
360 -87 93 -106 147 -107 300 0 114 1 123 32 187 91 192 310 281 578 233 166
-30 318 -140 432 -314 31 -47 58 -87 59 -89 2 -3 739 466 763 484 7 6 -135
213 -200 291 -231 275 -537 433 -939 482 -78 10 -395 13 -465 4z"/>
<path d="M4728 3918 l-3 -1773 -22 -76 c-55 -194 -139 -285 -308 -335 -92 -27
-279 -25 -370 3 -158 50 -270 156 -408 390 l-54 92 -394 -239 c-216 -131 -395
-243 -397 -249 -2 -6 21 -55 51 -109 209 -367 512 -608 907 -718 179 -51 249
-58 515 -59 200 0 270 4 350 19 305 56 530 164 719 346 216 208 344 497 386
875 6 57 10 738 10 1848 l0 1757 -490 0 -490 0 -2 -1772z"/>
</g>
</svg>
