<svg xmlns="http://www.w3.org/2000/svg" viewBox="340.492 247.593 393.885 284.417"><g fill="none" stroke="#000" stroke-linecap="round" stroke-linejoin="round"><path opacity=".9" stroke-width="1.518" d="M457.742 294.577q-.031-1.48-.187-7.838-.156-6.358-.3-12.625-.143-6.268-.2-7.853-.058-1.584-.106-3.107-.049-1.523-.045-1.587.003-.064-.025-1.594-.028-1.531-.025-1.616.003-.085-.06-3.086l-.051-1.594"/><path opacity=".9" stroke-width="2.468" d="M460.28 253.667l1.351-.009.628.015q5.121.041 7.065.05 1.943.009 3.434.01 1.491.001 3.18-.003 1.689-.005 3.275-.005 1.585-.001 3.066.003 1.482.003 3.633.014l4.986.03 5.3.032 4.226.025 3.64.019 3.636.018 4.212.017q2.455.01 5.224.019l5.272.015 4.734.01 3.873.007 3.213.005 3.896.005q2.325.002 4.476.006l4.905.009 5.042.012q2.289.006 4.11.013 1.822.006 4.165.019 2.343.012 5.207.03 2.865.018 5.03.034 2.166.016 4.367.037l3.961.039q1.76.017 3.429.025l2.865.014q1.196.007 1.622.012l1.6.016q1.174.012 4.1.057 2.926.044 3.268.046.342.001 1.491-.001 1.15-.002 2.526.005 1.376.008 2.317.019.198.008 1.199.005 1-.002 1.485.007.486.008 1.592.017 1.106.007 1.572.013.466.006 1.571.016l1.39.012 1.483.022q1.198.018 1.54.027.342.009 1.453.012 1.111.002 3.055.036"/><path opacity=".9" stroke-width="1.756" d="M618.192 259.146l-.071.934q-.06.911-.1 2.463-.04 1.551-.059 3.743-.018 2.191-.044 3.851-.025 1.66-.071 3.352-.047 1.693-.115 3.857-.067 2.163-.107 3.327-.04 1.163-.086 4.344-.045 3.181-.05 4.28-.005 1.1-.021 2.201l-.016 1.113-.034.92q-.034.91-.068.95l-.056.875"/><path opacity=".9" stroke-width="1.862" d="M614.687 294.575q-1.516.012-2.528.017-1.012.006-2.522.002-1.511-.004-4.267-.032-2.756-.029-5.769-.05-3.013-.021-4.752-.028l-3.098-.009-2.436-.003-2.643-.003-2.958-.004-3.137-.003-3.265-.003-3.461-.002h-3.605q-1.663 0-3.996-.003l-5.343-.007-5.506-.008-4.466-.005-4.106-.005-4.43-.003h-4.635l-4.714.002-4.347.005-3.532.007-3.452.008-4.104.013q-2.215.007-4.124.015l-3.517.016-3.734.02-4.767.029-4.428.029-3.211.025-4.067.034q-2.644.021-3.917.035-1.274.015-1.594.016l-1.676.007q-1.354.005-2.486.012l-2.622.016q-1.491.009-1.671.012-.18.003-.468 0-.289-.003-1.41-.006-1.122-.003-1.309-.008-.188-.005-1.496-.006-1.309-.001-2.488.006-1.18.007-1.467-.002-.286-.009-1.381-.003-1.095.007-1.512.012l-3.983.049"/><path opacity=".9" stroke-width="1.791" d="M346.869 403.067q.012-1.209.024-1.239.013-.029.023-.045.01-.016.037-1.97.026-1.954.064-3.627.038-1.674.096-3.72.058-2.047.096-3.449.038-1.402.063-2.533.026-1.131.057-3.886.031-2.754.064-5.482.033-2.729.057-4.116.024-1.388.059-2.764.036-1.377.08-2.793.045-1.416.084-2.812.039-1.396.063-2.778l.05-2.782q.026-1.399.057-4.015l.059-1.32"/><path opacity=".9" stroke-width="1.986" d="M351.133 353.213q1.16.005 3.056-.006 1.896-.011 3.308-.012 1.413-.002 3.856-.019 2.443-.017 3.994-.037 1.552-.02 3.805-.032 2.254-.012 4.592-.021l5.526-.02q3.188-.012 6.156-.021l5.71-.016 4.948-.014q2.205-.006 4.697-.015l5.27-.02q2.778-.011 6.129-.034l4.742-.032q1.391-.009 3.302-.014 1.911-.005 4.81-.008l5.109-.004q2.212 0 3.732.002 1.521.002 3.389-.001 1.867-.002 4.082-.009l3.796-.011 3.002-.009q1.421-.004 3.195-.002l3.243.002q1.468 0 4.125.005 2.656.006 5.747.018 3.09.013 4.639.013 1.549 0 3.409.016 1.86.015 4.476.032 2.617.018 3.156.028.54.01 2.05.014l2.751.006q1.239.003 3.022.025 1.784.022 2.974.022 1.19-.001 1.733.001l1.986.004 3.72.008q.486.011 6.099.028.421.018 1.809.028l3.133.024"/><path opacity=".9" stroke-width="1.537" d="M509.582 358.149q0 .708.003 2.072l.007 2.709.006 3.139q.003 1.795.003 3.076.001 1.281-.003 2.296-.005 1.014-.006 2.305 0 1.29.007 4.011l.012 4.171.017 4.253q.012 2.805.028 5.842.015 3.037.025 4.513.01 1.477.031 3.04.022 1.562.046 6.479"/><path opacity=".9" stroke-width="1.588" d="M505.592 405.686q-1.001.003-2.379.034-1.377.03-4.328.101l-4.501.108q-1.55.037-2.913.067-1.363.03-3.264.065-1.901.035-3.551.063l-3.692.061-3.85.062-4.16.068q-2.353.039-3.646.063-1.292.024-3.161.047-1.869.024-4.771.055l-5.254.055-4.135.042q-1.784.017-3.325.029-1.542.013-3.488.026-1.946.012-4.933.025-2.988.012-4.789.022-1.802.011-4.822.037-3.019.025-4.931.038-1.913.012-4.923.011l-6.055-.004-5.147-.008-3.548-.006q-1.445-.002-4.406-.011-2.961-.009-6.111-.021-3.15-.011-4.405-.017-1.255-.005-3.175-.016l-4.923-.028q-3.003-.018-5.054-.034-2.05-.017-3.697-.04-1.647-.022-4.409-.039l-4.146-.023q-1.384-.008-1.859-.028-.476-.019-1.831-.029-1.355-.01-1.589-.015-.234-.005-1.778-.022-1.545-.016-2.873-.019-1.327-.003-1.663-.018-.337-.015-2.716-.025-.498-.021-.646-.023l-1.363-.012q-1.215-.012-1.52-.021-.306-.01-1.692-.03"/><path opacity=".9" stroke-width="1.553" d="M566.706 432.279l-.034-2.981q-.019-1.667-.042-3.945-.022-2.278-.048-4.569l-.061-5.346-.065-5.718-.057-4.936q-.026-2.274-.054-4.931t-.056-5.686q-.027-3.028-.045-5.606-.017-2.577-.027-4.714l-.015-3.571q-.005-1.434-.011-2.545l-.007-1.215-.001-1.57q0-1.467.006-4.311.005-2.844.017-6.007t.029-6.653"/><path opacity=".9" stroke-width="2.412" d="M565.544 354.126q1.701-.006 3.13.011l2.772.031q1.343.015 1.866.01.524-.005 3.424.004l4.608.014q1.709.005 4.799.029 3.091.025 4.664.031l4.756.018q3.182.013 5.853.034l4.569.035q1.898.015 4.744.044 2.846.028 6.094.064l4.902.054 6.012.068q4.36.05 8.906.108 4.547.057 12.526.164 7.979.106 14.214.199 6.236.093 9.114.139 2.878.047 4.736.079l4.667.083q2.81.05 6.123.112 3.313.061 6.008.108 2.696.046 3.164.062.468.015 1.809.029 1.34.014 2.498.029 1.159.016 1.668.027.509.01 1.688.037 1.179.027 1.58.044.4.017 1.363.032t1.387.02q.423.006 1.545.026 1.122.019 1.529.039.406.021 1.496.034 1.091.012 1.498.029.408.017 1.859.043 1.452.027 2.893.07 1.442.044 1.691.049.249.005 4.477.108"/><path opacity=".9" stroke-width="1.579" d="M726.094 361.434l.08 1.108q.004.041.052 1.498l.096 2.908.11 3.395.118 3.74.106 3.45.093 3.154q.044 1.502.1 3.528.057 2.027.127 4.324l.122 3.931.106 3.368.1 3.148q.044 1.413.092 3.042.049 1.628.07 2.442l.054 2.254q.033 1.44.078 3.519l.076 3.527.055 2.657.056 2.616q.032 1.406.025 1.56-.006.154.018 1.573l.051 2.919q.028 1.499.059 2.9.031 1.401.031 1.547 0 .145.05 1.537.049 1.392.048 1.427-.001.035.066 1.462"/><path opacity=".9" stroke-width="1.94" d="M724.904 432.561q-1.503.043-3.062.084-1.559.041-3.734.085l-3.875.079-3.659.074q-1.957.038-3.408.069-1.452.03-2.861.064-1.408.034-4.163.096-2.755.062-5.46.114-2.705.051-4.449.08-1.744.03-4.743.069-2.999.04-5.914.076-2.915.036-5.213.067l-4.235.058-4.282.062q-2.346.034-4.358.06-2.012.026-4.524.055-2.512.028-3.827.041-1.315.014-2.888.028l-3.842.036-4.936.043-5.726.047-5.136.042-3.707.027-4.808.034q-3.176.023-4.135.028l-2.737.015-3.396.019-3.67.02-3.883.022q-1.831.01-4.247.026-2.416.015-4.756.033l-4.205.033-3.95.03q-2.084.016-2.516.017l-3.083.008q-2.652.008-4.208.01t-1.971.005q-.415.002-3.127.001-.625.012-3.072.033l-1.953.007"/><path opacity=".9" stroke-width="1.373" d="M348.697 523.184l.065-2.378q.036-2.047.039-4.148.003-2.101-.022-4.308-.025-2.207-.048-4.008l-.04-3.224q-.019-1.423-.036-3.187-.018-1.765-.036-3.871l-.032-3.846-.031-3.802q-.017-2.062-.024-3.167-.008-1.105-.02-2.179l-.03-2.486-.032-2.485-.025-2.171q-.011-1.099-.043-3.849-.031-2.751-.054-4.139-.023-1.389-.039-2.786-.015-1.398-.04-2.715"/><path opacity=".9" stroke-width="2.032" d="M352.308 466.042l-.691-.56q-.017-.033.718-.267.736-.234 1.942-.254 1.207-.02 2.566-.022 1.358-.002 3.024-.021 1.665-.02 2.023-.031.358-.011 1.262-.017.904-.006 2.473-.012l3.474-.012 4.142-.015q2.239-.009 4.059-.014 1.819-.005 3.219-.006l3.382-.004 4.545-.006 4.636-.006 3.653-.005q1.581-.001 3.129-.005 1.548-.003 3.062-.008l3.508-.008 4.463-.008 4.443-.005 3.445-.002h2.641l2.03.001 2.481.004 3.998.009 4.39.008q2.013.004 3.661.005l3.604.001h4.219q2.264 0 4.169-.002 1.904-.002 3.45-.006 1.546-.005 3.142-.007 1.595-.003 3.24-.003 1.646-.001 3.66.001 2.015.001 4.399.005 2.384.003 4.06.007 1.676.003 3.128.008l3.042.01q1.59.006 4.129.01 2.539.003 4.13.001 1.591-.003 2.046 0l1.588.011q1.132.009 2.29.012 1.159.003 2.722.004l2.412.001 1.056.001 1.392.003q1.185.002 2.502.019 1.318.016 2.996.022 1.679.006 3.743.03"/><path opacity=".9" stroke-width="1.502" d="M509.004 467.609q-.012-.449-.023-.738-.011-.29.001.614.012.903.039 2.377.027 1.474.058 3.021l.062 3.083.062 3.059q.031 1.524.051 2.686.021 1.163.031 1.965l.025 1.975.038 2.715.043 3.09.044 3.101.046 3.265.043 3.037.039 2.83.04 2.742q.018 1.236.042 2.683.023 1.447.055 2.715.032 1.268.062 2.75t.055 3.014q.025 1.531.081 4.483l.033 1.518"/><path opacity=".9" stroke-width="1.861" d="M507.053 524.051l.001.074q-.031.025-.64.086-.61.061-1.651.088-1.04.027-2.502.049-1.463.023-2.575.038-1.112.016-2.226.029-1.113.014-2.473.036-1.36.021-2.892.052-1.532.031-3.689.078-2.158.047-3.741.084-1.583.036-3.096.074-1.514.037-2.628.059-1.115.022-2.669.048l-3.918.065-4.72.077-4.7.08-4.324.072-3.371.056-2.859.047-2.773.044-3.027.049-3.377.053q-1.657.025-3.497.05l-3.267.043-3.051.039-3.13.038-3.581.044-3.789.044-3.042.035-2.842.032-3.212.037-3.583.042-3.683.043-3.511.039-3.339.037-3.168.033-2.811.029-2.771.027q-1.5.014-2.42.02l-2.132.013-2.717.018-2.681.017-2.444.018q-1.269.01-2.901.031l-1.756.023-.882.012-2.187.026-2.479.029-2.044.022q-.997.01-2.64.016-1.642.007-2.055.006-.412-.002-1.61.001-1.197.002-3.68.011-.522.011-.793.006-.27-.005-1.642.006-1.372.012-6.002.047"/><path opacity=".9" stroke-width="1.475" d="M568.397 524.718q-.05-1.349-.205-4.348-.154-2.999-.337-6.192-.182-3.193-.371-6.184-.188-2.991-.334-6.075-.147-3.084-.335-7.645-.188-4.562-.356-7.594-.168-3.033-.268-4.554-.099-1.521-.191-3.039-.092-1.518-.255-4.543-.164-3.026-.24-4.525-.076-1.5-.134-3.032"/><path opacity=".9" stroke-width="1.476" d="M567.681 466.348q1.176-.01 4.313-.03l5.621-.036q2.484-.017 4.119-.038 1.635-.02 3.071-.035 1.437-.014 2.963-.024l3.63-.024q2.102-.013 3.95-.028 1.848-.016 3.436-.032l3.785-.037q2.196-.022 5.009-.053 2.814-.031 4.93-.06 2.116-.029 3.523-.053l3.012-.051 3.41-.06 3.732-.067 3.977-.067q2.051-.034 3.88-.068 1.83-.034 3.437-.067 1.607-.033 3.737-.071l3.86-.068 3.77-.065 3.865-.066 4.233-.071q2.409-.04 4.747-.074l4.542-.065 4.274-.062 3.571-.052 2.903-.04q1.401-.019 4.096-.051 2.695-.032 4.885-.034 2.191-.002 3.324-.008 1.132-.006 2.529-.016l3.438-.027q2.04-.016 3.552-.026 1.511-.009 2.986-.013 1.475-.003 2.877-.012l2.665-.018q1.264-.009 1.724 0 .461.01 1.586-.007 1.126-.016 1.574-.016.449.001 1.639-.018t1.694-.021q.505-.002 3.049-.032 2.544-.031 2.597-.029.053.003.554.007.502.004 4.599-.037"/><path opacity=".9" stroke-width="1.709" d="M726.75 468.082q.051 1.167.114 2.522.063 1.355.118 3.259l.108 3.862.127 4.61.129 4.656.112 4.031q.056 2.026.123 4.693t.152 5.324l.127 3.991q.044 1.335.083 2.691.039 1.355.088 2.726l.095 2.754q.046 1.382.153 4.067l.129 2.688.075 1.267"/><path opacity=".9" stroke-width="1.82" d="M728.52 524.458q-1.122-.001-2.563-.012-1.442-.011-1.525-.016-.084-.004-3.145-.022-3.062-.018-4.813-.03-1.751-.013-3.507-.036l-3.454-.043q-1.697-.02-3.357-.033-1.659-.014-4.282-.022-2.624-.009-4.797-.035-2.173-.027-9.621-.076l-10.639-.072-4.978-.035q-1.787-.011-6.512-.017-4.725-.007-9.129.009-4.404.015-8.986.052-4.581.037-9.603.087-5.021.049-8.054.081-3.034.031-4.681.05-1.648.019-6.377.08t-8.134.122q-3.405.061-6.291.103-2.887.043-5.935.093-3.048.05-4.855.088-1.807.038-4.436.08-2.629.041-4.376.076-1.747.035-3.576.074-1.829.038-3.079.058-1.251.019-2.589.042-1.339.023-1.763.041-.425.019-1.656.038l-3.236.054"/><path opacity=".9" stroke-width="1.461" d="M428.657 462.921q-.043-1.358-.215-6.088-.173-4.731-.337-9.276-.164-4.545-.225-6.091-.061-1.546-.207-4.612-.145-3.066-.214-4.719-.07-1.654-.122-3.188l-.105-3.093q-.053-1.559-.171-4.562-.118-3.004-.238-6.183.005-.011-.154-4.552"/><path opacity=".9" stroke-width="1.518" d="M427.576 408.654q-.43 1.334-.959 2.805-.529 1.47-1.088 2.927-.558 1.458-2.192 5.862"/><path opacity=".9" stroke-width="1.834" d="M431.388 415.968q-.563-.717-4.372-5.801"/><path opacity=".9" stroke-width="1.455" d="M648.245 462.967q-.064-1.18-.319-6.932-.254-5.753-.626-14.343-.022-.065-.227-4.131"/><path opacity=".9" stroke-width="1.69" d="M647.552 434.618q-.305.918-.805 2.115-.501 1.197-1.792 4.788-1.292 3.59-1.734 4.654"/><path opacity=".9" stroke-width="2.144" d="M652.219 443.186q-.663-1.003-2.333-3.215-1.669-2.212-3.893-5.567"/><path opacity=".9" stroke-width="1.858" d="M427.016 348.844l.056-1.15q.003-.107-.017-4.287-.019-4.181-.038-6.975l-.028-4.106q-.008-1.312.068-2.521"/><path opacity=".9" stroke-width="2.183" d="M426.751 327.94q1.24-.004 1.661-.014.42-.011 2.788-.038 2.368-.028 2.977-.033.609-.005 2.198-.03 1.588-.025 4.199-.069 2.612-.044 5.96-.083 3.348-.039 5.12-.056 1.773-.017 3.274-.029l5.247-.048q3.745-.036 6.949-.071l7.245-.081 7.311-.083q3.269-.037 6.391-.078 3.122-.042 6.748-.095 3.626-.054 8.241-.113l7.285-.092q2.67-.033 10.949-.125t10.909-.124l7.36-.094q4.73-.062 8.175-.111l6.701-.096 6.318-.09q3.063-.043 6.911-.094 3.848-.051 7.602-.106 3.754-.054 5.866-.09l3.576-.058 3.501-.052q2.036-.029 6.442-.087 4.406-.058 9.147-.123 4.74-.065 6.76-.095 2.021-.03 3.554-.048 1.533-.018 3.069-.031 1.536-.012 2.858-.028 1.322-.015 3.205-.043 1.883-.028 2.866-.041l2.756-.037q1.773-.023 3.582-.052l3.207-.053q1.398-.024 3.256-.049 1.859-.024 2.68-.032l1.61-.014q.79-.006 1.605-.016.816-.01 3.211-.049"/><path opacity=".9" stroke-width="1.785" d="M647.741 327.133q.02 1.12.114 3.647.095 2.527.13 5.001.034 2.473.026 3.733-.008 1.259-.012 2.514t-.021 2.447q-.017 1.192-.007 1.26.009.068-.006 1.227-.016 1.159.013 1.189.028.031.017 1.155-.011 1.123.015 1.128.025.005.037.044.012.039-.026 3.304"/><path opacity=".9" stroke-width="1.604" d="M538.058 321.496q.082-7.042.068-9.948-.014-2.907-.025-4.384-.01-1.477-.002-2.935.008-1.457.004-4.411l.047-1.389"/><path opacity=".9" stroke-width="1.33" d="M538.018 297.389q-.541.907-1.121 1.998-.58 1.09-1.18 2.315-.599 1.225-1.222 2.41t-2.541 4.353"/><path opacity=".9" stroke-width="2.273" d="M538.018 297.084q2.352 2.328 2.407 2.379.054.051 4.431 4.331"/><path opacity=".9" stroke-width="2.184" d="M496.428 284.793q-.049-.125-.248-2.119-.199-1.994-1.24-5.302-1.042-3.309-2.141-5.402-1.098-2.093-1.761-3.85-.664-1.758-.422-3.154 1.562-.614 1.607-.604.045.01.967-.167.922-.177 1.907-.27.986-.094 2.185.123t1.698.537q.499.319.772.726.274.406.355.851.08.444.01 1.218t-.226 1.202q-.156.427-1.162 1.21-1.006.782-1.67 1.12-.665.338-2.099 1.682"/><path opacity=".9" stroke-width="2.687" d="M503.347 285.145q.605-.886.597-.938-.008-.052.155-1.362.164-1.31-.381-3.388-.546-2.078-1.672-3.669-1.127-1.591-2.654-2.553t-3.349-1.049q-1.821-.087-2.296-.027"/><path opacity=".9" stroke-width="1.49" d="M509.411 277.868q.078-.115.294-.291.217-.175.809-.584.591-.41.991-.942.401-.532.511-1.241.11-.71.055-1.109t-.496-.627q-.441-.227-.912-.223-.471.003-.852.169-.382.165-1.139.922t-1.213 1.713q-.456.955-.662 2.166-.207 1.21-.018 2.413.188 1.202.912 2.104.724.902 1.589 1.132.864.23 1.98-.047 1.115-.277 3.043-1.183"/><path opacity=".9" stroke-width="1.776" d="M518.063 276.615q-.147.147-.566 1.393-.42 1.246-.467 1.935-.046.688.144 1.041.191.353.861.56.67.208 2.05-.368t2.053-1.113q.673-.537.991-.995.318-.458.451-1.028.133-.57.021-.923-.111-.354-1.146-.768-1.034-.414-2.424.171-1.391.585-2.141 1.096"/><path opacity=".9" stroke-width="1.931" d="M522.568 276.577l.053.073-.076.234.039.453q-.016.308.099.54.115.231.761 3.404.646 3.174.836 5.265.191 2.092.014 3.506-.176 1.413-2.634 1.31-2.458-.104-2.812-.202"/><path opacity=".9" stroke-width="1.693" d="M528.927 275.277q-.422.351-.422.424 0 .073-.041.19-.04.117-.114.489-.075.372-.063 1.287.012.916.514 1.763.502.846 1.594 1.149 1.091.302 1.953.119.861-.182 1.244-.368.384-.185.971-.95.588-.765.8-1.304.212-.538.231-1.608-.234.284-.119 1.088.116.804.322 1.333.206.529.415.828.21.299.432.547.222.248.411.416.189.169.664.466.476.297 2.031.796"/><path opacity=".9" stroke-width="1.998" d="M543.164 283.372l.012-.893q.033-.203-.353-5.827t-1.637-9.679q-1.25-4.055-1.528-4.72"/><path opacity=".9" stroke-width="1.927" d="M548.79 276.745q-.328.537-.579 1.698-.251 1.161-.254 1.748-.003.587.211 1.138.215.551 1.026.914t1.513.172q.701-.191 1.103-.467t1.038-1.132q.635-.856.898-1.555.262-.699.069-2.458-.194-1.758-.68-2.077-.487-.319-1.463-.279-.976.04-1.869 1.428-.892 1.387-1.187 2.085"/><path opacity=".9" stroke-width="2.734" d="M552.948 275.881q.161.304.705 1.526.544 1.222.813 1.669.269.446.818 1.122.55.676 1.903 1.523"/><path opacity=".9" stroke-width="2.009" d="M562.599 282.332q.02-.123-.485-5.491-.506-5.368-1.496-9.747t-2.327-7.115q-.045-.079-.452-.111"/><path opacity=".9" stroke-width="2.93" d="M564.158 268.138q-.192-.235-1.387-.599-1.195-.365-2.666-.264-1.472.1-2.438.408-.966.307-2.083.896-1.117.589-1.811 1.027"/><path opacity=".9" stroke-width="1.909" d="M569.478 275.621l-.294.275q-.649.821-.954 2.043-.305 1.223-.182 1.893.124.67.571.927.447.256.934.286.487.03 1.469-.367.983-.398 1.848-1.069.866-.671 1.299-1.415.434-.743.434-1.285-.001-.542-.238-.935t-1.415-.609q-1.177-.215-1.932-.061-.754.154-1.581.401"/><path opacity=".9" stroke-width="1.76" d="M579.648 281.163q-1.077-4.061-1.685-5.64-.607-1.579-1.953-3.28"/><path opacity=".9" stroke-width="2.113" d="M576.316 274.582q.127-.129 2.499-.793t4.519-.664q2.146.001 3.02.119"/><path opacity=".9" stroke-width="2.265" d="M349.247 379.83q1.225-.004 1.619-.003.394 0 3.319-.04 2.925-.041 5.794-.066 2.868-.026 6.015-.069l5.329-.072q2.181-.029 3.768-.047 1.586-.018 5.686-.06 4.1-.043 7.618-.087 3.518-.044 6.567-.076l4.97-.049q1.922-.018 6.249-.051 4.326-.032 6.25-.05 1.924-.018 4.697-.047 2.772-.029 4.323-.047l9.189-.103q7.637-.085 12.529-.13 4.893-.045 7.787-.063l3.434-.021q.541-.004 5.257-.027 4.716-.023 8.883-.059 4.167-.035 7.724-.061 3.558-.026 6.742-.052t7.419-.064q4.235-.039 6.149-.048l3.111-.016q1.197-.008 1.624-.013.427-.005 2.945-.013.688-.014 1.858-.017 1.17-.003 3.095-.016"/><path opacity=".9" stroke-width="2.009" d="M568.876 381.994q.973-.004 1.737-.054.391-.022 2.931-.063 2.541-.04 5.371-.088 2.831-.047 5.831-.11 3.001-.063 5.134-.124 2.134-.06 3.941-.086l3.56-.052 4.051-.062 4.269-.064q1.969-.029 4.429-.062 2.461-.033 5.097-.044 2.637-.01 4.604-.025 1.968-.016 4.222-.028l4.155-.021 4.196-.017q2.297-.008 4.465-.011 2.168-.003 4.208-.001 2.04.003 4.254.009 2.215.005 4.601.014 2.386.009 4.285.019 1.898.011 4.017.029 2.118.018 3.531.034 1.412.017 4.433.057 3.021.039 5.707.089 2.686.05 5.557.124 2.871.075 4.344.124 1.473.048 4.137.123 2.664.074 4.195.129 1.531.054 2.871.106l4.134.162q2.794.11 4.531.19 1.736.081 3.035.137 1.299.057 4.179.206.348.019 5.078.217l.502.059q2.545.116 2.735.129.189.012 1.235.067 1.046.054 1.305.079.259.024 3.936.193"/><path opacity=".9" stroke-width="2.261" d="M392.825 371.866l-.1 1.351.066.033q-.072.222-.908-10.823l-.146.177-.207.09"/><path opacity=".9" stroke-width="1.769" d="M396.463 365.331q-.094.277 1.117 7.023.058.058.9-4.257.015-.153.441-.182.427-.029.915.106.489.135.64.345.151.211 2.113 4.069.149.073.834-.133"/><path opacity=".9" stroke-width="1.733" d="M406.542 372.172q.304-.68-2.3-14.459l.221-.644"/><path opacity=".9" stroke-width="2.207" d="M408.529 363.344q-.787.039-.858.095-.782.203-3.3 1.077-2.519.874-3.363 1.297"/><path opacity=".9" stroke-width="1.683" d="M412.321 368.81q.696-1.03.736-1.066.04-.037.779-1.576-.145-.513-.653-.832-.507-.319-1.258.198-.75.516-1.092 1.284-.341.767-.338.998.003.231.023.653.02.423.189.647.169.224.42.439.252.216.378.321.125.104.422.73.297.625.73.702.432.077 1.315-.413t4.238-1.865"/><path opacity=".9" stroke-width="1.723" d="M423.257 372.105q-.097-.304-.727-2.002-.631-1.698-1.257-2.602-.626-.903-1.009-1.198-.383-.295-.605-.473"/><path opacity=".9" stroke-width="1.995" d="M420.617 369.254q.118-.033.987-1.297.87-1.265 1.68-1.815.81-.551 1.51-.38.7.172 1.322.395.622.223.702.525"/><path opacity=".9" stroke-width="1.564" d="M433.762 371.002l-.002-.107q.058-.169-.327-2.908-.386-2.739-1.053-5.165-.667-2.426-.879-3.943-.211-1.516-.094-2.036.117-.52.33-.638.214-.118.867-.223.654-.105 1.819.454t1.779 1.079q.614.52 2.187 2.282"/><path opacity=".9" stroke-width="1.466" d="M436.269 363.772q-.538-1.261-3.685-.061-3.147 1.2-3.54 1.452"/><path opacity=".9" stroke-width="1.687" d="M441.12 368.45l-.743-.639-.221.283q-.06.178-.313 1.231-.253 1.053-.304 1.854-.051.801.099 1.534.149.733 1.432.52 1.283-.213 2.169-.878.887-.664 1.771-1.772.884-1.108.765-3.486-.384-.456-1.331-1.016t-1.848-.585q-.902-.026-1.323 1.285-.42 1.31-.499 2.012"/><path opacity=".9" stroke-width="3.223" d="M445.452 367.754q-.181.481-.116.599-.042.06.195 1.029.237.97.94 1.686.703.717 1.573 1.037.052.04 1.036-.453"/><path opacity=".9" stroke-width="1.717" d="M456.691 368.028q-.189-.677-.299-.796l-.355-.757q-.144-.39-.955-.882-.812-.492-2.005-.207-1.193.284-1.462.597-.27.314-.621 1.196-.351.881.106 2.231.457 1.35.993 1.981.537.632 1.031 1.013.494.38 1.191.587.696.207 1.267.151.572-.056 2.093-1.158 1.521-1.102 2.136-1.677"/><path opacity=".9" stroke-width="1.945" d="M465.915 367.624l-.634.279q-.292.199-.268.822.334.202 1.63-.78 1.296-.98 1.848-1.926t.57-1.403q.017-.458-.199-.842-.216-.384-.5-.468-.283-.084-.849-.116-.567-.032-1.808.684-1.242.716-2.192 1.845-.95 1.13-1.115 2.455-.165 1.326.083 2.014.248.688.762 1.138.514.45 1.911.841 1.396.39 3.108-.036 1.712-.426 2.513-.921.801-.496 1.5-.987"/><path opacity=".9" stroke-width="2.532" d="M612.066 374.159q.056-.026.23-.018.175.008.404.058-.003-.136-.05-.969-.048-.832-.141-2.366l-.241-4.046q-.148-2.512-.415-7.629l-.049-1.186"/><path opacity=".9" stroke-width="1.842" d="M616.652 365.331q-.063.112.191 2.242.255 2.13.848 6.164.094-.082.623-1.746.529-1.665 1.172-3.393.642-1.729 1.518-2.312.129.011.264.211.136.2.526 1.428.389 1.228.715 2.322.326 1.094.508 1.39.181.295.365.47.184.174.975.455"/><path opacity=".9" stroke-width="1.902" d="M628.142 375.323l.044-.15q-.015-.026-.147-1.178-.132-1.151-.617-3.015-.485-1.863-.934-3.362-.448-1.499-.269-2.57.179-1.072.279-1.476.101-.405.085-.828-.015-.422-.681-2.226-.286-.907-.012-.98"/><path opacity=".9" stroke-width="1.978" d="M629.557 363.705q-3.236.555-4.198.545-.963-.01-1.068.418"/><path opacity=".9" stroke-width="1.927" d="M632.035 371.382q1.085-.839 1.196-.936.111-.096 1.004-1.041.892-.945 1.272-1.506.381-.562.386-.694.006-.131-.118-.491-.125-.359-.965-.574-.841-.216-1.788.317-.946.532-1.472 1.586t-.572 2.119q-.045 1.065.503 1.793.549.728.94.939.39.211.977.464t2.141.195q1.554-.057 2.614-.676 1.059-.619 2.026-1.371"/><path opacity=".9" stroke-width="1.852" d="M643.743 373.787q.026-.553-.038-1.593-.065-1.04-.252-2.483-.188-1.444-.32-2.27-.132-.825-.209-1.21-.077-.385-.371-.249"/><path opacity=".9" stroke-width="2.135" d="M643.754 367.45q-.06-.486 1.093-.766 1.154-.28 1.483-.213.329.066 1.19.692"/><path opacity=".9" stroke-width="1.55" d="M651.659 375.244q.053-.108.083-.159.265-9.157-.451-17.237 2.3-1.24 3.135-1.184.835.056 1.13.192.294.137.425.256l.337.314q.206.194.607 1.05.401.856.665 1.619"/><path opacity=".9" stroke-width="1.958" d="M654.044 363.428q-.16-.067-2.184-.1-2.023-.033-2.199.006"/><path opacity=".9" stroke-width="1.789" d="M657.396 369.421q-.038.069-.346 1.313-.307 1.244-.174 1.983.133.74.29 1.008.158.269.682.456t1.552-.253q1.027-.439 1.606-1.017.579-.577.859-1.608.28-1.031.133-1.648-.147-.617-.637-1.014-.491-.396-1.075-.324-.585.071-1.096.178"/><path opacity=".9" stroke-width="2.405" d="M662.431 367.846q-.089.452-.079 1.422.01.969.2 1.906.189.937.468 1.606.278.669 1.55 1.375"/><path opacity=".9" stroke-width="1.512" d="M673.139 367.977l.275-.268q.468-.408.38-2.596-.035-.109-1.099-.116-1.065-.007-2.034.584-.97.591-1.517 1.1-.547.509-1.074 1.476-.526.966-.633 1.565-.108.6.127 1.432.234.833 1.86 1.268 1.626.434 3.567.282 1.942-.152 2.169-.188"/><path opacity=".9" stroke-width="1.658" d="M678.592 369.726l-.141-.045q-.231-.014-.236-.01l-.192.233q-.188.229-.202.486-.014.258.012.555.026.296.336.671.31.375.719.459.41.084.683.113.273.03.876-.086.603-.117 1.606-.667 1.003-.55 1.74-1.276.737-.725.961-2.671-.44-.566-2.846.556-2.406 1.122-2.856 1.445"/><path opacity=".9" stroke-width="2.387" d="M679.722 370.271l-.478.458q-.069.049-.678.982-.608.934-.608 1.726-.001.792.086 1.014.087.222.225.396.138.174.308.382.17.209 1.374.607 1.204.397 2.596.145 1.393-.253 2.187-.693.795-.44 3.796-2.68"/><path opacity=".9" stroke-width=".794" d="M355.326 390.152q-.007.085-.271.718t-.342 1.061q-.078.428-.074.817l.006.44q.002.049.155.618t.333.828q.179.258.398.405.219.147.491.088.272-.058.424-.21.151-.151.712-.93.561-.78.753-1.454.192-.675.133-.963-.06-.288-.224-.511-.164-.222-.482-.255-.318-.033-.5.032-.181.065-.546.379-.366.315-.415.377-.049.062-.368.765"/><path opacity=".9" stroke-width=".786" d="M358.443 391.009l-.026.076q-.037.358-.085 1.493-.049 1.135.081 2.795.129 1.659.08 2.466-.048.806-.107 1.078-.058.272-.326.572-.269.299-.696.277-.428-.023-1.207-.427"/><path opacity=".9" stroke-width=".841" d="M361.451 393.32l.167.316q.054.003.176-.023t.145-.041q.024-.016.302-.037.279-.02.55-.123.271-.102.8-.549.53-.447.698-.782.168-.336.179-.646.01-.311-2.17-.689-.49 1.971-.444 2.46.046.489.133.718.088.229.287.54.199.312.29.464.091.153.207.244.117.091.297.111.179.02.256.012.076-.009.643-.292.566-.283 1.481-1.087"/><path opacity=".9" stroke-width="1.001" d="M369.11 394.874q.007-.176-.067-1.345-.074-1.168-.545-2.687-.471-1.518-.805-3.243-.333-1.725-.311-3.44l-.088-.393"/><path opacity=".9" stroke-width="1.11" d="M370.406 388.126l-.393-.02q-.472-.1-2.044.407-1.572.508-1.763.575"/><path opacity=".9" stroke-width=".958" d="M375.858 394.306q-.069.353-.103.389l-.07.405-.042.312q-.025-.074.003-1.375t-.001-2.168q-.03-.868-.154-1.597-.123-.73-.35-1.676-.227-.945-.361-2.154-.134-1.21-.169-1.585"/><path opacity=".9" stroke-width="1.447" d="M377.338 384.155q-.005-.055-.018-.137-.014-.081-.044-.164-.372-.193-1.845-.099-1.472.094-2.681.835t-1.617 1.046"/><path opacity=".9" stroke-width=".943" d="M380.376 393.655l.072.05q.029.022.538-.259t.823-.696q.313-.415.394-.705.08-.291.074-.53-.007-.24-.036-.415-.029-.175-.208-.318-.18-.143-.337-.163-.156-.021-.238-.024-.082-.003-.397.127-.316.131-.691.646-.376.516-.553 1.323-.176.806-.079 1.287.097.481.18.642.084.162.34.427.256.264.692.378.436.114 1.055.032.618-.082 1.054-.348.435-.266.819-.547"/><path opacity=".9" stroke-width=".884" d="M385.205 389.657q-.065.417-.066.439l-.023.643q-.022.621.23 1.705t.938 2.103l.085-.159q.039-.171.381-.951.343-.779.534-1.078.192-.299.339-.391.147-.091.273-.091.125-.001.224.065.1.065.835 2.293.102.064.414-.446.312-.511.744-1.213.432-.702.701-.93.269-.228.362-.269.093-.041.222-.043.129-.001.162.011t.148.12q.115.108.136.105.021-.002.27.495.248.497.365 1.15.116.652.467 1.555l.254.26"/><path opacity=".9" stroke-width=".883" d="M395.511 390.826q-.033.541-.029.799.003.257-.006.295-.008.038.052 1.417.06 1.38.368 7.772.107.135.206-.213l.185-.649"/><path opacity=".9" stroke-width=".971" d="M395.743 391.995q.035-.042.347-.222.312-.179.396-.22.085-.041.454-.248t.773-.348q.404-.141 1.117.174.714.315 1.208.948t.337 2.145q-.158.137-.878.341-.72.203-1.186.286"/><path opacity=".9" stroke-width=".492" d="M402.516 393.008q.509.014.529.004.02-.009.364-.07.343-.06 1.097-.505t1.028-.818q.274-.373.314-.674.039-.301-.012-.406-.051-.105-.158-.22-.106-.115-.153-.146-.047-.032-.339-.131-.292-.099-.727-.096-.435.003-.926.413-.491.409-.628 1.11-.137.7.066 1.408t.51 1.139q.307.431.782.663.475.232.973.267.499.035.713-.005.214-.039 1.06-.429"/><path opacity=".9" stroke-width="1.095" d="M410.695 394.021q.015-.096-.249-1.175-.263-1.078-.708-1.881-.446-.802-.659-1.022-.213-.219-.419-.33-.206-.111-.307-.104-.101.008-.464-.059"/><path opacity=".9" stroke-width=".896" d="M409.784 391.734q.317-.115.472-.204.154-.089 1.95-.396 1.797-.307 2.279-.336"/><path opacity=".9" stroke-width=".787" d="M416.563 389.996l-.144.158q-.217.424-.242.447-.026.022-.034 1.879.222.219 1.331.106 1.11-.114 1.856-.563.745-.449.891-.581.146-.132.233-.463.086-.331.014-.594-.073-.264-.351-.433-.277-.169-.858-.161-.581.009-1.151.388-.57.379-.952.697"/><path opacity=".9" stroke-width="1.205" d="M419.938 390.152q.408 1.974.972 2.823.564.848.764 1.097"/><path opacity=".9" stroke-width="1.286" d="M425.672 394.461l.044-.095q.064-.222-.138-2.265-.202-2.044-.539-3.722-.337-1.679-.479-2.518-.143-.84-.243-1.341l-.1.442"/><path opacity=".9" stroke-width=".455" d="M426.998 387.19h-4.572"/><path opacity=".9" stroke-width=".947" d="M429.565 390.698q-.185.151-.193.226-.008.074-.039.117-.032.042.145 1.938.07.11.69.101.62-.008 1.14-.342.519-.333.909-.87.389-.538.431-2.135-.18.1-.185.738-.004.637.16 1.351.165.714.503 1.245.339.531.555.76.216.228.439.401.222.172.229.188.007.016.668.189.034-.007.441-.455"/><path opacity=".9" stroke-width=".809" d="M438.001 394.044l.101-.107q.05-.137-.592-1.828t-1.41-2.701q-.768-1.011-.954-1.227"/><path opacity=".9" stroke-width="1.045" d="M436.754 390.876q.524-.081.757-.154.233-.072.316-.108.083-.035.998-.37.916-.335 2.002-.506 1.086-.17 1.459-.237"/><path opacity=".9" stroke-width=".896" d="M445.66 390.358q.111.09.187.158.325.02.88-.266.556-.287.782-.66.227-.373.255-.709.028-.337-.001-.416-.029-.08-.183-.17-.154-.09-.321-.127-.167-.037-.584.015-.417.052-1.171.524-.753.472-1.339 1.233-.585.76-.776 1.404-.192.645-.15 1.085.043.441.197.68.154.24.279.298.125.058.442.155.316.098 1.143.007t1.214-.162q.386-.072.791-.127.406-.055.766-.008.359.047.731.126"/><path opacity=".9" stroke-width=".906" d="M460.101 396.529q-.04.003-.137.077-.177-.023-.652-.358-.475-.335-1.09-1.4-.614-1.064-.848-2.593-.233-1.528-.197-2.612.037-1.083.258-1.792.221-.71.559-1.216.337-.505.627-.875"/><path opacity=".9" stroke-width="1.004" d="M466.263 395.619q.224-.158.779-1.625.554-1.468.539-2.848-.015-1.38-.312-2.551-.296-1.172-1.174-2.347-.879-1.175-2.29-2.406"/><path opacity=".9" stroke-width="1.253" d="M574.555 395.218q.108.032.705.144.596.111 1.345-.277.749-.389 1.012-.711.263-.322.399-.551.134-.228.28-.722.145-.493.128-.928-.016-.434-.112-.693-.096-.258-.562-.432-.465-.173-.959-.105-.493.067-.717.192-.223.125-.562.391-.338.266-.727 1.229-.389.962-.395 1.576-.006.614.125 1.057.132.442.586.788.455.346 1.704.512 1.25.166 2.117.369.867.202 1.293.343"/><path opacity=".9" stroke-width="1.151" d="M583.045 392.233q-.035.316-.05 1.394-.015 1.078.07 1.771.084.693.262 1.116.177.423.336.608.159.185.417-.716t.488-1.478q.231-.577.508-.87.277-.292.537-.285.26.006.342.039.082.033.713.474.631.441 1.045 1.44.413.999.589 1.55.175.551.419.76.244.209.425.377"/><path opacity=".9" stroke-width="1.099" d="M591.297 394.961l-.199-.164q-.239.109-.452.608-.212.499-.246.858-.033.359.014.534.048.175.047.193-.001.019.119.123.121.104.352.189.23.086.607.089.377.003.94-.233.564-.235 1.147-.79.583-.555.73-1.116.148-.562.085-.952-.063-.39-.482-.699-.419-.308-.635-.327-.216-.018-.586-.022-.369-.004-1.249.733-.88.738-1.255 1.21"/><path opacity=".9" stroke-width="1.086" d="M594.054 394.466q-.051.171-.096 1.838-.044 1.668.361 3.802.406 2.134-.032 5.492-.169.244-1.675.143-1.505-.1-2.011-.244"/><path opacity=".9" stroke-width=".851" d="M596.958 395.686q-.041.128-.014.484.027.357.194.666.166.308.453.499.288.191.602.217.314.025 1.256-.559.943-.584 1.438-1.184.496-.6.643-.904.148-.305.164-.561.016-.257-.077-.387t-.265-.205q-.172-.075-.814-.167-.642-.093-1.434.407-.792.5-1.156.864"/><path opacity=".9" stroke-width="1.199" d="M601.995 392.806q-.025.101-.052 1.01-.027.91.084 1.358.112.448.251.628.14.181.419.3.278.118.886.049.608-.069 1.737-.516"/><path opacity=".9" stroke-width=".738" d="M606.561 392.651q-.002.05-.204.676-.201.626-.122 1.278.08.651.53.806.45.155 1.35-.096.899-.251 1.498-.68.599-.429.771-.726.172-.296.192-.611.019-.315-.095-.56-.115-.245-.264-.384-.149-.139-.302-.229-.154-.089-.405-.146-.251-.057-.739-.081-.487-.023-1.37.608-.884.632-1.28 1.052"/><path opacity=".9" stroke-width=".766" d="M609.807 392.751l.227.166q.073.038.851 3.032.777 2.994 1.146 5.083.369 2.09.395 2.965.026.875-.102 1.612-.129.737-1.575.733-1.447-.004-1.773-.066"/><path opacity=".9" stroke-width="1.019" d="M614.3 394.232l.232-.11.462-.115q.253-.036 1.367-.403 1.113-.367 1.819-.847.705-.479.827-.798.121-.32.058-.55-.063-.23-.483-.38t-1.156.012q-.736.163-1.429.809-.693.647-.935 1.207-.242.56-.246 1.056-.004.495.348 1.199.352.704 1.316 1.009.965.305 1.977.179 1.013-.127 2.671-.915"/><path opacity=".9" stroke-width="1.192" d="M631.422 396.606l-.038-.058q-.162-.096-.816-.928-.653-.831-1.233-2.184-.579-1.352-.724-2.589-.145-1.238.027-1.926.171-.689.518-1.075.347-.385.626-.523"/><path opacity=".9" stroke-width="1.271" d="M637.754 395.96q.202-.141.547-1.242.345-1.102.442-1.767.097-.665.094-1.717-.004-1.052-.23-2t-.86-1.743q-.635-.795-1.174-.963"/><path opacity=".9" stroke-width="1.06" d="M573.803 420.474q-.009-.103-.004-.195.005-.091-.142-.181t-.208-.063q-.06.028-.064.01-.004-.018-.179.197t-.263.82q-.087.604.109 1.262t1.019.905q.823.247 1.46.119t.986-.345q.348-.217.685-.618.337-.4.502-1.117.165-.717.087-1.247-.078-.53-.457-.93-.379-.401-.983-.478-.605-.078-1.3.351-.695.428-1.089.786"/><path opacity=".9" stroke-width="1.24" d="M577.336 422.139q-.003-.51.014-1.168.017-.658-.007-4.516-.025-3.859-.165-5.491-.14-1.632-.178-1.855"/><path opacity=".9" stroke-width="1.195" d="M580.631 422.762q.057-1.558-.01-2.918-.068-1.361-.119-1.909"/><path opacity=".9" stroke-width=".799" d="M580.191 415.335q.114.11.173.191.058.081.371.588"/><path opacity=".9" stroke-width=".99" d="M587.404 417.857l-.025-.172q-.144-.396-.276-.598-.131-.203-.311-.326-.179-.124-.501-.178-.322-.053-.767.033-.444.087-.855.27-.41.184-.671.686-.261.503-.287.753-.025.25.049.509.075.259.254.589.18.33.413.6.232.27.514.482.282.213.528.394.245.182.548.42.302.239.492.508.19.27.217.495.028.225-.152.449-.181.224-.475.305-.294.082-.499.101-.205.019-.552.035-.347.017-1.629-.009"/><path opacity=".9" stroke-width="1.028" d="M589.988 420.984l.02-.032q.428-.356.461-.361.033-.006.261-.159.227-.153.652-.454.425-.301.702-.518.277-.218.486-.422.209-.204.34-.442.131-.239.194-.704.064-.465-.245-.624-.309-.16-.487-.176-.178-.016-.68.143-.501.16-.683.31-.181.15-.386.35-.205.2-.362.448-.156.247-.332.609-.177.361-.284.808-.108.447-.146.98-.038.533-.019.942.018.409.132.837.113.427.36.728t.345.373q.097.072.526.117.429.045.755-.008.325-.053.69-.189.365-.136.819-.369.454-.234.996-.565"/><path opacity=".9" stroke-width=".999" d="M596.873 417.914q.041.03.001.08-.004.03.056.231.06.2.015.534-.046.333-.099.746-.054.413-.07.915-.017.502.063 1.04t.239 1.114l-.248.656"/><path opacity=".9" stroke-width=".84" d="M596.83 421.176q-.001-.041.141-.267.142-.227.286-.448l.338-.514q.195-.295.433-.565.239-.271.522-.518.283-.247.61-.472.328-.225.7-.426.127.1.289.342.162.241.361.615.2.374.392.709.192.335.335.574.143.238.301.493.157.254.293.465.135.211.304.464.17.253.3.433"/><path opacity=".9" stroke-width="1.154" d="M603.125 416.913q.067.644.142 1.003.076.358.232.793.156.434.342.628.186.194.299.259.114.066.261.104.148.039.62-.026.472-.066.845-.453.374-.387.495-.906t.114-.903q-.008-.384-.115-.794-.107-.41-.235-.678-.128-.268-.275-.433-.146-.164-.339-.319-.193-.155-.495-.266-.303-.111-.744.098-.442.209-1.118 1.124"/><path opacity=".9" stroke-width="1.269" d="M606.536 416.658l.077.148q-.003.014.01.257.013.243.043.708.031.465.131 1.075.099.609.275 1.324.176.716.318 1.346.142.63.247 1.196.105.566.15 1.017.046.451.028.805-.017.354-.075.636-.057.281-.156.494-.098.213-.353.41-.255.197-.486.341-.23.143-.521.298-.291.156-.521.283-.23.127-.483.276-.254.149-.396.282-.143.133-.47.398"/><path opacity=".9" stroke-width="1.028" d="M609.573 420.819q.035.273.193.699.158.425.473.728.314.303.764.336.451.034.764-.058.314-.092.639-.301.325-.21.617-.509.292-.299.548-.693.255-.394.396-.729.141-.336.185-.74.044-.404-.112-.996t-.424-.85q-.269-.258-.774-.446t-.88-.191q-.375-.003-.78.137-.406.14-.681.448t-.364.882q-.089.575-.03 1.156.059.582.14.938"/><path opacity=".9" stroke-width="1.119" d="M614.557 418.476q-.097.099-.283.891-.185.793-.15 1.48.036.687.753 1.598.718.911 1.055 1.252"/><path opacity=".9" stroke-width=".881" d="M618.165 420.355q.006.015-.031.083-.037.067-.119.19-.082.123-.108.29-.027.167 0 .376t.075.378q.048.17.164.344.117.174.26.252.143.078.615.031.472-.048.865-.282.394-.234.861-.689.468-.455.729-.832.261-.377.355-.84.093-.463.052-.763-.042-.3-.134-.532-.092-.231-.331-.407-.24-.175-.656-.358-.415-.183-.821-.159-.406.023-.774.406t-.574.897q-.206.513-.295.905"/><path opacity=".9" stroke-width=".901" d="M621.8 418.842q-.01.053-.024-.223-.11.064.127 1.656.237 1.592.473 2.727.236 1.135.213 2.126-.024.99-.184 1.496t-.934 1.044q-.774.538-1.539.659-.765.121-1.194.198"/><path opacity=".9" stroke-width="1.022" d="M625.541 421.515q-.004.105-.011.134.138-.016 1.072-.583.935-.567 1.578-1.183.643-.616.81-1.057.166-.441.106-.801-.06-.359-.296-.52-.235-.162-.905-.099t-1.445.515q-.776.452-1.468 1.16t-1.099 1.735q-.408 1.028-.377 1.739.03.71.336 1.165.305.454.592.63.287.175.617.268.33.093.48.12.151.027.919-.028.769-.055 1.791-.494 1.021-.44 1.5-.73"/><path opacity=".9" stroke-width="1.541" d="M641.64 423.785q-.327-.152-.999-1.486-.671-1.335-.884-3.511-.212-2.177-.142-3.593.071-1.416.388-2.348.317-.931.47-1.185.153-.253.431-.52"/><path opacity=".9" stroke-width="1.304" d="M646.291 423.359q.025.004.429-.229.405-.233.636-2.362.232-2.129.127-3.775-.105-1.647-.6-3.456-.495-1.808-.908-2.606-.413-.798-.72-1.291"/><path opacity=".9" stroke-width="1.742" d="M378.12 488.806q-.03.021-.073.039-.101-.544-.103-.593-.001-.049-.08-.787-.079-.737-.198-1.822-.118-1.085-.226-2.033-.108-.949-.307-2.446-.199-1.496-.457-3.375-.257-1.879-.112-1.742.013.059.285.848"/><path opacity=".9" stroke-width="2.837" d="M381.861 473.338l-.091.048q-.325-.02-1.342.02-1.016.04-2.162.406-1.145.365-2.19.58-1.045.214-2.263.167-1.218-.048-1.766-.008-.548.039-.711.211-.163.173-.359.513"/><path opacity=".9" stroke-width="1.766" d="M385.547 474.401q-.023-.25-.239-.937-.02.06-.184 1.684-.164 1.624-.011 3.837.154 2.214.398 3.393.244 1.179.593 2.882t.493 2.941q-.022.08-.034-.221-.012-.301-.032-.522"/><path opacity=".9" stroke-width="2.063" d="M386.042 485.07q.358-.316.377-.377.277-.306 1.004-1.096.728-.791 1.266-1.19.538-.4.905-.514.367-.114.722-.048.356.067.705 1.593.35 1.526.453 2.459.102.933.35 1.482l.264.235"/><path opacity=".9" stroke-width="1.577" d="M394.215 484.345q.002-.002.157.404.068.075.422-.073.355-.147.829-.616.474-.468.646-.757.173-.288.263-.616.09-.328.053-.672-.037-.344-.101-.448-.065-.104-.433-.233-.369-.128-.805.022-.435.149-.934.851-.499.701-.65 1.675-.152.974-.076 1.576.076.602.364 1.289.289.687.661 1.159.372.471.523.562.151.091.403.157.253.067.403.057.151-.011.423-.121t.841-.452"/><path opacity=".9" stroke-width="2.424" d="M402.082 487.564l-.197-.486q-.145-.331-.796-2.019-.65-1.687-1.075-3.095.18-.078.326-.191"/><path opacity=".9" stroke-width="2.321" d="M400.86 484.267l.318-.105q.244-.234.862-.587.619-.354 1.57-.327.952.026 1.455.162"/><path opacity=".9" stroke-width="1.857" d="M408.91 481.022l-.008.385q-.108.243 1.142 6.541.067.029.17-.726.104-.754.363-1.789t.507-1.526q.248-.491.443-.69.195-.2.413-.251.218-.052.559.414.341.465.533.879.192.413.865 1.231.144-.016.181-.047.037-.031.738-.959.701-.929 1.192-1.522.49-.594.788-.803.298-.208.444-.231.146-.022.173-.016.026.006.229.139.202.132.476.75.273.617.394 1.114.122.496.213.82.091.324.089.342-.002.018.491.952.043.015.352.026"/><path opacity=".9" stroke-width="2.036" d="M422.799 483.098q-.068.34-.27 1.172-.201.832-.157 1.457.043.625.245.913.201.288.592.413.39.125.851.013.461-.112 1.083-.63.621-.517.927-.975.306-.458.377-1.06.072-.603-.119-.952t-.782-.528q-.591-.18-1.594.5-1.003.68-1.416 1.08"/><path opacity=".9" stroke-width="2.101" d="M430.715 482.136q-.031.055-.19.166-.027.016.278 5.35.068.067.21-.869.141-.936.445-1.78.304-.844.587-1.232.283-.387.538-.529.256-.141.442-.149.185-.007.35.091.165.099.215.12.05.022 1.057 2.499.034.058.386-.763.352-.82.766-1.484.415-.664.627-.791.213-.128.481-.149.268-.021.733.553.465.573.664 1.063.199.491.276.762.077.27.138.461.061.19.174.47l.203.493"/><path opacity=".9" stroke-width="1.98" d="M451.944 485.51q.002-.256-.125-2.004-.126-1.749-.735-4.918t-.881-4.523q-.271-1.354-.362-1.818"/><path opacity=".9" stroke-width="2.097" d="M453.35 475.387q-.074-.001-.476-.021-.401-.021-2.389.336-1.987.356-3.079.75-1.093.395-1.275.494"/><path opacity=".9" stroke-width="1.794" d="M455.942 481.929l.199.056q.781-.009 1.417-.162.637-.153 1.082-.384.445-.231.631-.4t.231-.246q.045-.076.084-.204.039-.128.042-.351.003-.223.007-.319.004-.097-.268-.55-.273-.452-.927-.681-.654-.229-1.452-.063-.798.166-1.38.994-.581.827-.685 1.705-.104.878.182 1.692t.641 1.309q.355.495 1.051.881t1.809.319q1.113-.066 1.929-.377.817-.311 1.019-.39"/><path opacity=".9" stroke-width="2.018" d="M466.456 485.12q.03-.159-.525-1.593-.556-1.433-1.121-2.388-.565-.954-1.6-1.883"/><path opacity=".9" stroke-width="1.995" d="M463.785 482.447q.15.011 1.151-.567 1.002-.578 1.846-1.1.843-.522 1.735-.825.892-.303 1.489-.187.596.117 1.071.291"/><path opacity=".9" stroke-width="2.318" d="M385.938 510.147q-.009-.037.078.458.008-.252.018-2.037.011-1.785-.808-11.951.024.218.071.391l.146.546"/><path opacity=".9" stroke-width="2.867" d="M391.727 499.97l.358-2.784q-.142-.239-.321.115-.179.355-.676 2.084-.248.865-.401 1.626-.153.761-.241 1.746-.088.986-.085 1.908.003.922-.004 1.588-.006.667-.016 1.367-.009.7.198 1.845.207 1.145.805 1.955.597.81 1.348 1.124.752.315 1.25.377.499.062 1.666-.141 1.167-.202 2.017-1.117.85-.914.971-2.003.121-1.088.223-2.428.103-1.34.094-3.089-.009-1.749-.214-2.087-.205-.337-.306-.743.177-1.348-.118-2.095-.295-.747-.425-.88-.129-.133-.477-.223t-1.316-.103q-.968-.012-1.54.051-.572.063-.935.249-.364.186-1.712 2.599"/><path opacity=".9" stroke-width="2.058" d="M412.181 502.826q.189-.048.264-.115.075-.068.074-.065-.002.004.032-.509l-.25-.08q-.004-.071-.975.235t-1.81 1.102q-.839.795-1.095 1.981-.255 1.185-.148 2.002.107.816.459 1.452.351.636.92.983.569.347 2.315.316 1.746-.031 1.925-.036"/><path opacity=".9" stroke-width="1.71" d="M415.891 496.1q-.008.161.066 3.078.074 2.916 1.892 12.304.044-.016.012-1.29-.031-1.274-.003-2.204.029-.931.15-1.232.12-.301.222-.406.101-.105.147-.131.046-.025.143-.05.096-.025.26-.058.164-.032.897.371.734.403 2.369 3.101l.361.276"/><path opacity=".9" stroke-width="1.906" d="M425.054 505.783q.007.052-.069.411-.076.36-.173 1.128-.098.768-.037 1.191.061.423.271.781.209.358.797.498.587.139 1.355-.215.768-.355 1.122-.78.355-.424.567-.834.211-.409.257-.966.045-.558-.065-.782-.11-.225-.407-.381-.296-.156-.81-.163-.514-.007-1.069.327-.555.334-1.323 1.293"/><path opacity=".9" stroke-width="2.473" d="M429.076 505.109q-.018.058.06.993.078.935.313 1.742.234.807.902 1.491.668.685 1.06 1.019"/><path opacity=".9" stroke-width="1.574" d="M434.217 504.618q.008.381.05 1.919.042 1.537.697 2.943.259-.194.446-.883.188-.689.635-1.653.447-.963.783-1.374.335-.41.54-.529.205-.118.353-.101.149.017.273.066.123.049.514 1.191.39 1.142.564 2.328.174 1.187.302 1.743t.449 1.278"/><path opacity=".9" stroke-width="1.653" d="M442.708 504.669q.041-.116-.338-.895l-.023.003-.025.146q-.055.035.122 1.756.178 1.721.342 2.721.165.999.227 1.331.062.331.218.637.157.306.191.393.034.087.098.266.044-.102.054-1.567.01-1.465.089-2.575.079-1.111.292-1.552.213-.441.419-.622t.493-.171q.287.009.358.041.071.031.381.924.31.892.482 1.478.172.587.442 1.127.27.539.566 1.172.297.632.49 1.668"/><path opacity=".9" stroke-width="1.784" d="M449.634 507.342q.099.087.304.203.206.115.226.109.021-.007.185.041.165.049.538-.016.374-.065.634-.209.26-.145.403-.279.144-.134.469-.533.324-.4.589-1.251.264-.85.212-1.279-.053-.429-.164-.611-.11-.182-.536-.253-.426-.072-1.057.293-.632.365-1.234 1.335-.601.97-.744 1.924-.143.955.007 1.645.151.689.689 1.258.537.568 1.608.86 1.071.292 2.198-.261 1.128-.553 1.596-.872"/><path opacity=".9" stroke-width="1.785" d="M460.203 510.12q-.05-.083-.263-1.794-.214-1.71-.758-5.099-.545-3.389-.96-4.986-.416-1.596-.562-2.086"/><path opacity=".9" stroke-width="2.106" d="M616.898 488.803q-.002-.201-.103-.78-.1-.579-.119-.918l-.037-.66q-.019-.321-.028-1.131-.009-.81-1.09-10.127l.031-.008.035.079q.081.137.198.227"/><path opacity=".9" stroke-width="2.647" d="M623.414 473.303q-.057.01-.853-.092-.796-.103-2.139.253-1.344.355-2.213.674-.87.318-1.336.389-.465.07-.984.156"/><path opacity=".9" stroke-width="1.82" d="M620.174 481.844q-1.117.013-1.975.25-.858.237-1.326.424"/><path opacity=".9" stroke-width="1.854" d="M623.182 484.182v-.061q.014.012.033.795.019.782.292 1.694.274.912.512 1.268.239.357.539.55.3.192.527.203.227.01.616-.131.388-.142 1.008-.957.62-.814 1.095-2.083.474-1.268.56-1.878.085-.61.085-.626l.04.453q.042.47.075.891.034.421.255 1.338.221.916.516 1.443.296.527.492.677.196.151.543.394"/><path opacity=".9" stroke-width="1.97" d="M634.191 488.308q-.043-.09-.218-.381-.175-.292-.269-.566-.093-.275-.156-.631-.064-.356-.174-.72-.11-.364-.282-.734-.172-.371-.398-.749-.226-.378-.493-.765-.266-.386-.45-.691-.184-.305-.353-.637l-.221-.434"/><path opacity=".9" stroke-width="2.397" d="M632.748 483.295q.251-.592.338-.746.087-.153.26-.366.173-.212.482-.454.309-.241.64-.331.331-.089.668-.099.336-.01.595.062.259.072.524.267.264.195.824.724"/><path opacity=".9" stroke-width="1.855" d="M641.155 481.723l-.013.26q-.021.131-.02.388.002.257.008.484.007.228.019.514.012.286.072.615.061.33.168.707.108.377.264.808.156.432.36.919.009.005.037-.229.028-.234.074-.7.047-.465.109-.881.061-.415.138-.784.076-.368.221-.751.145-.383.359-.777.214-.395.402-.62.188-.225.432-.325t.587.001q.343.101.596.412.253.311.276.327.023.016.208.441.185.426.352.885.167.46.377 1.139t.477 1.332q.267.652.591 1.258l.311.282"/><path opacity=".9" stroke-width="1.833" d="M650.231 483.196q-.074.166-.172.934-.097.769.008 1.293.106.524.345.804.24.279.664.457.423.178 1.362-.243.938-.421 1.46-1.018t.627-.895q.105-.297.121-.591t-.202-.599q-.218-.305-.472-.437-.253-.132-.576-.204-.323-.073-.647-.114-.325-.04-1.139.193-.815.234-1.33.498"/><path opacity=".9" stroke-width="2.549" d="M654.357 482.495q.026.481.919 2.453.893 1.973 1.135 2.374"/><path opacity=".9" stroke-width="2.028" d="M662.481 482.206l.022-.113q.015-.126-.054-.364t-.178-.37q-.108-.131-.732-.276-.624-.145-1.242.02-.618.165-.904.35-.285.186-.575.664-.291.479-.291 1.035 0 .556.189 1.014.189.458.786 1.219.597.761 1.095 1.089.498.328.996.479.499.15 1.042.099.543-.052 1.588-.715"/><path opacity=".9" stroke-width="1.689" d="M669.828 482.495l.009.049.081.125q.172.123.196.115.276.121 1.223-.285.947-.406 1.719-1.113.771-.708.989-1.224.217-.516.167-.774-.051-.258-.102-.309-.051-.05-.575-.141-.524-.092-1.62.54-1.096.631-1.894 1.551-.799.92-1.127 1.773-.328.854-.352 1.284-.024.431.012.711.036.28.198.632t1.551.681q1.388.329 2.462.142 1.075-.186 1.63-.333"/><path opacity=".9" stroke-width="1.836" d="M605.974 511.772l.033-.058q.047-.052.149-2.562.102-2.509.146-4.845t-.164-4.285q-.208-1.949-.399-2.741-.19-.791-.316-1.432-.126-.641-.053-1.188.072-.547.109-.719"/><path opacity=".9" stroke-width="2.337" d="M610.981 500.847q-.016-.317-.303-1.198-.179.014-.548 1.088-.369 1.074-.439 1.97-.069.897.026 1.888.095.991.463 2.174.369 1.184.806 1.927.437.744.777 1.082.34.337.492.432.152.095.365.222.212.128 1.086.38.874.252 1.398.227.524-.025 1.299-.649.775-.623 1.29-1.5.514-.878.836-1.826.322-.949.538-2.911.216-1.962.183-2.999-.033-1.038-.297-1.806-.263-.769-.761-1.278-.498-.508-.735-.629-.236-.121-.716-.29-.48-.168-1.744-.283-1.264-.114-1.902-.051-.637.063-1.109.253t-1.678 1.31"/><path opacity=".9" stroke-width="1.572" d="M634.927 504.633q-.034-.064-.046-.083l-.138-.227-.372-.611q-.245-.403-.492-.611-.248-.208-.623-.228-.375-.019-.713.121-.337.14-.633.476-.296.335-.505.999-.105.331-.168.765-.064.434-.086.972-.022.539-.014 1.014.008.474.048 1.058.039.584.102 1.042.064.457.169.989.106.532.284.805.177.273.474.306.296.033.641.026.346-.007.839-.04t.879-.076q.387-.043.801-.063.414-.021.533-.189.118-.168.399-.611.281-.444.501-1.166"/><path opacity=".9" stroke-width="1.633" d="M639.904 501.557q-.028-.004-.203-.057-.174-.054-.41-.448t-.375-.848q-.138-.455-.258-1.033-.119-.579-.194-.909-.076-.33-.209-.514l-.031-.001q-.072.1-.058.805.013.706.113 2.018.05.656.124 1.297.074.64.171 1.266.098.626.219 1.236t.267 1.207q.145.596.299 1.171.155.575.283 1.128.127.554.215.951.089.398.18.823.092.424.184.766t.184.6q.196-.168.204-.182.008-.014.091-.393.082-.379.24-1.205.157-.826.318-1.353.161-.528.403-1.05.242-.521.516-.8.273-.279.457-.355.184-.077.463-.063.278.014.431.144.152.131.235.25.083.119.194.384.111.266.277.717.332.902.406 1.172.074.269.247.75.174.48.411.726l.336.199"/><path opacity=".9" stroke-width="1.713" d="M647.557 506.468q-.268.459-.324.968-.056.509.1 1.068.155.56.383 1.052t.527.918q.305.303.546.419.242.117.47-.129.228-.245.523-.813.296-.568.502-1 .206-.432.383-.885.176-.452.211-.71.035-.259.021-.465-.014-.206-.138-.487-.124-.281-.407-.799-.282-.517-.622-.794-.341-.277-.604-.071-.264.206-.708.56-.444.354-.754.281"/><path opacity=".9" stroke-width="2.686" d="M651.4 504.923q-.105.58-.191 1.303-.086.724-.063 1.334.023.611.124.995.101.385.306.808.205.423.35.612.144.189.719.632"/><path opacity=".9" stroke-width="1.876" d="M655.916 504.221l-.004.641q-.006 1.113.065 2.021.072.908.283 1.793.212.885.462 1.711.249.827.344 1.061.095.235.135-1.095.04-1.329.081-2.281.041-.952.361-1.792.319-.84.654-1.152.336-.311.724-.391.388-.079.551-.055.162.023.279.074.117.051.19.081.073.029.557.626.485.596.888 1.806.403 1.211.613 1.807.211.597.488.866.023.051.493-.064"/><path opacity=".9" stroke-width="1.614" d="M664.727 503.315q.15.304.205.39.054.086.137.456.083.371.093.597l.022.543.034.797q.021.481.108.917l.162.82.17.86q.093.477.186.9.094.423.232.98.138.557.35.743.024-.056.068-.438.044-.383.032-.461"/><path opacity=".9" stroke-width="2.306" d="M665.066 507.968q.319-.842.602-1.485.284-.643.536-1.135.252-.492.535-.731.283-.24.765-.312.483-.072.951.079.468.15.765.432.297.281.476.54.178.26.493.757.314.497.504.888.19.392.383.769.194.376.46.863.267.488.47.811.203.324.401.577.199.253.484.559"/><path opacity=".9" stroke-width="1.631" d="M675.874 507.206l.546-.236q.222-.125.594-.408t.768-.859q.397-.576.279-1.074.008-.028-.427-.102t-1.1.273q-.666.348-1.019.776-.354.427-.518.993-.165.566-.152.937.014.37.303.888.29.518 2.099.72 1.809.202 2.922.06 1.113-.142 1.628-.231"/><path opacity=".9" stroke-width="2.113" d="M387.291 511.677q-.012-.003-.015-.013-.041.035-.102.061-.061.025-.065.022-.004-.003-.166.018l-.276.036q-.113.014-.26.049-.147.035-.214.043-.067.008-.182.006l-.125-.002-.202-.003q-.193-.002-.527-.046-.335-.045-.368-.065-.032-.019-.376-.247"/><path opacity=".9" stroke-width="1.928" d="M387.043 495.96q.012-.002-.023-.203.011-.012-.501.005-.513.018-.92.08l-.521.08q-.114.017-.223.053-.109.037-.195.05-.086.013-.203.021-.116.008-.35-.004-.233-.011-.423-.029"/><path opacity=".9" stroke-width="1.422" d="M441.677 483.996q.09-.033.419-.023.329.011.801-.109.472-.12.781-.273.308-.152.614-.453.306-.3.404-.691.099-.392.082-.551-.016-.159-.044-.262-.028-.103-.242-.271-.213-.169-.519-.254-.306-.084-.595-.066-.288.018-.426.089-.138.072-.156.096-.019.024-.33.378-.311.355-.511.732t-.32.751q-.12.374-.194.64-.073.265-.105.415-.033.149-.078.507-.046.358-.022.65.023.291.103.526.079.234.266.438.188.203.347.278.159.075.24.097l.136.036q.056.015.419.017.363.001.647-.052.283-.053.398-.081.114-.027.238-.066.125-.039.452-.168.328-.128.631-.25.304-.122.495-.269.191-.147.24-.222l.078-.125q.03-.049.142-.403.111-.354.262-.452.15-.098.159-.089"/><path opacity=".9" stroke-width="1.85" d="M607.467 512.401l-.044.043-.027-.01-.64.025q-.252.023-.713.043-.462.02-.648.062-.186.043-.956.455l-.236-.139"/><path opacity=".9" stroke-width="2.148" d="M607.502 493.051l-.036-.056-.016-.023q-.348-.065-1.078-.037-.73.027-1.458.225-.727.198-1.047.357l-.584.289"/><path opacity=".9" stroke-width="1.584" d="M684.313 496.863q.008.014-.039.017-.048.003-.06.014l-.041.213q-.044.066.363 3.475.407 3.41 1.127 8.82.021-.015.051-.183.03-.169.06-.295"/></g></svg>
