<svg xmlns="http://www.w3.org/2000/svg" viewBox="340.531 247.827 395.154 284.197"><g stroke="#000"><path opacity=".9" fill="none" stroke-width="1.518" stroke-linecap="round" stroke-linejoin="round" d="M457.742 294.577q-.031-1.48-.187-7.838-.156-6.358-.3-12.625-.143-6.268-.2-7.853-.058-1.584-.106-3.107-.049-1.523-.045-1.587.003-.064-.025-1.594-.028-1.531-.025-1.616.003-.085-.06-3.086l-.051-1.594"/><path opacity=".9" fill="none" stroke-width="2.467" stroke-linecap="round" stroke-linejoin="round" d="M456.876 254.113l1.468-.024.682.008q5.558-.016 8.362-.032 2.803-.016 6.432-.058 3.629-.041 6.784-.06 3.154-.018 9.113-.021 5.96-.002 13.712.005l13.391.012 10.149.007 6.622.003 5.228.002q3.118.001 8.642.01 5.525.01 9.175.022 3.65.012 9.383.047 5.733.036 8.669.064l4.696.045q1.761.017 3.43.025l2.866.015q1.196.006 1.622.011l1.6.017q1.174.011 4.1.056 2.926.044 3.268.046.342.001 1.492-.001 1.149-.002 2.525.005 1.377.008 2.318.02.198.007 1.198.004 1.001-.002 1.486.007.486.008 1.592.017 1.106.007 1.572.013.466.006 1.571.016l1.39.012 1.483.022q1.198.018 1.54.027.342.009 1.453.012 1.111.002 3.055.036"/><path opacity=".9" fill="none" stroke-width="1.757" stroke-linecap="round" stroke-linejoin="round" d="M618.426 255.412l-.077 1.024q-.132 1.997-.196 6.8t-.14 7.278q-.076 2.475-.157 4.853-.081 2.377-.128 3.658-.047 1.281-.114 4.8t-.079 4.743q-.013 1.224-.037 2.455l-.024 1.244-.042 1.034q-.041 1.022-.075 1.068l-.063.987"/><path opacity=".9" fill="none" stroke-width="1.863" stroke-linecap="round" stroke-linejoin="round" d="M618.252 294.363q-1.654.019-2.757.03-1.104.011-2.749.015-1.646.004-4.639-.01-2.993-.014-6.243-.021-3.25-.007-5.114-.006-1.864.001-3.314.004-1.449.002-2.975.007-1.525.004-8.837.017l-10.747.019q-3.435.006-9.595.005-6.16-.002-10.164-.005l-8.657-.004q-4.651-.001-9.466.002-4.814.003-7.986.008l-7.689.014q-4.517.01-7.816.021-3.3.01-8.775.031-5.475.021-7.464.031l-4.78.021q-2.79.012-4.142.021-1.353.009-1.694.009h-4.445l-2.815.003q-1.603.001-1.797.003-.194.003-.505-.002-.311-.004-1.523-.013t-1.415-.015q-.202-.006-1.621-.015-1.418-.009-2.699-.008-1.282 0-1.593-.011-.312-.01-1.504-.01t-1.647.003l-4.342.024"/><path opacity=".9" fill="none" stroke-width="1.791" stroke-linecap="round" stroke-linejoin="round" d="M346.73 405.925q.016-1.296.029-1.328.012-.032.022-.049.011-.017.055-2.808t.174-7.163q.13-4.372.169-5.977.039-1.604.078-4.525.039-2.922.08-5.804.041-2.881.068-4.343.028-1.461.066-2.908.039-1.447.087-2.933.048-1.486.09-2.949.042-1.463.07-2.91l.056-2.912q.029-1.464.066-4.2l.062-1.38"/><path opacity=".9" fill="none" stroke-width="1.988" stroke-linecap="round" stroke-linejoin="round" d="M348.463 353.522q1.238-.005 3.259-.03 2.021-.025 3.525-.037 1.505-.013 4.101-.047 2.595-.035 4.238-.065 1.643-.031 4.814-.066 3.17-.035 9.821-.09 6.651-.054 12.297-.087l9.035-.051 6.211-.036q2.822-.016 6.213-.043l5.262-.042q1.872-.015 7.703-.025 5.832-.011 8.884-.008 3.052.003 7.491-.011l6.336-.02q1.897-.006 3.673-.004t3.245.001q1.47 0 4.128.005 2.659.005 5.75.018 3.092.012 4.641.012 1.55 0 3.41.016 1.86.015 4.477.033 2.617.017 3.156.027.54.01 2.051.014l2.75.006q1.239.003 3.023.025 1.783.022 2.973.022 1.19-.001 1.734.001l1.986.004 3.72.008q.486.011 6.099.028.421.018 1.809.028l3.133.024"/><path opacity=".9" fill="none" stroke-width="1.539" stroke-linecap="round" stroke-linejoin="round" d="M509.065 350.923q.018 1.404.063 4.448.045 3.044.107 7.636.061 4.592.073 6.191.011 1.6.027 3.108.015 1.508.053 4.616l.057 4.719.056 4.625.074 6.133.056 4.578q.019 1.461.049 2.969.03 1.509.078 6.109"/><path opacity=".9" fill="none" stroke-width="1.586" stroke-linecap="round" stroke-linejoin="round" d="M511.877 405.665q-1.173.004-2.787.035-1.613.032-5.054.104l-5.233.11q-1.792.038-3.356.069-1.565.03-4.448.078-2.883.048-7.427.115l-7.951.12q-3.406.052-5.259.085-1.852.032-7.968.096-6.116.063-9.806.097-3.69.035-6.348.052-2.658.017-5.701.03-3.044.012-4.871.023-1.828.01-4.879.036-3.052.026-4.979.038-1.928.013-4.955.012l-6.084-.004-5.164-.008-3.556-.006q-1.448-.002-4.413-.011-2.965-.009-6.119-.021l-4.827-.018q-1.674-.008-7.682-.043-6.009-.036-8.205-.066-2.195-.03-4.958-.047l-4.146-.023q-1.384-.008-1.86-.028-.475-.019-1.83-.029-1.356-.01-1.589-.015-.234-.005-1.779-.022-1.545-.016-2.872-.019-1.328-.003-1.664-.018-.337-.015-2.716-.025-.498-.021-.646-.023l-1.363-.012q-1.215-.012-1.52-.021-.306-.01-1.692-.03"/><path opacity=".9" fill="none" stroke-width="1.553" stroke-linecap="round" stroke-linejoin="round" d="M566.706 432.279q-.017-1.332-.042-3.022-.024-1.689-.064-4.775-.04-3.086-.139-9.338-.098-6.252-.183-10.959-.084-4.706-.203-11.076-.118-6.369-.199-10.946-.08-4.577-.112-6.181l-.037-1.754q-.004-.151-.102-6.378-.099-6.227-.214-13.938"/><path opacity=".9" fill="none" stroke-width="2.412" stroke-linecap="round" stroke-linejoin="round" d="M565.544 354.126q1.701-.006 3.13.011l2.772.031q1.343.015 1.866.01.524-.005 3.424.004l4.608.014q1.709.005 4.799.029 3.091.025 4.664.031l4.756.018q3.182.013 5.853.034l4.569.035q1.898.015 4.744.044 2.846.028 6.094.064l4.902.054 6.012.068q4.36.05 8.906.108 4.547.057 12.526.164 7.979.106 14.214.199 6.236.093 9.114.139 2.878.047 4.736.079l4.667.083q2.81.05 6.123.112 3.313.061 6.008.108 2.696.046 3.164.062.468.015 1.809.029 1.34.014 2.498.029 1.159.016 1.668.027.509.01 1.688.037 1.179.027 1.58.044.4.017 1.363.032t1.387.02q.423.006 1.545.026 1.122.019 1.529.039.406.021 1.496.034 1.091.012 1.498.029.408.017 1.859.043 1.452.027 2.893.07 1.442.044 1.691.049.249.005 4.477.108"/><path opacity=".9" fill="none" stroke-width="1.59" stroke-linecap="round" stroke-linejoin="round" d="M726.349 353.996l.073 1.341q.007.1.203 9.397t.32 15.47q.124 6.173.324 13.772.199 7.598.236 9.336.038 1.737.121 6.118l.114 6.058q.03 1.678.06 3.136.029 1.459.023 1.618-.007.159.016 1.625.022 1.465.048 3.008.026 1.542.056 2.979.03 1.438.03 1.587 0 .149.048 1.573.048 1.425.047 1.46-.001.036.065 1.494"/><path opacity=".9" fill="none" stroke-width="1.949" stroke-linecap="round" stroke-linejoin="round" d="M729.56 432.891q-1.687.03-3.435.057-1.749.027-4.991.063l-7.572.083q-4.329.048-6.382.081l-5.035.079q-2.984.045-5.879.084-2.895.038-4.744.06-1.849.021-5 .05l-6.182.057q-3.031.028-6.191.062-3.16.035-7.949.096t-8.182.096l-5.165.051-6.345.055-10.715.087q-6.142.048-8.323.063-2.18.014-5.36.037t-4.46.03l-9.489.051q-8.209.045-12.89.081l-7.46.058q-2.78.021-3.211.022l-3.084.009q-2.652.007-4.208.009-1.556.002-1.971.005-.415.002-3.127.001-.625.012-3.072.033l-1.953.007"/><path opacity=".9" fill="none" stroke-width="1.378" stroke-linecap="round" stroke-linejoin="round" d="M348.901 520.567l-.017-1.321q-.048-2.564-.103-6.923l-.09-7.205q-.037-2.846-.072-7.058l-.057-6.961q-.023-2.749-.033-4.222-.01-1.473-.047-4.297t-.053-4.289q-.015-1.466-.047-4.216-.031-2.751-.054-4.139-.023-1.389-.039-2.786-.015-1.398-.04-2.715"/><path opacity=".9" fill="none" stroke-width="2.044" stroke-linecap="round" stroke-linejoin="round" d="M347.556 464.954l1.713-.009q.108-.004 1.857-.007 1.748-.002 3.046-.001l2.664.001q1.365-.001 3.03-.02 1.666-.02 2.143-.034.478-.015 3.616-.026 3.139-.01 7.616-.027 4.478-.017 7.278-.02l7.927-.01 8.289-.011q3.162-.003 6.191-.013 3.03-.009 7.971-.016 4.942-.007 7.888-.007l4.671.001q1.724.001 6.479.013 4.755.011 8.051.013l7.823.001q4.528 0 7.619-.008 3.092-.009 6.382-.01 3.291-.001 8.059.006 4.767.007 6.704.013l3.526.012q1.59.006 4.129.01 2.539.003 4.13.001 1.591-.003 2.047 0l1.964.014q1.509.011 4.635.013l3.4.002 1.46.003q1.185.002 2.502.019 1.318.016 2.996.022 1.679.006 3.743.03"/><path opacity=".9" fill="none" stroke-width="1.51" stroke-linecap="round" stroke-linejoin="round" d="M508.891 462.356q.025 1.341.075 4.383.051 3.043.113 6.141l.124 6.145q.062 3.047.082 4.651.02 1.605.063 4.69.042 3.084.087 6.191.045 3.106.128 9.132.084 6.026.126 7.717.043 1.691.073 3.173t.055 3.014q.025 1.531.081 4.483l.033 1.518"/><path opacity=".9" fill="none" stroke-width="1.868" stroke-linecap="round" stroke-linejoin="round" d="M510.277 524.198l-1.089.024q-.311.012-2.124.048-1.814.036-4.781.079-2.967.043-4.451.062-1.485.018-3.298.047t-6.128.123q-4.315.095-6.333.145-2.018.05-3.504.079-1.486.029-6.215.106-4.73.076-9.42.157-4.69.08-10.554.174-5.864.095-9.177.147-3.313.051-9.815.132-6.502.081-11.072.132l-12.107.14q-7.538.088-13.701.152-6.163.065-8.002.076l-4.849.031q-3.01.019-4.702.032-1.692.013-3.324.034l-1.798.024-3.027.037q-2.862.034-4.191.047-1.329.014-2.972.02-1.642.007-2.055.006-.412-.002-1.61.001-1.197.002-3.68.011-.522.011-.793.006-.27-.005-1.642.006-1.372.012-6.002.047"/><path opacity=".9" fill="none" stroke-width="1.475" stroke-linecap="round" stroke-linejoin="round" d="M568.397 524.718q-.05-1.349-.205-4.348-.154-2.999-.337-6.192-.182-3.193-.371-6.184-.188-2.991-.334-6.075-.147-3.084-.335-7.645-.188-4.562-.356-7.594-.168-3.033-.268-4.554-.099-1.521-.191-3.039-.092-1.518-.255-4.543-.164-3.026-.24-4.525-.076-1.5-.134-3.032"/><path opacity=".9" fill="none" stroke-width="1.479" stroke-linecap="round" stroke-linejoin="round" d="M564.372 467.507q1.274-.044 4.671-.155 3.397-.111 6.076-.196 2.68-.085 4.436-.148 1.756-.064 3.806-.13t6.509-.182l7.792-.202q3.333-.086 9.164-.219 5.831-.133 8.717-.206l6.565-.162q3.679-.09 7.834-.177 4.154-.087 7.397-.163 3.242-.076 11.442-.23 8.199-.154 12.885-.225l8.828-.132q4.143-.061 6.012-.087 1.869-.026 4.566-.058 2.696-.032 4.887-.035 2.192-.002 3.702-.01 1.51-.008 5.59-.041 4.081-.033 6.048-.038 1.967-.005 3.368-.014l2.666-.018q1.264-.009 1.724.001.46.009 1.586-.008 1.125-.016 1.574-.016.448.001 1.639-.018 1.19-.019 1.694-.021.505-.002 3.049-.032 2.544-.031 2.597-.029.053.003.554.007t4.599-.037"/><path opacity=".9" fill="none" stroke-width="1.708" stroke-linecap="round" stroke-linejoin="round" d="M726.655 463.097l.105 2.989q.058 1.606.12 4.613.062 3.008.18 9.252.117 6.244.173 9.398.056 3.154.101 6.255.046 3.101.105 6.18l.088 4.622q.03 1.543.054 3.109.025 1.565.057 3.147.033 1.582.063 3.175.03 1.594.104 4.685l.096 3.091.059 1.456"/><path opacity=".9" fill="none" stroke-width="1.82" stroke-linecap="round" stroke-linejoin="round" d="M728.52 524.458q-1.122-.001-2.563-.012-1.442-.011-1.525-.016-.084-.004-3.145-.022-3.062-.018-4.813-.03-1.751-.013-3.507-.036l-3.454-.043q-1.697-.02-3.357-.033-1.659-.014-4.282-.022-2.624-.009-4.797-.035-2.173-.027-9.621-.076l-10.639-.072-4.978-.035q-1.787-.011-6.512-.017-4.725-.007-9.129.009-4.404.015-8.986.052-4.581.037-9.603.087-5.021.049-8.054.081-3.034.031-4.681.05-1.648.019-6.377.08t-8.134.122q-3.405.061-6.291.103-2.887.043-5.935.093-3.048.05-4.855.088-1.807.038-4.436.08-2.629.041-4.376.076-1.747.035-3.576.074-1.829.038-3.079.058-1.251.019-2.589.042-1.339.023-1.763.041-.425.019-1.656.038l-3.236.054"/><path opacity=".9" fill="none" stroke-width="1.461" stroke-linecap="round" stroke-linejoin="round" d="M428.657 462.921q-.043-1.358-.215-6.088-.173-4.731-.337-9.276-.164-4.545-.225-6.091-.061-1.546-.207-4.612-.145-3.066-.214-4.719-.07-1.654-.122-3.188l-.105-3.093q-.053-1.559-.171-4.562-.118-3.004-.238-6.183.005-.011-.154-4.552"/><path opacity=".9" fill="none" stroke-width="1.518" stroke-linecap="round" stroke-linejoin="round" d="M427.576 408.654q-.43 1.334-.959 2.805-.529 1.47-1.088 2.927-.558 1.458-2.192 5.862"/><path opacity=".9" fill="none" stroke-width="1.834" stroke-linecap="round" stroke-linejoin="round" d="M431.388 415.968q-.563-.717-4.372-5.801"/><path opacity=".9" fill="none" stroke-width="1.455" stroke-linecap="round" stroke-linejoin="round" d="M648.245 462.967q-.064-1.18-.319-6.932-.254-5.753-.626-14.343-.022-.065-.227-4.131"/><path opacity=".9" fill="none" stroke-width="1.69" stroke-linecap="round" stroke-linejoin="round" d="M647.552 434.618q-.305.918-.805 2.115-.501 1.197-1.792 4.788-1.292 3.59-1.734 4.654"/><path opacity=".9" fill="none" stroke-width="2.144" stroke-linecap="round" stroke-linejoin="round" d="M652.219 443.186q-.663-1.003-2.333-3.215-1.669-2.212-3.893-5.567"/><path opacity=".9" fill="none" stroke-width="1.858" stroke-linecap="round" stroke-linejoin="round" d="M427.016 348.844l.056-1.15q.003-.107-.017-4.287-.019-4.181-.038-6.975l-.028-4.106q-.008-1.312.068-2.521"/><path opacity=".9" fill="none" stroke-width="2.183" stroke-linecap="round" stroke-linejoin="round" d="M426.751 327.94q1.24-.004 1.661-.014.42-.011 2.788-.038 2.368-.028 2.977-.033.609-.005 2.198-.03 1.588-.025 4.199-.069 2.612-.044 5.96-.083 3.348-.039 5.12-.056 1.773-.017 3.274-.029l5.247-.048q3.745-.036 6.949-.071l7.245-.081 7.311-.083q3.269-.037 6.391-.078 3.122-.042 6.748-.095 3.626-.054 8.241-.113l7.285-.092q2.67-.033 10.949-.125t10.909-.124l7.36-.094q4.73-.062 8.175-.111l6.701-.096 6.318-.09q3.063-.043 6.911-.094 3.848-.051 7.602-.106 3.754-.054 5.866-.09l3.576-.058 3.501-.052q2.036-.029 6.442-.087 4.406-.058 9.147-.123 4.74-.065 6.76-.095 2.021-.03 3.554-.048 1.533-.018 3.069-.031 1.536-.012 2.858-.028 1.322-.015 3.205-.043 1.883-.028 2.866-.041l2.756-.037q1.773-.023 3.582-.052l3.207-.053q1.398-.024 3.256-.049 1.859-.024 2.68-.032l1.61-.014q.79-.006 1.605-.016.816-.01 3.211-.049"/><path opacity=".9" fill="none" stroke-width="1.782" stroke-linecap="round" stroke-linejoin="round" d="M647.246 323.4q.035 1.227.163 4.005.128 2.778.199 5.52.07 2.742.083 4.154.012 1.412.03 2.834.018 1.422.024 2.79.006 1.369.017 1.447.012.078.021 1.43.01 1.352.039 1.39.03.039.047 1.373.016 1.335.043 1.345.026.01.039.057.013.047.07 4.037"/><path opacity=".9" fill="none" stroke-width="1.604" stroke-linecap="round" stroke-linejoin="round" d="M538.058 321.496q.082-7.042.068-9.948-.014-2.907-.025-4.384-.01-1.477-.002-2.935.008-1.457.004-4.411l.047-1.389"/><path opacity=".9" fill="none" stroke-width="1.33" stroke-linecap="round" stroke-linejoin="round" d="M538.018 297.389q-.541.907-1.121 1.998-.58 1.09-1.18 2.315-.599 1.225-1.222 2.41t-2.541 4.353"/><path opacity=".9" fill="none" stroke-width="2.273" stroke-linecap="round" stroke-linejoin="round" d="M538.018 297.084q2.352 2.328 2.407 2.379.054.051 4.431 4.331"/><path opacity=".9" fill="none" stroke-width="2.184" stroke-linecap="round" stroke-linejoin="round" d="M496.428 284.793q-.049-.125-.248-2.119-.199-1.994-1.24-5.302-1.042-3.309-2.141-5.402-1.098-2.093-1.761-3.85-.664-1.758-.422-3.154 1.562-.614 1.607-.604.045.01.967-.167.922-.177 1.907-.27.986-.094 2.185.123t1.698.537q.499.319.772.726.274.406.355.851.08.444.01 1.218t-.226 1.202q-.156.427-1.162 1.21-1.006.782-1.67 1.12-.665.338-2.099 1.682"/><path opacity=".9" fill="none" stroke-width="2.687" stroke-linecap="round" stroke-linejoin="round" d="M503.347 285.145q.605-.886.597-.938-.008-.052.155-1.362.164-1.31-.381-3.388-.546-2.078-1.672-3.669-1.127-1.591-2.654-2.553t-3.349-1.049q-1.821-.087-2.296-.027"/><path opacity=".9" fill="none" stroke-width="1.49" stroke-linecap="round" stroke-linejoin="round" d="M509.411 277.868q.078-.115.294-.291.217-.175.809-.584.591-.41.991-.942.401-.532.511-1.241.11-.71.055-1.109t-.496-.627q-.441-.227-.912-.223-.471.003-.852.169-.382.165-1.139.922t-1.213 1.713q-.456.955-.662 2.166-.207 1.21-.018 2.413.188 1.202.912 2.104.724.902 1.589 1.132.864.23 1.98-.047 1.115-.277 3.043-1.183"/><path opacity=".9" fill="none" stroke-width="1.776" stroke-linecap="round" stroke-linejoin="round" d="M518.063 276.615q-.147.147-.566 1.393-.42 1.246-.467 1.935-.046.688.144 1.041.191.353.861.56.67.208 2.05-.368t2.053-1.113q.673-.537.991-.995.318-.458.451-1.028.133-.57.021-.923-.111-.354-1.146-.768-1.034-.414-2.424.171-1.391.585-2.141 1.096"/><path opacity=".9" fill="none" stroke-width="1.931" stroke-linecap="round" stroke-linejoin="round" d="M522.568 276.577l.053.073-.076.234.039.453q-.016.308.099.54.115.231.761 3.404.646 3.174.836 5.265.191 2.092.014 3.506-.176 1.413-2.634 1.31-2.458-.104-2.812-.202"/><path opacity=".9" fill="none" stroke-width="1.693" stroke-linecap="round" stroke-linejoin="round" d="M528.927 275.277q-.422.351-.422.424 0 .073-.041.19-.04.117-.114.489-.075.372-.063 1.287.012.916.514 1.763.502.846 1.594 1.149 1.091.302 1.953.119.861-.182 1.244-.368.384-.185.971-.95.588-.765.8-1.304.212-.538.231-1.608-.234.284-.119 1.088.116.804.322 1.333.206.529.415.828.21.299.432.547.222.248.411.416.189.169.664.466.476.297 2.031.796"/><path opacity=".9" fill="none" stroke-width="1.998" stroke-linecap="round" stroke-linejoin="round" d="M543.164 283.372l.012-.893q.033-.203-.353-5.827t-1.637-9.679q-1.25-4.055-1.528-4.72"/><path opacity=".9" fill="none" stroke-width="1.927" stroke-linecap="round" stroke-linejoin="round" d="M548.79 276.745q-.328.537-.579 1.698-.251 1.161-.254 1.748-.003.587.211 1.138.215.551 1.026.914t1.513.172q.701-.191 1.103-.467t1.038-1.132q.635-.856.898-1.555.262-.699.069-2.458-.194-1.758-.68-2.077-.487-.319-1.463-.279-.976.04-1.869 1.428-.892 1.387-1.187 2.085"/><path opacity=".9" fill="none" stroke-width="2.734" stroke-linecap="round" stroke-linejoin="round" d="M552.948 275.881q.161.304.705 1.526.544 1.222.813 1.669.269.446.818 1.122.55.676 1.903 1.523"/><path opacity=".9" fill="none" stroke-width="2.009" stroke-linecap="round" stroke-linejoin="round" d="M562.599 282.332q.02-.123-.485-5.491-.506-5.368-1.496-9.747t-2.327-7.115q-.045-.079-.452-.111"/><path opacity=".9" fill="none" stroke-width="2.93" stroke-linecap="round" stroke-linejoin="round" d="M564.158 268.138q-.192-.235-1.387-.599-1.195-.365-2.666-.264-1.472.1-2.438.408-.966.307-2.083.896-1.117.589-1.811 1.027"/><path opacity=".9" fill="none" stroke-width="1.909" stroke-linecap="round" stroke-linejoin="round" d="M569.478 275.621l-.294.275q-.649.821-.954 2.043-.305 1.223-.182 1.893.124.67.571.927.447.256.934.286.487.03 1.469-.367.983-.398 1.848-1.069.866-.671 1.299-1.415.434-.743.434-1.285-.001-.542-.238-.935t-1.415-.609q-1.177-.215-1.932-.061-.754.154-1.581.401"/><path opacity=".9" fill="none" stroke-width="1.76" stroke-linecap="round" stroke-linejoin="round" d="M579.648 281.163q-1.077-4.061-1.685-5.64-.607-1.579-1.953-3.28"/><path opacity=".9" fill="none" stroke-width="2.113" stroke-linecap="round" stroke-linejoin="round" d="M576.316 274.582q.127-.129 2.499-.793t4.519-.664q2.146.001 3.02.119"/><path opacity=".9" fill="none" stroke-width="2.265" stroke-linecap="round" stroke-linejoin="round" d="M349.247 379.83q1.225-.004 1.619-.003.394 0 3.319-.04 2.925-.041 5.794-.066 2.868-.026 6.015-.069l5.329-.072q2.181-.029 3.768-.047 1.586-.018 5.686-.06 4.1-.043 7.618-.087 3.518-.044 6.567-.076l4.97-.049q1.922-.018 6.249-.051 4.326-.032 6.25-.05 1.924-.018 4.697-.047 2.772-.029 4.323-.047l9.189-.103q7.637-.085 12.529-.13 4.893-.045 7.787-.063l3.434-.021q.541-.004 5.257-.027 4.716-.023 8.883-.059 4.167-.035 7.724-.061 3.558-.026 6.742-.052t7.419-.064q4.235-.039 6.149-.048l3.111-.016q1.197-.008 1.624-.013.427-.005 2.945-.013.688-.014 1.858-.017 1.17-.003 3.095-.016"/><path opacity=".9" fill="none" stroke-width="2.019" stroke-linecap="round" stroke-linejoin="round" d="M568.876 381.994q.973-.004 1.737-.054.391-.022 2.931-.063 2.541-.04 5.372-.088 2.83-.047 5.831-.11 3-.063 5.134-.124 2.134-.061 4.544-.095 2.41-.034 7.01-.106 4.599-.071 7.881-.115 3.282-.045 5.92-.055 2.639-.011 4.609-.027 1.969-.016 4.98-.033 3.01-.017 7.616-.037 4.605-.019 8.705-.018 4.1.001 8.912.011 4.813.01 7.675.027 2.862.016 4.297.029l4.517.04q3.082.027 5.838.064 2.756.036 5.724.092 2.967.056 4.499.093 1.533.037 4.321.087 2.789.05 4.404.089 1.614.038 3.035.074l4.404.109q2.985.073 4.854.128 1.87.054 3.276.09 1.407.036 4.539.136.379.013 5.555.125l.551.049q2.798.067 3.006.076.209.009 1.361.043 1.152.033 1.438.053.286.019 4.343.113"/><path opacity=".9" fill="none" stroke-width="2.261" stroke-linecap="round" stroke-linejoin="round" d="M392.825 371.866l-.1 1.351.066.033q-.072.222-.908-10.823l-.146.177-.207.09"/><path opacity=".9" fill="none" stroke-width="1.769" stroke-linecap="round" stroke-linejoin="round" d="M396.463 365.331q-.094.277 1.117 7.023.058.058.9-4.257.015-.153.441-.182.427-.029.915.106.489.135.64.345.151.211 2.113 4.069.149.073.834-.133"/><path opacity=".9" fill="none" stroke-width="1.733" stroke-linecap="round" stroke-linejoin="round" d="M406.542 372.172q.304-.68-2.3-14.459l.221-.644"/><path opacity=".9" fill="none" stroke-width="2.207" stroke-linecap="round" stroke-linejoin="round" d="M408.529 363.344q-.787.039-.858.095-.782.203-3.3 1.077-2.519.874-3.363 1.297"/><path opacity=".9" fill="none" stroke-width="1.548" stroke-linecap="round" stroke-linejoin="round" d="M414.246 366.027q.289-.441.311-.451.022-.011.224-.775-.374-.18-1.139-.127-.766.054-1.602.708-.837.653-1.156 1.462-.319.809-.293 1.06.026.252.127.739.102.488.386.785.284.297.792.601.509.304.817.41.309.105 1.452.278 1.143.173 2.105.015.962-.157 1.615-.295"/><path opacity=".9" fill="none" stroke-width="1.723" stroke-linecap="round" stroke-linejoin="round" d="M422.817 370.567q-.096-.304-.727-2.002-.63-1.698-1.256-2.602-.627-.903-1.01-1.198-.382-.295-.604-.473"/><path opacity=".9" fill="none" stroke-width="1.996" stroke-linecap="round" stroke-linejoin="round" d="M420.178 367.716q.159.006 1.678-.651 1.52-.657 2.587-.969 1.067-.312 1.589-.314.523-.001 1.044.087.521.087 2.06 1.067"/><path opacity=".9" fill="none" stroke-width="1.564" stroke-linecap="round" stroke-linejoin="round" d="M433.762 371.002l-.002-.107q.058-.169-.327-2.908-.386-2.739-1.053-5.165-.667-2.426-.879-3.943-.211-1.516-.094-2.036.117-.52.33-.638.214-.118.867-.223.654-.105 1.819.454t1.779 1.079q.614.52 2.187 2.282"/><path opacity=".9" fill="none" stroke-width="1.466" stroke-linecap="round" stroke-linejoin="round" d="M436.269 363.772q-.538-1.261-3.685-.061-3.147 1.2-3.54 1.452"/><path opacity=".9" fill="none" stroke-width="1.692" stroke-linecap="round" stroke-linejoin="round" d="M441.12 368.45l-.577.797-.16.602q-.026.279-.038.99-.011.711.175 1.114.186.402.6.659.415.257 1.486-.151 1.071-.409 1.675-.9.604-.491 1.223-1.3.618-.81.431-2.571-.363-.267-1.243-.439-.881-.172-1.75-.029-.869.144-1.43.751-.561.608-.738.82"/><path opacity=".9" fill="none" stroke-width="3.223" stroke-linecap="round" stroke-linejoin="round" d="M445.452 367.754q-.181.481-.116.599-.042.06.195 1.029.237.97.94 1.686.703.717 1.573 1.037.052.04 1.036-.453"/><circle opacity=".9" stroke-width=".1" cx="454.063" cy="366.241" r=".678"/><path opacity=".9" fill="none" stroke-width="1.736" stroke-linecap="round" stroke-linejoin="round" d="M455.398 366.111q-.015-.42-.087-.481l-.16-.468q-.049-.251-.666-.454t-1.648.322q-1.031.525-1.28.868-.249.344-.584 1.249-.335.906.124 2.259.46 1.354.996 1.985.537.632 1.031 1.013.494.38 1.191.587.696.207 1.267.151.572-.056 2.093-1.158 1.521-1.102 2.136-1.677"/><path opacity=".9" fill="none" stroke-width="1.945" stroke-linecap="round" stroke-linejoin="round" d="M465.915 367.624l-.634.279q-.292.199-.268.822.334.202 1.63-.78 1.296-.98 1.848-1.926t.57-1.403q.017-.458-.199-.842-.216-.384-.5-.468-.283-.084-.849-.116-.567-.032-1.808.684-1.242.716-2.192 1.845-.95 1.13-1.115 2.455-.165 1.326.083 2.014.248.688.762 1.138.514.45 1.911.841 1.396.39 3.108-.036 1.712-.426 2.513-.921.801-.496 1.5-.987"/><path opacity=".9" fill="none" stroke-width="2.564" stroke-linecap="round" stroke-linejoin="round" d="M612.066 374.159q.056-.026.23-.018.175.008.404.058-.011-.544-.74-12.235l-.026-.569"/><path opacity=".9" fill="none" stroke-width="1.845" stroke-linecap="round" stroke-linejoin="round" d="M616.652 365.331q-.127.223 1.018 8.525.092-.07.563-1.414.472-1.344 1.017-2.525.545-1.18 1.371-1.483.123.041.243.329.12.287.549 1.295.429 1.007.828 1.691.399.684.607.832.208.149.414.199.206.05 1.095-.218"/><path opacity=".9" fill="none" stroke-width="1.934" stroke-linecap="round" stroke-linejoin="round" d="M627.903 373.425l.059-.086q-.024-.029.082-2.943.107-2.914-.37-6.362t-.943-5.19q-.466-1.742-1.114-2.875-.141-.053-.404-.116"/><path opacity=".9" fill="none" stroke-width="2.02" stroke-linecap="round" stroke-linejoin="round" d="M630.064 362.09q-.319-.07-2.854.912-2.534.982-5.758 2.069"/><path opacity=".9" fill="none" stroke-width="1.87" stroke-linecap="round" stroke-linejoin="round" d="M633.437 368.579q.679-.179.747-.208.069-.029.652-.441.584-.412.874-.763.29-.351.284-.449-.006-.098-.156-.372-.149-.275-1.007-.381-.858-.106-1.807.455-.948.562-1.474 1.619t-.572 2.123q-.046 1.065.503 1.795.548.73.938.943.389.214.972.479.583.266 2.084.369 1.5.103 2.453-.193.952-.296 1.787-.649"/><path opacity=".9" fill="none" stroke-width="1.853" stroke-linecap="round" stroke-linejoin="round" d="M643.261 371.652q-.002-.592-.429-2.63t-.87-3.119q-.444-1.081-1.513-2.383"/><path opacity=".9" fill="none" stroke-width="2.137" stroke-linecap="round" stroke-linejoin="round" d="M642.66 367.326q.651-.008 2.152-.063 1.501-.055 1.982-.032.482.023 2.531.355"/><circle opacity=".9" stroke-width=".1" cx="650.833" cy="366.241" r=".662"/><path opacity=".9" fill="none" stroke-width="1.55" stroke-linecap="round" stroke-linejoin="round" d="M651.659 375.244q.053-.108.083-.159.265-9.157-.451-17.237 2.3-1.24 3.135-1.184.835.056 1.13.192.294.137.425.256l.337.314q.206.194.607 1.05.401.856.665 1.619"/><path opacity=".9" fill="none" stroke-width="2.004" stroke-linecap="round" stroke-linejoin="round" d="M654.044 363.428q-.16-.067-2.184-.1-2.023-.033-3.057.195-1.034.228-1.649.425"/><path opacity=".9" fill="none" stroke-width="1.793" stroke-linecap="round" stroke-linejoin="round" d="M656.897 368.923q-.025.083-.151 1.508t.049 2.206q.175.78.34 1.057.165.277.697.471.532.195 1.563-.241t1.611-1.013q.579-.577.859-1.608.28-1.031.133-1.648-.147-.617-.637-1.014-.491-.396-1.075-.324-.585.071-1.096.178"/><path opacity=".9" fill="none" stroke-width="2.405" stroke-linecap="round" stroke-linejoin="round" d="M662.431 367.846q.081.329.409 1.003.329.675.712 1.267.383.593.684.992.301.398.794.98"/><path opacity=".9" fill="none" stroke-width="1.525" stroke-linecap="round" stroke-linejoin="round" d="M670.482 368.32l.339-.277q.575-.421.816-2.652-.018-.111-.95-.135-.932-.025-1.764.549-.831.573-1.29 1.071-.459.497-.857 1.447-.399.951-.436 1.541-.037.59.297 1.409.334.82 2.155 1.23 1.82.41 3.968.231 2.149-.179 2.4-.218"/><path opacity=".9" fill="none" stroke-width="1.687" stroke-linecap="round" stroke-linejoin="round" d="M680.398 367.884l-.374.161q-.67.446-.692.471l-.52.603q-.498.578-.606.94-.109.361-.143.714-.034.353.229.766.262.413.652.509.39.095.655.128.266.034.862-.08.595-.113 1.595-.662 1-.55 1.737-1.275.737-.725.961-2.671-.44-.566-2.846.556-2.406 1.122-2.856 1.445"/><path opacity=".9" fill="none" stroke-width="2.383" stroke-linecap="round" stroke-linejoin="round" d="M678.359 368.923l-.208.834q-.038.088-.3 1.39-.262 1.301-.139 2.169.122.867.229 1.098.107.231.258.41l.332.392q.181.212 1.401.615 1.22.402 2.614.15 1.394-.253 2.188-.693.795-.44 3.796-2.68"/><path opacity=".9" fill="none" stroke-width=".794" stroke-linecap="round" stroke-linejoin="round" d="M355.326 390.152q-.007.085-.271.718t-.342 1.061q-.078.428-.074.817l.006.44q.002.049.155.618t.333.828q.179.258.398.405.219.147.491.088.272-.058.424-.21.151-.151.712-.93.561-.78.753-1.454.192-.675.133-.963-.06-.288-.224-.511-.164-.222-.482-.255-.318-.033-.5.032-.181.065-.546.379-.366.315-.415.377-.049.062-.368.765"/><path opacity=".9" fill="none" stroke-width=".786" stroke-linecap="round" stroke-linejoin="round" d="M358.443 391.009l-.026.076q-.037.358-.085 1.493-.049 1.135.081 2.795.129 1.659.08 2.466-.048.806-.107 1.078-.058.272-.326.572-.269.299-.696.277-.428-.023-1.207-.427"/><path opacity=".9" fill="none" stroke-width=".841" stroke-linecap="round" stroke-linejoin="round" d="M361.451 393.32l.167.316q.054.003.176-.023t.145-.041q.024-.016.302-.037.279-.02.55-.123.271-.102.8-.549.53-.447.698-.782.168-.336.179-.646.01-.311-2.17-.689-.49 1.971-.444 2.46.046.489.133.718.088.229.287.54.199.312.29.464.091.153.207.244.117.091.297.111.179.02.256.012.076-.009.643-.292.566-.283 1.481-1.087"/><path opacity=".9" fill="none" stroke-width="1.001" stroke-linecap="round" stroke-linejoin="round" d="M369.11 394.874q.007-.176-.067-1.345-.074-1.168-.545-2.687-.471-1.518-.805-3.243-.333-1.725-.311-3.44l-.088-.393"/><path opacity=".9" fill="none" stroke-width="1.11" stroke-linecap="round" stroke-linejoin="round" d="M370.406 388.126l-.393-.02q-.472-.1-2.044.407-1.572.508-1.763.575"/><path opacity=".9" fill="none" stroke-width=".958" stroke-linecap="round" stroke-linejoin="round" d="M375.858 394.306q-.069.353-.103.389l-.07.405-.042.312q-.025-.074.003-1.375t-.001-2.168q-.03-.868-.154-1.597-.123-.73-.35-1.676-.227-.945-.361-2.154-.134-1.21-.169-1.585"/><path opacity=".9" fill="none" stroke-width="1.447" stroke-linecap="round" stroke-linejoin="round" d="M377.338 384.155q-.005-.055-.018-.137-.014-.081-.044-.164-.372-.193-1.845-.099-1.472.094-2.681.835t-1.617 1.046"/><path opacity=".9" fill="none" stroke-width=".943" stroke-linecap="round" stroke-linejoin="round" d="M380.376 393.655l.072.05q.029.022.538-.259t.823-.696q.313-.415.394-.705.08-.291.074-.53-.007-.24-.036-.415-.029-.175-.208-.318-.18-.143-.337-.163-.156-.021-.238-.024-.082-.003-.397.127-.316.131-.691.646-.376.516-.553 1.323-.176.806-.079 1.287.097.481.18.642.084.162.34.427.256.264.692.378.436.114 1.055.032.618-.082 1.054-.348.435-.266.819-.547"/><path opacity=".9" fill="none" stroke-width=".884" stroke-linecap="round" stroke-linejoin="round" d="M385.205 389.657q-.065.417-.066.439l-.023.643q-.022.621.23 1.705t.938 2.103l.085-.159q.039-.171.381-.951.343-.779.534-1.078.192-.299.339-.391.147-.091.273-.091.125-.001.224.065.1.065.835 2.293.102.064.414-.446.312-.511.744-1.213.432-.702.701-.93.269-.228.362-.269.093-.041.222-.043.129-.001.162.011t.148.12q.115.108.136.105.021-.002.27.495.248.497.365 1.15.116.652.467 1.555l.254.26"/><path opacity=".9" fill="none" stroke-width=".883" stroke-linecap="round" stroke-linejoin="round" d="M395.511 390.826q-.033.541-.029.799.003.257-.006.295-.008.038.052 1.417.06 1.38.368 7.772.107.135.206-.213l.185-.649"/><path opacity=".9" fill="none" stroke-width=".971" stroke-linecap="round" stroke-linejoin="round" d="M395.743 391.995q.035-.042.347-.222.312-.179.396-.22.085-.041.454-.248t.773-.348q.404-.141 1.117.174.714.315 1.208.948t.337 2.145q-.158.137-.878.341-.72.203-1.186.286"/><path opacity=".9" fill="none" stroke-width=".492" stroke-linecap="round" stroke-linejoin="round" d="M402.516 393.008q.509.014.529.004.02-.009.364-.07.343-.06 1.097-.505t1.028-.818q.274-.373.314-.674.039-.301-.012-.406-.051-.105-.158-.22-.106-.115-.153-.146-.047-.032-.339-.131-.292-.099-.727-.096-.435.003-.926.413-.491.409-.628 1.11-.137.7.066 1.408t.51 1.139q.307.431.782.663.475.232.973.267.499.035.713-.005.214-.039 1.06-.429"/><path opacity=".9" fill="none" stroke-width="1.095" stroke-linecap="round" stroke-linejoin="round" d="M410.695 394.021q.015-.096-.249-1.175-.263-1.078-.708-1.881-.446-.802-.659-1.022-.213-.219-.419-.33-.206-.111-.307-.104-.101.008-.464-.059"/><path opacity=".9" fill="none" stroke-width=".896" stroke-linecap="round" stroke-linejoin="round" d="M409.784 391.734q.317-.115.472-.204.154-.089 1.95-.396 1.797-.307 2.279-.336"/><path opacity=".9" fill="none" stroke-width=".787" stroke-linecap="round" stroke-linejoin="round" d="M416.563 389.996l-.144.158q-.217.424-.242.447-.026.022-.034 1.879.222.219 1.331.106 1.11-.114 1.856-.563.745-.449.891-.581.146-.132.233-.463.086-.331.014-.594-.073-.264-.351-.433-.277-.169-.858-.161-.581.009-1.151.388-.57.379-.952.697"/><path opacity=".9" fill="none" stroke-width="1.205" stroke-linecap="round" stroke-linejoin="round" d="M419.938 390.152q.408 1.974.972 2.823.564.848.764 1.097"/><path opacity=".9" fill="none" stroke-width="1.286" stroke-linecap="round" stroke-linejoin="round" d="M425.672 394.461l.044-.095q.064-.222-.138-2.265-.202-2.044-.539-3.722-.337-1.679-.479-2.518-.143-.84-.243-1.341l-.1.442"/><path opacity=".9" fill="none" stroke-width=".455" stroke-linecap="round" stroke-linejoin="round" d="M426.998 387.19h-4.572"/><path opacity=".9" fill="none" stroke-width=".947" stroke-linecap="round" stroke-linejoin="round" d="M429.565 390.698q-.185.151-.193.226-.008.074-.039.117-.032.042.145 1.938.07.11.69.101.62-.008 1.14-.342.519-.333.909-.87.389-.538.431-2.135-.18.1-.185.738-.004.637.16 1.351.165.714.503 1.245.339.531.555.76.216.228.439.401.222.172.229.188.007.016.668.189.034-.007.441-.455"/><path opacity=".9" fill="none" stroke-width=".809" stroke-linecap="round" stroke-linejoin="round" d="M438.001 394.044l.101-.107q.05-.137-.592-1.828t-1.41-2.701q-.768-1.011-.954-1.227"/><path opacity=".9" fill="none" stroke-width="1.045" stroke-linecap="round" stroke-linejoin="round" d="M436.754 390.876q.524-.081.757-.154.233-.072.316-.108.083-.035.998-.37.916-.335 2.002-.506 1.086-.17 1.459-.237"/><path opacity=".9" fill="none" stroke-width=".896" stroke-linecap="round" stroke-linejoin="round" d="M445.66 390.358q.111.09.187.158.325.02.88-.266.556-.287.782-.66.227-.373.255-.709.028-.337-.001-.416-.029-.08-.183-.17-.154-.09-.321-.127-.167-.037-.584.015-.417.052-1.171.524-.753.472-1.339 1.233-.585.76-.776 1.404-.192.645-.15 1.085.043.441.197.68.154.24.279.298.125.058.442.155.316.098 1.143.007t1.214-.162q.386-.072.791-.127.406-.055.766-.008.359.047.731.126"/><path opacity=".9" fill="none" stroke-width=".906" stroke-linecap="round" stroke-linejoin="round" d="M457.574 396.639q-.04.002-.136.077-.178-.023-.653-.358-.475-.335-1.089-1.4-.615-1.065-.848-2.593-.234-1.529-.197-2.612.037-1.083.258-1.793.221-.709.558-1.215.337-.506.628-.875"/><path opacity=".9" fill="none" stroke-width="1.012" stroke-linecap="round" stroke-linejoin="round" d="M462.843 395.553q.276.301.322.281l.206.033q.328-.084.335-.117.254-.179.809-1.647.555-1.467.54-2.847-.016-1.38-.312-2.551-.296-1.172-1.175-2.347-.879-1.176-1.674-1.87-.796-.694-1.257-1.085"/><path opacity=".9" fill="none" stroke-width="1.253" stroke-linecap="round" stroke-linejoin="round" d="M574.555 395.218q.108.032.705.144.596.111 1.345-.277.749-.389 1.012-.711.263-.322.399-.551.134-.228.28-.722.145-.493.128-.928-.016-.434-.112-.693-.096-.258-.562-.432-.465-.173-.959-.105-.493.067-.717.192-.223.125-.562.391-.338.266-.727 1.229-.389.962-.395 1.576-.006.614.125 1.057.132.442.586.788.455.346 1.704.512 1.25.166 2.117.369.867.202 1.293.343"/><path opacity=".9" fill="none" stroke-width="1.151" stroke-linecap="round" stroke-linejoin="round" d="M583.045 392.233q-.035.316-.05 1.394-.015 1.078.07 1.771.084.693.262 1.116.177.423.336.608.159.185.417-.716t.488-1.478q.231-.577.508-.87.277-.292.537-.285.26.006.342.039.082.033.713.474.631.441 1.045 1.44.413.999.589 1.55.175.551.419.76.244.209.425.377"/><path opacity=".9" fill="none" stroke-width="1.099" stroke-linecap="round" stroke-linejoin="round" d="M591.297 394.961l-.199-.164q-.239.109-.452.608-.212.499-.246.858-.033.359.014.534.048.175.047.193-.001.019.119.123.121.104.352.189.23.086.607.089.377.003.94-.233.564-.235 1.147-.79.583-.555.73-1.116.148-.562.085-.952-.063-.39-.482-.699-.419-.308-.635-.327-.216-.018-.586-.022-.369-.004-1.249.733-.88.738-1.255 1.21"/><path opacity=".9" fill="none" stroke-width="1.086" stroke-linecap="round" stroke-linejoin="round" d="M594.054 394.466q-.051.171-.096 1.838-.044 1.668.361 3.802.406 2.134-.032 5.492-.169.244-1.675.143-1.505-.1-2.011-.244"/><path opacity=".9" fill="none" stroke-width=".851" stroke-linecap="round" stroke-linejoin="round" d="M596.958 395.686q-.041.128-.014.484.027.357.194.666.166.308.453.499.288.191.602.217.314.025 1.256-.559.943-.584 1.438-1.184.496-.6.643-.904.148-.305.164-.561.016-.257-.077-.387t-.265-.205q-.172-.075-.814-.167-.642-.093-1.434.407-.792.5-1.156.864"/><path opacity=".9" fill="none" stroke-width="1.199" stroke-linecap="round" stroke-linejoin="round" d="M601.995 392.806q-.025.101-.052 1.01-.027.91.084 1.358.112.448.251.628.14.181.419.3.278.118.886.049.608-.069 1.737-.516"/><path opacity=".9" fill="none" stroke-width=".738" stroke-linecap="round" stroke-linejoin="round" d="M606.561 392.651q-.002.05-.204.676-.201.626-.122 1.278.08.651.53.806.45.155 1.35-.096.899-.251 1.498-.68.599-.429.771-.726.172-.296.192-.611.019-.315-.095-.56-.115-.245-.264-.384-.149-.139-.302-.229-.154-.089-.405-.146-.251-.057-.739-.081-.487-.023-1.37.608-.884.632-1.28 1.052"/><path opacity=".9" fill="none" stroke-width=".766" stroke-linecap="round" stroke-linejoin="round" d="M609.807 392.751l.227.166q.073.038.851 3.032.777 2.994 1.146 5.083.369 2.09.395 2.965.026.875-.102 1.612-.129.737-1.575.733-1.447-.004-1.773-.066"/><path opacity=".9" fill="none" stroke-width="1.019" stroke-linecap="round" stroke-linejoin="round" d="M614.3 394.232l.232-.11.462-.115q.253-.036 1.367-.403 1.113-.367 1.819-.847.705-.479.827-.798.121-.32.058-.55-.063-.23-.483-.38t-1.156.012q-.736.163-1.429.809-.693.647-.935 1.207-.242.56-.246 1.056-.004.495.348 1.199.352.704 1.316 1.009.965.305 1.977.179 1.013-.127 2.671-.915"/><path opacity=".9" fill="none" stroke-width="1.161" stroke-linecap="round" stroke-linejoin="round" d="M626.422 397.606l-.038-.058q-.162-.096-.816-.928-.653-.831-1.233-2.184-.579-1.352-.724-2.589-.145-1.238.027-1.926.171-.689.518-1.075.347-.385.66-.54.313-.154.817-.228.503-.073 1.62.625"/><path opacity=".9" fill="none" stroke-width="1.274" stroke-linecap="round" stroke-linejoin="round" d="M632.754 396.96q.202-.141.547-1.242.345-1.102.442-1.767.097-.665.094-1.717-.004-1.052-.23-2t-.86-1.743q-.635-.795-1.9-1.189-1.266-.395-1.779-.492"/><path opacity=".9" fill="none" stroke-width="1.06" stroke-linecap="round" stroke-linejoin="round" d="M573.803 420.474q-.009-.103-.004-.195.005-.091-.142-.181t-.208-.063q-.06.028-.064.01-.004-.018-.179.197t-.263.82q-.087.604.109 1.262t1.019.905q.823.247 1.46.119t.986-.345q.348-.217.685-.618.337-.4.502-1.117.165-.717.087-1.247-.078-.53-.457-.93-.379-.401-.983-.478-.605-.078-1.3.351-.695.428-1.089.786"/><path opacity=".9" fill="none" stroke-width="1.24" stroke-linecap="round" stroke-linejoin="round" d="M577.336 422.139q-.003-.51.014-1.168.017-.658-.007-4.516-.025-3.859-.165-5.491-.14-1.632-.178-1.855"/><path opacity=".9" fill="none" stroke-width="1.195" stroke-linecap="round" stroke-linejoin="round" d="M580.631 422.762q.057-1.558-.01-2.918-.068-1.361-.119-1.909"/><path opacity=".9" fill="none" stroke-width=".799" stroke-linecap="round" stroke-linejoin="round" d="M580.191 415.335q.114.11.173.191.058.081.371.588"/><path opacity=".9" fill="none" stroke-width=".966" stroke-linecap="round" stroke-linejoin="round" d="M587.404 417.857l.033-.258q-.01-.598-.071-.91-.06-.313-.185-.526-.126-.213-.381-.383-.256-.17-.63-.227-.373-.057-.733-.001t-.594.434q-.234.378-.269.657t.262.908q.297.629.753 1.146.455.517.786.987.331.471.49.868.159.397.185.723.026.326-.129.669-.156.343-.391.533-.236.19-.386.279l-.379.227q-.23.137-.953.581"/><path opacity=".9" fill="none" stroke-width="1.033" stroke-linecap="round" stroke-linejoin="round" d="M590.705 420.864l.013-.031q.331-.339.367-.346.037-.006.729-.581.691-.575.928-.84.236-.265.342-.499.106-.235.137-.694.031-.46-.295-.616-.326-.157-.51-.172-.184-.016-.696.146-.513.161-.697.311-.184.151-.461.419-.276.267-.631.99t-.431 1.789q-.077 1.066.074 1.636.151.57.398.871.247.301.345.373.097.072.669.132.572.06 1.302-.212.73-.272 1.815-.934"/><path opacity=".9" fill="none" stroke-width="1.004" stroke-linecap="round" stroke-linejoin="round" d="M596.854 418.553q.003.023-.139.04-.074.04-.314.649-.241.61-.221 1.527.021.918.657 1.904l-.007.557"/><path opacity=".9" fill="none" stroke-width=".836" stroke-linecap="round" stroke-linejoin="round" d="M596.83 421.176q.003-.096.841-1.441.837-1.345 2.328-2.16.254.201.641.984.387.783.972 1.931.585 1.148.823 1.571"/><path opacity=".9" fill="none" stroke-width="1.197" stroke-linecap="round" stroke-linejoin="round" d="M604.721 419.75q.064-.094.061-.242-.003-.149-.019-.252-.016-.103-.047-.144-.031-.042-.107-.07-.076-.028-.176 0-.101.029-.214.459-.112.43-.048.821.064.392.194.551.129.159.218.221.089.063.211.109.122.047.541.083.419.036.783-.147.363-.182.563-.537.201-.354.146-.744-.054-.389-.224-.554-.169-.164-1.106-.567"/><path opacity=".9" fill="none" stroke-width="1.288" stroke-linecap="round" stroke-linejoin="round" d="M606.225 418.375l.088.086q-.005.02.11.65.116.629.533 1.701.416 1.072.648 2.081.232 1.009.202 1.69t-.225 1.099q-.195.418-1.358 1.035-1.162.616-1.352.793-.19.177-.517.442"/><path opacity=".9" fill="none" stroke-width="1.103" stroke-linecap="round" stroke-linejoin="round" d="M611.653 420.19q-.034-.132-.162-.339-.127-.206-.398-.396-.271-.189-.489-.148-.217.041-.343.129-.126.089-.246.272-.121.184-.149.229-.029.046-.135.649-.106.604.078 1.091t.493.764q.309.278.917.331.608.053 1.301-.27.694-.323 1.3-.905.607-.582.731-.985.125-.402.043-.845-.082-.443-.308-.617-.225-.174-.828-.288-.603-.115-1.405.155t-1.247.846q-.445.575-.559.767"/><path opacity=".9" fill="none" stroke-width="1.119" stroke-linecap="round" stroke-linejoin="round" d="M614.557 418.476q-.097.099-.283.891-.185.793-.15 1.48.036.687.753 1.598.718.911 1.055 1.252"/><path opacity=".9" fill="none" stroke-width=".936" stroke-linecap="round" stroke-linejoin="round" d="M619.178 418.659q-.007.062-.355.635-.348.572-.439 1.271-.09.698.018 1.046.108.349.233.483t.719.254q.594.12 1.548-.446.955-.566 1.1-1.041.146-.474.113-.713-.032-.239-.145-.488-.112-.249-.927-.518-.815-.27-1.634.039-.819.308-1.111.464"/><path opacity=".9" fill="none" stroke-width=".901" stroke-linecap="round" stroke-linejoin="round" d="M621.8 418.842q-.01.053-.024-.223-.11.064.127 1.656.237 1.592.473 2.727.236 1.135.213 2.126-.024.99-.184 1.496t-.934 1.044q-.774.538-1.539.659-.765.121-1.194.198"/><path opacity=".9" fill="none" stroke-width="1.022" stroke-linecap="round" stroke-linejoin="round" d="M625.541 421.515q-.004.105-.011.134.138-.016 1.072-.583.935-.567 1.578-1.183.643-.616.81-1.057.166-.441.106-.801-.06-.359-.296-.52-.235-.162-.905-.099t-1.445.515q-.776.452-1.468 1.16t-1.099 1.735q-.408 1.028-.377 1.739.03.71.336 1.165.305.454.592.63.287.175.617.268.33.093.48.12.151.027.919-.028.769-.055 1.791-.494 1.021-.44 1.5-.73"/><path opacity=".9" fill="none" stroke-width="1.537" stroke-linecap="round" stroke-linejoin="round" d="M637.247 424.628l-.205.245-.228-.008q-.501-.232-1.173-1.566-.671-1.335-.884-3.511-.212-2.177-.142-3.593.071-1.416.388-2.348.317-.931.47-1.185.153-.253.372-.464.219-.21.451-.206.232.004.456-.004"/><path opacity=".9" fill="none" stroke-width="1.297" stroke-linecap="round" stroke-linejoin="round" d="M639.686 423.876q.43.281.481.265.204.078.677.15.472.072.876-.161.405-.233.636-2.362.232-2.129.127-3.775-.105-1.647-.6-3.456-.495-1.808-.908-2.606-.413-.798-.72-1.291"/><path opacity=".9" fill="none" stroke-width="1.767" stroke-linecap="round" stroke-linejoin="round" d="M378.12 488.806q-.03.021-.073.039-.101-.544-.104-.631-.002-.088-1.258-11.539.005.019.164.22"/><path opacity=".9" fill="none" stroke-width="2.803" stroke-linecap="round" stroke-linejoin="round" d="M381.861 473.338l-.091.048q-.325-.02-1.342.02-1.016.04-2.162.406-1.145.365-2.19.579-1.046.215-2.306.149l-1.982-.102q-.723-.036-1.044.068-.322.104-.821.313"/><path opacity=".9" fill="none" stroke-width="1.766" stroke-linecap="round" stroke-linejoin="round" d="M385.547 474.401q-.023-.25-.239-.937-.02.06-.184 1.684-.164 1.624-.011 3.837.154 2.214.398 3.393.244 1.179.593 2.882t.493 2.941q-.022.08-.034-.221-.012-.301-.032-.522"/><path opacity=".9" fill="none" stroke-width="2.063" stroke-linecap="round" stroke-linejoin="round" d="M386.042 485.07q.358-.316.377-.377.277-.306 1.004-1.096.728-.791 1.266-1.19.538-.4.905-.514.367-.114.722-.048.356.067.705 1.593.35 1.526.453 2.459.102.933.35 1.482l.264.235"/><path opacity=".9" fill="none" stroke-width="1.577" stroke-linecap="round" stroke-linejoin="round" d="M394.215 484.345q.002-.002.157.404.068.075.422-.073.355-.147.829-.616.474-.468.646-.757.173-.288.263-.616.09-.328.053-.672-.037-.344-.101-.448-.065-.104-.433-.233-.369-.128-.805.022-.435.149-.934.851-.499.701-.65 1.675-.152.974-.076 1.576.076.602.364 1.289.289.687.661 1.159.372.471.523.562.151.091.403.157.253.067.403.057.151-.011.423-.121t.841-.452"/><path opacity=".9" fill="none" stroke-width="2.424" stroke-linecap="round" stroke-linejoin="round" d="M402.082 487.564l-.197-.486q-.145-.331-.796-2.019-.65-1.687-1.075-3.095.18-.078.326-.191"/><path opacity=".9" fill="none" stroke-width="2.321" stroke-linecap="round" stroke-linejoin="round" d="M400.86 484.267l.318-.105q.244-.234.862-.587.619-.354 1.57-.327.952.026 1.455.162"/><path opacity=".9" fill="none" stroke-width="1.857" stroke-linecap="round" stroke-linejoin="round" d="M408.91 481.022l-.008.385q-.108.243 1.142 6.541.067.029.17-.726.104-.754.363-1.789t.507-1.526q.248-.491.443-.69.195-.2.413-.251.218-.052.559.414.341.465.533.879.192.413.865 1.231.144-.016.181-.047.037-.031.738-.959.701-.929 1.192-1.522.49-.594.788-.803.298-.208.444-.231.146-.022.173-.016.026.006.229.139.202.132.476.75.273.617.394 1.114.122.496.213.82.091.324.089.342-.002.018.491.952.043.015.352.026"/><path opacity=".9" fill="none" stroke-width="2.036" stroke-linecap="round" stroke-linejoin="round" d="M422.799 483.098q-.068.34-.27 1.172-.201.832-.157 1.457.043.625.245.913.201.288.592.413.39.125.851.013.461-.112 1.083-.63.621-.517.927-.975.306-.458.377-1.06.072-.603-.119-.952t-.782-.528q-.591-.18-1.594.5-1.003.68-1.416 1.08"/><path opacity=".9" fill="none" stroke-width="2.101" stroke-linecap="round" stroke-linejoin="round" d="M430.715 482.136q-.031.055-.19.166-.027.016.278 5.35.068.067.21-.869.141-.936.445-1.78.304-.844.587-1.232.283-.387.538-.529.256-.141.442-.149.185-.007.35.091.165.099.215.12.05.022 1.057 2.499.034.058.386-.763.352-.82.766-1.484.415-.664.627-.791.213-.128.481-.149.268-.021.733.553.465.573.664 1.063.199.491.276.762.077.27.138.461.061.19.174.47l.203.493"/><path opacity=".9" fill="none" stroke-width="2.096" stroke-linecap="round" stroke-linejoin="round" d="M443.435 482.346q.026-.01.27.413.098.073.738-.184.641-.256 1.009-.695.369-.439.459-.857.091-.417-.001-.658-.093-.24-.187-.317-.094-.076-.32-.148-.225-.072-.559-.038-.334.035-.898.428-.564.393-1.065 1.368-.5.974-.617 1.915-.116.941-.018 1.42.097.479.363.852.265.374.772.488.508.115.968.04.461-.075 1.432-.512.972-.436 1.414-.663"/><path opacity=".9" fill="none" stroke-width="1.98" stroke-linecap="round" stroke-linejoin="round" d="M451.944 485.51q.002-.256-.125-2.004-.126-1.749-.735-4.918t-.881-4.523q-.271-1.354-.362-1.818"/><path opacity=".9" fill="none" stroke-width="2.097" stroke-linecap="round" stroke-linejoin="round" d="M453.35 475.387q-.074-.001-.476-.021-.401-.021-2.389.336-1.987.356-3.079.75-1.093.395-1.275.494"/><path opacity=".9" fill="none" stroke-width="1.794" stroke-linecap="round" stroke-linejoin="round" d="M455.942 481.929l.199.056q.781-.009 1.417-.162.637-.153 1.082-.384.445-.231.631-.4t.231-.246q.045-.076.084-.204.039-.128.042-.351.003-.223.007-.319.004-.097-.268-.55-.273-.452-.927-.681-.654-.229-1.452-.063-.798.166-1.38.994-.581.827-.685 1.705-.104.878.182 1.692t.641 1.309q.355.495 1.051.881t1.809.319q1.113-.066 1.929-.377.817-.311 1.019-.39"/><path opacity=".9" fill="none" stroke-width="2.018" stroke-linecap="round" stroke-linejoin="round" d="M466.456 485.12q.03-.159-.525-1.593-.556-1.433-1.121-2.388-.565-.954-1.6-1.883"/><path opacity=".9" fill="none" stroke-width="1.995" stroke-linecap="round" stroke-linejoin="round" d="M463.785 482.447q.15.011 1.151-.567 1.002-.578 1.846-1.1.843-.522 1.735-.825.892-.303 1.489-.187.596.117 1.071.291"/><path opacity=".9" fill="none" stroke-width="2.318" stroke-linecap="round" stroke-linejoin="round" d="M385.938 510.147q-.009-.037.078.458.008-.252.018-2.037.011-1.785-.808-11.951.024.218.071.391l.146.546"/><path opacity=".9" fill="none" stroke-width="2.785" stroke-linecap="round" stroke-linejoin="round" d="M391.727 499.97l-.218-.723q-.381.133-.778 1.974-.396 1.84-.355 3.515.042 1.675.203 2.464.162.789.681 1.583.519.795 1.143 1.217.624.423 1.031.6.406.177.665.154.259-.023.872-.318.613-.296 1.128-.772.516-.475.917-1.081.4-.607.897-2.09.496-1.483.62-2.827.124-1.344-.203-2.802t-.456-1.742q-.129-.284-.481-.536-.352-.252-1.321-.416-.968-.164-1.516-.157-.548.006-.873.12-.325.113-1.204 1.681"/><path opacity=".9" fill="none" stroke-width="2.058" stroke-linecap="round" stroke-linejoin="round" d="M412.181 502.826q.189-.048.264-.115.075-.068.074-.065-.002.004.032-.509l-.25-.08q-.004-.071-.975.235t-1.81 1.102q-.839.795-1.095 1.981-.255 1.185-.148 2.002.107.816.459 1.452.351.636.92.983.569.347 2.315.316 1.746-.031 1.925-.036"/><path opacity=".9" fill="none" stroke-width="1.71" stroke-linecap="round" stroke-linejoin="round" d="M415.891 496.1q-.008.161.066 3.078.074 2.916 1.892 12.304.044-.016.012-1.29-.031-1.274-.003-2.204.029-.931.15-1.232.12-.301.222-.406.101-.105.147-.131.046-.025.143-.05.096-.025.26-.058.164-.032.897.371.734.403 2.369 3.101l.361.276"/><path opacity=".9" fill="none" stroke-width="1.906" stroke-linecap="round" stroke-linejoin="round" d="M425.054 505.783q.007.052-.069.411-.076.36-.173 1.128-.098.768-.037 1.191.061.423.271.781.209.358.797.498.587.139 1.355-.215.768-.355 1.122-.78.355-.424.567-.834.211-.409.257-.966.045-.558-.065-.782-.11-.225-.407-.381-.296-.156-.81-.163-.514-.007-1.069.327-.555.334-1.323 1.293"/><path opacity=".9" fill="none" stroke-width="2.473" stroke-linecap="round" stroke-linejoin="round" d="M429.076 505.109q-.018.058.06.993.078.935.313 1.742.234.807.902 1.491.668.685 1.06 1.019"/><path opacity=".9" fill="none" stroke-width="1.574" stroke-linecap="round" stroke-linejoin="round" d="M434.217 504.618q.008.381.05 1.919.042 1.537.697 2.943.259-.194.446-.883.188-.689.635-1.653.447-.963.783-1.374.335-.41.54-.529.205-.118.353-.101.149.017.273.066.123.049.514 1.191.39 1.142.564 2.328.174 1.187.302 1.743t.449 1.278"/><path opacity=".9" fill="none" stroke-width="1.653" stroke-linecap="round" stroke-linejoin="round" d="M442.708 504.669q.041-.116-.338-.895l-.023.003-.025.146q-.055.035.122 1.756.178 1.721.342 2.721.165.999.227 1.331.062.331.218.637.157.306.191.393.034.087.098.266.044-.102.054-1.567.01-1.465.089-2.575.079-1.111.292-1.552.213-.441.419-.622t.493-.171q.287.009.358.041.071.031.381.924.31.892.482 1.478.172.587.442 1.127.27.539.566 1.172.297.632.49 1.668"/><path opacity=".9" fill="none" stroke-width="1.784" stroke-linecap="round" stroke-linejoin="round" d="M449.634 507.342q.099.087.304.203.206.115.226.109.021-.007.185.041.165.049.538-.016.374-.065.634-.209.26-.145.403-.279.144-.134.469-.533.324-.4.589-1.251.264-.85.212-1.279-.053-.429-.164-.611-.11-.182-.536-.253-.426-.072-1.057.293-.632.365-1.234 1.335-.601.97-.744 1.924-.143.955.007 1.645.151.689.689 1.258.537.568 1.608.86 1.071.292 2.198-.261 1.128-.553 1.596-.872"/><path opacity=".9" fill="none" stroke-width="1.785" stroke-linecap="round" stroke-linejoin="round" d="M460.203 510.12q-.05-.083-.263-1.794-.214-1.71-.758-5.099-.545-3.389-.96-4.986-.416-1.596-.562-2.086"/><path opacity=".9" fill="none" stroke-width="2.106" stroke-linecap="round" stroke-linejoin="round" d="M616.898 488.803q-.002-.201-.103-.78-.1-.579-.119-.918l-.037-.66q-.019-.321-.028-1.131-.009-.81-1.09-10.127l.031-.008.035.079q.081.137.198.227"/><path opacity=".9" fill="none" stroke-width="2.647" stroke-linecap="round" stroke-linejoin="round" d="M623.414 473.303q-.057.01-.853-.092-.796-.103-2.139.253-1.344.355-2.213.674-.87.318-1.336.389-.465.07-.984.156"/><path opacity=".9" fill="none" stroke-width="1.82" stroke-linecap="round" stroke-linejoin="round" d="M620.174 481.844q-1.117.013-1.975.25-.858.237-1.326.424"/><path opacity=".9" fill="none" stroke-width="1.854" stroke-linecap="round" stroke-linejoin="round" d="M623.182 484.182v-.061q.014.012.033.795.019.782.292 1.694.274.912.512 1.268.239.357.539.55.3.192.527.203.227.01.616-.131.388-.142 1.008-.957.62-.814 1.095-2.083.474-1.268.56-1.878.085-.61.085-.626l.04.453q.042.47.075.891.034.421.255 1.338.221.916.516 1.443.296.527.492.677.196.151.543.394"/><path opacity=".9" fill="none" stroke-width="1.971" stroke-linecap="round" stroke-linejoin="round" d="M634.191 488.308q.058-.191-.109-1.622-.166-1.43-1.445-2.959-1.279-1.529-1.46-1.727"/><path opacity=".9" fill="none" stroke-width="2.39" stroke-linecap="round" stroke-linejoin="round" d="M633.512 484.961q.647-.127.885-.198.238-.07 1.106-.456.868-.386 1.567-.662.698-.275.994-.3.296-.024.718-.048"/><path opacity=".9" fill="none" stroke-width="1.806" stroke-linecap="round" stroke-linejoin="round" d="M641.092 480.496l-.011.414q-.039.42.017 2.155.057 1.735.877 4.326.018.015.112-.752.095-.766.248-1.405.154-.64.582-1.361.428-.722.754-.845.326-.122.669-.022.343.101.597.395.254.294.277.308.023.014.271.515.248.502.675 1.502.427 1 1.086 1.642l.314.06"/><path opacity=".9" fill="none" stroke-width="1.833" stroke-linecap="round" stroke-linejoin="round" d="M650.231 483.196q-.074.166-.172.934-.097.769.008 1.293.106.524.345.804.24.279.664.457.423.178 1.362-.243.938-.421 1.46-1.018t.627-.895q.105-.297.121-.591t-.202-.599q-.218-.305-.472-.437-.253-.132-.576-.204-.323-.073-.647-.114-.325-.04-1.139.193-.815.234-1.33.498"/><path opacity=".9" fill="none" stroke-width="2.549" stroke-linecap="round" stroke-linejoin="round" d="M654.357 482.495q.026.481.919 2.453.893 1.973 1.135 2.374"/><path opacity=".9" fill="none" stroke-width="2.028" stroke-linecap="round" stroke-linejoin="round" d="M662.481 482.206l.022-.113q.015-.126-.054-.364t-.178-.37q-.108-.131-.732-.276-.624-.145-1.242.02-.618.165-.904.35-.285.186-.575.664-.291.479-.291 1.035 0 .556.189 1.014.189.458.786 1.219.597.761 1.095 1.089.498.328.996.479.499.15 1.042.099.543-.052 1.588-.715"/><path opacity=".9" fill="none" stroke-width="1.689" stroke-linecap="round" stroke-linejoin="round" d="M669.828 482.495l.009.049.081.125q.172.123.196.115.276.121 1.223-.285.947-.406 1.719-1.113.771-.708.989-1.224.217-.516.167-.774-.051-.258-.102-.309-.051-.05-.575-.141-.524-.092-1.62.54-1.096.631-1.894 1.551-.799.92-1.127 1.773-.328.854-.352 1.284-.024.431.012.711.036.28.198.632t1.551.681q1.388.329 2.462.142 1.075-.186 1.63-.333"/><path opacity=".9" fill="none" stroke-width="1.836" stroke-linecap="round" stroke-linejoin="round" d="M605.974 511.772l.033-.058q.047-.052.149-2.562.102-2.509.146-4.845t-.164-4.285q-.208-1.949-.399-2.741-.19-.791-.316-1.432-.126-.641-.053-1.188.072-.547.109-.719"/><path opacity=".9" fill="none" stroke-width="2.337" stroke-linecap="round" stroke-linejoin="round" d="M610.981 500.847q-.016-.317-.303-1.198-.179.014-.548 1.088-.369 1.074-.439 1.97-.069.897.026 1.888.095.991.463 2.174.369 1.184.806 1.927.437.744.777 1.082.34.337.492.432.152.095.365.222.212.128 1.086.38.874.252 1.398.227.524-.025 1.299-.649.775-.623 1.29-1.5.514-.878.836-1.826.322-.949.538-2.911.216-1.962.183-2.999-.033-1.038-.297-1.806-.263-.769-.761-1.278-.498-.508-.735-.629-.236-.121-.716-.29-.48-.168-1.744-.283-1.264-.114-1.902-.051-.637.063-1.109.253t-1.678 1.31"/><path opacity=".9" fill="none" stroke-width="1.616" stroke-linecap="round" stroke-linejoin="round" d="M635.047 502.869q-.04.02-.059.036-.018.016-.556-.082-.537-.098-1.044-.038-.507.06-.844.204-.338.144-.634.48-.296.336-.505.999-.209.664-.254 1.735-.044 1.071.04 1.735.084.663.306 1.147.223.484.637.676.414.193 1.092.131.679-.063 1.573-.362.895-.299 2.632-.688"/><path opacity=".9" fill="none" stroke-width="1.608" stroke-linecap="round" stroke-linejoin="round" d="M639.637 502.456q-.01-.158-.395-1.239-.385-1.082-.544-1.853-.159-.772-.234-1.102-.076-.33-.209-.514l-.031-.001q-.145.199.055 2.823.2 2.624.781 5.005.58 2.381 1.3 3.879.197-.122.208-.134.011-.013.349-.854.338-.841.662-1.499.324-.658.598-.936.273-.278.457-.355.184-.076.463-.062.278.014.431.144.152.13.263.29.11.159.443 1.061.332.902.406 1.172.074.269.247.75.174.48.411.726l.336.199"/><path opacity=".9" fill="none" stroke-width="1.68" stroke-linecap="round" stroke-linejoin="round" d="M648.311 506.711q-.332.497-.025 2.383.204.097.485.12.281.022.924-.422.642-.445.892-.833.25-.388.283-.6.033-.212.014-.368-.019-.156-.158-.316t-.472-.281q-.332-.121-.844.006t-.955.636q-.443.509-.871 1.545"/><path opacity=".9" fill="none" stroke-width="2.686" stroke-linecap="round" stroke-linejoin="round" d="M650.903 506.348q.03.469.181 1.391.15.921.424 1.484.273.563.418.752.144.189.719.632"/><path opacity=".9" fill="none" stroke-width="1.876" stroke-linecap="round" stroke-linejoin="round" d="M655.916 504.221l-.004.641q-.006 1.113.065 2.021.072.908.283 1.793.212.885.462 1.711.249.827.344 1.061.095.235.135-1.095.04-1.329.081-2.281.041-.952.361-1.792.319-.84.654-1.152.336-.311.724-.391.388-.079.551-.055.162.023.279.074.117.051.19.081.073.029.557.626.485.596.888 1.806.403 1.211.613 1.807.211.597.488.866.023.051.493-.064"/><path opacity=".9" fill="none" stroke-width="1.608" stroke-linecap="round" stroke-linejoin="round" d="M665.519 503.208q-.169.347-.18.442-.01.094-.07.484-.06.39-.076.696-.015.306.026 1.267.041.962.469 2.247t.845 1.776q.045-.067.209-.865"/><path opacity=".9" fill="none" stroke-width="2.359" stroke-linecap="round" stroke-linejoin="round" d="M666.118 504.661q.112-.042.532-.095.42-.054 1.288-.181.868-.127 1.348-.124.48.003.746.13.266.126.424.31.158.183.425.673.267.489.46 1.077l.575 1.74q.381 1.152.573 1.574.192.422.402.815"/><path opacity=".9" fill="none" stroke-width="1.631" stroke-linecap="round" stroke-linejoin="round" d="M675.874 507.206l.546-.236q.222-.125.594-.408t.768-.859q.397-.576.279-1.074.008-.028-.427-.102t-1.1.273q-.666.348-1.019.776-.354.427-.518.993-.165.566-.152.937.014.37.303.888.29.518 2.099.72 1.809.202 2.922.06 1.113-.142 1.628-.231"/><path opacity=".9" fill="none" stroke-width="2.831" stroke-linecap="round" stroke-linejoin="round" d="M686.315 509.929q.038-.095-.184-2.006-.222-1.911-.543-3.654-.321-1.743-.708-3.43-.386-1.687-.703-2.854-.317-1.167-1.501-4.254-1.184-3.088-1.27-3.268"/></g></svg>
