<svg xmlns="http://www.w3.org/2000/svg" viewBox="234.125 298.977 551.069 167.358"><g stroke="#000"><path opacity=".9" fill="none" stroke-width="2.09" stroke-linecap="round" stroke-linejoin="round" d="M430.969 347.016l.038-1.772q.005-.129-.156-8.716-.161-8.588-.24-12.936-.08-4.349-.115-6.521-.035-2.171-.121-6.353l.063-1.929"/><path opacity=".9" fill="none" stroke-width="2.1" stroke-linecap="round" stroke-linejoin="round" d="M430.172 307.793q2.196.001 2.337.005.14.004 2.646-.012t4.903-.004q2.396.012 6.963-.013 4.566-.025 9.18-.106 4.615-.08 12.221-.148 7.607-.068 9.896-.086 2.289-.017 11.817-.067t16.473-.094l18.835-.118q11.89-.074 16.893-.111l7.511-.057q2.509-.02 4.758-.035 2.249-.015 2.557-.026.307-.012 2.304-.036 1.996-.024 4.653-.073 2.657-.048 4.758-.082l2.553-.042q.451-.008 4.677-.048 4.226-.041 4.546-.034.32.006 2.364.006 2.043-.001 2.38.006.337.008 2.716-.004 2.379-.011 4.606-.016"/><path opacity=".9" fill="none" stroke-width="1.419" stroke-linecap="round" stroke-linejoin="round" d="M591.672 306.141q.01 2.06.093 8.882.084 6.823.115 9.19.03 2.367.052 4.63t.089 7.01q.066 4.747.069 7.013.003 2.267.035 4.407"/><path opacity=".9" fill="none" stroke-width="1.672" stroke-linecap="round" stroke-linejoin="round" d="M593.453 346.676q-2.071.021-4.097.056-2.025.035-2.328.052-.304.017-2.568.034-2.264.017-6.629.032t-9.05.068q-4.686.054-11.122.115-6.437.062-10.518.104-4.081.042-8.609.077-4.527.035-9.028.066-4.502.031-8.693.044-4.192.013-8.646.023l-6.649.013q-2.196.004-6.768.021l-11.012.041q-6.442.023-13.072.041-6.63.017-11.029.022-4.398.004-6.528.008l-4.072.004q-1.942.002-2.156-.009-.214-.01-2.061-.022-1.847-.012-1.985-.021-.139-.009-.196-.015-.056-.006-3.981.017-3.926.023-6.453.026"/><path opacity=".9" fill="none" stroke-width="1.741" stroke-linecap="round" stroke-linejoin="round" d="M320.547 456.152q-.016-1.345-.019-1.243.01-.001-.238-8.352t-.336-11.711q-.088-3.36-.092-3.448l-.066-1.771q-.062-1.685-.108-5.713"/><path opacity=".9" fill="none" stroke-width="2.088" stroke-linecap="round" stroke-linejoin="round" d="M319.094 419.004q2.642.023 7.003-.011 4.361-.034 9.425-.097 5.063-.063 9.334-.098 4.272-.035 9.106-.081 4.835-.046 14.476-.148 9.641-.102 16.646-.174 7.005-.072 11.511-.107l9.277-.072q4.771-.037 9.603-.09t9.257-.105q4.425-.051 7.257-.09 2.831-.039 9.377-.101 6.547-.062 9.116-.096 2.569-.033 2.814-.029.245.005 2.341-.019 2.097-.024 2.323-.022.226.001 2.189-.026 1.964-.028 2.117-.039.153-.012.269-.017.116-.006 2.358-.03 2.242-.025 2.567-.024.325.001 2.444-.011 2.12-.013 8.971-.037"/><path opacity=".9" fill="none" stroke-width="1.612" stroke-linecap="round" stroke-linejoin="round" d="M482.656 415.488q-.08 1.999-.177 8.715-.096 6.716-.163 9.094l-.13 4.664q-.063 2.284-.114 4.461-.052 2.176-.086 4.498-.035 2.323-.205 8.975"/><path opacity=".9" fill="none" stroke-width="1.811" stroke-linecap="round" stroke-linejoin="round" d="M484.703 454.031q-6.04.202-10.417.334-4.377.133-6.709.199t-6.55.19q-4.219.124-8.569.249l-6.644.189q-2.293.065-6.338.196-4.045.132-6.243.199-2.197.067-6.45.191-4.252.125-10.59.285-6.339.16-10.708.262-4.369.103-8.866.212-4.496.109-14.564.399-10.068.291-16.529.505-6.462.214-12.997.424t-14.606.445l-3.833.143q-.216.02-2.128.091-1.912.071-2.127.061-.215-.01-3.485.114l-.354-.014-2.121.107"/><path opacity=".9" fill="none" stroke-width="1.888" stroke-linecap="round" stroke-linejoin="round" d="M542.297 456.551l-.131-1.478q-.031.025-.934-9.643-.904-9.669-1.106-11.658-.202-1.989-.381-3.966-.18-1.977-.354-3.762-.175-1.786-.344-3.396"/><path opacity=".9" fill="none" stroke-width="2.538" stroke-linecap="round" stroke-linejoin="round" d="M536.984 421.652q2.135-.054 2.372-.042.238.011 2.177-.002t2.138-.01q.199.003 2.545-.047 2.347-.05 4.566-.079 2.218-.029 6.738-.099 4.52-.069 6.954-.097 2.433-.029 4.798-.063l4.894-.072q2.528-.038 6.701-.125t4.632-.081q.459.007 9.785-.129 9.325-.136 15.764-.234 6.438-.097 9.094-.142 2.656-.045 7.179-.117 4.523-.071 11.585-.217l11.498-.239q4.435-.093 9.282-.24 4.848-.146 7.222-.202l6.727-.157 4.473-.103q.12-.003.346-.018.226-.014 2.411-.072l4.208-.11q2.024-.052 2.434-.07.41-.019 2.638-.077 2.227-.059 2.342-.058.115 0 6.607-.145"/><path opacity=".9" fill="none" stroke-width="1.781" stroke-linecap="round" stroke-linejoin="round" d="M699.625 416.543l.085 1.686q-.022-.012-.072 1.997-.049 2.009-.426 14.296-.377 12.287-.408 14.203-.031 1.917.024 3.713"/><path opacity=".9" fill="none" stroke-width="2.339" stroke-linecap="round" stroke-linejoin="round" d="M699.953 453.703q-1.341.058-3.522.182-2.18.125-6.539.314-4.358.189-7.984.344l-4.166.18q-.54.024-4.325.178-3.784.155-5.729.231-1.945.077-3.939.148-1.993.071-4.412.167-2.418.095-6.311.231-3.893.137-7.857.273-3.964.136-11.542.411-7.578.275-11.847.427-4.269.152-9.85.338-5.581.186-11.404.345-5.823.16-9.497.255l-5.61.146-7.723.196q-5.788.146-7.697.19-1.908.043-2.231.047-.323.004-3.907.124l-.209-.016q-.18.003-7.291.163-.072.01-1.728.061t-1.743.052l-1.723.055q-1.635.053-3.823.138"/><path opacity=".9" fill="none" stroke-width="1.598" stroke-linecap="round" stroke-linejoin="round" d="M402.172 416.215q.027-1.723-.146-5.983-.173-4.261-.424-8.579-.252-4.318-.363-6.469-.111-2.151-.274-6.151l.004-1.81"/><path opacity=".9" fill="none" stroke-width="2.242" stroke-linecap="round" stroke-linejoin="round" d="M399.453 387.281q7.048-.141 9.134-.181 2.087-.04 2.412-.054.326-.015 4.846-.103 4.521-.089 7.466-.162 2.946-.074 7.658-.183 4.712-.11 11.721-.23 7.009-.121 16.68-.279 9.67-.158 21.771-.322t16.696-.231q4.595-.068 9.924-.158 5.329-.091 8.044-.131 2.714-.041 9.117-.115l9.279-.106q2.877-.032 7.304-.063 4.427-.03 9.215-.04 4.789-.009 9.756-.029l7.567-.031q2.599-.01 6.818-.023 4.219-.014 6.6-.018 2.381-.004 5.147-.014 2.767-.01 4.858-.027 2.091-.017 2.7-.014.609.002 2.759-.011 2.151-.012 2.596-.002.445.01 4.443-.017 3.998-.028 4.567-.022.57.005.963.024 3.35-.043 3.726-.037.375.005.892.02 3.545-.014 6.419-.019"/><path opacity=".9" fill="none" stroke-width="1.721" stroke-linecap="round" stroke-linejoin="round" d="M621.984 381.047q1.227 19.05 1.323 21.224.097 2.174.098 2.223.001.048.148 2.219t.388 6.35l.168 2.027"/><path opacity=".9" fill="none" stroke-width="1.361" stroke-linecap="round" stroke-linejoin="round" d="M512.172 379.125q.129-1.808.245-4.069.116-2.261.266-6.735.149-4.473.489-10.829"/><path opacity=".9" fill="none" stroke-width="1.316" stroke-linecap="round" stroke-linejoin="round" d="M511.641 351.258q-.536 1.843-1.187 3.628-.652 1.785-1.41 3.672-.757 1.886-1.372 3.844"/><path opacity=".9" fill="none" stroke-width="1.55" stroke-linecap="round" stroke-linejoin="round" d="M520.609 360.352q-1.634-1.47-3.163-3.017-1.528-1.547-6.258-6.077"/><path opacity=".9" fill="none" stroke-width="1.272" stroke-linecap="round" stroke-linejoin="round" d="M375.156 392.062q-.098-6.075-.154-8.304-.056-2.229-.445-15.157-.002-.244-.119-6.468"/><path opacity=".9" fill="none" stroke-width="1.623" stroke-linecap="round" stroke-linejoin="round" d="M374.234 360.879q-1.431 1.233-1.529 1.48-.098.248-4.314 4.684"/><path opacity=".9" fill="none" stroke-width="2.272" stroke-linecap="round" stroke-linejoin="round" d="M381.266 368.777q-1.018-1.362-6.172-8.425"/><circle opacity=".9" stroke-width=".1" cx="658.875" cy="389.215" r=".745"/><path opacity=".9" fill="none" stroke-width="1.368" stroke-linecap="round" stroke-linejoin="round" d="M658.938 388.348l.016-1.536q.012.056.004-1.486-.009-1.541.035-5.214.043-3.673.044-5.523.001-1.85-.008-7.28-.01-5.43-.014-5.468-.004-.037.056-3.533.06-3.495.058-3.553-.002-.057.074-4.493"/><path opacity=".9" fill="none" stroke-width="1.737" stroke-linecap="round" stroke-linejoin="round" d="M660.344 390.797q-1.202-.575-2.839-1.372-1.638-.796-1.807-.896-.168-.101-4.979-2.244"/><path opacity=".9" fill="none" stroke-width="2.447" stroke-linecap="round" stroke-linejoin="round" d="M666.781 383.168q-.843 1.176-1.831 2.873-.987 1.697-4.012 6.549"/><path opacity=".9" fill="none" stroke-width="2.765" stroke-linecap="round" stroke-linejoin="round" d="M460.879 335.459l-.147-.511q-.15-.247-.863-4.823-.712-4.577-2.389-12.876l.356-.313q.084-.343.223-.402"/><path opacity=".9" fill="none" stroke-width="1.837" stroke-linecap="round" stroke-linejoin="round" d="M458.829 317.927l.265-.815q.609-1.193 1.272-1.812.662-.619 1.311-.844.649-.224 1.322-.21.673.013 1.265.381.592.367 1.465 2.425.872 2.057.954 3.3.082 1.243-.091 1.826t-.293.762q-.12.178-1.451.606-1.332.428-2.015.552"/><path opacity=".9" fill="none" stroke-width="1.762" stroke-linecap="round" stroke-linejoin="round" d="M470.358 334.268l.077.032q.077-.499-.629-2.385-.707-1.886-1.717-3.337-1.01-1.452-2.056-2.345-1.046-.893-1.903-1.243-.857-.35-1.625-.61"/><path opacity=".9" fill="none" stroke-width="1.396" stroke-linecap="round" stroke-linejoin="round" d="M475.382 329.569q.141-.017.914-.504.772-.488 1.464-.995.692-.506.921-.787.23-.28.255-.617.025-.336-.042-.519-.068-.184-.162-.291-.094-.106-.315-.26-.22-.153-.984-.135-.764.018-1.659.914t-1.207 1.694q-.312.799-.315 1.658-.002.86.04 1.046.041.186.253.678.212.492.837 1.126.625.635 1.234.976.608.342 3.933.732l.761-.176"/><path opacity=".9" fill="none" stroke-width="1.738" stroke-linecap="round" stroke-linejoin="round" d="M485.352 327.815q.044.154-.109.755-.153.602-.179 1.053-.026.451.027.871.054.419.41.939.356.519.644.677.288.158 1.019.255.73.096 1.769-.673 1.038-.77 1.22-1.08.182-.31.275-.819.093-.509-.119-1.093t-.651-.925q-.439-.34-.853-.51-.414-.169-1.036-.221-.622-.053-1.158.25-.536.303-1.134.723"/><path opacity=".9" fill="none" stroke-width="1.688" stroke-linecap="round" stroke-linejoin="round" d="M490.626 328.219q-.108.882.719 3.738t1.466 4.585q.639 1.73.833 2.565.193.836.17 1.607-.024.77-.159 1.468-.135.699-3.051.986-2.917.286-3.654.259"/><path opacity=".9" fill="none" stroke-width="1.602" stroke-linecap="round" stroke-linejoin="round" d="M496.189 327.526q-.13-.181-.7-.139-.214.389-.341 1.419-.126 1.031.052 1.905.179.874.549 1.467.37.593 1.315.947.945.353 1.571.264.626-.09 1.017-.275.39-.186 1.061-1.011.672-.826.972-1.645.301-.819.337-1.77.036-.951-.154-1.49-.154-.021.048 1.36t.807 2.713q.604 1.332 2.002 2.593"/><path opacity=".9" fill="none" stroke-width="1.727" stroke-linecap="round" stroke-linejoin="round" d="M510.403 334.145q.134-.531-3.567-18.23-.046.103-.022.274.025.172.076.388"/><path opacity=".9" fill="none" stroke-width="1.655" stroke-linecap="round" stroke-linejoin="round" d="M514.946 326.877q-.498.464-.811 1.748-.312 1.284-.227 1.996.084.712.304 1.091.22.379.515.645.296.266.575.408.278.141.659.215.38.074.459.064.079-.011.281.026t1.264-.542q1.062-.578 1.731-1.537t.851-1.614q.182-.654.173-1.077-.01-.423-.114-.779-.105-.357-.477-.601t-1.145-.228q-.773.016-1.716.495-.943.48-1.641 1.059-.697.579-1.788 1.857"/><path opacity=".9" fill="none" stroke-width="2.338" stroke-linecap="round" stroke-linejoin="round" d="M520.056 327.404q.039.543.11 1.765.072 1.223.363 2.135.291.912.727 1.515.436.603 1.006.992.57.39 1.181.789"/><path opacity=".9" fill="none" stroke-width="1.865" stroke-linecap="round" stroke-linejoin="round" d="M527.976 333.864q.107.099.268.16.441-.115-3.436-19.593l-.017-.597"/><path opacity=".9" fill="none" stroke-width="1.819" stroke-linecap="round" stroke-linejoin="round" d="M530.392 318.497l-.668.238q-.969.675-4.505 1.31t-4.47.819"/><path opacity=".9" fill="none" stroke-width="1.651" stroke-linecap="round" stroke-linejoin="round" d="M533.289 327.815l-.202.217q-.095.07-.33 1.547-.234 1.478-.079 2.286.155.808.508 1.256.353.448 1.338.617.984.169 1.761.036.777-.132 1.575-.652.798-.52 1.65-1.809.852-1.289 1.124-2.68.272-1.39.003-2.181-.27-.791-1.032-1.233-.763-.442-1.792-.486-1.028-.043-2.091.616-1.064.66-1.779 1.282"/><path opacity=".9" fill="none" stroke-width="1.67" stroke-linecap="round" stroke-linejoin="round" d="M547.965 334.679l-.159-.47q-.277-.694-.831-3.655-.553-2.962-.919-4.469-.366-1.508-.552-2.129-.186-.622-.936-1.619"/><path opacity=".9" fill="none" stroke-width="1.982" stroke-linecap="round" stroke-linejoin="round" d="M546.165 327.649q.183-.078.817-.834.634-.757 1.751-1.276 1.118-.518 2.278-.64 1.161-.122 2.046.195.885.317 1.529.635"/><path opacity=".9" fill="none" stroke-width="1.731" stroke-linecap="round" stroke-linejoin="round" d="M344.489 446q.003.222.027.363t.06.724q.05-.185-1.191-14.44-.14-.16-.369-.252"/><path opacity=".9" fill="none" stroke-width="1.832" stroke-linecap="round" stroke-linejoin="round" d="M349.917 430.107l-.314-.111q-.907-.082-2.722-.385-1.815-.302-4.412.248t-4.015.952q-1.417.402-1.863.442-.446.04-.842-.019-.395-.06-1.356-.435"/><path opacity=".9" fill="none" stroke-width="1.74" stroke-linecap="round" stroke-linejoin="round" d="M354.209 430.186l-.096.06-.253.194q-.266.518-.379.709-.112.191 1.044 15.266.059.019.13-.185.07-.204.208-.511"/><path opacity=".9" fill="none" stroke-width="1.616" stroke-linecap="round" stroke-linejoin="round" d="M354.748 441.222l.114-.003q1.918-2.036 2.652-2.646.734-.61.813-.639l.243-.093q.164-.063.359-.03.194.033.317.121.124.088.292.486.168.399.888 6.76.242-.523.452-.896"/><path opacity=".9" fill="none" stroke-width="1.463" stroke-linecap="round" stroke-linejoin="round" d="M364.141 442.485q.143.008.925-.298.782-.305 1.395-.933.612-.628 1.05-1.274.438-.645.765-1.446.327-.8.148-2.148-.726-.331-2.463.662-1.737.992-2.641 2.092-.904 1.099-1.132 1.948-.227.848-.039 1.567.187.719.348.888.161.168.2.278.039.11 1.671.788 1.631.679 3.982.015 2.35-.664 3.105-.991"/><path opacity=".9" fill="none" stroke-width="2.06" stroke-linecap="round" stroke-linejoin="round" d="M378.605 444.326q-.192-.078-3.837-9.521l.286-.043"/><path opacity=".9" fill="none" stroke-width="2.552" stroke-linecap="round" stroke-linejoin="round" d="M377.056 438.97q.338-.315 1.937-.698 1.6-.384 2.618-.353 1.018.032 1.575.113"/><path opacity=".9" fill="none" stroke-width="2.05" stroke-linecap="round" stroke-linejoin="round" d="M389.971 436.112l-.115.035q-.226.311-.373 1.284-.146.973 1.202 7.008.083.197.064-.357-.019-.555-.085-1.142"/><path opacity=".9" fill="none" stroke-width="2.101" stroke-linecap="round" stroke-linejoin="round" d="M390.057 442.038l.151-.094.226-.456q.08-.051.458-.783.378-.731.799-1.214.421-.482.997-.645.576-.162.973.059.396.22.828.725.432.505.9 1.352.468.847 1.32 3.556l.049-.185q-.004.109.175-1.586.178-1.696.453-2.801.274-1.104.531-1.599.257-.495.398-.559.14-.064.524-.024.383.04.388.069.004.029.143.129.138.1.596.905.458.806 1.555 3.049.182.088.427.073.352.126 1.063.563"/><path opacity=".9" fill="none" stroke-width="2.066" stroke-linecap="round" stroke-linejoin="round" d="M406.322 439.425q-.072.16-.136 1.818-.065 1.658.172 2.502.237.844.422 1.104.185.261.372.4t.516.209q.329.069.859-.159.531-.227 1.543-1.694 1.012-1.467 1.237-2.635.226-1.168.011-1.789t-.595-.734q-.381-.113-.914-.053-.532.06-1.621 1.125-1.088 1.065-1.587 1.739"/><path opacity=".9" fill="none" stroke-width="1.603" stroke-linecap="round" stroke-linejoin="round" d="M416.33 437.866q-.165.106-.248.168-.082.062-.174 1.072-.092 1.011.007 1.775.1.764.312 1.372.212.609.363.716.15.106.26-.619.11-.726.235-1.302.125-.576.445-1.123.321-.547 1.305-.792.326.277 2.333 2.573.133.115 2.16-3.484l.252-.068.432.031.376.137q.366.005 1.502 1.961 1.135 1.956 1.479 2.57"/><path opacity=".9" fill="none" stroke-width="1.469" stroke-linecap="round" stroke-linejoin="round" d="M431.209 439.584l.703-.017q.643-.017 1.143-.268t.871-.563q.371-.312.819-1.088.447-.776.27-1.812-.512-.223-1.715.166t-1.944 1.292q-.741.903-.999 1.883t-.114 1.858q.143.878.676 1.627.533.75 1.603 1.112 1.07.363 2.866-.404t2.394-1.13"/><path opacity=".9" fill="none" stroke-width="1.696" stroke-linecap="round" stroke-linejoin="round" d="M445.548 444.16l-.064-.007q-.081-.006-1.025-4.538t-5.808-16.141q-.142.121.309 1.526.452 1.406.824 2.241"/><path opacity=".9" fill="none" stroke-width="1.755" stroke-linecap="round" stroke-linejoin="round" d="M445.221 430.756q-.246-.126-3.412.313t-5.074 1.336q-1.908.897-2.427 1.217"/><path opacity=".9" fill="none" stroke-width="1.811" stroke-linecap="round" stroke-linejoin="round" d="M449.638 439.093q.094.013.845-.069.751-.081 1.465-.492.715-.41.981-.71.266-.301.367-.541.101-.24-.03-.946-.131-.707-.809-1.11-.677-.404-1.267-.435-.59-.031-1.177.197-.588.228-1.126 1.698-.539 1.469-.362 2.924.178 1.456.55 2.237.372.781.839 1.258.468.478 1.004.606.535.128 1.247-.094.712-.223 2.375-1.152 1.662-.928 2.458-1.071.796-.142 1.1-.171"/><path opacity=".9" fill="none" stroke-width="2.053" stroke-linecap="round" stroke-linejoin="round" d="M460.831 441.179q.032-.072.115-.143.083-.07-.448-1.638-.532-1.568-1.373-2.752-.84-1.184-2.001-1.604-.09.011-.46.456"/><path opacity=".9" fill="none" stroke-width="2.462" stroke-linecap="round" stroke-linejoin="round" d="M458.338 437.462l.046-.021q1.301-.157 1.368-.14.067.017 1.028-.19.961-.208 1.891-.552.929-.344 1.49-.633.56-.289.985-.528.425-.238 1.111-.619.687-.381 1.484-.789"/><path opacity=".9" fill="none" stroke-width="1.843" stroke-linecap="round" stroke-linejoin="round" d="M580.416 447.798q.014-.113-.046-1.088-.06-.974-.754-3.35-.693-2.376-1.168-4.287t-1.227-5.288l-.058-.015-.013.008q.148-.331.463-.457.315-.126 7.684-2.129l.759.019"/><path opacity=".9" fill="none" stroke-width="2.209" stroke-linecap="round" stroke-linejoin="round" d="M582.909 439.461q-.05-.005-2.3.427-2.249.432-3.013.677"/><path opacity=".9" fill="none" stroke-width="1.746" stroke-linecap="round" stroke-linejoin="round" d="M588.5 442.528l-.184-.021-.203.006q-.176.039-.154.694.022.656.206 1.087.184.431.38.733.197.302.683.761.486.458.9.671.415.213.995.224.58.01 1.117-.378t.668-.556q.131-.168.532-.789.4-.62 1.821-4.505l.091.253q.055.263.502 1.583.447 1.321.997 2.178.55.858 1.025 1.246.475.388.723.399.247.012.776.096"/><path opacity=".9" fill="none" stroke-width="1.607" stroke-linecap="round" stroke-linejoin="round" d="M603.581 446.816q.111-.828.086-.869-.025-.042-.209-1.056-.183-1.013-.998-2.426-.816-1.412-1.508-2.097-.692-.686-1.12-.943-.429-.256-.747-.309l-.566-.059"/><path opacity=".9" fill="none" stroke-width="1.658" stroke-linecap="round" stroke-linejoin="round" d="M600.395 440.977q3.292-.036 5.072.128 1.78.165 2.165.24"/><path opacity=".9" fill="none" stroke-width="1.787" stroke-linecap="round" stroke-linejoin="round" d="M612.454 439.302q-.005-.026-.077-.097-.098.068 1.02 6.775-.002-.217.909-5.857.429-.165.438-.182.009-.017.549.061.54.079.814.188.275.108.525.37.25.263 1.93 3.434.325-.139.487-.364.163-.224.469-.567"/><path opacity=".9" fill="none" stroke-width="1.905" stroke-linecap="round" stroke-linejoin="round" d="M622.626 439.259q.05.107.079.927.029.821.145 2.053.116 1.231.254 1.727.139.497.309.713.17.216.406.354.236.138.634.178.397.039.416.052.019.012.556-.152.537-.163 1.438-1.284.901-1.121 1.126-2.25.225-1.129-.004-1.9-.229-.77-.724-1.099-.494-.329-1.097-.405-.603-.076-2.19 1.577"/><path opacity=".9" fill="none" stroke-width="2.428" stroke-linecap="round" stroke-linejoin="round" d="M627.9 438.811q-.032.16.569 2.223.602 2.062 1.104 3.171.503 1.108.858 1.795"/><path opacity=".9" fill="none" stroke-width="1.798" stroke-linecap="round" stroke-linejoin="round" d="M638.929 437.296q-.009-.026.053-1.603-.154-.127-.688-.286-.534-.158-1.582.088-1.047.246-2.023 1.114-.976.867-1.291 2.15-.315 1.283-.245 2.068.069.785.446 1.317.376.532.983.969.606.436.858.548.252.112 1.216.286.964.173 1.93-.285.966-.457 1.613-.845"/><path opacity=".9" fill="none" stroke-width="1.491" stroke-linecap="round" stroke-linejoin="round" d="M644.982 438.234l.067.006q.743-.062 1.484-.315.741-.252 1.268-.827.528-.575.67-1.147.142-.573-.059-.994-.2-.421-.532-.62-.333-.199-1.059-.298-.727-.098-1.653.284-.926.383-1.813 1.485-.888 1.102-1.113 1.857-.225.755-.252 1.757-.026 1.001.463 2.073.489 1.071 1.742 1.909 1.253.837 2.68 1.082 1.428.245 2.438-.145 1.011-.389 1.636-.708"/><path opacity=".9" fill="none" stroke-width="1.556" stroke-linecap="round" stroke-linejoin="round" d="M242.64 381.162q-.279.452-.456.896-.177.443-.289 1.008-.113.566-.098 1.148t.258.867q.243.284.877.419.635.134 1.625-.564.991-.698 1.294-1.2.304-.502.404-1.082.101-.581.033-.944t-.191-.554q-.123-.192-.315-.372t-.381-.258q-.188-.079-.269-.085-.08-.006-.188-.038-.108-.033-.433.11-.326.144-1.342 1.097"/><path opacity=".9" fill="none" stroke-width="1.596" stroke-linecap="round" stroke-linejoin="round" d="M246.066 382.223q-.17-.188-.332-.147-.162.04-.241.29-.079.25.171 1.775.249 1.524.621 3.116t.575 3.74q.203 2.149.028 3.534-.176 1.384-.627 1.892-.452.507-.938.694-.485.187-1.667-.229-1.182-.417-1.795-.77"/><path opacity=".9" fill="none" stroke-width="1.469" stroke-linecap="round" stroke-linejoin="round" d="M249.011 383.898l.144.068q.131.061 1.206-.161t2.019-.848q.944-.626 1.517-1.456.573-.829.343-2.378-.266-.191-1.059-.086-.793.105-1.694 1.011-.901.906-1.169 1.34-.267.435-.521 1.28-.254.846-.266 1.547-.012.702.227 1.344.24.642.965 1.061.725.419 1.515.437.791.018 1.542-.321.751-.338 2.256-1.488"/><path opacity=".9" fill="none" stroke-width="1.644" stroke-linecap="round" stroke-linejoin="round" d="M261.965 385.212q-.295-.646-1.781-6.173-1.486-5.526-1.902-14.487l.257-.388"/><path opacity=".9" fill="none" stroke-width="1.833" stroke-linecap="round" stroke-linejoin="round" d="M263.524 370.617q-.569-.257-1.919-.142-1.351.115-4.768 2.119-3.417 2.005-4.227 2.563"/><path opacity=".9" fill="none" stroke-width="1.666" stroke-linecap="round" stroke-linejoin="round" d="M275.371 387.254q-.326-.229-1.691-8.65-1.366-8.421-2.717-16.991.015.11.038.097"/><path opacity=".9" fill="none" stroke-width="2.105" stroke-linecap="round" stroke-linejoin="round" d="M275.169 358.931q-.102-.046-.314-.099-.212-.052-1.147-.06-.936-.008-2.804.705-1.868.713-3.33 2.17-1.462 1.457-1.971 2.063"/><path opacity=".9" fill="none" stroke-width="1.401" stroke-linecap="round" stroke-linejoin="round" d="M276.92 382.144q.243-.141 1.271-.824 1.027-.683 2.263-1.971t1.73-2.168q.495-.879.466-1.534-.028-.655-1.113-.874-1.085-.22-1.83-.04-.745.18-1.577.99-.831.81-1.185 2.258-.354 1.449-.131 2.531.223 1.082 1.258 2.284 1.035 1.203 2.218 1.8 1.182.597 2.298.647 1.115.05 2.037-.469.922-.52 1.207-.71"/><path opacity=".9" fill="none" stroke-width="1.653" stroke-linecap="round" stroke-linejoin="round" d="M287.506 374.868q-.03.103.014 1.828.045 1.724.711 3.403.666 1.68 1.155 1.756.209-.153.506-1.185.298-1.033.62-1.685.321-.653 1.079-.721.267.273.474.602.207.33 1.199 2.425.201-.066.823-.928.623-.863 1.108-1.417.486-.554 1.073-.925.588-.371.99-.335.402.036.622.202.221.167.335.363.115.196.148.21.034.014.958 6.717l.244.726"/><path opacity=".9" fill="none" stroke-width="1.732" stroke-linecap="round" stroke-linejoin="round" d="M303.655 375.684q.006.049.001 5.835-.005 5.787 1.022 13.048.084-.127.177-.58.092-.452.224-1.139"/><path opacity=".9" fill="none" stroke-width="1.719" stroke-linecap="round" stroke-linejoin="round" d="M302.625 378.752q.449-.278 1.593-.637 1.144-.358 2.105-.797.961-.44 1.628-.552.667-.113.89-.064.223.049.384.168.16.118.374.391t.309.503q.096.23.24.667.143.438.249 2.102.107 1.665-.196 3.041-.302 1.376-1.761 2.121-1.46.745-2.129.982"/><path opacity=".9" fill="none" stroke-width="1.899" stroke-linecap="round" stroke-linejoin="round" d="M314.155 380.022q.087-.067.953-.164.866-.098 1.718-.7.851-.602 1.188-1.069.337-.466.416-.799.08-.333-.039-.667t-.689-.477q-.569-.142-1.217.012-.648.154-1.412 1.02-.763.865-.943 2.821-.18 1.956.17 3.357.349 1.4.635 1.839.286.439.594.678.309.239.65.344.341.106 1.94-.705 1.598-.812 2.6-1.492 1.001-.681 1.529-1.017"/><path opacity=".9" fill="none" stroke-width="2.339" stroke-linecap="round" stroke-linejoin="round" d="M325.799 383.494q-.487-4.343-.967-5.455-.479-1.112-.833-1.516-.354-.405-.731-.561-.377-.157-.602-.137-.224.02-.832.068"/><path opacity=".9" fill="none" stroke-width="1.98" stroke-linecap="round" stroke-linejoin="round" d="M322.691 377.12q.151-.062 1.388.005 1.237.066 2.312.031 1.075-.036 1.683-.241.608-.205 1.7-.644 1.092-.439 1.54-.623"/><path opacity=".9" fill="none" stroke-width="1.559" stroke-linecap="round" stroke-linejoin="round" d="M334.057 374.623q-.371.278-.671.678-.3.4-.573 1.365-.273.966-.13 1.863.144.897.931 1.299.787.403 1.855.35 1.069-.052 1.879-.562t1.104-1.297q.294-.787.243-1.38-.051-.592-.391-1.307-.339-.716-1.1-1.217-.76-.501-1.477-.491-.716.011-1.012.13-.295.119-.745.582-.45.462-.733.939-.283.476-.614 1.091"/><path opacity=".9" fill="none" stroke-width="2.465" stroke-linecap="round" stroke-linejoin="round" d="M338.589 375.85l-.046.036q-.205.097-.417.851-.212.753-.08 1.616.132.864.463 1.378.331.515.983.997.652.482 1.087.562.435.08 1.119.197"/><path opacity=".9" fill="none" stroke-width="2.058" stroke-linecap="round" stroke-linejoin="round" d="M346.481 381.083l-.054-.069q-.288-.295-1.461-5.362-1.174-5.067-2.651-16.161l-.021-.006q-.112.179-.184.396-.072.217-.21.602"/><path opacity=".9" fill="none" stroke-width="2.91" stroke-linecap="round" stroke-linejoin="round" d="M346.317 365.146l-.074-.003q-.419-.04-2.674.342-2.256.381-3.884 1.351-1.627.969-2.279 1.493"/><path opacity=".9" fill="none" stroke-width="1.593" stroke-linecap="round" stroke-linejoin="round" d="M350.898 372.458q-.066.124-.267 2.33-.201 2.205.022 3.513.222 1.307.58 1.947.357.641.575.766.218.126.686.214.467.088 1.258-.557.792-.645 1.399-1.812.608-1.167.716-1.89.108-.723.042-1.097-.067-.375-.204-.396-.089.17.265 2.009.354 1.838 1.049 3.094.695 1.256 1.107 1.854"/><path opacity=".9" fill="none" stroke-width="1.493" stroke-linecap="round" stroke-linejoin="round" d="M360.984 381.364q.039-.484-.62-3.289-.659-2.804-1.479-4.319-.82-1.514-1.212-2.114"/><path opacity=".9" fill="none" stroke-width="1.812" stroke-linecap="round" stroke-linejoin="round" d="M359.723 375.236q.598-.125.74-.141.142-.016.194-.001.053.016 2.028-.127 1.976-.142 2.716-.135"/><path opacity=".9" fill="none" stroke-width="1.519" stroke-linecap="round" stroke-linejoin="round" d="M366.46 377.647q.1-.064.589-.42.489-.355 1.048-.958.558-.602.754-1.039.196-.437.189-.968-.007-.53-.584-.765-.578-.235-1.241-.02-.662.216-.869.453-.206.236-.411.518-.206.281-.406.852-.2.571-.241.851-.041.28.083 1.492t.702 2.029q.578.817 1.292 1.164.714.346 1.252.409.538.062 1.077-.082.539-.144 1.222-.369"/><path opacity=".9" fill="none" stroke-width="1.935" stroke-linecap="round" stroke-linejoin="round" d="M669.08 361.583l.03-.037q.053-.105.275-.067.222.038.749-.107.526-.146 1.534-.964 1.008-.817 1.498-1.464.49-.646.612-1.46.121-.814-.19-1.423-.311-.608-.968-.793-.657-.184-1.195-.062-.538.121-1.139.541-.601.42-1.193 1.517-.592 1.096-.694 2.254-.101 1.158.149 1.806.25.648 1.089 1.512.84.865 1.983 1.165 1.144.3 1.852.227.709-.074 1.411-.191"/><path opacity=".9" fill="none" stroke-width="2.068" stroke-linecap="round" stroke-linejoin="round" d="M676.808 357.663l.125-2.24q-.023-.002.431 1.847t.707 3.314q.253 1.464.429 2.185.177.72.361.933.103-.097.133-.033.029.064.185-.734.155-.799.249-1.68.095-.881.329-1.667t.636-1.258q.401-.472.667-.597.267-.125.493-.152.227-.027.633.065.407.091.944.658.537.566 1.998 2.997l.63.159"/><path opacity=".9" fill="none" stroke-width="2.545" stroke-linecap="round" stroke-linejoin="round" d="M690.051 359.013q-.058.045-.279-.772-.056-.036-.431.119t-.599 1.221q-.223 1.067-.081 1.716.143.65.582 1.038.438.389 1.84.265 1.401-.124 2.172-.603.77-.479.97-.787.2-.309.222-.7.023-.391-.15-.702-.173-.311-1.085-.729-.911-.418-1.619-.325-.708.093-1.34.259"/><path opacity=".9" fill="none" stroke-width="2.472" stroke-linecap="round" stroke-linejoin="round" d="M692.909 359.136q.066.016.549-.045.011-.004.203 1.775.191 1.779.58 4.3.389 2.521.458 4.184.069 1.662-.094 2.324-.163.662-.611 1.08-.448.417-1.316.497-.868.08-2.083-.888-1.216-.968-1.613-1.375"/><path opacity=".9" fill="none" stroke-width="1.997" stroke-linecap="round" stroke-linejoin="round" d="M700.425 359.627q-.583.185-.604.237l-.463.235q-.386.337-.605.747-.219.41-.194.845.025.435.11.549.085.115.834.355.748.241 1.766-.132 1.017-.373 1.485-.875.469-.502.639-.91.17-.407.165-.712-.005-.304-.069-.596t-.19-.529q-.126-.236-.5-.522-.374-.286-1.017-.456-.643-.17-1.528.208t-1.37 1.062q-.485.684-.865 1.389"/><path opacity=".9" fill="none" stroke-width="2.809" stroke-linecap="round" stroke-linejoin="round" d="M702.841 358.522q.018.108.128 1.167.111 1.059.532 1.859.422.799.635 1.046.213.247.595.481.383.233.561.22.178-.012.734.006"/><path opacity=".9" fill="none" stroke-width="1.906" stroke-linecap="round" stroke-linejoin="round" d="M710.03 359.259q-.086.374-.062.669.025.295.007.338-.018.043.241.662t.503.897q.244.277.38.364.136.088.568.186.431.098.758.072.327-.027.906-.351.58-.323 1.268-1.222.687-.899.759-1.407.072-.508.048-.901-.025-.393-.433-.674-.408-.282-.825-.385-.417-.104-1.868.052-1.45.156-2.947 1.348-1.496 1.191-1.96 1.694"/><path opacity=".9" fill="none" stroke-width="1.868" stroke-linecap="round" stroke-linejoin="round" d="M715.554 357.663q-.017.017-.462-.343-.445-.36-.529 1.173-.083 1.533.066 2.799.148 1.267.48 3.237.333 1.97.566 4.329.234 2.359.144 3.592-.091 1.233-.356 2.064-.266.83-3.02 1.05-2.754.221-3.347.122"/><path opacity=".9" fill="none" stroke-width="2.013" stroke-linecap="round" stroke-linejoin="round" d="M716.651 360.724l.367.2q.344.126 1.778-.236 1.435-.361 2.637-1.093 1.202-.731 1.79-1.399.587-.668.331-1.666-.572-.264-2.085.366-1.513.631-2.65 1.938t-1.314 2.481q-.177 1.175.068 1.804.246.629 1.29 1.181 1.043.552 2.767.063 1.723-.489 2.335-.774"/><path opacity=".9" fill="none" stroke-width="2.004" stroke-linecap="round" stroke-linejoin="round" d="M732.636 350.633q.005.027.166.235.16.208.338.342.178.133.447.146.016.031.123-.498.107-.528-.171-1.419-.277-.89-.739-1.398-.461-.508-.74-.685-.278-.176-1.236-.336-.958-.159-1.904.454t-1.474 2.133q-.527 1.519-.484 3.137.043 1.619.62 3.096.577 1.478 1.987 2.871 1.409 1.393 2.209 2.139.799.745 1.096 1.312.296.566.32.933.025.367-.003.529-.027.162-.405.62-.377.457-1.64.633t-2.059.004q-.796-.171-1.561-.397"/><path opacity=".9" fill="none" stroke-width="2.154" stroke-linecap="round" stroke-linejoin="round" d="M739.911 365.509q.002-.128-.785-2.873-.786-2.746-.937-3.219"/><path opacity=".9" fill="none" stroke-width="2.34" stroke-linecap="round" stroke-linejoin="round" d="M737.948 355.455q.01.047.247.333.237.287.39 1.043.154.755.297 1.403"/><path opacity=".9" fill="none" stroke-width="1.966" stroke-linecap="round" stroke-linejoin="round" d="M745.994 356.761q-.002.286-.299 1.111t-.426 1.999q-.13 1.174-.018 1.737.111.562.238.815.127.253.749.576.622.323 1.101.284.479-.039.755-.169.276-.129.778-.596.502-.467.742-1.213.241-.745.101-1.499-.14-.755-.659-1.367-.52-.613-1.515-.877-.996-.263-1.592-.076-.597.187-1.38.546"/><path opacity=".9" fill="none" stroke-width="2.144" stroke-linecap="round" stroke-linejoin="round" d="M750.45 358.645l-.127.09q-.355.484-.488 2.645-.133 2.162.58 5t1.038 4.249q.325 1.411.278 2.283-.046.871-.143 1.361-.096.491-.646.971-.551.48-1.229.661-.679.18-1.573.264-.893.085-2.122.069-1.228-.016-1.901-.061"/><path opacity=".9" fill="none" stroke-width="1.993" stroke-linecap="round" stroke-linejoin="round" d="M753.558 357.663l.138.647q.117.555.673 2.311.556 1.756 1.43 3.389.09.13.283-.625.193-.756 1.555-2.069.673.333 1.094.485.421.152.629.306.209.154.466.472.257.318.568.913.312.595.462.991.15.395.709 1.106"/><path opacity=".9" fill="none" stroke-width="1.752" stroke-linecap="round" stroke-linejoin="round" d="M765.241 361.092q-.096.049-.339.48-.242.431-.169 1.193.072.761.122.96.049.2.352.518.304.318.556.392.252.075.484.136.233.06 1.683-.576 1.45-.636 1.668-.892.217-.257.322-.841.104-.583-.18-1.116-.284-.533-1.202-.876-.917-.342-1.749-.225-.831.117-1.425.518-.595.4-1.104.784"/><path opacity=".9" fill="none" stroke-width="2.539" stroke-linecap="round" stroke-linejoin="round" d="M771.006 360.197q-.228.116-.387.234-.026.211-.04 1.006-.014.794.238 1.51.253.715 1.902 2.071"/><path opacity=".9" fill="none" stroke-width="2.623" stroke-linecap="round" stroke-linejoin="round" d="M777.3 363.993l.044-.114q.126-.688-.221-5.209-.346-4.522-1.325-8.551t-2.19-6.6q-1.211-2.57-1.659-3.431"/></g></svg>
