<svg xmlns="http://www.w3.org/2000/svg" viewBox="198.51 298.279 622.324 168.755"><g stroke="#000"><path opacity=".9" fill="none" stroke-width="2.09" stroke-linecap="round" stroke-linejoin="round" d="M430.969 347.016l.038-1.772q.005-.129-.156-8.716-.161-8.588-.24-12.936-.08-4.349-.115-6.521-.035-2.171-.121-6.353l.063-1.929"/><path opacity=".9" fill="none" stroke-width="2.1" stroke-linecap="round" stroke-linejoin="round" d="M430.172 307.793q2.196.001 2.337.005.14.004 2.646-.012t4.903-.004q2.396.012 6.963-.013 4.566-.025 9.18-.106 4.615-.08 12.221-.148 7.607-.068 9.896-.086 2.289-.017 11.817-.067t16.473-.094l18.835-.118q11.89-.074 16.893-.111l7.511-.057q2.509-.02 4.758-.035 2.249-.015 2.557-.026.307-.012 2.304-.036 1.996-.024 4.653-.073 2.657-.048 4.758-.082l2.553-.042q.451-.008 4.677-.048 4.226-.041 4.546-.034.32.006 2.364.006 2.043-.001 2.38.006.337.008 2.716-.004 2.379-.011 4.606-.016"/><path opacity=".9" fill="none" stroke-width="1.419" stroke-linecap="round" stroke-linejoin="round" d="M591.672 306.141q.01 2.06.093 8.882.084 6.823.115 9.19.03 2.367.052 4.63t.089 7.01q.066 4.747.069 7.013.003 2.267.035 4.407"/><path opacity=".9" fill="none" stroke-width="1.672" stroke-linecap="round" stroke-linejoin="round" d="M593.453 346.676q-2.071.021-4.097.056-2.025.035-2.328.052-.304.017-2.568.034-2.264.017-6.629.032t-9.05.068q-4.686.054-11.122.115-6.437.062-10.518.104-4.081.042-8.609.077-4.527.035-9.028.066-4.502.031-8.693.044-4.192.013-8.646.023l-6.649.013q-2.196.004-6.768.021l-11.012.041q-6.442.023-13.072.041-6.63.017-11.029.022-4.398.004-6.528.008l-4.072.004q-1.942.002-2.156-.009-.214-.01-2.061-.022-1.847-.012-1.985-.021-.139-.009-.196-.015-.056-.006-3.981.017-3.926.023-6.453.026"/><path opacity=".9" fill="none" stroke-width="1.741" stroke-linecap="round" stroke-linejoin="round" d="M320.547 456.152q-.016-1.345-.019-1.243.01-.001-.238-8.352t-.336-11.711q-.088-3.36-.092-3.448l-.066-1.771q-.062-1.685-.108-5.713"/><path opacity=".9" fill="none" stroke-width="2.088" stroke-linecap="round" stroke-linejoin="round" d="M319.094 419.004q2.642.023 7.003-.011 4.361-.034 9.425-.097 5.063-.063 9.334-.098 4.272-.035 9.106-.081 4.835-.046 14.476-.148 9.641-.102 16.646-.174 7.005-.072 11.511-.107l9.277-.072q4.771-.037 9.603-.09t9.257-.105q4.425-.051 7.257-.09 2.831-.039 9.377-.101 6.547-.062 9.116-.096 2.569-.033 2.814-.029.245.005 2.341-.019 2.097-.024 2.323-.022.226.001 2.189-.026 1.964-.028 2.117-.039.153-.012.269-.017.116-.006 2.358-.03 2.242-.025 2.567-.024.325.001 2.444-.011 2.12-.013 8.971-.037"/><path opacity=".9" fill="none" stroke-width="1.612" stroke-linecap="round" stroke-linejoin="round" d="M482.656 415.488q-.08 1.999-.177 8.715-.096 6.716-.163 9.094l-.13 4.664q-.063 2.284-.114 4.461-.052 2.176-.086 4.498-.035 2.323-.205 8.975"/><path opacity=".9" fill="none" stroke-width="1.811" stroke-linecap="round" stroke-linejoin="round" d="M484.703 454.031q-6.04.202-10.417.334-4.377.133-6.709.199t-6.55.19q-4.219.124-8.569.249l-6.644.189q-2.293.065-6.338.196-4.045.132-6.243.199-2.197.067-6.45.191-4.252.125-10.59.285-6.339.16-10.708.262-4.369.103-8.866.212-4.496.109-14.564.399-10.068.291-16.529.505-6.462.214-12.997.424t-14.606.445l-3.833.143q-.216.02-2.128.091-1.912.071-2.127.061-.215-.01-3.485.114l-.354-.014-2.121.107"/><path opacity=".9" fill="none" stroke-width="1.888" stroke-linecap="round" stroke-linejoin="round" d="M542.297 456.551l-.131-1.478q-.031.025-.934-9.643-.904-9.669-1.106-11.658-.202-1.989-.381-3.966-.18-1.977-.354-3.762-.175-1.786-.344-3.396"/><path opacity=".9" fill="none" stroke-width="2.538" stroke-linecap="round" stroke-linejoin="round" d="M536.984 421.652q2.135-.054 2.372-.042.238.011 2.177-.002t2.138-.01q.199.003 2.545-.047 2.347-.05 4.566-.079 2.218-.029 6.738-.099 4.52-.069 6.954-.097 2.433-.029 4.798-.063l4.894-.072q2.528-.038 6.701-.125t4.632-.081q.459.007 9.785-.129 9.325-.136 15.764-.234 6.438-.097 9.094-.142 2.656-.045 7.179-.117 4.523-.071 11.585-.217l11.498-.239q4.435-.093 9.282-.24 4.848-.146 7.222-.202l6.727-.157 4.473-.103q.12-.003.346-.018.226-.014 2.411-.072l4.208-.11q2.024-.052 2.434-.07.41-.019 2.638-.077 2.227-.059 2.342-.058.115 0 6.607-.145"/><path opacity=".9" fill="none" stroke-width="1.781" stroke-linecap="round" stroke-linejoin="round" d="M699.625 416.543l.085 1.686q-.022-.012-.072 1.997-.049 2.009-.426 14.296-.377 12.287-.408 14.203-.031 1.917.024 3.713"/><path opacity=".9" fill="none" stroke-width="2.339" stroke-linecap="round" stroke-linejoin="round" d="M699.953 453.703q-1.341.058-3.522.182-2.18.125-6.539.314-4.358.189-7.984.344l-4.166.18q-.54.024-4.325.178-3.784.155-5.729.231-1.945.077-3.939.148-1.993.071-4.412.167-2.418.095-6.311.231-3.893.137-7.857.273-3.964.136-11.542.411-7.578.275-11.847.427-4.269.152-9.85.338-5.581.186-11.404.345-5.823.16-9.497.255l-5.61.146-7.723.196q-5.788.146-7.697.19-1.908.043-2.231.047-.323.004-3.907.124l-.209-.016q-.18.003-7.291.163-.072.01-1.728.061t-1.743.052l-1.723.055q-1.635.053-3.823.138"/><path opacity=".9" fill="none" stroke-width="1.598" stroke-linecap="round" stroke-linejoin="round" d="M402.172 416.215q.027-1.723-.146-5.983-.173-4.261-.424-8.579-.252-4.318-.363-6.469-.111-2.151-.274-6.151l.004-1.81"/><path opacity=".9" fill="none" stroke-width="2.242" stroke-linecap="round" stroke-linejoin="round" d="M399.453 387.281q7.048-.141 9.134-.181 2.087-.04 2.412-.054.326-.015 4.846-.103 4.521-.089 7.466-.162 2.946-.074 7.658-.183 4.712-.11 11.721-.23 7.009-.121 16.68-.279 9.67-.158 21.771-.322t16.696-.231q4.595-.068 9.924-.158 5.329-.091 8.044-.131 2.714-.041 9.117-.115l9.279-.106q2.877-.032 7.304-.063 4.427-.03 9.215-.04 4.789-.009 9.756-.029l7.567-.031q2.599-.01 6.818-.023 4.219-.014 6.6-.018 2.381-.004 5.147-.014 2.767-.01 4.858-.027 2.091-.017 2.7-.014.609.002 2.759-.011 2.151-.012 2.596-.002.445.01 4.443-.017 3.998-.028 4.567-.022.57.005.963.024 3.35-.043 3.726-.037.375.005.892.02 3.545-.014 6.419-.019"/><path opacity=".9" fill="none" stroke-width="1.721" stroke-linecap="round" stroke-linejoin="round" d="M621.984 381.047q1.227 19.05 1.323 21.224.097 2.174.098 2.223.001.048.148 2.219t.388 6.35l.168 2.027"/><path opacity=".9" fill="none" stroke-width="1.361" stroke-linecap="round" stroke-linejoin="round" d="M512.172 379.125q.129-1.808.245-4.069.116-2.261.266-6.735.149-4.473.489-10.829"/><path opacity=".9" fill="none" stroke-width="1.316" stroke-linecap="round" stroke-linejoin="round" d="M511.641 351.258q-.536 1.843-1.187 3.628-.652 1.785-1.41 3.672-.757 1.886-1.372 3.844"/><path opacity=".9" fill="none" stroke-width="1.55" stroke-linecap="round" stroke-linejoin="round" d="M520.609 360.352q-1.634-1.47-3.163-3.017-1.528-1.547-6.258-6.077"/><path opacity=".9" fill="none" stroke-width="1.272" stroke-linecap="round" stroke-linejoin="round" d="M375.772 391.447q-.098-6.076-.154-8.305-.056-2.229-.445-15.157-.002-.244-.12-6.468"/><path opacity=".9" fill="none" stroke-width="1.623" stroke-linecap="round" stroke-linejoin="round" d="M374.85 360.263q-1.431 1.233-1.529 1.481-.098.247-4.314 4.683"/><path opacity=".9" fill="none" stroke-width="2.272" stroke-linecap="round" stroke-linejoin="round" d="M381.882 368.161q-1.018-1.362-6.172-8.425"/><circle opacity=".9" stroke-width=".1" cx="653.64" cy="382.132" r=".745"/><path opacity=".9" fill="none" stroke-width="1.368" stroke-linecap="round" stroke-linejoin="round" d="M653.702 381.265l.016-1.536q.013.056.005-1.486-.009-1.541.035-5.214.043-3.673.044-5.523.001-1.85-.009-7.28-.009-5.43-.013-5.468-.004-.038.056-3.533t.058-3.553q-.002-.057.074-4.493"/><path opacity=".9" fill="none" stroke-width="1.737" stroke-linecap="round" stroke-linejoin="round" d="M655.108 383.714q-1.201-.575-2.839-1.372-1.637-.796-1.806-.897-.169-.1-4.98-2.243"/><path opacity=".9" fill="none" stroke-width="2.447" stroke-linecap="round" stroke-linejoin="round" d="M661.546 376.085q-.843 1.176-1.831 2.873-.988 1.697-4.013 6.549"/><path opacity=".9" fill="none" stroke-width="2.679" stroke-linecap="round" stroke-linejoin="round" d="M460.879 335.459l-.145-.516q-.074-.125-.265-1.378-.192-1.253-.283-3.314-.09-2.06-.189-3.711-.098-1.65-.564-2.932-.467-1.281-.985-2.812-.519-1.53-.965-3.552l.354-.31q.083-.342.222-.4"/><path opacity=".9" fill="none" stroke-width="1.837" stroke-linecap="round" stroke-linejoin="round" d="M458.829 317.927l.265-.815q.609-1.193 1.272-1.812.662-.619 1.311-.844.649-.224 1.322-.21.673.013 1.265.381.592.367 1.465 2.425.872 2.057.954 3.3.082 1.243-.091 1.826t-.293.762q-.12.178-1.451.606-1.332.428-2.015.552"/><path opacity=".9" fill="none" stroke-width="1.762" stroke-linecap="round" stroke-linejoin="round" d="M470.358 334.268l.077.032q.077-.499-.629-2.385-.707-1.886-1.717-3.337-1.01-1.452-2.056-2.345-1.046-.893-1.903-1.243-.857-.35-1.625-.61"/><path opacity=".9" fill="none" stroke-width="1.396" stroke-linecap="round" stroke-linejoin="round" d="M475.382 329.569q.141-.017.914-.504.772-.488 1.464-.995.692-.506.921-.787.23-.28.255-.617.025-.336-.042-.519-.068-.184-.162-.291-.094-.106-.315-.26-.22-.153-.984-.135-.764.018-1.659.914t-1.207 1.694q-.312.799-.315 1.658-.002.86.04 1.046.041.186.253.678.212.492.837 1.126.625.635 1.234.976.608.342 3.933.732l.761-.176"/><path opacity=".9" fill="none" stroke-width="1.738" stroke-linecap="round" stroke-linejoin="round" d="M485.352 327.815q.044.154-.109.755-.153.602-.179 1.053-.026.451.027.871.054.419.41.939.356.519.644.677.288.158 1.019.255.73.096 1.769-.673 1.038-.77 1.22-1.08.182-.31.275-.819.093-.509-.119-1.093t-.651-.925q-.439-.34-.853-.51-.414-.169-1.036-.221-.622-.053-1.158.25-.536.303-1.134.723"/><path opacity=".9" fill="none" stroke-width="1.688" stroke-linecap="round" stroke-linejoin="round" d="M490.626 328.219q-.108.882.719 3.738t1.466 4.585q.639 1.73.833 2.565.193.836.17 1.607-.024.77-.159 1.468-.135.699-3.051.986-2.917.286-3.654.259"/><path opacity=".9" fill="none" stroke-width="1.602" stroke-linecap="round" stroke-linejoin="round" d="M496.189 327.526q-.13-.181-.7-.139-.214.389-.341 1.419-.126 1.031.052 1.905.179.874.549 1.467.37.593 1.315.947.945.353 1.571.264.626-.09 1.017-.275.39-.186 1.061-1.011.672-.826.972-1.645.301-.819.337-1.77.036-.951-.154-1.49-.154-.021.048 1.36t.807 2.713q.604 1.332 2.002 2.593"/><path opacity=".9" fill="none" stroke-width="1.727" stroke-linecap="round" stroke-linejoin="round" d="M510.403 334.145q.134-.531-3.567-18.23-.046.103-.022.274.025.172.076.388"/><path opacity=".9" fill="none" stroke-width="1.655" stroke-linecap="round" stroke-linejoin="round" d="M514.946 326.877q-.498.464-.811 1.748-.312 1.284-.227 1.996.084.712.304 1.091.22.379.515.645.296.266.575.408.278.141.659.215.38.074.459.064.079-.011.281.026t1.264-.542q1.062-.578 1.731-1.537t.851-1.614q.182-.654.173-1.077-.01-.423-.114-.779-.105-.357-.477-.601t-1.145-.228q-.773.016-1.716.495-.943.48-1.641 1.059-.697.579-1.788 1.857"/><path opacity=".9" fill="none" stroke-width="2.338" stroke-linecap="round" stroke-linejoin="round" d="M520.056 327.404q.039.543.11 1.765.072 1.223.363 2.135.291.912.727 1.515.436.603 1.006.992.57.39 1.181.789"/><path opacity=".9" fill="none" stroke-width="1.865" stroke-linecap="round" stroke-linejoin="round" d="M527.976 333.864q.107.099.268.16.441-.115-3.436-19.593l-.017-.597"/><path opacity=".9" fill="none" stroke-width="1.819" stroke-linecap="round" stroke-linejoin="round" d="M530.392 318.497l-.668.238q-.969.675-4.505 1.31t-4.47.819"/><path opacity=".9" fill="none" stroke-width="1.65" stroke-linecap="round" stroke-linejoin="round" d="M533.289 327.815l.282.137q.656-.055.653 1.385-.003 1.439-.254 2.314-.25.876-.073 1.353.178.477.968.678.791.2 1.513.077.722-.123 1.503-.641.781-.517 1.628-1.802.846-1.285 1.064-2.619.218-1.334-.183-1.988-.401-.654-1.424-.826-1.023-.171-2.449.199-1.426.371-2.302.835-.876.464-.272-.286"/><path opacity=".9" fill="none" stroke-width="1.67" stroke-linecap="round" stroke-linejoin="round" d="M547.965 334.679l-.159-.47q-.277-.694-.831-3.655-.553-2.962-.919-4.469-.366-1.508-.552-2.129-.186-.622-.936-1.619"/><path opacity=".9" fill="none" stroke-width="1.982" stroke-linecap="round" stroke-linejoin="round" d="M546.165 327.649q.183-.078.817-.834.634-.757 1.751-1.276 1.118-.518 2.278-.64 1.161-.122 2.046.195.885.317 1.529.635"/><path opacity=".9" fill="none" stroke-width="1.731" stroke-linecap="round" stroke-linejoin="round" d="M344.489 446q.003.222.027.363t.06.724q.05-.185-1.191-14.44-.14-.16-.369-.252"/><path opacity=".9" fill="none" stroke-width="1.832" stroke-linecap="round" stroke-linejoin="round" d="M349.917 430.107l-.314-.111q-.907-.082-2.722-.385-1.815-.302-4.412.248t-4.015.952q-1.417.402-1.863.442-.446.04-.842-.019-.395-.06-1.356-.435"/><path opacity=".9" fill="none" stroke-width="1.74" stroke-linecap="round" stroke-linejoin="round" d="M354.209 430.186l-.096.06-.253.194q-.266.518-.379.709-.112.191 1.044 15.266.059.019.13-.185.07-.204.208-.511"/><path opacity=".9" fill="none" stroke-width="1.616" stroke-linecap="round" stroke-linejoin="round" d="M354.748 441.222l.114-.003q1.918-2.036 2.652-2.646.734-.61.813-.639l.243-.093q.164-.063.359-.03.194.033.317.121.124.088.292.486.168.399.888 6.76.242-.523.452-.896"/><path opacity=".9" fill="none" stroke-width="1.463" stroke-linecap="round" stroke-linejoin="round" d="M364.141 442.485q.143.008.925-.298.782-.305 1.395-.933.612-.628 1.05-1.274.438-.645.765-1.446.327-.8.148-2.148-.726-.331-2.463.662-1.737.992-2.641 2.092-.904 1.099-1.132 1.948-.227.848-.039 1.567.187.719.348.888.161.168.2.278.039.11 1.671.788 1.631.679 3.982.015 2.35-.664 3.105-.991"/><path opacity=".9" fill="none" stroke-width="2.06" stroke-linecap="round" stroke-linejoin="round" d="M378.605 444.326q-.192-.078-3.837-9.521l.286-.043"/><path opacity=".9" fill="none" stroke-width="2.552" stroke-linecap="round" stroke-linejoin="round" d="M377.056 438.97q.338-.315 1.937-.698 1.6-.384 2.618-.353 1.018.032 1.575.113"/><path opacity=".9" fill="none" stroke-width="2.05" stroke-linecap="round" stroke-linejoin="round" d="M389.971 436.112l-.115.035q-.226.311-.373 1.284-.146.973 1.202 7.008.083.197.064-.357-.019-.555-.085-1.142"/><path opacity=".9" fill="none" stroke-width="2.101" stroke-linecap="round" stroke-linejoin="round" d="M390.057 442.038l.151-.094.226-.456q.08-.051.458-.783.378-.731.799-1.214.421-.482.997-.645.576-.162.973.059.396.22.828.725.432.505.9 1.352.468.847 1.32 3.556l.049-.185q-.004.109.175-1.586.178-1.696.453-2.801.274-1.104.531-1.599.257-.495.398-.559.14-.064.524-.024.383.04.388.069.004.029.143.129.138.1.596.905.458.806 1.555 3.049.182.088.427.073.352.126 1.063.563"/><path opacity=".9" fill="none" stroke-width="2.066" stroke-linecap="round" stroke-linejoin="round" d="M406.322 439.425q-.072.16-.136 1.818-.065 1.658.172 2.502.237.844.422 1.104.185.261.372.4t.516.209q.329.069.859-.159.531-.227 1.543-1.694 1.012-1.467 1.237-2.635.226-1.168.011-1.789t-.595-.734q-.381-.113-.914-.053-.532.06-1.621 1.125-1.088 1.065-1.587 1.739"/><path opacity=".9" fill="none" stroke-width="1.603" stroke-linecap="round" stroke-linejoin="round" d="M416.33 437.866q-.165.106-.248.168-.082.062-.174 1.072-.092 1.011.007 1.775.1.764.312 1.372.212.609.363.716.15.106.26-.619.11-.726.235-1.302.125-.576.445-1.123.321-.547 1.305-.792.326.277 2.333 2.573.133.115 2.16-3.484l.252-.068.432.031.376.137q.366.005 1.502 1.961 1.135 1.956 1.479 2.57"/><path opacity=".9" fill="none" stroke-width="1.469" stroke-linecap="round" stroke-linejoin="round" d="M431.209 439.584l.703-.017q.643-.017 1.143-.268t.871-.563q.371-.312.819-1.088.447-.776.27-1.812-.512-.223-1.715.166t-1.944 1.292q-.741.903-.999 1.883t-.114 1.858q.143.878.676 1.627.533.75 1.603 1.112 1.07.363 2.866-.404t2.394-1.13"/><path opacity=".9" fill="none" stroke-width="1.696" stroke-linecap="round" stroke-linejoin="round" d="M445.548 444.16l-.064-.007q-.081-.006-1.025-4.538t-5.808-16.141q-.142.121.309 1.526.452 1.406.824 2.241"/><path opacity=".9" fill="none" stroke-width="1.755" stroke-linecap="round" stroke-linejoin="round" d="M445.221 430.756q-.246-.126-3.412.313t-5.074 1.336q-1.908.897-2.427 1.217"/><path opacity=".9" fill="none" stroke-width="1.811" stroke-linecap="round" stroke-linejoin="round" d="M449.638 439.093q.094.013.845-.069.751-.081 1.465-.492.715-.41.981-.71.266-.301.367-.541.101-.24-.03-.946-.131-.707-.809-1.11-.677-.404-1.267-.435-.59-.031-1.177.197-.588.228-1.126 1.698-.539 1.469-.362 2.924.178 1.456.55 2.237.372.781.839 1.258.468.478 1.004.606.535.128 1.247-.094.712-.223 2.375-1.152 1.662-.928 2.458-1.071.796-.142 1.1-.171"/><path opacity=".9" fill="none" stroke-width="2.053" stroke-linecap="round" stroke-linejoin="round" d="M460.831 441.179q.032-.072.115-.143.083-.07-.448-1.638-.532-1.568-1.373-2.752-.84-1.184-2.001-1.604-.09.011-.46.456"/><path opacity=".9" fill="none" stroke-width="2.462" stroke-linecap="round" stroke-linejoin="round" d="M458.338 437.462l.046-.021q1.301-.157 1.368-.14.067.017 1.028-.19.961-.208 1.891-.552.929-.344 1.49-.633.56-.289.985-.528.425-.238 1.111-.619.687-.381 1.484-.789"/><path opacity=".9" fill="none" stroke-width="1.843" stroke-linecap="round" stroke-linejoin="round" d="M580.416 447.798q.014-.113-.046-1.088-.06-.974-.754-3.35-.693-2.376-1.168-4.287t-1.227-5.288l-.058-.015-.013.008q.148-.331.463-.457.315-.126 7.684-2.129l.759.019"/><path opacity=".9" fill="none" stroke-width="2.209" stroke-linecap="round" stroke-linejoin="round" d="M582.909 439.461q-.05-.005-2.3.427-2.249.432-3.013.677"/><path opacity=".9" fill="none" stroke-width="1.746" stroke-linecap="round" stroke-linejoin="round" d="M588.5 442.528l-.184-.021-.203.006q-.176.039-.154.694.022.656.206 1.087.184.431.38.733.197.302.683.761.486.458.9.671.415.213.995.224.58.01 1.117-.378t.668-.556q.131-.168.532-.789.4-.62 1.821-4.505l.091.253q.055.263.502 1.583.447 1.321.997 2.178.55.858 1.025 1.246.475.388.723.399.247.012.776.096"/><path opacity=".9" fill="none" stroke-width="1.607" stroke-linecap="round" stroke-linejoin="round" d="M603.581 446.816q.111-.828.086-.869-.025-.042-.209-1.056-.183-1.013-.998-2.426-.816-1.412-1.508-2.097-.692-.686-1.12-.943-.429-.256-.747-.309l-.566-.059"/><path opacity=".9" fill="none" stroke-width="1.664" stroke-linecap="round" stroke-linejoin="round" d="M601.945 442.09q1.918-4.234 3.55-4.127 1.632.107 1.448 1.145"/><path opacity=".9" fill="none" stroke-width="1.796" stroke-linecap="round" stroke-linejoin="round" d="M612.454 439.302q-.005-.026-.077-.097-.049.034.206 1.728t.814 5.047q-.002-.217.911-5.832.431-.153.44-.169.009-.017.551.091.543.107.82.243.277.136.532.45.255.313 2.082 4.992.348.114.531.101.183-.013.524.008"/><path opacity=".9" fill="none" stroke-width="1.904" stroke-linecap="round" stroke-linejoin="round" d="M624.403 439.595q-.011.095-.365.844-.354.748-.584 1.914-.229 1.166-.156 1.65.074.484.223.696.149.213.37.348.22.135.604.172.384.037.403.049.018.012.546-.153t1.425-1.287q.896-1.122 1.121-2.251.224-1.129-.005-1.9-.229-.77-.724-1.099-.494-.329-1.097-.405-.603-.076-2.19 1.577"/><path opacity=".9" fill="none" stroke-width="2.428" stroke-linecap="round" stroke-linejoin="round" d="M627.9 438.811q-.032.16.569 2.223.602 2.062 1.104 3.171.503 1.108.858 1.795"/><path opacity=".9" fill="none" stroke-width="1.79" stroke-linecap="round" stroke-linejoin="round" d="M637.758 438.089q-.015.002-.442-.146-.149-.03-.632-.001-.482.028-1.415.305-.933.277-1.632.595-.7.318-.769 1.07-.069.751.083 1.357.153.605.564 1.061.411.456 1.034.855.624.399.878.504.255.106 1.223.27.969.164 1.935-.295.967-.459 1.614-.847"/><path opacity=".9" fill="none" stroke-width="1.515" stroke-linecap="round" stroke-linejoin="round" d="M641.773 439.006l.11-.004q1.216-.176 2.412-.538 1.196-.362 2.078-1.022.883-.661 1.219-1.28.336-.619.247-1.067-.089-.448-.352-.663-.264-.216-.906-.335-.643-.119-1.515.251-.873.37-1.74 1.467-.866 1.096-1.089 1.851-.223.754-.248 1.756-.025 1.002.464 2.073.489 1.071 1.742 1.909 1.253.837 2.68 1.082 1.428.245 2.438-.145 1.011-.389 1.636-.708"/><path opacity=".9" fill="none" stroke-width="1.556" stroke-linecap="round" stroke-linejoin="round" d="M207.959 380.542q-.334.544-.545 1.079-.212.534-.345 1.215-.134.681-.114 1.381.02.701.314 1.042.293.342 1.057.502.764.16 1.953-.684 1.19-.844 1.554-1.449.364-.605.482-1.304.119-.699.036-1.136-.083-.437-.232-.666-.148-.23-.38-.446-.232-.217-.459-.31t-.324-.1q-.096-.007-.227-.046-.13-.039-.521.134-.391.174-1.61 1.325"/><path opacity=".9" fill="none" stroke-width="1.596" stroke-linecap="round" stroke-linejoin="round" d="M212.086 381.807q-.206-.226-.4-.177-.195.05-.289.351-.094.301.211 2.135.306 1.833.759 3.748.452 1.914.704 4.499.252 2.586.046 4.253-.206 1.667-.748 2.279-.541.612-1.125.839-.585.226-2.008-.27-1.424-.497-2.163-.921"/><path opacity=".9" fill="none" stroke-width="1.469" stroke-linecap="round" stroke-linejoin="round" d="M215.636 383.812l.174.081q.158.074 1.45-.197 1.293-.271 2.427-1.028 1.134-.757 1.821-1.757.687-1 .405-2.863-.322-.23-1.276-.1-.953.129-2.035 1.222-1.081 1.094-1.402 1.617-.32.524-.623 1.542-.303 1.019-.315 1.863-.011.844.279 1.617.291.772 1.165 1.274.873.501 1.825.52.951.019 1.854-.391.903-.41 2.711-1.8"/><path opacity=".9" fill="none" stroke-width="1.644" stroke-linecap="round" stroke-linejoin="round" d="M231.23 385.348q-.356-.776-2.164-7.422-1.808-6.645-2.34-17.428l.308-.468"/><path opacity=".9" fill="none" stroke-width="1.833" stroke-linecap="round" stroke-linejoin="round" d="M233.056 367.779q-.685-.308-2.31-.165t-5.73 2.567q-4.106 2.425-5.078 3.099"/><path opacity=".9" fill="none" stroke-width="1.666" stroke-linecap="round" stroke-linejoin="round" d="M247.371 387.76q-.392-.274-2.065-10.404-1.672-10.131-3.328-20.44.018.133.047.117"/><path opacity=".9" fill="none" stroke-width="2.1" stroke-linecap="round" stroke-linejoin="round" d="M247.03 353.675q.071.068.21.259.14.192-.527.318-.668.126-1.573.36-.905.234-2.119.689-1.215.455-2.501.851-1.286.397-2.364 1.075-1.077.678-1.695 1.274-.618.596-.927.957"/><path opacity=".9" fill="none" stroke-width="1.401" stroke-linecap="round" stroke-linejoin="round" d="M249.218 381.605q.292-.17 1.527-.996 1.234-.826 2.717-2.38 1.482-1.555 2.075-2.615.592-1.06.555-1.848-.036-.788-1.343-1.048-1.306-.261-2.202-.041-.896.219-1.894 1.196-.999.978-1.42 2.722-.421 1.744-.148 3.046.272 1.301 1.522 2.745 1.25 1.444 2.675 2.158 1.426.715 2.768.771 1.342.056 2.45-.572t1.45-.858"/><path opacity=".9" fill="none" stroke-width="1.648" stroke-linecap="round" stroke-linejoin="round" d="M261.934 372.812q-.019.062-.013.613.006.552.032 1.624.026 1.073.214 2.38t.519 3.036q.332 1.73.66 2.465.327.736.625.749.259-.266.696-2.323.437-2.058.853-3.15.415-1.092 1.337-1.276.324.306.575.692.251.387 1.453 2.899.242-.08.988-1.119.746-1.04 1.328-1.708.582-.669 1.289-1.117.706-.449 1.19-.407.484.042.749.241.266.199.405.435.138.236.161.246.022.009.104.517.081.508.227 1.518.147 1.01.363 2.523.215 1.513.499 3.529l.296.873"/><path opacity=".9" fill="none" stroke-width="1.748" stroke-linecap="round" stroke-linejoin="round" d="M281.371 373.738q.004.029.008 1.346l.007 2.626.007 3.051q.003 1.741.064 3.129.061 1.389.122 2.343.06.953.14 1.934.079.982.178 1.991.1 1.008.219 2.044.119 1.035.274 2.074.154 1.038.392 2.002.123-.189.33-.891.208-.701.574-1.862"/><path opacity=".9" fill="none" stroke-width="1.733" stroke-linecap="round" stroke-linejoin="round" d="M280.143 377.433q.539-.335 1.914-.771t2.529-.969q1.154-.533 1.954-.672.801-.14 1.068-.084.268.057.46.198.192.141.447.465.254.324.367.596.112.273.276.789.164.515.18 2.398.016 1.883-.656 3.221-.673 1.338-3.16 1.491-2.488.154-3.682.044"/><path opacity=".9" fill="none" stroke-width="1.899" stroke-linecap="round" stroke-linejoin="round" d="M294.023 378.922q.104-.08 1.146-.201 1.042-.12 2.065-.848 1.023-.727 1.427-1.29.403-.562.498-.963.095-.401-.05-.802-.144-.402-.83-.572-.686-.17-1.466.018-.779.187-1.695 1.232-.915 1.045-1.125 3.399-.21 2.355.216 4.039.425 1.684.771 2.212.345.527.717.813.373.287.783.413.411.125 2.332-.856 1.921-.982 3.124-1.805t1.837-1.229"/><path opacity=".9" fill="none" stroke-width="2.339" stroke-linecap="round" stroke-linejoin="round" d="M308.049 383.061q-.301-2.613-.596-4.254-.295-1.642-.71-2.678-.415-1.037-.77-1.646-.354-.609-.677-1.017-.323-.408-.486-.563-.164-.155-.552-.671"/><path opacity=".9" fill="none" stroke-width="1.971" stroke-linecap="round" stroke-linejoin="round" d="M306.57 375.072q-.034-.077-.103-.399-.068-.323.263-.916.33-.593.993-1.112.664-.519 1.674-1.122 1.01-.602 1.548.54.538 1.143 1.073 1.583.536.44.517.417"/><path opacity=".9" fill="none" stroke-width="1.559" stroke-linecap="round" stroke-linejoin="round" d="M317.956 372.356q-.445.336-.805.818-.36.483-.685 1.646-.325 1.163-.149 2.242.176 1.079 1.124 1.56.949.482 2.235.415 1.285-.066 2.258-.683.973-.617 1.324-1.565.352-.948.288-1.661-.063-.712-.474-1.572-.411-.86-1.328-1.461-.918-.601-1.78-.585-.862.015-1.217.159-.356.145-.895.703-.54.558-.879 1.132-.339.575-.736 1.315"/><path opacity=".9" fill="none" stroke-width="2.465" stroke-linecap="round" stroke-linejoin="round" d="M323.415 373.817l-.056.044q-.246.117-.498 1.025-.253.907-.091 1.946t.562 1.656q.401.618 1.186 1.196.786.578 1.31.673.524.095 1.348.234"/><path opacity=".9" fill="none" stroke-width="2.058" stroke-linecap="round" stroke-linejoin="round" d="M332.931 380.088l-.065-.083q-.347-.354-1.777-6.448t-3.246-19.44l-.025-.007q-.134.215-.22.476-.086.262-.251.726"/><path opacity=".9" fill="none" stroke-width="2.91" stroke-linecap="round" stroke-linejoin="round" d="M332.679 360.908l-.09-.003q-.503-.046-3.217.421-2.714.467-4.669 1.639-1.955 1.172-2.738 1.805"/><path opacity=".9" fill="none" stroke-width="1.593" stroke-linecap="round" stroke-linejoin="round" d="M338.217 369.692q-.079.15-.313 2.805-.234 2.655.038 4.228t.705 2.342q.432.769.695.92.263.15.825.254.563.104 1.514-.674.95-.779 1.677-2.186.727-1.406.855-2.277.127-.87.046-1.32-.081-.451-.246-.476-.107.205.325 2.417.433 2.211 1.273 3.72.841 1.51 1.339 2.227"/><path opacity=".9" fill="none" stroke-width="1.493" stroke-linecap="round" stroke-linejoin="round" d="M350.386 380.377q.046-.584-.757-3.957-.803-3.373-1.795-5.193-.992-1.82-1.466-2.54"/><path opacity=".9" fill="none" stroke-width="1.824" stroke-linecap="round" stroke-linejoin="round" d="M348.848 373.006q1.178-1.861 1.346-2.146.167-.284.208-.335.041-.05.508-.583.467-.533 1.218.136.751.669.99 1.018.239.348.3.425"/><path opacity=".9" fill="none" stroke-width="1.519" stroke-linecap="round" stroke-linejoin="round" d="M356.964 375.884q.119-.078.707-.507.588-.43 1.258-1.157.669-.727.904-1.253.235-.527.224-1.166-.01-.638-.706-.919t-1.493-.019q-.797.262-1.044.547-.247.286-.494.625-.246.339-.484 1.027-.239.688-.287 1.025-.049.338.104 1.796t.852 2.439q.699.981 1.559 1.396.861.415 1.508.488.648.073 1.296-.102t1.469-.448"/><path opacity=".9" fill="none" stroke-width="1.935" stroke-linecap="round" stroke-linejoin="round" d="M674.238 364.198l.037-.047q.068-.135.351-.087.283.049.954-.138.67-.186 1.954-1.231 1.284-1.044 1.908-1.869.624-.826.777-1.864.152-1.038-.245-1.813-.397-.776-1.235-1.009-.838-.234-1.524-.078-.686.155-1.452.693-.766.537-1.518 1.936-.753 1.399-.88 2.876-.127 1.476.193 2.302.32.825 1.392 1.926 1.072 1.101 2.531 1.481 1.459.381 2.362.286.902-.096 1.798-.247"/><path opacity=".9" fill="none" stroke-width="2.068" stroke-linecap="round" stroke-linejoin="round" d="M684.083 359.185l.154-2.857q-.029-.002.554 2.355.583 2.357.908 4.223.325 1.867.552 2.785.226.919.462 1.19.13-.124.168-.043.039.082.235-.936.196-1.019.315-2.142.118-1.124.416-2.127.297-1.003.808-1.605.511-.602.85-.762.339-.16.628-.195t.808.081q.518.116 1.204.838.686.721 2.553 3.817l.804.202"/><path opacity=".9" fill="none" stroke-width="2.545" stroke-linecap="round" stroke-linejoin="round" d="M700.97 360.88q-.074.058-.357-.983-.07-.046-.549.152-.478.198-.761 1.559-.283 1.36-.099 2.188.183.827.743 1.322.559.495 2.346.334 1.787-.161 2.768-.773.981-.612 1.236-1.006.254-.394.282-.892.028-.499-.193-.895t-1.384-.927q-1.164-.532-2.066-.412-.902.12-1.708.333"/><path opacity=".9" fill="none" stroke-width="2.472" stroke-linecap="round" stroke-linejoin="round" d="M704.615 361.031q.085.021.7-.058.014-.005.262 2.263.247 2.267.748 5.481.501 3.215.592 5.334.092 2.119-.115 2.964-.206.844-.777 1.378-.57.533-1.677.636-1.106.103-2.658-1.128-1.552-1.232-2.059-1.751"/><path opacity=".9" fill="none" stroke-width="1.98" stroke-linecap="round" stroke-linejoin="round" d="M711.119 362.39q.029.05.069.1l-.007.16q-.009.313.02.761.029.448.22.964.191.517.332.655.14.138 1.172.425t2.341-.194q1.31-.48 1.906-1.122.598-.642.813-1.161.216-.52.209-.908-.007-.389-.089-.761-.081-.372-.242-.673-.161-.301-.639-.665-.477-.364-1.298-.579-.821-.216-1.948.268-1.128.483-1.745 1.356-.617.873-1.1 1.772"/><path opacity=".9" fill="none" stroke-width="2.809" stroke-linecap="round" stroke-linejoin="round" d="M717.277 360.23q.024.137.167 1.487.143 1.351.681 2.369.539 1.018.811 1.333.272.315.761.612.488.296.715.28.227-.017.936.005"/><path opacity=".9" fill="none" stroke-width="1.906" stroke-linecap="round" stroke-linejoin="round" d="M726.445 361.154q-.108.478-.077.854t.008.431q-.022.055.31.844.332.789.643 1.142.312.353.485.464.174.111.724.236.551.125.967.09.417-.035 1.155-.449.739-.413 1.613-1.561.875-1.148.966-1.795.091-.648.059-1.149t-.553-.859q-.521-.358-1.053-.489-.532-.132-2.381.07-1.849.202-3.755 1.724t-2.495 2.164"/><path opacity=".9" fill="none" stroke-width="1.868" stroke-linecap="round" stroke-linejoin="round" d="M733.485 359.11q-.021.021-.589-.437t-.672 1.497q-.104 1.954.088 3.569.193 1.614.62 4.126.427 2.511.73 5.519.302 3.007.19 4.579-.113 1.573-.45 2.632-.337 1.059-3.848 1.345-3.511.286-4.268.162"/><path opacity=".9" fill="none" stroke-width="1.997" stroke-linecap="round" stroke-linejoin="round" d="M734.89 363.01l.567.291q.536.197 2.967-.043 2.431-.239 4.149-1.104 1.718-.865 1.92-1.921.203-1.056-.454-2.452-.869-.387-2.902.381-2.034.768-3.484 2.435-1.45 1.667-1.673 3.165-.223 1.498.091 2.3.314.802 1.646 1.504 1.332.701 3.529.074 2.196-.626 2.975-.991"/><path opacity=".9" fill="none" stroke-width="2.004" stroke-linecap="round" stroke-linejoin="round" d="M755.252 350.113q.006.034.212.299.205.265.432.435.227.17.57.186.021.039.156-.635.134-.674-.221-1.809-.355-1.135-.945-1.782-.589-.647-.944-.871-.356-.225-1.577-.426-1.222-.202-2.427.582-1.206.784-1.875 2.722-.67 1.938-.612 4.002.058 2.063.797 3.946t2.539 3.656q1.8 1.774 2.82 2.723 1.021.949 1.4 1.67.379.722.411 1.19.032.467-.003.674-.034.207-.515.791-.48.584-2.09.811-1.61.227-2.626.009-1.015-.217-1.991-.503"/><path opacity=".9" fill="none" stroke-width="2.154" stroke-linecap="round" stroke-linejoin="round" d="M764.557 369.066q.001-.163-1.007-3.662-1.008-3.5-1.201-4.102"/><path opacity=".9" fill="none" stroke-width="2.29" stroke-linecap="round" stroke-linejoin="round" d="M762.034 356.25q.007.025.265.112.258.086.335.309.077.224.135.275"/><path opacity=".9" fill="none" stroke-width="1.966" stroke-linecap="round" stroke-linejoin="round" d="M772.295 357.9q-.002.365-.378 1.417-.377 1.052-.54 2.55-.163 1.497-.019 2.214.143.717.305 1.039.162.323.956.733.794.41 1.404.36.611-.051.962-.216.352-.166.991-.762.639-.597.944-1.548.306-.951.126-1.912-.18-.962-.843-1.742-.664-.78-1.934-1.114-1.27-.335-2.03-.094-.76.24-1.757.698"/><path opacity=".9" fill="none" stroke-width="2.144" stroke-linecap="round" stroke-linejoin="round" d="M777.98 360.293l-.161.116q-.451.617-.617 3.373-.165 2.757.75 6.374.914 3.617 1.331 5.416.417 1.799.359 2.91-.058 1.111-.179 1.736-.122.625-.823 1.239-.701.613-1.566.845-.865.231-2.004.34-1.139.109-2.705.091-1.567-.018-2.425-.073"/><path opacity=".9" fill="none" stroke-width="2.008" stroke-linecap="round" stroke-linejoin="round" d="M781.942 359.036l.19.896q.163.774 1.018 3.758.856 2.985 2.076 5.39.114.126.287-1.56.173-1.687 1.656-6.082.831-.188 1.358-.172.528.016.791.23.264.213.593.797.328.584.733 1.915.404 1.331.601 2.248.198.918.922 2.669"/><path opacity=".9" fill="none" stroke-width="1.752" stroke-linecap="round" stroke-linejoin="round" d="M796.845 363.385q-.123.062-.431.613-.309.55-.214 1.52.094.971.157 1.225.063.254.451.659t.709.5q.321.094.618.171.297.077 2.145-.737 1.847-.813 2.124-1.141.277-.328.409-1.072.132-.744-.231-1.424-.363-.679-1.534-1.113-1.171-.435-2.231-.284-1.059.15-1.817.662-.757.512-1.406 1.002"/><path opacity=".9" fill="none" stroke-width="2.539" stroke-linecap="round" stroke-linejoin="round" d="M804.194 362.232q-.291.149-.493.299-.034.269-.05 1.283-.016 1.013.307 1.924.323.912 2.429 2.638"/><path opacity=".9" fill="none" stroke-width="2.623" stroke-linecap="round" stroke-linejoin="round" d="M812.226 367.061l.056-.146q.159-.877-.292-6.642-.45-5.764-1.706-10.9-1.256-5.135-2.805-8.411-1.55-3.275-2.122-4.371"/></g></svg>
