<svg xmlns="http://www.w3.org/2000/svg" viewBox="291.473 299.324 458.425 186.757"><g fill="none" stroke="#000" stroke-linecap="round" stroke-linejoin="round"><path opacity=".9" stroke-width="2.061" d="M298.062 345.82q.173-6.952.183-11.847.011-4.896 0-7.379-.011-2.482-.031-9.621-.02-7.138.004-7.23.025-.092.048-2.407"/><path opacity=".9" stroke-width="2.389" d="M298.797 306.34q7.563-.027 10.078-.047 2.515-.021 4.785-.023 2.269-.002 6.959-.035 4.689-.033 7.333-.065t11.811-.033q9.167 0 12.212-.007 3.046-.008 7.558-.005 4.512.003 7.06.007 2.549.004 7.164.037l9.704.067 7.863.053q2.773.019 9.608.092 6.836.073 14.198.173 7.362.1 11.902.179 4.539.08 9.394.169l7.318.132q2.463.044 7.537.175t7.502.196q2.427.064 4.855.124l7.312.185q4.883.124 9.64.235 4.756.112 6.868.165l4.34.108q2.229.055 2.725.096.495.041 4.606.156.659.056 2.902.116"/><path opacity=".9" stroke-width="1.343" d="M502.359 310.582l.021 2.049q-.022.031-.059 6.552-.038 6.522.008 8.85.047 2.328.079 4.527.032 2.198.047 4.409t-.07 2.309l.037 6.343"/><path opacity=".9" stroke-width="1.824" d="M503.078 348.797q-1.85-.025-4.275-.019-2.425.007-4.994-.001-2.57-.007-4.771-.031-2.202-.024-4.992-.04l-7.602-.042q-4.813-.026-9.518-.041-4.704-.016-11.443-.042-6.739-.026-11.816-.059-5.077-.032-7.672-.051-2.596-.019-7.278-.08l-9.412-.126q-4.73-.063-9.644-.115-4.914-.051-9.372-.101-4.459-.049-9.459-.111-5-.063-9.404-.135-4.404-.072-9.107-.156-4.703-.085-7.462-.138-2.76-.054-7.396-.125-4.636-.072-7.408-.117-2.772-.044-7.147-.104t-6.628-.088q-2.254-.029-4.628-.07-2.374-.04-2.639-.053-.265-.013-2.983-.073-2.717-.06-6.857-.143-4.139-.083-4.731-.112-.592-.03-2.737-.082-2.144-.052-6.219-.123l-.894-.037-6.59-.105"/><path opacity=".9" stroke-width="1.609" d="M537.656 345.352l.016-1.654.206-3.835q.195-3.656.276-9.716.082-6.06.079-8.01-.004-1.949.029-3.918.032-1.969.08-2.111.094-3.695.167-5.606.073-1.912.069-3.764"/><path opacity=".9" stroke-width="1.811" d="M538.391 306.27l-.253-.139-.013-.19"/><path opacity=".9" stroke-width="1.97" d="M537.188 306.199q2.281.026 6.863.082 4.582.056 9.375.162 4.792.105 7.541.14 2.748.035 5.105.058t4.444.047q2.087.023 2.258.018.171-.004 7.18.099 7.01.103 9.905.163 2.895.06 9.924.183t11.639.21l7.219.134 9.378.171q6.768.124 11.885.221 5.117.096 7.625.148l6.574.136q4.067.084 4.631.094l3.007.053q2.441.043 9.388.205 6.947.163 9.099.205 2.151.042 2.693.066.542.024 2.58.079 2.037.055 4.062.114 2.025.058 2.528.086.503.027 2.376.07 1.874.043 2.348.057.474.014 2.243.045 1.769.032 2.237.042l2.811.07q2.342.059 4.261.096l2.366.047 2.418.044q1.972.037 2.53.05.558.014 2.878.079 2.319.065 4.078.108 1.759.043 4.206.134 2.446.09 2.52.097.073.007.405.023.333.017 2.474.065 2.142.048 2.281.057.139.01.367.017.228.006 2.225.039 1.997.032 2.376.03l2.197.069"/><path opacity=".9" stroke-width="1.564" d="M740.484 311.25q.122 2.077.481 9.062.359 6.985 1.231 25.762l.148 2.324"/><path opacity=".9" stroke-width="1.764" d="M743.547 350.461q-1.724-.035-4.313-.074-2.59-.039-5.389-.099-2.799-.06-6.963-.133-4.165-.073-6.862-.1-2.697-.028-5.423-.053-2.726-.025-4.962-.053-2.237-.029-4.692-.058t-9.334-.143q-6.879-.115-9.617-.167-2.737-.052-5.313-.092-2.576-.041-4.996-.075-2.421-.034-6.696-.099l-9.502-.142q-5.226-.077-12.65-.196-7.423-.119-11.949-.194-4.525-.075-8.861-.14-4.336-.064-6.843-.092-2.508-.028-5.408-.073l-7.572-.113-9.523-.141q-4.853-.072-7.312-.114-2.459-.042-9.069-.139-6.609-.097-11.78-.158-5.171-.06-7.418-.075-2.248-.016-4.714-.051-2.466-.036-4.424-.077-1.958-.041-2.592-.052-.634-.012-2.653-.056t-2.762-.04l-6.564-.118"/><path opacity=".9" stroke-width="1.294" d="M298.75 455.332q-.224-2.892-.176-2.913.049-.022-.478-5.37-.498-8.816-.478-12.359.021-3.543.017-3.661-.004-.117.126-3.597t.233-5.196q.104-1.717.6-6.22"/><path opacity=".9" stroke-width="2.305" d="M299.328 413.824q2.031-.005 2.356-.009l2.637-.03q2.311-.026 6.894-.061 4.582-.034 7.121-.069 2.54-.034 4.753-.052 2.213-.019 6.818-.026 4.606-.006 6.967-.011 2.361-.004 4.957-.025 2.596-.021 5.257-.045 2.661-.025 9.239-.049 6.578-.024 9.332-.022 2.753.002 5.4.008l9.022.021q6.375.015 16.218.029 9.843.015 15.012.034 5.168.02 11.616.076 6.448.057 11.488.125 5.04.068 7.286.1 2.244.031 4.432.051 2.187.02 4.508.035 2.321.015 4.601.04 2.281.025 2.721.047.44.021 2.805.057 2.366.036 2.458.04.092.003 2.438.047l6.665.125q4.32.083 4.807.104.487.021 2.968.072 2.48.05 4.524.064 2.043.014 4.115.047 2.071.032 2.437.048.365.016 2.335.043 1.97.027 2.446.039.476.012.669.025.193.014 2.04.044 1.847.029 4.408.074"/><path opacity=".9" stroke-width="1.613" d="M501.688 414.621q.095 1.868.205 4.074.111 2.206.13 4.491.02 2.284.02 4.501.001 2.216-.004 4.446-.005 2.231.009 4.418.014 2.188.022 4.42.008 2.232.036 4.383.029 2.151.055 2.368l.183 4.129.078 2.122"/><path opacity=".9" stroke-width="1.853" d="M499.633 456.223q-.801.12-2.519.326-1.719.207-4.411.388-2.692.181-6.086.218-3.393.038-7.589-.109-4.196-.148-6.89-.316t-4.258-.275q-1.563-.107-2.218-.158-.655-.052-4.291-.321-3.637-.269-6.015-.423-2.377-.154-4.824-.272-2.447-.118-4.699-.22-2.251-.101-5.67-.246-3.42-.144-6.29-.25-2.871-.107-6.335-.229-3.464-.122-6.288-.242-2.823-.121-6.095-.266-3.272-.145-5.465-.244-2.194-.099-5.33-.227-3.137-.128-6.509-.233-3.372-.105-8.039-.117-4.667-.012-8.654.058t-7.286.156q-3.298.087-6.195.177-2.896.091-5.388.176-2.491.084-5.459.155l-5.314.129q-2.345.057-5.056.116-2.711.059-5.038.104-2.327.046-5.243.1l-6.452.118-5.789.105q-2.255.041-4.628.069-2.373.028-4.313.06-1.941.032-2.337.044l-.848-.03-3.277.051q-.582.016-.836.017-.254.001-6.058.087"/><path opacity=".9" stroke-width="1.527" d="M538.125 456.82q.051-2.158.013-6.945-.038-4.786-.08-9.514t-.125-9.349q-.083-4.621-.064-4.717.018-.096-.001-2.424-.02-2.328-.009-4.469"/><path opacity=".9" stroke-width="2.065" d="M538.719 417.41q2.473.048 6.795.063 4.321.015 6.625.031 2.305.016 2.64.009.336-.007 2.459-.002t4.959.02q2.835.015 11.893.122 9.058.108 14.129.162 5.072.054 11.648.104 6.575.05 9.24.066 2.664.016 9.566.036 6.903.019 14.022.048 7.119.029 13.97.053 6.851.025 13.529.035 6.677.01 9.342.011 2.664.001 5.308.012 2.644.011 11.481.07 8.837.059 11.488.071 2.652.012 5.042.03 2.39.019 4.336.043 1.946.025 2.296.037.351.013 2.635.022l4.292.016 2.531.01q.524.003 2.566.001 2.043-.001 4.132-.005 2.089-.004 2.646.005.558.009.635.012.078.002 4.444-.016l6.398.059"/><path opacity=".9" stroke-width="1.627" d="M738.828 416.613q.062 1.922.158 8.628.096 6.705.167 11.314.072 4.608.115 6.906.044 2.297.106 6.775.063 4.477.126 6.514"/><path opacity=".9" stroke-width="1.917" d="M739.359 457.547q-1.731-.02-4.302-.014-2.57.005-7.358-.001l-7.524-.009-5.415-.006q-2.68-.003-7.088-.031-4.408-.028-9.565-.038-5.157-.01-9.819-.046-4.662-.036-9.583-.063-4.921-.028-9.938-.048t-12.236-.056q-7.22-.036-10.084-.059-2.864-.024-9.97-.095-7.107-.071-13.973-.122-6.867-.051-9.745-.079l-5.294-.054q-2.416-.025-9.409-.111-6.992-.087-11.896-.156-4.903-.07-10.214-.148-5.312-.078-9.586-.131-4.273-.053-7.097-.107-2.823-.054-3.141-.062-.319-.009-2.673-.044-2.354-.036-6.838-.083-4.484-.048-7.158-.089"/><path stroke-width="2.5" stroke-dasharray="0.250,3.750" d="M534.344 436.512l-1.671-.185q.008.064-1.894-.032-1.901-.097-6.042-.229t-4.201-.147q-.061-.015-2.128-.097-2.068-.082-4.046-.17-1.978-.087-5.644-.11l-1.78-.155M400.172 456.949q-.028 1.395-.046 5.105-.018 3.71-.024 3.873-.005.163-.061 3.922l-.083 5.572q-.026 1.813-.052 3.231M399.969 478.781q1.886-.019 2.625-.036.739-.018 2.471-.024 1.731-.007 1.969-.006t5.27-.039l9.395-.074q4.363-.034 6.93-.061 2.567-.027 4.782-.055 2.216-.027 9.466-.065 7.25-.037 13.845-.041 6.595-.004 9.454-.002 2.858.002 9.424.014 6.566.011 13.942.016 7.377.004 12.441.013l11.233.019 8.771.015q2.604.005 7.641.01 5.037.006 14.229.013 9.193.007 13.893.008 4.7 0 9.19.021 4.491.022 7.324.033l4.898.017q2.065.006 5.803.033 3.737.028 4.763.039 1.026.012 5.161.038l5.703.035q1.569.009 4.12.051l3.089.052q.538.009 2.088.003 1.549-.007 2.145-.002.597.005 2.461.015 1.864.01 4.469.054 2.604.044 3.077.046.473.002 1.86 0 1.386-.002 1.983.001.596.003 2.236.017 1.641.014 5.937.102.378.016 2.256.007l5.718.061M640.891 478.585q.183-1.306.161-1.535-.022-.23.422-3.468t.557-4.551"/><path opacity=".9" stroke-width="1.24" d="M399.583 410.944q-.064-2.72-.132-4.817l-.137-4.159q-.069-2.062-.15-4.769-.082-2.706-.129-4.767-.047-2.06-.079-4.204-.031-2.145-.062-4.839-.032-2.695-.039-4.705-.008-2.011.001-4.666.008-2.655.049-6.659t.069-6.061q.029-2.056.028-2.151-.002-.095.041-2.815.042-2.719.118-5.39"/><path opacity=".9" stroke-width="1.563" d="M398.391 349.336q-.868 1.658-1.679 3.488-.81 1.83-3.509 7.457"/><path opacity=".9" stroke-width="1.269" d="M406.281 361.406q-.884-1.842-2.188-4.084-1.305-2.241-4.577-8.127"/><path opacity=".9" stroke-width="1.341" d="M637.846 413.392q.066-1.976.081-1.97l.048-3.96q.006-.039-.013-3.254-.019-3.216-.019-5.899-.001-2.683.016-5.891.018-3.209.036-5.322.019-2.114.037-3.676.018-1.562.038-3.105.02-1.542.043-3.598l.058-5.132q.036-3.076.063-5.112.028-2.036.053-3.541.025-1.506.098-3.327.073-1.821.193-3.566"/><path opacity=".9" stroke-width="1.465" d="M638.906 352.711q-.61.794-5.312 7.57"/><path opacity=".9" stroke-width="2.987" d="M639.109 352.383q1.276 1.584 5.375 6.972"/><path opacity=".9" stroke-width="1.563" d="M504.895 434.222l.724-.571q-.066.026 1.044-1.005t3.607-3.263"/><path opacity=".9" stroke-width="1.9" d="M510.752 442.793q-.698-.96-.699-1.029-.001-.068-.086-.114-.086-.047-1.945-1.653l-.109-.113q-.159-.024-3.13-3.068"/><path opacity=".9" stroke-width="2.013" d="M640.79 460.316q-.66.703-1.949 1.865-.077.101-1.218 1.781-1.141 1.681-3.512 4.824l-.444.335"/><path opacity=".9" stroke-width="2.342" d="M641.399 460.655q1.17 1.237 2.456 2.343 1.286 1.105 1.434 1.223.149.117 2.635 2.79l1.201 1.094"/><path opacity=".9" stroke-width="1.795" d="M338.516 323.359q.045-.031.522-.471.09-.284.086-.781-.004-.496-.171-.804-.167-.308-.443-.625-.277-.317-.89-.601-.612-.283-1.319-.279-.706.005-1.122.042-.415.038-1.029.711-.614.674-.696 1.735-.081 1.061.803 2.776.883 1.715 1.91 3.246 1.028 1.531 1.775 3.175.747 1.644.499 4.558l-.565.388q-.068.004-2.403.703-2.334.699-2.864.829"/><path opacity=".9" stroke-width="1.665" d="M342.922 332.48q.025.113-.851.645-.12.167-.264.82-.145.652-.039 1.355.106.702.642 1.09.536.388 1.705.429 1.169.04 1.706-.142.537-.182 1.099-.453.561-.272 1.072-.908t.728-1.388q.218-.752.206-1.29-.011-.537-.2-1.066t-1.044-1.16q-.855-.631-1.816-.354-.962.277-1.944.758"/><path opacity=".9" stroke-width="1.764" d="M352.672 331.184l-.312.316q-.366.381-.324.532l-.188.761q-.015.918.014 1.445.029.528.663 1.207.633.68 1.014.88.381.2.698.172.317-.028.616-.124.299-.095.334-.094.035.001 1.081-1.438 1.046-1.438 1.588-2.893.238.294.251.215.013-.079.524 1.035.512 1.113.962 1.804.45.691 1.104 1.319.654.627 1.991 1.296"/><path opacity=".9" stroke-width="1.755" d="M365.141 331.945q.044.132.117 1.427.073 1.295.19 2.002.117.708.35 1.208.233.5.314.547.082.047.59.039.126-.093.68-1.396.555-1.304.929-1.873.373-.57.61-.774.238-.203.605-.247.366-.043.737.181.37.224.782.64.411.416 1.084 1.308.673.893.878 1.115.206.223.633.511.427.288 1.093.287.665-.001 1.689.006"/><path opacity=".9" stroke-width="1.799" d="M378.609 332.22q-.002.084-.077.893-.074.809-.002 1.527.072.718.26 1.074.188.356.476.582.287.225.578.317.29.092.659.191.368.098 1.556-.428 1.189-.526 1.728-1.135.539-.608.76-1.199.221-.59.25-.906.028-.315.036-.797.008-.483-.212-.769-.22-.286-.752-.491-.531-.204-.721-.209-.189-.005-.319-.056-.13-.05-1.747.478t-2.066.72"/><path opacity=".9" stroke-width="1.98" d="M384.887 337.335q.06-.204-.167-1.378-.226-1.173-.051-3.053.174-1.88.303-3.322.128-1.443.247-3.303.119-1.86.026-3.546-.093-1.686-.18-2.688l.373 1.08"/><path opacity=".9" stroke-width="2" d="M401.984 337.641q-.264.556-.343.584-.078.029-.279-.48t-.429-1.771q-.227-1.262-.186-2.879.042-1.616.126-3.166.084-1.55-.059-3.362-.142-1.812-.461-3.978l-.431-.874"/><path opacity=".9" stroke-width="3.084" d="M406.891 320.848q-.105-.052-.232-.149-.127-.096-3.144.054-3.017.151-4.257.276"/><path opacity=".9" stroke-width="2.405" d="M408.422 328.148q-.061.02-2.316.255-2.254.234-3.465.413"/><path opacity=".9" stroke-width="2.119" d="M408.875 337.77q-.141 0-5.375-.258"/><path opacity=".9" stroke-width="1.979" d="M414.844 332.332l-.039.012-.092.024-.029.639q-.117.574.364 3.812.116.202.295-.922.178-1.124.624-2.045.445-.921.876-1.118.43-.198.488-.237.057-.04 1.168 1.158t2.067 3.077q.192.189.465-.855t.507-2.264q.233-1.219.934-1.976.701-.757 2.404-1.291.088-.045.318.665.229.711.607 2.178t.611 2.48q.234 1.014.322 1.573"/><path opacity=".9" stroke-width="1.949" d="M432.969 339.094q.045-1.032-.296-4.309-.341-3.276-.439-3.719"/><path opacity=".9" stroke-width="1.409" d="M430.578 327.82q.015-2.848-.062-3.386"/><path opacity=".9" stroke-width="1.991" d="M442.125 338.836l-.097-.062-.139-.082q-.018-.01-.674-3.536-.657-3.527-1.205-7.217-.548-3.69-1.657-10.276-.16.25-.478.466"/><path opacity=".9" stroke-width="2.241" d="M444.375 323.637l-.116-.061q-.146-.006-8.103-.068"/><path opacity=".9" stroke-width="1.753" d="M451.75 340.43q.198-1.535-.887-7.536l-1.794-9.937q-.71-3.938-.826-6.172-.01.072.116.219"/><path opacity=".9" stroke-width="2.215" d="M454 329.414q-.426-.283-2.287-.419-1.862-.136-3.525.645-1.664.781-2.61 1.368"/><path opacity=".9" stroke-width="1.509" d="M459.438 336.047l.324-.465q.636-.666 1.73-1.547 1.094-.881 1.56-1.586.465-.705.489-1.295.024-.589.004-.594-.021-.005-.205-.216-.185-.212-.948-.325-.763-.114-1.437.019t-1.824 1.176q-1.15 1.043-1.56 2.245-.41 1.202-.097 2.103.314.901 1.116 1.422.802.521 3.278.805 2.476.283 3.741.18"/><path opacity=".9" stroke-width="2.339" d="M472.703 337.441l.059-.233-.127-.929q-.087-1.177-2.299-4.868-2.213-3.692-2.93-4.657"/><path opacity=".9" stroke-width="2.388" d="M469.125 331.605l.963-.05q.829-.066 1.957-.262 1.128-.195 2.143-.349 1.015-.154 2.809-.298 1.793-.145 3.609-.205l2.988-.101"/><path opacity=".9" stroke-width="1.65" d="M310.859 444.609q.022-.191-.12-6.333t-.439-12.586l-.3-.85"/><path opacity=".9" stroke-width="1.462" d="M316.249 436.466q-.035.13-.207.406l-.052 2.031q-.046.201.462 3.461-.062-.334 3.571-5.603.481-.223 1.146.533.665.756 1.055 1.518.389.763.608 1.161.219.399.572.723.353.323 1.189 1.023"/><path opacity=".9" stroke-width="1.558" d="M328.125 424.512q.006-.005.073.789.067.794.164 1.99l.176 2.191.174 2.2q.095 1.204.202 2.919.106 1.714.296 5.886.268.543.412 1.331"/><path opacity=".9" stroke-width="2.574" d="M331.703 427.289l-.85.141q-.452.037-3.129.839-2.678.802-3.849 1.211"/><path opacity=".9" stroke-width="1.387" d="M334.75 435.328q.134-.009 1.204-.264 1.07-.255 1.521-.478.452-.222.866-.619.413-.396.567-.541.154-.146.333-1.242-1.013-.069-1.003-.043-.303.178-1.133.671-.831.494-1.356 1.435-.526.942-.606 1.803-.08.861.051 1.608.132.747.785 1.518.652.771 1.05.899.397.128.636.224.24.095 1.449.225t2.339.113"/><path opacity=".9" stroke-width="1.8" d="M346.828 440.895l.044-.745-.011-1.154q.225-.423-2.451-6.475l-.504-.58"/><path opacity=".9" stroke-width="1.932" d="M344.234 435.855l.899-.139q1.131-.299 3.507-.751 2.375-.451 3.626-.703"/><path opacity=".9" stroke-width="1.828" d="M353.797 434.66l-.363-.217q-.061.014 1.343 2.401 1.405 2.388 2.402 2.807.997.419 4.653-6.839l.793-.812"/><path opacity=".9" stroke-width="1.584" d="M367.062 433.395q-.075.134-.259.412-.183.278-.468 1.161-.284.884-.21 2.43.075 1.546.151 1.701.077.155.687.601.609.446 1.952.788t2.319-1.02q.976-1.362 1.06-2.308.084-.946-.06-1.606-.144-.66-.326-.968-.182-.308-1.03-1.266-.848-.959-1.997-1.215-1.149-.256-2.615 4.278"/><path opacity=".9" stroke-width="2.806" d="M371.969 432.797q.773 2.34 1.198 2.951.426.61.874.968.447.358.748.531.301.173 1.242.53"/><path opacity=".9" stroke-width="1.558" d="M378.812 441.422l.552-.501q.116-.34.197-.39.081-.051.342-3.053.262-3.002-.224-5.961-.485-2.959-.991-4.801-.505-1.842-.876-3.001"/><path opacity=".9" stroke-width="1.971" d="M389.359 428.824l.731-.476.143-.463-.011-.441q.141-.07-.824-.757-.964-.688-2.775-.388-.481.317.648 4.531 1.128 4.214 2.897 8.229l-.483.399q-1.049.38-2.113 1.15-1.065.769-1.791 1.283M397.188 436.324q-.361.132-1.103 1.19-.742 1.057-.917 1.832-.175.774-.144 1.152.032.378.054.474.022.096.678.363.655.267 1.439.124.783-.144 1.402-.543.619-.399 1.068-.911.449-.512.557-1.342.108-.829.022-1.176-.085-.347-.277-.612-.191-.266-.427-.48-.236-.213-1.028-.358t-1.069-.078q-.276.067-.746.358-.469.29-1.431 1.132"/><path opacity=".9" stroke-width="1.593" d="M406.344 434.191q.032.125-.127.753-.158.627-.085 1.666.073 1.038.326 1.479.253.44 1.091.635.838.194 1.158.115.32-.079.914-.43.593-.352 1.242-1.876.648-1.524 1.002-3.103.115.35.534 2.127.42 1.778 2.507 5.537"/><path opacity=".9" stroke-width="1.691" d="M419.281 434.461l-.17.184q-.368 1.04-.39 1.309-.023.269-.072 1.584-.05 1.314.198 1.833.248.518.445.54.196.022.335-.029.139-.052.174-.016.035.036.611-1.09.575-1.126.912-1.762.337-.636.949-1.019.613-.384.719-.346.106.039.421.389.316.351.556.761.24.41.69 1.363.45.953 1.046 1.664.595.711.951 1.139"/><path opacity=".9" stroke-width="1.519" d="M432.094 436.324q-.286.434-.493.947-.207.513-.266 1.313-.059.799.038 1.166.098.367.396.688.299.322.837.407.539.085 1.513-.309.975-.395 1.65-1.046.675-.651.693-2.502-1.352-.266-2.349.145-.997.411-1.629.715"/><path opacity=".9" stroke-width="1.757" d="M437.2 440.71l.035-.094q-.032-.339-.149-6.727-.116-6.388-.09-6.532"/><path opacity=".9" stroke-width="1.816" d="M441.961 442.04l.029.181q.029.067-.588-12.09l-.053-.208q.191-.543.245-.558.193-.201 4.222-1.302l.588.359"/><path opacity=".9" stroke-width="2.06" d="M444.957 435.692q-.005.025-.076.117-.016.014-.793.343-.777.328-1.203.523"/><path opacity=".9" stroke-width="1.96" d="M446.261 441.377q-.039.03-1.07.379-1.032.349-1.498.513"/><path opacity=".9" stroke-width="1.941" d="M450.5 437.888l-.103-.005q.001.005-.111.058-.113.053-.193 1.279-.08 1.227.349 2.459.111.151.237-.463.126-.613.435-1.375.309-.761.52-.992.212-.23.385-.238.173-.008.265.091.093.099.367.529.275.43.439.663.164.233.297.322.132.088.236-.033.166-.304.182-.305.017-.002.197-.586.179-.583.43-1.089.252-.505.656-.872.405-.367.684-.462.279-.094.34-.074.062.02.219.139.157.12.182.121.024.001.26.53.236.528.516 1.886.281 1.358.561 2.058.281.7.38.883"/><path opacity=".9" stroke-width="2.41" d="M461.606 442.3l.012-.072q.031-.296-.389-2.453-.421-2.158-.574-2.728"/><path opacity=".9" stroke-width="2.099" d="M460.771 436.013q-.009-.397-.044-.916-.036-.519-.106-.704"/><path opacity=".9" stroke-width="1.952" d="M467.197 441.923l-.009-.086-.054-.297q-.38-1.587-.694-2.929-.314-1.343-.928-4.461-.613-3.119-.836-5.038-.223-1.92-.271-4.323"/><path opacity=".9" stroke-width="1.778" d="M468.181 429.578q-.081-.018-2.369.376-2.288.394-2.827.516"/><path opacity=".9" stroke-width="1.565" d="M473.69 441.663q.034.057.075.091.04.034.061.028.021-.007.121-1.241.099-1.234-.426-4.568-.526-3.334-2.092-9.419l-.075-.15"/><path opacity=".9" stroke-width="2.957" d="M475.681 433.359q-.14.031-2.505.847-2.365.816-2.889 1.027"/><path opacity=".9" stroke-width="1.633" d="M477.956 439.268q.055-.051.66-.437.604-.387 1.058-.808.453-.42.672-.785.219-.364.142-.809-.155-.106-.784-.046-.628.061-1.294.599t-.942 1.295q-.276.757-.262 1.195.015.438.165.875.15.437 1.544.998 1.394.561 2.471.532 1.077-.029 1.393-.067"/><path opacity=".9" stroke-width="1.941" d="M487.303 442.931q.004-.051-.106-.856-.11-.805-.488-1.588-.378-.784-.85-1.356-.471-.572-1.088-1.09-.617-.519-.783-.648"/><path opacity=".9" stroke-width="1.769" d="M484.335 440.022q.349-.03 2.386-.676 2.036-.647 5.14-1.086"/><path opacity=".9" stroke-width="1.778" d="M563.994 446.754l-.012-.087q.011-.272-.293-3.27-.303-2.998-.593-6.332-.289-3.334-.274-4.482.015-1.149.194-1.174"/><path opacity=".9" stroke-width="3.244" d="M566.936 447.966q-.127-.061-.673-.016-.546.044-1.337.075-.791.031-1.127.096-.335.064-.844.192"/><path opacity=".9" stroke-width="3.775" d="M564.252 430.314q-.032.12-.08.215l-.297.117q-.275.108-.645.307-.369.199-.895.584-.526.386-.878.553-.353.166-.839.445"/><path opacity=".9" stroke-width="1.445" d="M567.513 439.917l-.01.065.042.351q.044.054.303 1.192.259 1.139 1.866 3.827.06-.061.103-.202.044-.141.153-1.112.108-.971.345-1.719.237-.748.529-1.067.292-.319.488-.369.195-.049.346-.024.151.025.394.147.243.122 1.075 1.149.832 1.027 1.239 2.16.407 1.133.479 1.697.072.563.147 1.063"/><path opacity=".9" stroke-width="1.612" d="M578.993 445.455l-.124-.073q-.031-.018-.471-1.266-.44-1.248-.79-3.086-.35-1.838-.846-4.095-.495-2.258-1.561-7.024l.076-.148"/><path opacity=".9" stroke-width="2.048" d="M579.951 435.362q-.302-.074-1.208-.107-.906-.033-2.259.687-1.353.72-1.845 1.091"/><path opacity=".9" stroke-width="1.565" d="M582.138 442.082q.065-.008.212-.047.148-.038.338-.112.19-.074.225-.116.035-.041.329-.243.294-.203.729-.98.436-.778.274-1.808-.253-.104-.781.269-.529.374-.851 1.398-.323 1.024-.23 1.916.094.893.683 1.706.589.813 1.275 1.008.687.195 1.776-.199 1.09-.394 1.36-.515"/><path opacity=".9" stroke-width="1.772" d="M592.062 443.784l-.014-.045q.096-.513-2.499-5.805l-.143-.294"/><path opacity=".9" stroke-width="1.869" d="M590.33 439.458q.748-.146.86-.194.112-.048 2.004-.052 1.892-.004 2.129.043"/><path opacity=".9" stroke-width="1.757" d="M597.687 437.522q-.037.1.016.518.054.418.551 1.744.498 1.326.972 2.334.473 1.008.747 1.425.275.418.74.635.083.003.596-1.314.514-1.317 1.032-2.367.519-1.05.791-1.407.272-.358.389-.455.118-.098.238-.157t.822-.089"/><path opacity=".9" stroke-width="2.113" d="M606.517 439.484l-.129.032q-.037.027-.167.249-.131.222-.396 1.091t-.23 1.379q.035.51.158.826.124.315.621.452t1.349-.307q.852-.443 1.415-1.015.563-.573.699-.922.137-.348.067-.885t-.575-.687q-.505-.151-1.105.07-.6.222-1.652 1.362"/><path opacity=".9" stroke-width="2.291" d="M609.486 439.774q.329.131.878 1.059.549.927.967 1.414.418.486.661.757"/><path opacity=".9" stroke-width="2.185" d="M615.314 443.87l.056-.083q.027-.057.009-1.448-.018-1.392-.627-5.349-.608-3.958-1.115-6.361-.506-2.404-.897-4.868l.006-.267"/><path opacity=".9" stroke-width="1.731" d="M627.025 430.487l-.164-.125q-.357-.249-.882-.449-.524-.199-1.559-.311-1.034-.112-1.818-.01-.784.101-1.227.336-.443.235-.575.484-.132.25-.171.434-.038.184.142.675.181.491.369.789.187.299.546.784.359.486 1.582 1.956 1.224 1.47 1.915 2.482.691 1.012.846 1.773.154.761.076 1.145-.078.383-.345.706-.268.324-1.824.924-1.557.599-2.047.664"/><path opacity=".9" stroke-width="1.846" d="M630.312 439.514q-.09.021-.541.337-.452.316-.764.649-.312.332-.478.736-.165.403-.179.676-.014.272.043.491.058.22.348.403.29.184.623.207.333.024.738-.075.405-.099.97-.413.565-.313.812-.503.248-.189.535-.642.287-.453.29-.818.003-.365-.081-.564-.084-.198-.201-.33-.116-.131-.803-.319-.686-.189-1.409.221-.722.41-1.146.755"/><path opacity=".9" stroke-width="1.686" d="M636.834 438.103q-.073.064-.185.18-.112.116-.348.803t-.175 1.288q.06.601.495.863t.87.276q.434.015.808-.122.375-.138.517-.317.143-.18.404-.86.261-.68.337-1.253.034-.052.052.253.018.304.193.86.176.557.37.958.195.401.385.512.189.111.542.365"/><path opacity=".9" stroke-width="1.58" d="M644.795 438.073l-.077-.012-.135.058-.123.239q-.133.031.103 3.477l.116.217"/><path opacity=".9" stroke-width="1.852" d="M645.107 438.623q.057-.034.247-.134.189-.1.39-.135t.369-.055q.168-.019.296-.056.128-.038.457-.068.328-.029.492.012.164.042.271.091.106.05.199.147.092.097.306.474.213.377.434.962t.469 1.139q.248.555.369.649.121.094.551.403"/><path opacity=".9" stroke-width="1.58" d="M652.437 438.735q.023.066.088.837.065.771.202 1.143.137.371.226.479.089.108.219.193.129.086.133.087.005.002.341-.007.337-.009 1.07-.398.732-.39 1.245-.874.512-.483.666-.822.154-.339.174-.667.021-.328-.027-.539-.048-.211-.162-.333-.114-.123-.181-.16-.066-.036-.33-.085-.264-.049-.477-.029-.213.021-.774.316t-.912.513"/><path opacity=".9" stroke-width="1.891" d="M658.265 440.437q.197-.229.266-3.172.07-2.943-.392-5.55-.462-2.608-1.333-5.077l-.219-.247"/><path opacity=".9" stroke-width="1.483" d="M664.086 441.822l-.016-.072q-.036-.453.284-2.549.321-2.097 1.458-4.911 1.137-2.814 1.819-4.533.681-1.718.999-2.83l.02-.001q.061.354.048 3.418-.012 3.064.125 5.229t.285 3.083q.147.918.283 1.443.135.525.223.748.087.223.112.283.025.06.073.116.049.055.102.088.053.034.36.142"/><path opacity=".9" stroke-width="2.678" d="M670.207 437.263q-.084-.063-.771-.044-.687.018-1.126.093-.44.076-.651.165-.211.09-.576.288-.365.198-.66.364"/><path opacity=".9" stroke-width="1.717" d="M675.485 438.71l-.075.017q-.003.022-.205.173-.203.152-.466.901-.262.749-.236 1.339.027.59.425.901.399.311.795.32.396.009.735-.101.338-.11 1.025-.76.686-.651.916-1.265.23-.615.216-.935-.013-.321-.16-.649t-.644-.634q-.497-.306-1.192-.335-.695-.029-1.083.193-.387.222-.805.514"/><path opacity=".9" stroke-width="1.918" d="M679.119 440.467q-.021-.164-1.081-12.58l-.02-.054"/><path opacity=".9" stroke-width="1.389" d="M684.567 436.228q-.085.012-.326.133-.24.122-.381.246-.14.124-.203.259-.062.136-.107.197-.045.062-.131.963-.085.901-.02 1.192.064.291.355.702.291.412.884.595.594.184 1.169.052.574-.132 1.058-.415.484-.283.997-.84.513-.558.637-.783.125-.226.174-.585.049-.359-.045-.857-.093-.499-.433-.844-.34-.344-.92-.542-.581-.198-1.106.021-.526.219-.909.445"/><path opacity=".9" stroke-width="1.626" d="M689.009 436.774l-.139.004q-.173.288.406 5.495.022.059.344.242"/><path opacity=".9" stroke-width="1.711" d="M692.297 435.362q-.06.123-.153 3.568-.092 3.444-.089 5.18.003 1.736.04 2.393.037.656.276.948.155-.18.361-.29"/><path opacity=".9" stroke-width="1.751" d="M692.331 437.956q.075-.125.386-.368.31-.243.645-.51t.751-.389q.417-.122 1.044-.099.629.022.95.156.321.133.694.483.373.349.606 1.451.232 1.101.13 1.66-.102.559-.29.88-.189.321-.468.497-.28.176-.553.252-.274.076-.798.122-.525.046-1.08.022"/><path opacity=".9" stroke-width="2.159" d="M702.513 441.562q.005-.042.044-3.642.038-3.599-1.899-11.083l-.135-.1"/><path opacity=".9" stroke-width="2.787" d="M704.816 431.063q-.253-.277-.52-.442-.268-.165-.286-.165-.018.001-.286-.116-.267-.117-1.595-.268-1.328-.151-2.54.036-1.211.188-3.223 1.214"/><path opacity=".9" stroke-width="1.806" d="M707.037 438.536q.069-.055.401-.078t1.134-.341q.801-.317 1.359-.729.557-.411.866-.829.309-.417.384-.904.074-.486-.028-.802-.102-.315-.224-.448-.122-.132-.347-.27-.224-.137-.925-.22-.7-.084-1.727.459-1.026.544-1.545 1.185-.518.641-.72 1.5-.202.859.203 1.696.406.836 1.128 1.39.723.554 1.825.742 1.101.189 1.851-.004.749-.192 1.331-.416"/><path opacity=".9" stroke-width="1.895" d="M717.797 440.151q.016-.297-.574-1.996-.591-1.699-1.444-2.6t-1.297-1.288"/><path opacity=".9" stroke-width="1.729" d="M714.163 437.095q.218.13 3.533-.528 3.315-.657 3.823-.746"/><path opacity=".9" stroke-width="2.155" d="M584.916 334.029q.126-.227.009-3.938-.117-3.712-.598-5.691-.481-1.979-.539-2.165"/><path opacity=".9" stroke-width="2.945" d="M587.219 321.945q.163-.19.897-1.958l.02-.026q-.019-.245-.899-.418-.879-.172-1.957-.01-1.078.162-2.097.527t-1.548.611q-.529.245-1.019.494"/><path opacity=".9" stroke-width="1.878" d="M591.546 334.029l-.03-.058q-.143-.373-.133-.413-.087-.363-.422-2.261-.335-1.897-.455-2.515"/><path opacity=".9" stroke-width="1.475" d="M589.759 325.638l.221-.034.295.264"/><path opacity=".9" stroke-width="1.771" d="M594.691 327.223q.002.105 1.759 6.329.066.008.349-1.049.283-1.058.531-1.796.247-.737.554-1.157.306-.42.52-.528.214-.108.378-.079.165.028 1.213 1.786.345-.163.336-.189.056-.075.523-.884.467-.808 1.103-1.522.636-.714 1.287-.66.105.066.432 1.803.327 1.736.582 2.714.254.978.445 1.493"/><path opacity=".9" stroke-width="1.499" d="M607.271 330.193q.005.071.307.868.806.149 1.431-.129.625-.277 1.209-.806.583-.53.922-1.218.339-.688.129-1.476-.073-.058-.429-.128t-1.258.424q-.903.494-1.384 1.298-.48.805-.607 1.635-.126.83.072 1.736.198.907.507 1.353.31.445.573.648.263.202.494.301l.317.135q.084.035.825.093.74.059 2.944-.984"/><path opacity=".9" stroke-width="2.313" d="M619.267 334.61l-.037-.455q-.057-.271-.352-4.073-.295-3.801-1.454-10.896-.006.085.069.298.075.214.191.53"/><path opacity=".9" stroke-width="2.2" d="M622.847 335.675q.029.057-2.458.029-2.487-.027-3.051-.029"/><path opacity=".9" stroke-width="3.013" d="M618.751 315.974q-.157.064-.675.375-.518.31-1.009.62-.491.31-.898.453-.407.142-.91.34"/><path opacity=".9" stroke-width="1.683" d="M624.891 327.742q.026.071.418 2.13.392 2.059 1.006 3.675.102-.323.272-1.219.169-.896.497-1.656.328-.76.571-1.04.244-.28.35-.359.107-.079.568-.161.462-.083 1.099 1.33.637 1.412.956 2.336.32.923.579 1.351.259.427.799.64l.616-.159"/><path opacity=".9" stroke-width="1.913" d="M636.201 334.406q.026-.18-.212-2.469-.237-2.29-.595-4.499-.358-2.21-1.168-5.767-.809-3.557-1.637-5.843-.043.064-.022.619.02.555.089.999"/><path opacity=".9" stroke-width="2.099" d="M638.103 323.244q-.294-.037-2.185-.01-1.89.028-3.339.36-1.45.331-2.029.516"/><path opacity=".9" stroke-width="1.975" d="M640.787 330.86l1.027-.153.545-.156q.073-.008.703-.381t.96-.878q.33-.505.409-.934.08-.43-.141-.863-.221-.434-.709-.545-.487-.111-.93-.045-.443.066-1.131.542-.688.475-1.134 1.13-.446.654-.657 1.631-.211.977-.056 1.703.155.726.572 1.359.416.633 1.251 1.076.836.442 1.366.553.53.111 1.674.131 1.144.02 1.948-.23.803-.249 1.17-.394"/><path opacity=".9" stroke-width="2.052" d="M651.546 333.367q.071.031.184.024.163-.371-1.713-3.342-1.877-2.971-2.193-3.402"/><path opacity=".9" stroke-width="1.319" d="M649.121 330.193q.074.007 1.844-.367t3.018-.276q1.249.098 1.632.184"/><path opacity=".9" stroke-width="2.212" d="M658.298 328.751q.049.35.489 1.485.44 1.135.98 1.788t.866.908q.326.254 2.269.729.146-.034 1.061-1.547.914-1.513 1.511-2.524.596-1.011 1.058-1.475.462-.465 1.338-.75"/><path opacity=".9" stroke-width="1.61" d="M671.477 328.868q-.1.054-.564.719-.463.666-.621 1.268-.158.602.035 1.407.192.806 1.165.925.972.118 1.637-.022.665-.141 1.058-.279.393-.138.921-.365.527-.228 1.157-.692.63-.464.937-1.419.307-.955.269-1.409-.039-.453-.149-.746-.111-.292-.364-.491t-.706-.256q-.452-.058-1.016.056-.565.113-2.415 1.894-1.851 1.78-2.323 2.324"/><path opacity=".9" stroke-width="2.353" d="M677.25 328.782q.013.047-.124-.087-.09 2.126.124 3.044.214.918.63 1.517.417.598 1.272 1.12"/><path opacity=".9" stroke-width="2.018" d="M683.418 334.666q.051-.224-.163-3.657-.214-3.434-.776-6.563-.561-3.129-.944-4.379-.383-1.251-.596-1.816"/></g></svg>
