<svg xmlns="http://www.w3.org/2000/svg" width="400" viewBox="268.069 233.152 314.525 260.052"><g stroke="#000"><path opacity=".9" fill="none" stroke-width="1.982" stroke-linecap="round" stroke-linejoin="round" d="M562.078 242.707q-1.054-.038-5.732-.182-4.677-.144-13.786-.44l-13.842-.45q-4.733-.154-8.914-.283-4.181-.13-8.826-.268-4.645-.138-7.194-.212-2.55-.074-10.179-.29-7.629-.215-12.149-.338-4.519-.123-13.982-.368-9.462-.245-16.448-.411-6.986-.166-10.886-.252-3.899-.086-14.086-.276-10.187-.189-15.399-.27-5.212-.08-14.517-.179-9.306-.1-13.599-.128-4.294-.029-7.102-.041-2.808-.012-7.781-.01-4.972.001-8.96.013-3.987.012-8.367.032-4.38.019-5.61.027-1.23.007-2.724.028-1.493.021-3.307.062-1.815.04-2.859.067-1.044.028-2.049.046-1.005.019-2.385.037t-3.037.049q-1.657.03-2.406.033-.749.002-1.403.009-.654.007-1.619.027l-1.867.038-1.577.031q-.676.012-1.128.022-.452.011-.966.032-.513.021-.993.035-.479.015-1.256.035-.778.02-2.717.044l-1.383.033q-.397.009-.967.014l-.785.008q-.215.004-1.524.049l-3.389.117q-2.079.073-3.545.135-1.466.061-2.512.101-1.046.039-1.919.067-.874.029-1.99.078-1.117.049-3.16.169-2.043.12-2.864.17l-1.481.093q-.661.042-1.161.092-.095.007-1.179.057-1.084.051-1.829.092-.744.041-1.233.073-.49.032-.867.059-.378.027-1.002.068-.623.042-1.117.07-.494.027-.971.046t-.627.023q-.15.005-.38.018-.231.014-.953.018-.121.008-.954.016l-.439.03-.414.046q-.298.032-.797.067"/><path opacity=".9" fill="none" stroke-width="1.633" stroke-linecap="round" stroke-linejoin="round" d="M273.109 242.379q.319 1.594.562 3.105.244 1.51.245 1.669.001.159.181 1.763.179 1.603.474 4.649.295 3.045.716 6.239.42 3.193.671 4.886.251 1.693.748 5.071.498 3.378.743 5.086.245 1.709.214 1.741-.03.032.163 1.561.194 1.53.516 4.665.432 3.195.45 3.286.017.091.181 1.625.164 1.533.21 1.583.046.049.239 1.575"/><path opacity=".9" fill="none" stroke-width="1.624" stroke-linecap="round" stroke-linejoin="round" d="M278.953 290.016q1.568.007 2.658.005l.945-.012 3.701-.027q.273-.003 12.506-.07t19.078-.108q6.845-.041 9.912-.057 3.067-.016 9.329-.087 6.261-.071 9.332-.113 3.071-.043 7.762-.095 4.691-.052 10.169-.095 5.479-.043 9.913-.086 4.435-.042 13.985-.129 9.551-.087 16.024-.137 6.474-.051 15.958-.134l14.315-.128q4.831-.045 12.455-.087 7.624-.043 12.344-.063 4.721-.021 10.564-.044 5.842-.024 11.674-.042 5.832-.019 15.28-.081 9.449-.063 14.248-.1 4.8-.037 8.335-.05 3.534-.013 7.149-.033 3.616-.021 6.331-.052 2.716-.032 4.964-.049 2.249-.016 3.436-.021 1.188-.004 3.392-.017 2.204-.013 4.331-.032 2.126-.019 3.612-.024 1.486-.006 11.664-.138 1.325.003 2.993-.015"/><path opacity=".9" fill="none" stroke-width="1.611" stroke-linecap="round" stroke-linejoin="round" d="M568.047 287.625q-.236-2.286-.65-7.249-.415-4.962-.795-9.751-.379-4.788-.943-12.076t-1.206-14.389"/><path opacity=".9" fill="none" stroke-width="1.246" stroke-linecap="round" stroke-linejoin="round" d="M283.828 348.152q.084 1.691.082 1.671l.253 3.766q.255 3.787.471 7.755.216 3.969.39 7.748.175 3.779.278 5.752.103 1.972.116 2.071.013.098.104 2.087l.177 3.9q.086 1.913.109 1.996l.041.016q.146 3.336.229 5.109"/><path opacity=".9" fill="none" stroke-width="1.929" stroke-linecap="round" stroke-linejoin="round" d="M287.344 391.148q5.929-.139 7.047-.178 1.119-.04 3.963-.136 2.844-.097 9.876-.316 7.032-.22 18.757-.593 11.725-.373 17.236-.538 5.512-.165 13.961-.388l13.729-.363 10.033-.264q4.755-.124 10.39-.289 5.635-.166 11.003-.31 5.368-.145 9.659-.248 4.291-.103 11.47-.251 7.18-.147 11.373-.227 4.194-.079 7.049-.136l12.49-.245q9.634-.189 14.663-.281 5.029-.091 9.273-.158 4.245-.067 9.886-.152l10.203-.153q4.563-.069 7.737-.12 3.175-.052 8.217-.14l9.189-.16q4.149-.071 9.774-.137 5.625-.066 9.544-.12 3.919-.054 6.6-.074 2.68-.02 6.893-.075 4.214-.055 6.788-.059l2.456-.044q.72-.005 3.459-.009"/><path opacity=".9" fill="none" stroke-width="1.243" stroke-linecap="round" stroke-linejoin="round" d="M572.328 386.309q.067-1.659.275-7.01.207-5.351.27-10.738.064-5.387.112-7.376.049-1.989.097-9.396l.061-1.694q.061-1.697.141-1.712.155-7.108.143-7.165-.012-.057.089-1.82"/><path opacity=".9" fill="none" stroke-width="1.429" stroke-linecap="round" stroke-linejoin="round" d="M577.625 342.914q-2.295-.098-5.057-.194-2.763-.095-8.967-.277-6.204-.181-9.181-.282-2.976-.101-9.762-.257-6.786-.157-8.954-.211-2.169-.055-5.873-.167-3.705-.113-7.885-.216l-12.985-.317q-8.805-.213-16.712-.392-7.907-.178-17.342-.31-9.434-.132-16.329-.182-6.895-.05-12.743-.056-5.847-.007-9.245-.002-3.397.005-17.342.147-13.945.143-21.044.279-7.099.137-13.427.285-6.327.147-8.481.204-2.154.057-13.787.42-11.634.364-19.257.642-7.623.277-15.536.582-7.913.305-11.185.46-3.272.155-5.623.264l-4.296.198q-1.946.088-6.04.194l-1.937.109q-2.951.099-7.017.309-1.312.074-7.587.294"/><path opacity=".9" fill="none" stroke-width="1.427" stroke-linecap="round" stroke-linejoin="round" d="M290.328 444.293l.006 1.398q.056 3.024.387 12.613.33 9.588.419 14.561.089 4.973.247 8.354.008.004.067 1.514.059 1.511.08 1.531-.006.002.058 1.381t.052 1.423q-.013.043-.025.055-.012.011.037 1.361"/><path opacity=".9" fill="none" stroke-width="1.516" stroke-linecap="round" stroke-linejoin="round" d="M293.125 488.227q1.811-.083 4.361-.22t5.818-.324q3.269-.186 7.352-.4 4.084-.214 6.3-.334l7.414-.404q5.199-.284 12.31-.648 7.112-.364 16.601-.842 9.488-.478 14.496-.726 5.008-.249 11.128-.542 6.12-.292 15.829-.723 9.71-.431 16.52-.722 6.811-.29 11.416-.489 4.605-.198 6.902-.3 2.296-.102 5.661-.249 3.365-.147 7.05-.303 3.686-.156 8.732-.357l9.924-.394 9.392-.37q4.514-.177 9.901-.381 5.386-.204 14.573-.54 9.186-.335 14.018-.505 4.831-.169 7.76-.264 2.928-.096 9.502-.308 6.574-.213 9.371-.297 2.796-.084 12.383-.398.815-.004 5.543-.151 4.727-.148 6.882-.201 2.154-.052 3.634-.078l2.879-.084q2.444-.063 4.134-.134 1.69-.07 3.933-.125"/><path opacity=".9" fill="none" stroke-width="1.248" stroke-linecap="round" stroke-linejoin="round" d="M577.172 480.188q.11-1.96.208-6.207.099-4.248-.101-8.482-.199-4.234-.337-6.444-.138-2.211-.37-6.494-.232-4.284-.322-8.725.151-.133.123-2.185-.029-2.052.065-4.12"/><path opacity=".9" fill="none" stroke-width="1.29" stroke-linecap="round" stroke-linejoin="round" d="M577.359 437.004q-8.046-.165-11.816-.208-3.769-.043-4.945-.075-1.175-.031-5.212-.057-4.037-.026-9.109-.086t-12.156-.151q-7.084-.091-15.333-.189-8.249-.099-13.007-.138-4.758-.04-11.283-.079-6.525-.039-13.78-.065-7.254-.025-14.531-.023-7.278.001-20.369.101-13.091.099-20.109.197-7.017.097-19.932.358t-19.847.432q-6.932.171-17.971.47-11.04.298-19.077.556-8.038.258-10.253.327-2.215.07-7.011.227-4.797.157-10.213.359l-9.491.353q-4.074.152-6.845.272-2.77.12-10.586.366l-3.952.17"/><path opacity=".9" fill="none" stroke-width="2.739" stroke-linecap="round" stroke-linejoin="round" d="M331.828 278.091l-.045.06q-.087.095-.199.158-1.526-9.563-1.978-12.333-.451-2.77-.452-3.866 0-1.097.007-1.387.007-.29.632-1.307"/><path opacity=".9" fill="none" stroke-width="1.823" stroke-linecap="round" stroke-linejoin="round" d="M335.976 256.478l.038-.169.008-.169q-.093-.256-.14-.269-.131-.203-1.615-.671t-3.456-.191q-1.972.277-3.76.942-1.788.665-3.125 1.094-1.337.428-2.43.488-1.094.059-2.38-.376"/><path opacity=".9" fill="none" stroke-width="2.155" stroke-linecap="round" stroke-linejoin="round" d="M342.657 278.318l-.145-.417-.213-.393q-.4-.334-.665-3.636-.265-3.303-.23-4.002"/><path opacity=".9" fill="none" stroke-width="1.473" stroke-linecap="round" stroke-linejoin="round" d="M340.614 266.058l.127-.583.29-.249"/><path opacity=".9" fill="none" stroke-width="1.752" stroke-linecap="round" stroke-linejoin="round" d="M346.912 267.984q.004.052.552 2.226.547 2.174 1.096 3.82.049-.109.357-1.569t.768-2.499q.46-1.039.9-1.452.44-.413.543-.47.104-.057.387-.131.284-.074.635-.081.352-.007.609.106t.277.124q.02.011.27.375.251.365.282.466.032.101.244.882.211.78.308 1.215.097.434.302.769.07.063.216-.482.147-.545.931-1.989.785-1.443 1.657-2.273.872-.829 2.163-.767.167.048.968 2.087.801 2.039 1.257 3.188.456 1.149.602 1.472"/><path opacity=".9" fill="none" stroke-width="1.775" stroke-linecap="round" stroke-linejoin="round" d="M366.038 271.902l.288-.132q.063-.087 1.214-.877t1.945-1.361q.795-.571.981-.895.186-.324.253-.699.067-.376.061-.492-.006-.116-.122-.404-.116-.288-.364-.453-.249-.165-.877-.289-.629-.123-.988-.057-.358.067-.683.351-.325.284-.552.803-.226.52-.349 1.683-.122 1.162.059 2.587.182 1.425.74 2.226.557.801 1.964 1.074 1.406.273 2.219.104.812-.169 1.416-.338"/><path opacity=".9" fill="none" stroke-width="2.469" stroke-linecap="round" stroke-linejoin="round" d="M384.791 275.299q-3.196.301-3.494.372-.298.071-1.259.495"/><path opacity=".9" fill="none" stroke-width="1.245" stroke-linecap="round" stroke-linejoin="round" d="M382.259 274.28l.065-.166.044-.982q.071-.519-.459-5.705-.529-5.186-.742-10.748l.151-.541"/><path opacity=".9" fill="none" stroke-width="2.163" stroke-linecap="round" stroke-linejoin="round" d="M384.374 253.346l-.294-.198q-.927-.227-1.566-.1t-1.457.52q-.819.393-1.936.95-1.118.558-1.65.86"/><path opacity=".9" fill="none" stroke-width="1.769" stroke-linecap="round" stroke-linejoin="round" d="M388.824 268.51q-.081-.253-.49-.974-.176-.018 1.115 8.321.06-.053.09-1.227.031-1.175.159-2.551.128-1.376.756-2.427.628-1.051 1.5-1.215.873-.163 1.57-.057.697.107 1.09.489.393.383.703.887.31.504.91 1.761.6 1.256.879 2.413.28 1.157.397 1.823"/><path opacity=".9" fill="none" stroke-width="1.881" stroke-linecap="round" stroke-linejoin="round" d="M401.767 274.32q-.029-.031.038-.047.037-.031-.727-3.53-.765-3.499-1.591-6.946-.826-3.448-1.338-5.611-.511-2.162-.451-4.702.283-.071.323.01.039.081.238.225"/><path opacity=".9" fill="none" stroke-width="2.386" stroke-linecap="round" stroke-linejoin="round" d="M402.745 260.062q-.424.102-2.75.737-2.326.636-3.539.615-1.213-.021-1.857-.113"/><path opacity=".9" fill="none" stroke-width="1.438" stroke-linecap="round" stroke-linejoin="round" d="M406.742 269.903q.769-.142 1.528-.361.76-.219 1.495-.666.734-.448.907-1.425.173-.978-.096-.828-.365-.086-1.339.075-.974.16-2.101.86-1.128.701-1.557 1.822-.429 1.121-.402 1.972.027.851.183 1.268.156.417.429.68.272.263.332.375.061.113 3.529.226 3.468.114 3.995.039"/><path opacity=".9" fill="none" stroke-width="2.192" stroke-linecap="round" stroke-linejoin="round" d="M418.513 273.034q-.026-.031 0-.075.048-.186-1.751-7.36-.045.041-.017.238.027.196.107.521"/><path opacity=".9" fill="none" stroke-width="2.127" stroke-linecap="round" stroke-linejoin="round" d="M417.5 268.883q.088.03.906.003.818-.028 1.418-.144.6-.117 2.081-.142 1.481-.026 1.865.073.385.098 1.086.29"/><path opacity=".9" fill="none" stroke-width="2.088" stroke-linecap="round" stroke-linejoin="round" d="M427.912 266.172q.061.521 1.081 2.367 1.02 1.847 1.774 2.636.754.789 1.117.992.363.203.45.233.088.031.587.045l.769-.753q.021-.019 1.048-1.692 1.027-1.674 1.586-2.565.559-.891.874-1.23.316-.34.321-.368.005-.028.612-.252l.494.054"/><path opacity=".9" fill="none" stroke-width="1.928" stroke-linecap="round" stroke-linejoin="round" d="M442.09 267.418q-.202.397-.325.868-.122.471-.162 1.096-.041.625.108 1.229.149.604.313.74t.285.191q.121.056.644.212.522.157 1.71-.186 1.188-.343 2.137-1.159.948-.817 1.282-1.378.334-.561.407-.83.072-.269.085-.526.012-.257-.015-.486-.027-.23-.081-.397-.054-.167-.116-.231-.062-.065-.191-.216-.13-.152-1.017-.414-.887-.263-2.546.552-1.66.814-2.252 1.274"/><path opacity=".9" fill="none" stroke-width="2.556" stroke-linecap="round" stroke-linejoin="round" d="M447.073 266.998q-.026.1.042.91.069.809 3.432 4.786"/><path opacity=".9" fill="none" stroke-width="1.853" stroke-linecap="round" stroke-linejoin="round" d="M459.404 274.054q.007-.104-.114-2.523-.122-2.419-.545-5.369-.423-2.95-1.094-6.235t-1.672-8.942l.031-.284"/><path opacity=".9" fill="none" stroke-width="1.84" stroke-linecap="round" stroke-linejoin="round" d="M352.049 357.491l.508.604q.175.073.567-1.18.393-1.253.329-2.331-.063-1.078-.307-1.719-.244-.642-.928-1.048-.683-.406-2.003-.41-1.32-.003-2.685.928-1.365.93-2.122 2.952-.756 2.022-.892 3.76-.135 1.738-.032 3.082.103 1.344.661 2.409.559 1.065 2.13 2.346 1.571 1.281 2.861 2.675 1.29 1.393 1.873 2.666.584 1.272.724 2.116.141.844.119 1.37-.022.526-.118.832-.096.307-.172.514-.076.208-1.627.753-1.55.546-2.862.859-1.311.312-2.538 1.461-1.228 1.149-1.778 1.855"/><path opacity=".9" fill="none" stroke-width="2.17" stroke-linecap="round" stroke-linejoin="round" d="M360.117 372.905l-.354.037-.429.102-.436.168q-.162.024-.557.966-.394.943-.286 1.803.108.859.391 1.459.282.6.418.742.136.143.736.627.599.485 1.775.633 1.175.148 2.63-.732 1.456-.88 2.205-1.72.749-.841.995-1.603.246-.761.222-1.473-.024-.712-.555-1.328-.531-.616-1.291-.947-.761-.331-1.494-.334-.734-.002-1.251.144-.517.147-1.799 1.027"/><path opacity=".9" fill="none" stroke-width="1.836" stroke-linecap="round" stroke-linejoin="round" d="M372.101 370.735q-.444-.143-.478-.088l-.31.115q-.024-.008-.15.748-.125.755.138 1.536t.826 1.265q.562.484 1.751.752 1.188.268 2.301-.612 1.113-.88 1.688-1.993.576-1.113.882-3.44-.07-.019.013.87.084.89.355 1.9.271 1.009.821 2.064.549 1.055 1.235 1.946.686.89 1.973 1.718t2.115 1.256"/><path opacity=".9" fill="none" stroke-width="2.063" stroke-linecap="round" stroke-linejoin="round" d="M387.654 369.738l-.053.088q-.236 1.082 2.286 6.635.432-.073 1.064-1.535.633-1.463 1.306-2.791.674-1.329 1.003-1.626.328-.296.757-.426.428-.129.773-.017.345.113.585.343.24.231.591.779.35.548.564 1.04.213.492.686 1.737.473 1.246.922 2.032.448.785 1.622 1.509"/><path opacity=".9" fill="none" stroke-width="2.099" stroke-linecap="round" stroke-linejoin="round" d="M405.579 371.908q.038.104-.008.97-.045.866.097 1.411.142.546.236.712.094.167.435.461.341.295 1.502.395 1.162.101 2.373-.352 1.212-.453 1.721-.86.51-.407.964-.986.454-.579.546-1.381.091-.801-.037-1.338-.128-.538-1.161-.966-1.033-.429-3.318.708-2.286 1.137-3.085 1.663"/><path opacity=".9" fill="none" stroke-width="1.863" stroke-linecap="round" stroke-linejoin="round" d="M415.609 375.597q.054-.552-.617-7.498-.672-6.945-1.123-13.651l-.039-.079"/><path opacity=".9" fill="none" stroke-width="1.926" stroke-linecap="round" stroke-linejoin="round" d="M426.775 374.991l-.025-.078q-.174-.658-.635-5.935-.462-5.278-2.528-18.604-.002.199.152.475"/><path opacity=".9" fill="none" stroke-width="2.22" stroke-linecap="round" stroke-linejoin="round" d="M424.342 350.849q.255.054 2.087-.364 1.832-.419 2.775-.66.942-.242 2.036-.179 1.094.062 2.195.631 1.101.569 1.715.963"/><path opacity=".9" fill="none" stroke-width="2.122" stroke-linecap="round" stroke-linejoin="round" d="M426.428 364.001q.346-.319.438-.322l.559-.277q.584-.322 2.645-.715 2.061-.392 2.605-.465"/><path opacity=".9" fill="none" stroke-width="2.4" stroke-linecap="round" stroke-linejoin="round" d="M429.076 371.908q1.294.311 2.713.458 1.419.148 3.034.103 1.615-.044 2.797-.081 1.182-.037 1.661-.043"/><path opacity=".9" fill="none" stroke-width="1.658" stroke-linecap="round" stroke-linejoin="round" d="M445.406 365.696q.042 1.798.062 2.165.02.367.021.575.001.208.187 1.545.185 1.337.769 2.28.148-.021.564-1.171.416-1.15.984-2.081.567-.931.994-1.265.427-.333.926-.375.499-.041.873.108.375.148.599.38.225.232.422.571.198.338.324.668.127.33.294.905.167.575.273.876.106.302.146.492.04.189.201.527t.247.469q.086.131.754.847"/><path opacity=".9" fill="none" stroke-width="1.685" stroke-linecap="round" stroke-linejoin="round" d="M453.3 370.167q-.008-.204.848-1.583.856-1.38 1.939-2.46 1.084-1.081 1.923-1.348.84-.267 1.393-.229.554.037 1.066.201.513.164 1.771 3.148 1.259 2.985 1.489 3.667"/><path opacity=".9" fill="none" stroke-width="2.899" stroke-linecap="round" stroke-linejoin="round" d="M470.407 372.476l-.004.017q.06-.039-.704-5.389l-.029-.579"/><circle opacity=".9" stroke-width=".1" cx="469.589" cy="361.962" r="1.351"/><path opacity=".9" fill="none" stroke-width="2.823" stroke-linecap="round" stroke-linejoin="round" d="M479.18 373.12l.029-.063.009-.747q.095-.177-.543-4.785-.638-4.609-1.239-7.378-.601-2.769-.936-4.332-.335-1.563-.539-3.093-.204-1.53-.074-2.003"/><path opacity=".9" fill="none" stroke-width="2.292" stroke-linecap="round" stroke-linejoin="round" d="M481.654 356.448l-.318-.344q-.352-.221-3.72.34-3.368.561-4.121.747"/><path opacity=".9" fill="none" stroke-width="1.548" stroke-linecap="round" stroke-linejoin="round" d="M489.773 372.476q-.017-.025-.001.128l-.089-.038q-.05-.258-.427-3.494-.377-3.235-1.635-11.428-1.258-8.193-1.365-8.927"/><path opacity=".9" fill="none" stroke-width="2.863" stroke-linecap="round" stroke-linejoin="round" d="M491.297 360.443l-.034-.01q-.079.108-2.823.246-2.744.137-3.565.201"/><path opacity=".9" fill="none" stroke-width="1.462" stroke-linecap="round" stroke-linejoin="round" d="M495.857 368.825q.552-.083.763-.145.21-.061.281-.052.071.01.896-.497.825-.507 1.379-1.272.554-.766.678-1.242.125-.476.097-.785-.027-.309-.063-.555-.035-.246-.349-.503-.314-.256-1.169.002-.856.257-1.396.806-.54.548-.927 1.621-.387 1.072-.295 1.968.093.897.22 1.143.126.247 1.16 1.038 1.033.79 1.949 1.077.915.286 1.723.296.807.01 2.477-.729"/><path opacity=".9" fill="none" stroke-width="1.954" stroke-linecap="round" stroke-linejoin="round" d="M509.365 370.735q-.044-.057-.106-.336-.061-.279-.545-1.878-.483-1.599-1.059-3.077-.575-1.479-.897-1.88-.322-.4-.655-.69"/><path opacity=".9" fill="none" stroke-width="2.295" stroke-linecap="round" stroke-linejoin="round" d="M507.974 366.264q.214.022 1.697-.506t2.558-.766q1.076-.239 1.668-.275.593-.036.817-.043.225-.008.858.032.632.04 1.112.175.479.134.881.255"/><path opacity=".9" fill="none" stroke-width="2.324" stroke-linecap="round" stroke-linejoin="round" d="M321.513 478.058l-.224.015q-.779-.295-.884-.381-.106-.086-1.875-.714t-4.261-.488q-2.492.14-3.116.173"/><path opacity=".9" fill="none" stroke-width="1.687" stroke-linecap="round" stroke-linejoin="round" d="M316.669 475.398q.08-.216-.334-6.101-.414-5.885-.66-9.095-.246-3.209-.106-4.827.139-1.618.694-3.263"/><path opacity=".9" fill="none" stroke-width="2.243" stroke-linecap="round" stroke-linejoin="round" d="M322.638 448.526q-.11-.006-2.818.537t-4.959 1.619l-2.848 1.36"/><path opacity=".9" fill="none" stroke-width="1.765" stroke-linecap="round" stroke-linejoin="round" d="M325.028 470.558q.068-.19-.208-1.52l.114.322q.308.766 1.742 3.281.171.11.55-1.123.38-1.233 1.188-2.618.809-1.386 1.236-1.677.426-.291.605-.342.178-.051.619.045.442.096.48.083.038-.012 2.925 5.157.474-.03.968.044"/><path opacity=".9" fill="none" stroke-width="2.015" stroke-linecap="round" stroke-linejoin="round" d="M343.263 472.808q-.126-.057-.254-.65-.129-.594-.656-3.702-.528-3.108-1-5.715-.472-2.608-1.423-7.114-.951-4.505-1.175-7.796.46.588.805 1.024"/><path opacity=".9" fill="none" stroke-width="1.988" stroke-linecap="round" stroke-linejoin="round" d="M345.466 455.827l-1.079-.099q-.392.002-3.118.08-2.727.079-4.698.751-1.971.671-2.59.921"/><path opacity=".9" fill="none" stroke-width="1.538" stroke-linecap="round" stroke-linejoin="round" d="M348.841 468.765q1.016-.415 1.562-.665.545-.251.595-.26.05-.009 1.358-.828t1.95-1.589q.641-.769.692-2.399-1.244-.48-2.568-.232-1.324.249-2.592 1.617-1.269 1.369-1.578 3.338-.309 1.968-.044 3.082.265 1.115.413 1.265.149.15.36.367.211.216 1.438.458 1.227.241 6.976-2.162"/><path opacity=".9" fill="none" stroke-width="1.55" stroke-linecap="round" stroke-linejoin="round" d="M366.888 472.878q-.029-.19-1.441-3.601-1.411-3.411-3.925-6.136-.063-.021-.806-.083"/><path opacity=".9" fill="none" stroke-width="1.701" stroke-linecap="round" stroke-linejoin="round" d="M362.716 466.245q.225-.144 4.753-.577 4.528-.433 5.466-.489"/><path opacity=".9" fill="none" stroke-width="2.158" stroke-linecap="round" stroke-linejoin="round" d="M375.919 463.726q.103.122.078.234l.179.762q.097.167.339.82.242.652 1.306 1.961 1.064 1.308 2.054 1.767.991.458 1.799.446.104.015 1.127-1.986t2.299-3.863q1.275-1.863 1.926-2.512.65-.649.95-.877.299-.228.636-.332.338-.105.963-.405"/><path opacity=".9" fill="none" stroke-width="1.641" stroke-linecap="round" stroke-linejoin="round" d="M394.56 461.862q-.752.54-.74.735-.268.318-.63 1.626-.362 1.308-.246 1.981.116.673.243 1.122.127.448.193.506.067.058.678.327.61.269 1.55.201.94-.067 1.99-.721 1.049-.654 1.827-1.899t.86-2.054q.081-.809-.072-1.303-.152-.495-.761-.679-.608-.183-1.218-.031-.611.152-1.753.588"/><path opacity=".9" fill="none" stroke-width="2.437" stroke-linecap="round" stroke-linejoin="round" d="M398.466 462.589q.185.34.904 2.526.719 2.187 1.557 3.559.837 1.372 2.054 1.929 1.216.557 2.329.81"/><path opacity=".9" fill="none" stroke-width="2.302" stroke-linecap="round" stroke-linejoin="round" d="M409.888 472.351q.001-.176-.127-4.166-.129-3.991-1.273-9.013-1.144-5.021-2.179-8.578-.008.23.001.323"/><path opacity=".9" fill="none" stroke-width="2.017" stroke-linecap="round" stroke-linejoin="round" d="M422.95 453.706l.125.065.176-.323q.091-.504.079-.765-.011-.262-.026-.363-.014-.101-.326-.799-.311-.698-1.583-1.244-1.271-.547-2.431-.486-1.161.061-2.349.487-1.188.425-1.752 1.408-.563.983-.645 1.787-.082.803-.019 1.537.064.735 2.761 3.317 2.696 2.582 4.53 3.998 1.833 1.417 2.343 2.115.51.698.747 1.762.236 1.065-.418 1.858-.655.793-1.688 1.426-1.033.633-2.495 1.244l-1.263.156"/><path opacity=".9" fill="none" stroke-width="1.784" stroke-linecap="round" stroke-linejoin="round" d="M432.45 463.925l-.554.333q-.501.498-.717 1.006-.217.508-.285.837-.069.329-.07.647-.002.318-.023.426-.021.109.426.752.447.644 1.799.777 1.352.134 2.299-.123.947-.257 1.775-.783.828-.527 1.558-1.603.729-1.077.846-1.761.117-.684.071-1.1-.045-.416-.118-.539-.073-.123-.351-.308-.278-.186-.736-.246-.458-.061-1.661.377-1.204.438-2.057 1.129-.853.691-1.342 1.105"/><path opacity=".9" fill="none" stroke-width="1.546" stroke-linecap="round" stroke-linejoin="round" d="M444.981 465.179q-.108.023-.43.198-.136.194.026.878.162.683.397.963.236.28.665.518.428.238.986.294.557.057 1.154-.068.597-.125 1-.349.402-.225 1.235-1.254.833-1.028 1.091-1.794t.264-.706q.006.06.371 1.171t1.063 1.828q.699.716 1.296.931.597.216 1.57.577"/><path opacity=".9" fill="none" stroke-width="1.446" stroke-linecap="round" stroke-linejoin="round" d="M459.185 462.261l.023.116q-.024.117.386 1.46.41 1.343 1.624 2.325l.417-.42q.083-.124.47-.569.388-.445.783-.764.395-.32 1.086-.538.69-.218 1.665.02.975.238 1.41.583.434.345.808.744.374.398.809 1.038.434.639 1.659 2.309"/><path opacity=".9" fill="none" stroke-width="1.7" stroke-linecap="round" stroke-linejoin="round" d="M475.841 463.128q-.056.146.004 1.304.06 1.157.206 1.58.145.422.318.725.172.303 1.157.692.985.389 2.474.006 1.488-.382 2.251-.883.762-.501 1.052-.812.291-.312.465-1.036.173-.723-.098-1.812-.271-1.088-1.076-1.56-.804-.471-1.953-.503-1.149-.031-2.529.844-1.381.875-2.209 1.514"/><path opacity=".9" fill="none" stroke-width="2.43" stroke-linecap="round" stroke-linejoin="round" d="M483.2 468.038q.074-7.597-.441-11.947-.516-4.351-1.336-7.498l-.535-1.063"/><path opacity=".9" fill="none" stroke-width="2.29" stroke-linecap="round" stroke-linejoin="round" d="M492.153 464.651l.055-.169q.303-1.279-1.984-17.058l.145-.022q.296-.055 2.83-.836 2.535-.782 6.226-.041l1.166.947"/><path opacity=".9" fill="none" stroke-width="1.883" stroke-linecap="round" stroke-linejoin="round" d="M493.622 456.296l.113.162q-.113.048 2.437.317l3.559.376"/><path opacity=".9" fill="none" stroke-width="2.633" stroke-linecap="round" stroke-linejoin="round" d="M493.481 464.581q.766.649 3.677.971 2.911.323 4.502.658 1.59.336 2.712.633"/><path opacity=".9" fill="none" stroke-width="1.593" stroke-linecap="round" stroke-linejoin="round" d="M509.278 459.015l-.019.138q-.094.122-.157 1.597t.13 2.535q.194 1.06.719 1.753.108-.116.589-1.347.481-1.231 1.006-1.966.525-.734 1.702-.918 1.176-.184 1.122-.113-.054.071-.115.158-.019.233 2.414 4.994.472.032 1.017-1.175.545-1.208.944-1.936.398-.728.779-.942.38-.213.404-.244.024-.032.362-.001.338.031.598.272.26.242.331.297.072.055.389.597.318.541.765 1.787l.817 2.272"/><path opacity=".9" fill="none" stroke-width="2.059" stroke-linecap="round" stroke-linejoin="round" d="M530.247 468.495q.035-.146-.116-3.018-.152-2.871-.212-3.685"/><path opacity=".9" fill="none" stroke-width="1.934" stroke-linecap="round" stroke-linejoin="round" d="M527.856 455.698q1.719 2.737 2.063 3.246"/><path opacity=".9" fill="none" stroke-width="1.578" stroke-linecap="round" stroke-linejoin="round" d="M538.075 467.64q-.07-.934-1.149-7.041-1.08-6.108-4.194-16.525-.029.066.234.538"/><path opacity=".9" fill="none" stroke-width="2.139" stroke-linecap="round" stroke-linejoin="round" d="M539.997 451.046q-.144-.064-1.729-.223-1.584-.159-5.249 1.084-3.664 1.242-10.209 2.725"/><path opacity=".9" fill="none" stroke-width="2.272" stroke-linecap="round" stroke-linejoin="round" d="M547.372 465.448l-.014-.177q.118-1.043-3.167-19.406l-.272-.784"/><path opacity=".9" fill="none" stroke-width="2.246" stroke-linecap="round" stroke-linejoin="round" d="M548.95 458.218q-.257-.086-3.118.442-2.862.528-3.382.683"/><path opacity=".9" fill="none" stroke-width="1.659" stroke-linecap="round" stroke-linejoin="round" d="M555.122 466.175q.103-.304.348-.524.246-.219 1.274-1.074 1.028-.855 1.592-1.482.563-.628.95-1.267.387-.64.494-.975.108-.335-.101-1.124-.555-.375-2.203.44-1.647.814-2.51 2.02-.863 1.205-.903 2.01-.04.805.032.95.072.144.821.857.748.712 1.813.925 1.064.213 2.023-.018.96-.231 1.785-.87.825-.64 1.554-1.192"/><path opacity=".9" fill="none" stroke-width="1.554" stroke-linecap="round" stroke-linejoin="round" d="M565.075 467.241l.877-.24q.158-.669.278-.696.119-.026-.088-1.367-.207-1.342-.938-2.666-.731-1.325-2.441-3.199"/><path opacity=".9" fill="none" stroke-width="1.843" stroke-linecap="round" stroke-linejoin="round" d="M561.435 460.866q.077-.034 1.338.051 1.26.086 5.215-.968 3.954-1.053 4.462-1.204"/><path opacity=".9" fill="none" stroke-width="1.615" stroke-linecap="round" stroke-linejoin="round" d="M413.466 436.515q.013-.29-.013-1.415t-.492-6.749q-.466-5.624-.578-12.376-.112-6.753-.123-7.789-.011-1.037-.169-3.694-.159-2.656-.216-5.133-.056-2.476-.074-3.525-.018-1.05.009-2.972"/><path opacity=".9" fill="none" stroke-width="1.817" stroke-linecap="round" stroke-linejoin="round" d="M412.606 393.261l-.338-.015q-1.011.589-1.05.722-.738.809-1.445 1.83-.707 1.022-2.459 6.736l-.286.875"/><path opacity=".9" fill="none" stroke-width="2.622" stroke-linecap="round" stroke-linejoin="round" d="M412.341 393.261q.148.051.517.326t1.827 1.519q1.457 1.244 1.839 1.559.381.316 2.051 1.565"/><path opacity=".9" fill="none" stroke-width="1.548" stroke-linecap="round" stroke-linejoin="round" d="M409.56 337.386l.012-.174q.111-.278-.283-4.96-.394-4.682-.625-7.483-.231-2.801-.265-5.159-.033-2.358-.192-4.19-.159-1.833-.29-3.186-.13-1.353-.199-3.17-.068-1.817-.111-2.671-.042-.854-.117-1.365-.075-.511-.209-2.044-.134-1.534-.161-2.733-.028-1.199-.086-5.142l-.006-1.176"/><path opacity=".9" fill="none" stroke-width="2.156" stroke-linecap="round" stroke-linejoin="round" d="M407.825 295.058l-.455-.004q-.538.348-1.318 1.184-.781.836-1.607 1.94-.826 1.105-1.792 3.454"/><path opacity=".9" fill="none" stroke-width="3.163" stroke-linecap="round" stroke-linejoin="round" d="M407.169 294.19q.224.359.777.929.552.57 1.142 1.241.591.671 1.042 1.141.452.471 2.805 3.791"/></g></svg>
