<svg xmlns="http://www.w3.org/2000/svg" viewBox="283.67 313.221 457.686 145.058"><g stroke="#000"><path opacity=".9" fill="none" stroke-width="2.004" stroke-linecap="round" stroke-linejoin="round" d="M290.703 361.008q.021-1.744.019-3.867-.001-2.124-.108-8.552-.107-6.429-.171-10.635-.063-4.207-.11-6.348t-.047-4.213q.001-2.072.011-3.932"/><path opacity=".9" fill="none" stroke-width="2.339" stroke-linecap="round" stroke-linejoin="round" d="M290.891 323.848q1.844-.001 4.021-.027 2.177-.026 2.843-.057.667-.03 4.912-.088 4.244-.058 6.965-.116 2.721-.057 9.396-.116 6.676-.059 9.269-.107l4.894-.089q2.302-.042 4.984-.106t6.749-.15q4.067-.086 9.07-.139 5.002-.054 7.679-.065 2.678-.012 11.752-.071 9.075-.059 13.677-.092 4.602-.032 12.065-.072 7.463-.039 12.106-.051 4.643-.011 8.976-.01l6.902.003q2.57.002 6.858-.03 4.288-.033 6.459-.069 2.171-.037 2.493-.037.321.001 2.433-.014 2.113-.016 2.644-.01.531.006 2.709-.012 2.178-.018 4.435-.03 2.258-.012 4.343-.01 2.086.001 2.475.021.389.02 2.568.034l4.594.033q2.415.019 4.29.011 1.874-.008 2.519.003.645.01 2.78.01 2.136 0 2.405.014.269.013 3.758-.005l1.252.03q4.016.042 6.178.031"/><path opacity=".9" fill="none" stroke-width="1.701" stroke-linecap="round" stroke-linejoin="round" d="M292.219 363.129q2.382.003 4.537-.01 2.155-.012 2.484-.02.329-.008 2.574-.046 2.245-.037 9.219-.089 6.975-.052 11.909-.123 4.934-.072 7.676-.087 2.741-.016 5.232-.025 2.49-.009 6.798-.044 4.308-.035 7.146-.065 2.838-.029 9.91-.084 7.071-.055 11.739-.088l7.512-.052q2.846-.019 7.485-.055 4.639-.037 9.115-.065 4.477-.027 7.321-.058 2.844-.031 12.14-.084 9.296-.054 19.199-.118 9.904-.065 12.458-.075 2.554-.011 4.861-.01 2.307.002 6.38-.02 4.072-.021 6.809-.049 2.738-.029 5.21-.046 2.472-.017 4.533-.024 2.061-.006 2.6.007.54.013 2.458-.001 1.919-.013 2.236-.008.317.005.611-.005t2.211-.031q1.916-.021 2.246-.018.33.004 4.006-.025l2.963.023"/><path opacity=".9" fill="none" stroke-width="1.33" stroke-linecap="round" stroke-linejoin="round" d="M496.125 360.082q-.078-1.683-.356-5.841-.278-4.159-.514-8.281l-.361-6.265q-.125-2.143-.247-4.282-.121-2.139-.303-4.225-.181-2.085-.182-2.179-.001-.094-.365-5.888"/><path opacity=".9" fill="none" stroke-width="1.697" stroke-linecap="round" stroke-linejoin="round" d="M531.547 361.336q-.27-1.992-.462-4.198-.191-2.205-.383-4.537-.191-2.332-.816-9.063-.626-6.731-1.01-11.353-.385-4.622-.604-6.88-.219-2.259-.444-4.305"/><path opacity=".9" fill="none" stroke-width="2.369" stroke-linecap="round" stroke-linejoin="round" d="M526.844 319.934q2.1.06 2.484.08.384.02 2.232.055l4.279.083q2.43.047 5.074.118 2.645.07 7.715.165t9.197.156q4.127.062 9.356.191t14.577.311l14.277.278q4.927.095 9.918.186 4.992.09 9.935.182 4.944.091 9.282.163l11.244.186q6.908.114 9.717.162 2.81.047 5.524.082 2.715.035 7.379.106t9.309.149q4.644.078 9.024.143 4.379.065 6.863.096 2.484.03 2.961.034.478.004 4.636.086 4.159.083 6.751.117 2.591.034 3.053.029.461-.005 2.379.014 1.917.019 2.32.018.404 0 2.752.031 2.349.031 4.363.062 2.015.032 2.89.021l3.87.098 4.426.057q.337.007 7.572.127"/><path opacity=".9" fill="none" stroke-width="1.837" stroke-linecap="round" stroke-linejoin="round" d="M733.25 321.398q.141 1.98.137 2.089-.004.11.312 6.906.316 6.796.463 11.275.146 4.479.13 4.608-.017.129.177 4.651t.399 9.117l.116 2.089"/><path opacity=".9" fill="none" stroke-width="1.694" stroke-linecap="round" stroke-linejoin="round" d="M734.719 362.133q-1.624-.003-6.725-.075-5.1-.073-11.673-.093-6.572-.02-11.047-.03-4.475-.011-10.992-.03l-11.018-.031q-4.501-.011-11.121-.049-6.619-.039-11.508-.072-4.89-.033-7.392-.04-2.502-.006-6.875-.004-4.373.003-12.945.049-8.573.047-12.905.081-4.332.034-10.555.075-6.224.04-14.947.116-8.722.077-19.776.253l-15.278.246q-4.223.07-6.376.109-2.153.038-4.129.076-1.977.038-2.302.062-.324.025-2.084.046-1.759.021-2.322.018-.562-.002-2.602-.004t-7.928.094"/><path opacity=".9" fill="none" stroke-width="1.436" stroke-linecap="round" stroke-linejoin="round" d="M410.531 451.711q.028-1.431-.303-10.894-.33-9.464-.535-15.253l-.268-7.581q-.063-1.791-.034-3.292"/><path opacity=".9" fill="none" stroke-width="2.333" stroke-linecap="round" stroke-linejoin="round" d="M406.938 412.031q2.775.024 4.534.029 1.758.006 2.035-.003.277-.009 3.173-.029 2.896-.02 7.377-.038 4.481-.017 6.977-.032 2.495-.015 9.085-.038 6.589-.022 9.126-.047 2.538-.024 7.271-.053 4.734-.029 9.374-.045 4.641-.017 12.092-.018 7.45-.002 14.706-.02 7.256-.019 13.707-.03 6.451-.01 9.355-.016 2.903-.006 7.17-.02 4.267-.014 7.02-.029 2.754-.015 4.878-.021l4.724-.009q2.601-.003 9.785-.031 7.183-.028 13.675-.069 6.491-.041 9.008-.061l2.993-.024q.476-.003 4.607-.004 4.132-.002 6.802-.006 2.671-.005 4.984-.017t2.754-.01q.441.003 2.753.012 2.313.009 2.399.007.086-.003 2.449-.004t8.561.029"/><path opacity=".9" fill="none" stroke-width="1.462" stroke-linecap="round" stroke-linejoin="round" d="M612.891 409.641l-.043 1.889q-.015.049-.126 15.478-.11 15.428-.161 17.411-.051 1.982-.045 2.073.005.09-.078 2.031"/><path opacity=".9" fill="none" stroke-width="2.333" stroke-linecap="round" stroke-linejoin="round" d="M612.828 449.191l-1.533.034q-.41.031-2.277.088-1.866.057-2.54.091-.675.034-4.316.094-3.642.061-6.268.11-2.627.05-7.052.149-4.425.1-6.672.162t-6.665.167q-4.417.105-12.286.25-7.869.145-10.526.197-2.657.052-13.03.227-10.373.175-15.082.249l-8.477.132-8.02.124q-4.253.066-8.197.114-3.945.048-12.073.139-8.128.091-16.396.163-8.267.071-12.363.095-4.095.024-8.103.062-4.007.039-6.064.063-2.057.024-4.238.033-2.18.009-3.901.021-1.722.012-2.206-.004t-3.863-.032q-3.642.005-3.939-.012-.297-.017-.889-.031-2.829.029-2.968.026-.139-.004-3.91.066l-2.271.012"/><path opacity=".9" fill="none" stroke-width="1.675" stroke-linecap="round" stroke-linejoin="round" d="M513.031 409.312q.006-1.245-.16-4.9-.167-3.656-.603-11.296l-.018-1.581"/><path opacity=".9" fill="none" stroke-width="1.894" stroke-linecap="round" stroke-linejoin="round" d="M391.484 386.824q2.215-.01 9.061-.096l9.622-.12q2.777-.034 5.705-.092 2.928-.059 7.12-.118t8.817-.109q4.625-.049 9.6-.076 4.976-.027 9.62-.056 4.645-.029 7.04-.046 2.396-.017 7.283-.066 4.888-.049 14.053-.105 9.165-.057 14.536-.088 5.371-.031 9.707-.045 4.337-.013 9.231-.014 4.894-.001 7.873.001t7.032-.003q4.053-.004 6.691-.004t7.15.01q4.512.01 5.143.02.632.009 5.157.029 4.524.02 6.853.028 2.329.007 6.303.026 3.974.019 7.299.058 3.325.038 7.566.091 4.241.054 6.348.079l4.908.057q2.801.031 5.126.049 2.325.019 4.105.026 1.779.008 2.213.016.433.007.821.01.387.002 2.544.021 2.157.018 4.342.026 2.186.009 4.194.023 2.008.013 2.484.022.476.008.78.023.304.015 1.946.016 1.642 0 2.154.018l.716.027q.203.009 2.467.018 2.263.009 8.437.075"/><path opacity=".9" fill="none" stroke-width="1.334" stroke-linecap="round" stroke-linejoin="round" d="M635.328 385.289q-.113-1.3-.343-4.778-.23-3.478-.458-7.302-.048.052-.324-4.83"/><path opacity=".9" fill="none" stroke-width="1.624" stroke-linecap="round" stroke-linejoin="round" d="M390.688 385.828q-.108-1.64-.276-5.541-.167-3.901-.413-8.034l-.311-5.538"/><path opacity=".9" fill="none" stroke-width="2.401" stroke-linecap="round" stroke-linejoin="round" d="M389.359 364.793q-.262.86-.921 2.161-.658 1.301-1.943 4.696l-1.979 3.631"/><path opacity=".9" fill="none" stroke-width="2.178" stroke-linecap="round" stroke-linejoin="round" d="M397.125 371.953q-.945-.527-3.794-2.441-2.849-1.914-4.097-2.668"/><path opacity=".9" fill="none" stroke-width="1.833" stroke-linecap="round" stroke-linejoin="round" d="M631.203 365.988q-.934 1.151-2.112 2.699-1.179 1.548-2.302 2.872-1.122 1.323-2.273 2.726"/><path opacity=".9" fill="none" stroke-width="2.773" stroke-linecap="round" stroke-linejoin="round" d="M644.406 374.285l-1.227-1.39q-.099-.121-1.668-1.695t-9.105-9.395"/><path opacity=".9" fill="none" stroke-width="1.505" stroke-linecap="round" stroke-linejoin="round" d="M329.81 336.276l.673-.534q.054-.43-.034-.663-.088-.234-.286-.402-.198-.168-.298-.225-.099-.057-.878-.162-.78-.106-1.288.069-.508.176-.768.439-.259.263-.409 1.039-.15.775.08 1.557.23.782 1.762 2.836t2.422 3.267q.89 1.213 1.121 2.124.23.91.196 1.116-.035.206-.148.469-.114.264-.582.631-.469.368-2.289 1.018-1.821.65-2.162.755"/><path opacity=".9" fill="none" stroke-width="1.841" stroke-linecap="round" stroke-linejoin="round" d="M338.199 343.077q-.224.083-.862.891-.638.807-.982 1.439-.344.631-.389 1.053-.045.421-.07.459-.025.038.356 1.019.382.981 1.604 1.425 1.222.444 2.125.347.902-.096 1.856-.604.955-.508 1.608-1.314.653-.806.888-1.605.235-.8.066-1.646-.168-.846-.947-1.248-.778-.402-1.433-.427-.655-.024-1.545.599-.889.624-1.435 1.168"/><path opacity=".9" fill="none" stroke-width="1.622" stroke-linecap="round" stroke-linejoin="round" d="M348.224 343.452l-.219.346q-.186.293-.181.311.005.019-.03.817-.036.799.222 1.431.257.633.858.994.601.36 1.251.342.649-.018 1.242-.491.593-.472 1.049-4.071.02.26.861 1.865.841 1.604 1.552 2.516.712.913 1.038 1.071.327.158.79.416"/><path opacity=".9" fill="none" stroke-width="1.655" stroke-linecap="round" stroke-linejoin="round" d="M358.401 342.809q-.008.269.034.853.041.585.095.955.054.371.206.845.152.475.456.989.304.515.628.604.324.089.788-1.096.463-1.184.789-2 .326-.816.661-1.175.335-.36.507-.42.172-.059.345-.009.172.051.337.174.164.122.422.428t.477.7q.218.394 1.058 2.24.84 1.846 1.175 2.492"/><path opacity=".9" fill="none" stroke-width="2.085" stroke-linecap="round" stroke-linejoin="round" d="M369.911 340.226q-.009.046-.038 1.828-.029 1.782.269 3.335.298 1.552 1.303 2.467.155-.087.419-1.405.263-1.319.464-2.04.201-.722.474-1.104.274-.381.862-.471.588-.09.858.034.27.125.973 1.127.703 1.003 2.341 3.914.138.009.848-.427"/><path opacity=".9" fill="none" stroke-width="1.916" stroke-linecap="round" stroke-linejoin="round" d="M382.709 343.379l.178 1.244q.218.913.583 1.375.366.462.902.554.536.093 1.683-.396 1.148-.489 2.128-1.392.981-.903 1.217-1.544.236-.64.022-1.18-.215-.539-1.186-.863-.971-.324-2.298-.101-1.327.224-1.93.652-.603.429-1.147.893"/><path opacity=".9" fill="none" stroke-width="2.226" stroke-linecap="round" stroke-linejoin="round" d="M389.997 345.961q.173-.908-1.427-8.009-1.601-7.102-1.685-7.411"/><path opacity=".9" fill="none" stroke-width="1.97" stroke-linecap="round" stroke-linejoin="round" d="M396.651 347.671l-.054-1.148q.009-.067-.777-4.998-.787-4.931-1.635-10.697.576-.684 3.541-.833 2.965-.149 3.629-.058"/><path opacity=".9" fill="none" stroke-width="2.76" stroke-linecap="round" stroke-linejoin="round" d="M397.25 340.34q.093-.023 1.056.178.962.201 2.313.297l.397-.092"/><path opacity=".9" fill="none" stroke-width="2.438" stroke-linecap="round" stroke-linejoin="round" d="M396.195 347.631q.112-.012 2.138.07 2.026.081 6.519-.674"/><path opacity=".9" fill="none" stroke-width="2" stroke-linecap="round" stroke-linejoin="round" d="M407.24 340.454l-.065.038q-.244.061 1.86 6.984.051-.028.412-1.447.362-1.419.721-2.435t.618-1.333q.259-.317.451-.356.192-.039.38.031.187.07.314.191.127.122.291.419.164.297 1.244 2.864.014.04.205-.014.191-.054.662-.846.471-.791.902-1.405.43-.614.726-.837.296-.224.507-.246.21-.023.364 0 .153.022.271.104.119.081.205.09.087.01 2.617 3.326l.497.379"/><path opacity=".9" fill="none" stroke-width="2.171" stroke-linecap="round" stroke-linejoin="round" d="M425.475 346.377l.033-.202q.044-.105-.281-1.513-.324-1.408-.557-2.196"/><path opacity=".9" fill="none" stroke-width="1.532" stroke-linecap="round" stroke-linejoin="round" d="M422.094 337.074q.478.36 1.557.644"/><path opacity=".9" fill="none" stroke-width="2.702" stroke-linecap="round" stroke-linejoin="round" d="M433.256 347.329q-.017-.059-1.219-6.15-1.202-6.091-4.073-16.441-.069-.079.107.709.177.787.4 1.525"/><path opacity=".9" fill="none" stroke-width="1.482" stroke-linecap="round" stroke-linejoin="round" d="M433.524 331.037q-.662-.286-2.631-.219-1.968.067-2.943.494-.975.427-1.679.825"/><path opacity=".9" fill="none" stroke-width="2.087" stroke-linecap="round" stroke-linejoin="round" d="M443.469 347.484l-.105-.026q-.186-.075-1.223-3.886-1.036-3.812-2.151-6.789-1.114-2.977-1.716-5.026-.603-2.049-1.182-4.442"/><path opacity=".9" fill="none" stroke-width="2.445" stroke-linecap="round" stroke-linejoin="round" d="M443.853 337.644l-.195-.068q-.814.094-2.111.411-1.297.316-2.689.556-1.391.24-2.258.395"/><path opacity=".9" fill="none" stroke-width="1.72" stroke-linecap="round" stroke-linejoin="round" d="M449.094 343.493q.378-.083.917-.128.539-.044 1.007-.235.469-.192.744-.427.275-.236.508-.568.233-.332.366-.67.133-.338.138-.867.005-.53-.162-.83-.167-.3-.239-.363-.072-.064-.618-.119-.546-.056-1.156.164-.61.221-.932.406-.322.185-1.229.966-.906.781-1.434 1.723-.527.942-.565 2.072-.038 1.131.184 1.624.221.493 1.079 1.08.859.587 2.439.737 1.58.149 2.679-.119 1.1-.269 1.783-.496"/><path opacity=".9" fill="none" stroke-width="2.434" stroke-linecap="round" stroke-linejoin="round" d="M459.307 346.645q-.091-.423-.774-1.799t-1.286-2.141q-.602-.766-1.075-1.129-.472-.362-1.077-.82"/><path opacity=".9" fill="none" stroke-width="2.03" stroke-linecap="round" stroke-linejoin="round" d="M455.435 340.38q.583.004 2.774.037 2.19.032 3.19.322.999.29 1.709.587"/><path opacity=".9" fill="none" stroke-width="3.327" stroke-linecap="round" stroke-linejoin="round" d="M570.095 349.713q.2-.023.274-.022.226-.506-.739-11.577l.125-.092"/><path opacity=".9" fill="none" stroke-width="3.031" stroke-linecap="round" stroke-linejoin="round" d="M574.119 335.741l.276-.153q.152-.124.231-.232.079-.109.162-.377.187-.232-3.813.019-3.999.251-4.798.287"/><path opacity=".9" fill="none" stroke-width="2.39" stroke-linecap="round" stroke-linejoin="round" d="M579.512 350.095q-.143-.507-.793-2.74-.65-2.232-.844-2.881"/><circle opacity=".9" stroke-width=".1" cx="576.623" cy="340.262" r=".706"/><path opacity=".9" fill="none" stroke-width="2.301" stroke-linecap="round" stroke-linejoin="round" d="M583.384 342.992q-.139-.42-.329-.533-.085.476.014 1.515.099 1.04.527 1.873.427.833 1.21 1.061.384-.351 1.572-2.243.127.013.239.111.112.098.435.728.324.629 1.114 1.186.29-.205.301-.204.01.001.621-1.1t1.1-1.734q.488-.634.784-.807.297-.174.497-.166.2.009.357.097.158.087.356.334.199.247.586 1.032.386.786 2.029 4.45l.437.329"/><path opacity=".9" fill="none" stroke-width="1.883" stroke-linecap="round" stroke-linejoin="round" d="M599.598 343.83q.656-.016 1.082-.122.426-.107 1.023-.55.598-.443.925-.832.326-.389.44-.599.114-.211.16-.338.046-.127.061-.512t-.293-.663q-.308-.277-.791-.311-.484-.034-.881.098-.398.133-.954.678-.555.546-.915 2.022-.36 1.476-.012 3.182.349 1.706.949 2.837.6 1.13 1.253 1.614.652.483.718.52.066.036.935.07.868.034 2.006-.576 1.137-.61 1.699-.971"/><path opacity=".9" fill="none" stroke-width="2.21" stroke-linecap="round" stroke-linejoin="round" d="M613.004 348.499q.362.131.581.271.219.139.457.208.238.069.786.085.202.093-1.73-.352-1.932-.446-2.106-.474"/><path opacity=".9" fill="none" stroke-width="2.185" stroke-linecap="round" stroke-linejoin="round" d="M613.388 349.109q.045-.13-.612-4.766-.657-4.635-.948-7.259-.291-2.625-.336-3.789-.045-1.164-.008-1.92"/><path opacity=".9" fill="none" stroke-width="2.901" stroke-linecap="round" stroke-linejoin="round" d="M612.852 330.577l-.308-.183q-.82-.236-1.694-.283-.875-.048-1.733.448-.859.496-1.39.889"/><path opacity=".9" fill="none" stroke-width="1.857" stroke-linecap="round" stroke-linejoin="round" d="M619.425 341.704l-.096-.076-.041.334q-.107-.017.914 6.237.071-.079.381-1.728t.715-2.651q.406-1.002.669-1.323.264-.321.387-.397.123-.077.38-.09.258-.014.266-.019.008-.005.271.165.262.17.92 2.203.659 2.033 1.044 3.317.385 1.285 1.013 1.922l.662.081"/><path opacity=".9" fill="none" stroke-width="2.171" stroke-linecap="round" stroke-linejoin="round" d="M630.094 347.814l.017-.021q-.011.002-.615-5.051-.604-5.054-2.613-12.876-.026.03-.015.291.011.262.078.721"/><path opacity=".9" fill="none" stroke-width="1.985" stroke-linecap="round" stroke-linejoin="round" d="M631.65 335.667q-1.034-.167-3.75.17t-3.954.949q-1.239.611-1.901 1.008"/><path opacity=".9" fill="none" stroke-width="1.666" stroke-linecap="round" stroke-linejoin="round" d="M635.603 343.756q.667-.54 1.476-1.095.809-.555 1.319-1.162.51-.607.685-1.015.175-.407.147-.805-.027-.397-.136-.614-.108-.216-.52-.364-.411-.148-1.14-.025-.73.124-1.994 1.15-1.265 1.025-1.838 2.322-.573 1.296-.514 2.106.058.81.265 1.299.207.49 1.555.94 1.348.45 3.063.051t2.453-.661"/><path opacity=".9" fill="none" stroke-width="2.174" stroke-linecap="round" stroke-linejoin="round" d="M646.693 346.795l-.065-.031q-.069-.006-.559-1.605-.491-1.598-1.02-2.812-.529-1.214-1.057-1.931-.527-.716-1.744-1.636"/><path opacity=".9" fill="none" stroke-width="1.746" stroke-linecap="round" stroke-linejoin="round" d="M642.856 340.678q.327.039 4.466.025 4.139-.013 4.576-.025"/><path opacity=".9" fill="none" stroke-width="2.828" stroke-linecap="round" stroke-linejoin="round" d="M654.67 339.31l-.454.549q-.06.051.039 1.236t.806 2.711q.708 1.526 1.231 2.233.522.708 1.44.927.159-.079.84-1.821.681-1.742 1.24-2.757.558-1.015.873-1.417.316-.401.578-.581.263-.18 1.188-.584"/><path opacity=".9" fill="none" stroke-width="2.587" stroke-linecap="round" stroke-linejoin="round" d="M666.368 342.65q-.015-.206-.134-.497-.137.056-.234.146-.098.089-.121.175-.024.086-.089.213-.064.127-.151.668-.087.542.012 1.238.1.696.609 1.115.51.418.963.556.453.138 1.14.146.686.008 1.254-.13.569-.137 1.366-.702.796-.565 1.03-1.385.233-.821.098-1.485-.136-.663-.774-1.357-.639-.694-1.683-.942-1.043-.249-1.646-.172-.604.077-1.059.347-.455.27-.674.689-.219.418-.444.887"/><path opacity=".9" fill="none" stroke-width="3.028" stroke-linecap="round" stroke-linejoin="round" d="M671.492 340.638q.01.026.02 1.488.01 1.463.556 2.553.546 1.09 3.377 2.418"/><path opacity=".9" fill="none" stroke-width="3.17" stroke-linecap="round" stroke-linejoin="round" d="M681.061 346.714l-.101-.119q-.113-.374-.344-3.695-.231-3.321-.852-6.283-.622-2.962-1.065-4.113-.442-1.151-.75-1.813"/><path opacity=".9" fill="none" stroke-width="1.66" stroke-linecap="round" stroke-linejoin="round" d="M422.729 439.661q.015-.114-.053-2.39-.068-2.275-.776-5.571-.707-3.297-.845-8.104.062-.128.196-.124.134.004.45.01"/><path opacity=".9" fill="none" stroke-width="1.861" stroke-linecap="round" stroke-linejoin="round" d="M426.673 440.459l-.593.177q-.534.132-2.664.614-2.131.482-2.699.651"/><path opacity=".9" fill="none" stroke-width="2.148" stroke-linecap="round" stroke-linejoin="round" d="M423.221 422.872l-.059.066q-.399.311-.462.317-.062.006-.929.251t-1.411.454q-.544.209-.963.495-.419.287-1.077.926"/><path opacity=".9" fill="none" stroke-width="1.574" stroke-linecap="round" stroke-linejoin="round" d="M428.65 431.571q.094.196.14.36.046.163.507 2.288.46 2.125.806 3.412.346 1.286.521 1.69.176.403.288.541l.075-.292q.069-.321.164-1.562.096-1.24.209-1.852.113-.612.235-.818.122-.205.329-.298.207-.093.439-.072.232.021.454.203.221.182.523.512.301.329.564.743.262.414 2.168 3.523.21.124.779.429"/><path opacity=".9" fill="none" stroke-width="1.455" stroke-linecap="round" stroke-linejoin="round" d="M439.552 440.117q.037-.136-.386-2.832-.423-2.695-3.182-14.222-.021.087.078.289.1.202.261.546"/><path opacity=".9" fill="none" stroke-width="2.189" stroke-linecap="round" stroke-linejoin="round" d="M440.499 428.681q-.13-.086-1.436-.102-1.306-.017-5.512 2.992"/><path opacity=".9" fill="none" stroke-width="1.676" stroke-linecap="round" stroke-linejoin="round" d="M446.161 435.1q.021-.101.424-.456.403-.356.654-.712.252-.355.283-.888.031-.532-.001-.542-.032-.011-.277-.256-.246-.245-.909-.344-.664-.099-1.249.026-.584.125-1.149.631-.565.505-.814 1.42-.25.915-.114 1.63.136.715.725 1.354.589.638 1.626.978 1.036.341 4.789-.635"/><path opacity=".9" fill="none" stroke-width="2.061" stroke-linecap="round" stroke-linejoin="round" d="M454.174 437.34q.063-.327-.257-1.604-.32-1.277-1.104-2.785-.783-1.508-1.324-2.143-.54-.634-.844-.866-.304-.232-.881-.34l-.491.185"/><path opacity=".9" fill="none" stroke-width="2.158" stroke-linecap="round" stroke-linejoin="round" d="M450.757 431.833q.091.031 3.602-.166 3.511-.197 4.215-.25"/><path opacity=".9" fill="none" stroke-width="1.814" stroke-linecap="round" stroke-linejoin="round" d="M460.139 429.861q-.05.148.329 1.729.378 1.581.985 2.863.607 1.283 1.109 1.918.501.635 1.554.785.261-.144.687-1.752.426-1.609.983-3.233.556-1.625 1.122-2.12.566-.496.743-.646"/><path opacity=".9" fill="none" stroke-width="1.842" stroke-linecap="round" stroke-linejoin="round" d="M470.119 431.001q-.461.534-.699 1.5-.238.966-.042 1.76.196.794.413 1.066.217.273.495.454.279.181 1.118.249.839.067 1.44-.538t.837-1.827q.236-1.221-.064-1.957-.299-.736-.907-.927-.608-.191-1.36.132-.751.324-1.91 2.362"/><path opacity=".9" fill="none" stroke-width="2.659" stroke-linecap="round" stroke-linejoin="round" d="M473.992 431.303q.092.161.193 1.415.102 1.254.284 1.903t.906 1.609q.723.96 1.246 1.532"/><path opacity=".9" fill="none" stroke-width="1.863" stroke-linecap="round" stroke-linejoin="round" d="M480.037 438.44q.047-.146.119-2.838t-1.07-7.05q-1.142-4.357-1.955-6.336-.812-1.978-1.083-2.57"/><path opacity=".9" fill="none" stroke-width="1.74" stroke-linecap="round" stroke-linejoin="round" d="M489.875 424.354q-.11-.267-.131-.311-.022-.043-1.104-.176-1.083-.134-1.889.018t-1.346.481q-.539.329-.803.843t-.3 1.108q-.035.595.623 1.886.659 1.292 1.21 1.964.551.673 1.777 2.021 1.226 1.348 2.157 2.549.931 1.201 1.172 1.782.241.581.257.911.016.331-.36.653-.376.323-1.068.492-.691.168-1.882.327-1.191.159-1.891.302"/><path opacity=".9" fill="none" stroke-width="2.087" stroke-linecap="round" stroke-linejoin="round" d="M496.931 433.356l-.243-.007q-.504.091-.515.117-.59.322-.605.384-.325.255-.615 1.094-.29.839-.307 1.254-.017.414.186.92.203.507 1.121.716.918.21 2.051-.481 1.134-.691 1.587-1.281.453-.589.611-1.163.159-.574.054-.928-.104-.354-.673-.629-.569-.274-1.466-.107-.897.168-1.347.499-.451.332-1.056.826"/><path opacity=".9" fill="none" stroke-width="1.754" stroke-linecap="round" stroke-linejoin="round" d="M503.692 431.873q-.079.131-.178.425-.098.294-.164.599-.065.304-.08.64-.015.335-.017.693-.002.358.157.795.158.438.382.637t.502.301q.278.102.46.118.182.015.214 0t.218.005q.186.019.901-.65.715-.67 1.342-2.784.363.479.366.473.003-.005.357.769t.783 1.322q.428.547.728.813.299.265.906.553"/><path opacity=".9" fill="none" stroke-width="1.804" stroke-linecap="round" stroke-linejoin="round" d="M513.377 431.115l.012.059q-.063.56.827 3.911.198.205.506-.606.308-.811.75-1.528.441-.716.539-.784.097-.068.471-.037.374.031.402.067.027.035.229.184.201.149.235.195.035.045.781.675.746.629 1.503 1.02.757.391 1.418.681"/><path opacity=".9" fill="none" stroke-width="2.041" stroke-linecap="round" stroke-linejoin="round" d="M523.25 431.417q-.001.218.035.327.036.108-.135.878-.172.771-.162 1.288.009.518.191.893.181.375.218.37.036-.005.369.138.332.143 1.35-.165 1.017-.309 1.687-.866.67-.557.907-.92.237-.364.31-.957.073-.593-.228-.947-.3-.353-.732-.508-.432-.154-1.362-.017-.931.137-2.22 1.045-1.29.909-1.855 1.413"/><path opacity=".9" fill="none" stroke-width="1.733" stroke-linecap="round" stroke-linejoin="round" d="M528.491 434.61q.215-.511-1.542-6.31-1.758-5.798-1.91-6.186"/><path opacity=".9" fill="none" stroke-width="1.642" stroke-linecap="round" stroke-linejoin="round" d="M536.084 434.382q.006.309-.017 1.11l-.039-.01q-.002-.573-2.25-13.275l-.342-.191q-.093-.11 3.181-.66 3.274-.551 3.956-.684"/><path opacity=".9" fill="none" stroke-width="2.654" stroke-linecap="round" stroke-linejoin="round" d="M535.288 429.023q.066-.032 1.041-.062.976-.031 1.991-.551l.313-.185"/><path opacity=".9" fill="none" stroke-width="2.831" stroke-linecap="round" stroke-linejoin="round" d="M535.136 435.18q.566.148.577.153.011.006.974.172.963.165 2.621-.457 1.657-.621 1.864-.706"/><path opacity=".9" fill="none" stroke-width="1.616" stroke-linecap="round" stroke-linejoin="round" d="M546.377 430.163l-.176-.328-.1-.096-.136.004q-.122.131-.195 1.944-.073 1.813.036 2.998.108 1.185.456 1.66.125.09.41-1.008.285-1.099.832-2.422.547-1.322.892-1.735.344-.413.65-.578.306-.164.419-.173.113-.009.214-.031.101-.021 1.54 4.458.035.015.131-.071.096-.085.455-.958.358-.873.684-1.446.326-.572.504-.78.177-.208.574-.516.396-.309.783-.322.229.214.983 2.596t.846 2.693"/><path opacity=".9" fill="none" stroke-width="1.53" stroke-linecap="round" stroke-linejoin="round" d="M560.016 437.494q-.008-.375.031-2.926.039-2.552.076-3.305"/><path opacity=".9" fill="none" stroke-width="1.663" stroke-linecap="round" stroke-linejoin="round" d="M558.835 425.039q.145.05.22.106.076.057.172.262.097.206.333.544"/><path opacity=".9" fill="none" stroke-width="1.753" stroke-linecap="round" stroke-linejoin="round" d="M565.668 436.964q.009-.106.044-3.013.036-2.906-.117-5.411-.152-2.505-.347-3.97-.195-1.466-1.65-6.672-.042.038-.13.306"/><path opacity=".9" fill="none" stroke-width="2.008" stroke-linecap="round" stroke-linejoin="round" d="M569.352 424.998q-.518-.424-.569-.381-.131-.234-3.109.621-2.978.855-3.226.974"/><path opacity=".9" fill="none" stroke-width="2.124" stroke-linecap="round" stroke-linejoin="round" d="M574.289 434.684q-.058-.145-.956-5.689-.898-5.543-3.493-12.937l-.103-.061"/><path opacity=".9" fill="none" stroke-width="1.793" stroke-linecap="round" stroke-linejoin="round" d="M575.469 426.977q-.323.299-1.549.921-1.226.622-1.976.874-.751.252-1.447.519"/><path opacity=".9" fill="none" stroke-width="1.529" stroke-linecap="round" stroke-linejoin="round" d="M577.866 431.571q.206-.029.525-.101.32-.073 1.187-.555.868-.483 1.456-.991.588-.509.759-.724.171-.216.344-.721.172-.505.123-.665-.05-.159-.186-.265-.137-.106-1.003.154-.866.259-1.925 1.403-1.059 1.144-1.432 2.112-.374.967-.378 1.68-.004.713.386 1.268.389.555.85.77.46.214 1.243.303.783.088 1.643-.102.861-.191 2.141-.869"/><path opacity=".9" fill="none" stroke-width="1.388" stroke-linecap="round" stroke-linejoin="round" d="M587.587 435.408q.1-.146-.024-1.952-.123-1.806-.67-2.798t-.978-1.595"/><path opacity=".9" fill="none" stroke-width="1.717" stroke-linecap="round" stroke-linejoin="round" d="M583.787 429.975q1.024-.327 2.924-.626t3.117-.202q1.217.097 1.9.258"/></g></svg>
