<svg xmlns="http://www.w3.org/2000/svg" viewBox="316.24 1305.961 1311.243 825.874"><g stroke="#000"><path opacity=".9" fill="none" stroke-width="2.799" stroke-linecap="round" stroke-linejoin="round" d="M336.619 1555.904q-.355-4.643-.909-14.416-.553-9.772-1.013-19.672-.459-9.9-.912-19.992-.452-10.093-1.933-34.404"/><path opacity=".9" fill="none" stroke-width="2.008" stroke-linecap="round" stroke-linejoin="round" d="M333.725 1462.517q3.335-.031 3.518-.03.184.001.796-.021.612-.023 8.092-.168 7.481-.146 12.441-.307 4.96-.162 11.581-.338 6.621-.176 10.972-.295 4.352-.118 9.279-.244t12.202-.254q7.275-.127 15.475-.324t18.858-.384q10.659-.188 18.271-.314 7.611-.126 11.907-.192 4.295-.066 8.291-.1 3.996-.034 11.852-.156 7.856-.121 14.223-.226 6.366-.105 11.089-.159 4.723-.055 11.142-.153t13.572-.164q7.153-.065 14.954-.099l18.339-.084q10.538-.05 13.809-.056 3.272-.006 4.013.007.741.012 3.73-.02 2.989-.033 9.52-.079t7.629-.036q5.746.007 6.47.065.725.057 3.765.048 3.04-.008 5.992-.026t3.546-.003q.595.015 3.881.021 3.286.006 6.38-.025 3.095-.031 5.827-.055 2.731-.024 3.055-.001.323.024.521.033.199.008 2.932-.033 2.733-.042 3.557-.039.717.034 6.443-.063l10.691.214"/><path opacity=".9" fill="none" stroke-width="1.975" stroke-linecap="round" stroke-linejoin="round" d="M676.834 1462.21q.155 3.665-.284 20.277"/><path opacity=".9" fill="none" stroke-width="1.604" stroke-linecap="round" stroke-linejoin="round" d="M676.603 1526.559q-.029 1.005-.091 1.152-.061.147-.065 4.196-.003 4.049.115 7.526"/><path opacity=".9" fill="none" stroke-width="1.813" stroke-linecap="round" stroke-linejoin="round" d="M673.497 1542.191q-4.242.091-4.721.071-.48-.02-5.321.114-4.842.133-10.141.298-5.299.164-10.542.296-5.243.131-20.609.481-15.365.349-25.185.579-9.819.229-10.616.233-.798.004-5.853.111-5.055.108-10.13.252-5.076.144-9.788.29-4.712.145-10.05.295-5.338.15-15.116.363-9.779.214-15.557.374-5.778.161-21.401.663-15.623.502-25.46.732-9.838.23-19.521.559-9.683.328-15.6.52-5.916.192-11.052.329-5.136.137-14.533.408-9.397.27-14.749.405-5.353.134-10.076.262-4.724.128-5.795.204-1.07.076-10.418.38-9.348.303-14.324.475-4.975.172-5.306.189-.33.017-15.593.514"/><path opacity=".9" fill="none" stroke-width="1.691" stroke-linecap="round" stroke-linejoin="round" d="M783.106 1347.383q.019 1.613.24 14.193t.325 19.247q.105 6.668.162 9.868.057 3.201.119 6.424.062 3.223.244 13.532.182 10.308.416 22.091.233 11.782.652 33.633.42 21.851.65 33.388.23 11.536.361 17.92.131 6.384.202 9.562.071 3.179.201 9.162.13 5.983.234 11.25.104 5.266.294 13.83t.325 14.215q.134 5.65.218 8.844.084 3.193.391 15.218.306 12.025.469 18.121.163 6.096.305 11.193.143 5.097.21 7.627.066 2.53.194 7.889.128 5.36.241 8.513.112 3.153.188 6.003.077 2.85.153 5.747.077 2.897.135 5.95.058 3.054.059 3.479.002.426.038 3.321.036 2.894.103 6.777.046.702.068 1.188.023.485.133 3.894.038.703.074 1.649l.046.644.161 7.279"/><path opacity=".9" fill="none" stroke-width="1.781" stroke-linecap="round" stroke-linejoin="round" d="M786.465 1705.484q3.57.025 4.412.008.843-.016 4.524.026 3.682.043 4.458-.003.776-.046 4.256.048 3.48.094 8.838.122 5.359.028 10 .003 4.642-.026 8.567-.04 3.926-.015 8.567-.017 4.641-.002 8.829.043 4.187.045 8.744.088 4.557.043 14.088.122 9.531.079 18.241.166 8.709.088 17.497.21t17.633.279q8.844.157 17.586.355 8.743.198 17.564.405l9.6.226 9.123.218q8.344.201 12.548.309 4.204.107 4.939.118.734.011 4.909.101 4.174.091 8.701.208 4.527.118 8.634.213 4.106.095 8.305.178 4.198.082 4.69.108.492.025 4.434.136 3.942.11 4.713.157.772.046 4.424.109 3.651.063 4.312.14.661.077 4.741.147 4.079.07 4.467.101.387.031 9.019.285l8.915.039q6.899.072 7.584.155.684.082 4.961.211t8.71.308q4.432.179 12.537.401l5.055.153"/><path opacity=".9" fill="none" stroke-width="1.81" stroke-linecap="round" stroke-linejoin="round" d="M1119.886 1712.029q-.194-2.908-.967-12.569-.773-9.661-2.616-32.594-1.843-22.932-2.612-32.453-.77-9.521-1.202-15-.431-5.478-.931-12.174-.499-6.695-1.384-18.438-.886-11.743-1.489-19.99-.602-8.248-1.056-14.363l-.698-9.363q-.244-3.246-.649-8.91-.406-5.663-1.519-21.834-1.113-16.172-1.656-24.458-.543-8.287-.88-13.361l-.563-8.474q-.224-3.398-.367-5.806-.143-2.407-.613-10.045-.47-7.639-.741-11.978-.271-4.339-.328-5.423-.058-1.085-.146-2.647-.088-1.562-.123-2.661-.035-1.1-.195-3.906t-.408-6.621q-.248-3.815-.411-6.739-.163-2.924-.307-5.363-.143-2.438-.315-5.189-.172-2.751-.327-5.581-.154-2.831-.196-3.672-.042-.841-.16-2.585t-.268-4.627q-.15-2.883-.16-3.029-.01-.145-.958-18.314-.047-1.056-.181-3.888-.135-2.832-.39-7.434t-.365-6.418q-.11-1.816-.301-5.735"/><path opacity=".9" fill="none" stroke-width="1.866" stroke-linecap="round" stroke-linejoin="round" d="M1095.031 1320.656q-3.936.306-4.798.225-.862-.08-9.639.487-8.777.566-17.791 1.058-9.015.492-9.937.482-.921-.008-4.949.297t-9.11.62q-5.083.315-9.548.555-4.465.24-9.47.521-5.006.28-13.816.794t-22.648 1.199q-13.837.685-23.17 1.201-9.333.517-18.798 1.115-9.466.598-28.678 1.743-19.212 1.145-23.663 1.409-4.452.263-17.982 1.232t-14.205 1.032q-.676.063-5.061.393-4.386.33-8.463.648-4.078.317-4.69.391-.612.074-4.826.436-4.214.362-4.838.462-.624.101-4.835.398-4.21.298-9.353.687-5.143.388-5.345.407-.202.02-9.109.752-7.609.484-13.153.925"/><path opacity=".9" fill="none" stroke-width="1.951" stroke-linecap="round" stroke-linejoin="round" d="M779.684 1391.992l3.934.06q.888-.023 9.538-.018 8.649.004 9.767-.04 1.119-.044 9.88-.089 8.761-.046 13.792-.076 5.032-.03 9.96-.021 4.929.01 9.173.053t9.075.062q4.83.02 13.355.019 8.524-.001 13.843-.009 5.32-.008 10.356.01 5.036.017 9.368.024 4.331.008 9.225-.006 4.894-.014 18.04.083 13.146.096 22.708.178 9.562.081 14.014.073 4.453-.009 9.334.007 4.881.015 9.754.064 4.872.05 10.004.077 5.133.028 14.354.071t23.32.233q14.099.19 17.885.182 3.787-.007 4.756.004.969.011 5.053.045 4.085.033 4.784.023.699-.01 8.998.044.943-.033 5.198-.041 4.256-.008 8.437.049 4.181.057 9.407.134"/><path opacity=".9" fill="none" stroke-width="2.026" stroke-linecap="round" stroke-linejoin="round" d="M781.698 1869.547q.144 3.619.379 10.434.235 6.814.73 21.008.496 14.193.74 21.308.243 7.114.372 10.827l.241 6.951q.113 3.238 1.153 32.197 1.04 28.959 1.297 35.921l.393 10.656q.136 3.693.261 7.217.124 3.524.374 10.325.249 6.8.503 13.977.253 7.177.272 7.341.019.164.17 4.152l.296 7.791q.146 3.803.386 10.39.24 6.587.387 10.479.148 3.891.262 7.194.115 3.304.135 3.689.02.386.175 3.721"/><path opacity=".9" fill="none" stroke-width="2.114" stroke-linecap="round" stroke-linejoin="round" d="M791.948 2109.651q3.126-.026 8.095-.048 4.97-.023 8.509-.029 3.539-.006 7.185-.038 3.646-.032 8.383-.086 4.737-.053 12.687-.093 7.951-.04 21.008-.044 13.056-.003 20.965-.079 7.909-.076 12.346-.122 4.438-.045 8.782-.082 4.344-.036 15.372-.079 11.027-.043 15.666-.035l12.198.02q7.559.012 24.012-.018l31.797-.059q15.343-.03 19.63-.04 4.286-.012 8.106-.04 3.819-.028 7.943-.053 4.123-.026 7.419-.035 3.296-.009 3.893-.025t3.563-.035q2.966-.018 4.014-.066 1.049-.048 3.974-.068 2.926-.021 3.433-.037.507-.016 4.467-.064 3.96-.046 7.584-.069 3.624-.022 7.164-.028 3.54-.006 7.434.015 3.893.022 4.54.029.647.008 3.735.024 3.088.017 6.316.016 3.228 0 3.876-.023.648-.024 1.512.001 5.971.005 6.392.024.42.019 1.17.001 6.408-.11 7.319-.072.44.019 6.385.012l.465.01.851-.028q5.279-.015 6.543.033.964-.021 10.922-.017"/><path opacity=".9" fill="none" stroke-width="1.619" stroke-linecap="round" stroke-linejoin="round" d="M1151.991 2103.701q-.238-2.843-.898-10.787-.659-7.945-1.029-12.339-.369-4.393-.692-8.279-.323-3.886-.614-7.19-.29-3.303-.919-10.96-.63-7.657-1.289-15.592-.658-7.935-1.305-15.619-.647-7.683-1.008-11.768-.36-4.084-1.038-11.664-.677-7.58-1.659-19.163-.983-11.583-1.614-19.066-.631-7.483-1.322-15.242-.691-7.759-1.308-14.636-.617-6.877-.666-7.492-.049-.615-.989-11.676l-1.901-22.351q-.96-11.289-1.324-15.523-.365-4.235-.682-7.941-.317-3.706-.602-7.13-.286-3.424-.356-3.966-.069-.541-.602-6.917-.535-6.683-.938-11.312"/><path opacity=".9" fill="none" stroke-width="1.843" stroke-linecap="round" stroke-linejoin="round" d="M1124.152 1834.46q-3.415.097-4.267.145-.851.048-5.23.254-4.379.206-8.952.411-4.572.204-13.268.588-8.697.383-17.496.776t-13.362.613q-4.563.221-9.219.451t-9.203.378l-5.538.181-5.562.182-12.922.422q-8.351.273-12.637.423-4.286.149-8.907.319-4.62.17-9.91.377-5.29.206-14.31.488-9.021.282-18.552.61-9.532.329-17.769.603-8.237.274-17.326.529-9.09.256-13.893.402-4.803.147-9.529.279-4.725.131-9.139.248-4.413.117-9.38.209-4.966.092-9.249.16-4.282.068-8.539.149-4.256.081-8.883.22-4.627.14-8.753.292-4.125.153-4.71.141-.586-.011-4.535.12-3.949.131-4.829.127-.88-.004-4.954.118-4.073.123-8.447.3-4.374.176-4.645.175-.271-.001-.535-.021-.265-.019-8.055.209-1.047.011-4.628.123-3.582.112-5.504.133-7.643.221-12.8.28"/><path opacity=".9" fill="none" stroke-width="1.867" stroke-linecap="round" stroke-linejoin="round" d="M679.205 2108.923l-.058-3.754q.013-.166-.496-27.872-.508-27.706-.66-35.375-.152-7.668-.302-15.337-.151-7.67-.477-23.143-.327-15.473-.464-23.206-.137-7.733-.294-15.975-.157-8.241-.516-23.966l-.551-24.143q-.192-8.418-.429-19.392-.238-10.975-.251-11.474l-.189-8.184q-.176-7.685-.345-15.209-.168-7.525-.422-20.013"/><path opacity=".9" fill="none" stroke-width="2.216" stroke-linecap="round" stroke-linejoin="round" d="M671.621 1842.093l-3.711-.082q-1.327-.071-9.169-.117-7.841-.047-8.694-.093-.853-.045-5.25-.056-4.397-.01-8.749.037-4.351.046-8.723.086-4.371.039-12.956-.042-8.585-.082-17.103-.167-8.518-.084-21.452-.198-12.935-.115-21.565-.195-8.631-.081-13.842-.085-5.211-.005-18.275-.028-13.064-.023-21.534-.015-8.47.008-16.854.002-8.385-.007-21.492.029-13.107.037-21.97.05-8.864.013-9.065.024-.202.01-4.079.021-3.878.012-8.15.128t-4.845.189q-.574.074-4.264.148-3.691.073-4.929.14-7.713.013-8.077.049-.363.036-3.868.068-3.504.033-3.988.085l-1.067.055q-6.971-.058-7.987-.06l-3.873.027"/><path opacity=".9" fill="none" stroke-width="1.488" stroke-linecap="round" stroke-linejoin="round" d="M370.158 1840.983q.197 3.896.627 12.212.43 8.317 1.274 25.18.844 16.863 1.295 25.297.451 8.434 1.284 24.782.832 16.348 1.246 24.75.413 8.402.792 15.865.378 7.462.799 15.709.42 8.248.817 16.585.397 8.339.788 16.785l.968 20.842q.577 12.396.784 16.709.206 4.313.559 12.787.352 8.474.681 16.095.329 7.621.518 11.772.189 4.15.201 4.875.012.725.531 12.24"/><path opacity=".9" fill="none" stroke-width="2.721" stroke-linecap="round" stroke-linejoin="round" d="M382.789 2115.555l12.985-.108q.436-.018 4.977-.065 4.54-.047 9.462-.146 4.921-.098 5.529-.136.608-.037 4.711-.097 4.104-.059 4.519-.071.415-.013.661-.013.246 0 9.49-.101 9.244-.1 13.783-.133 4.54-.032 18.403-.136 13.862-.104 18.52-.131 4.657-.026 14.11-.119 9.452-.093 28.546-.219 19.094-.125 24.069-.134 4.974-.01 9.944-.043 4.97-.033 9.593-.074 4.624-.04 13.856-.048 9.232-.009 18.395-.035 9.163-.025 13.951-.047l9.278-.042q4.49-.022 9.301-.028 4.811-.007 5.57-.004.76.004 5.415-.049 4.656-.054 21.862-.221.647.047 9.312-.063.888.05 5.628.059"/><path opacity=".9" fill="none" stroke-width="1.705" stroke-linecap="round" stroke-linejoin="round" d="M1183.965 1836.632q.32 3.841.702 8.335.384 4.494.771 8.806.388 4.312.738 8.971.349 4.659 1.134 13.475.784 8.815 1.463 17.439t1.014 13.354q.336 4.73.997 13.509.662 8.778 1.03 13.095.367 4.318.716 8.812.349 4.495.726 8.832.378 4.336.396 4.47.018.135.052.185.035.05.346 4.399.311 4.349.33 4.425.019.076.338 4.33.319 4.254.476 4.47.608 8.458.99 12.929"/><path opacity=".9" fill="none" stroke-width="2.105" stroke-linecap="round" stroke-linejoin="round" d="M1191.517 1986.29q3.714-.107 8.42-.343 4.706-.236 11.719-.596 7.013-.359 11.205-.516 4.193-.157 7.987-.287 3.793-.13 8.53-.28 4.737-.15 8.77-.296 4.034-.145 11.88-.42 7.847-.275 17.268-.598 9.421-.324 16.439-.617 7.019-.294 16.142-.663 9.123-.37 16.15-.678 7.027-.309 11.954-.531 4.928-.222 12.576-.553 7.648-.331 15.609-.668t12.536-.528q4.574-.19 33.031-1.619t36.69-1.864q8.234-.435 19.511-1.041 11.276-.606 22.68-1.228 11.403-.622 15.983-.881 4.58-.26 8.906-.49 4.325-.23 8.401-.424 4.075-.193 8.219-.381 4.145-.188 7.941-.366 3.797-.179 7.417-.371 3.62-.193 7.303-.395t4.615-.262q.932-.06 4.203-.206 3.271-.146 7.292-.308t7.533-.398q3.511-.236 4.174-.275l1.671-.097q6.845-.48 7.249-.512.404-.031 11.945-.725"/><path opacity=".9" fill="none" stroke-width="1.483" stroke-linecap="round" stroke-linejoin="round" d="M1602.38 1960.807l.088-3.186.047-.203q.215-6.221.599-16.876.383-10.655.443-21.498.06-10.844.032-17.731-.029-6.888.053-13.792t.109-10.462q.028-3.559-.029-3.744.131-6.756.08-6.925-.05-.169-.023-3.377.026-3.208.011-3.448-.015-.239.041-3.944.057-3.705.117-6.864.061-3.158.193-10.416.062-.232.079-.356.018-.125.1-3.496.083-3.372.122-3.602.039-.229.253-6.683-.026-.342.342-9.99"/><path opacity=".9" fill="none" stroke-width="1.936" stroke-linecap="round" stroke-linejoin="round" d="M1612.81 1814.085q-3.254.048-8.092.148-4.838.099-13.628.267-8.789.168-13.79.28-5.001.112-16.125.501-11.123.388-16.635.534-5.512.147-14.414.358-8.902.212-20.164.469-11.262.256-25.049.557-13.787.3-22.931.525-9.144.225-37.604 1.073-28.461.847-45.236 1.391-16.776.545-24.888.812-8.112.267-21.271.691-13.16.424-30.211.976-17.051.553-28.743.947-11.692.394-28.616 1.075-.332.009-1.494.087-1.162.079-4.495.231-3.334.153-3.671.176-.338.023-3.622.154t-7.579.289q-4.296.158-8.22.312-3.925.155-4.617.175-.692.019-4.819.123-4.127.103-4.435.113l-4.501.122q-4.192.112-7.786.237"/><path opacity=".9" fill="none" stroke-width="1.584" stroke-linecap="round" stroke-linejoin="round" d="M1349.741 1768.714l-3.4.189-1.831.101q-1.494.065-9.528.477t-17.508.888q-9.475.476-14.61.727l-8.494.417q-3.361.165-17.631.906-14.271.742-29.389 1.465l-25.848 1.235q-10.73.512-27.435 1.23-16.706.718-25.588 1.083-8.882.364-13.917.575-5.035.211-14.209.579-9.174.367-21.303.841-12.128.473-45.312 1.548-33.184 1.076-50.379 1.513-17.196.438-24.942.613-7.746.175-12.599.272-4.854.097-17.494.323t-34.568.554q-21.928.329-33.932.462-12.004.133-30.507.223-18.504.09-30.22.086-11.716-.003-24.808-.058-13.091-.054-25.925-.194-12.834-.14-20.028-.235-7.194-.094-12.701-.171l-18.586-.263q-13.078-.186-22.399-.35-9.322-.163-16.861-.311-7.539-.149-11.478-.233-3.94-.085-7.602-.16-3.663-.076-7.343-.145-3.681-.069-6.991-.161-3.31-.092-5.623-.146-2.312-.054-4.776-.134-2.464-.08-10.304-.259-7.84-.178-13.15-.308-5.311-.131-8.049-.187-2.739-.057-5.333-.124l-7.101-.184-5.667-.148q-1.159-.03-6.601-.188-5.442-.159-11.608-.334-6.167-.174-8.911-.28-2.744-.107-4.947-.155-2.203-.049-5.406-.151-3.203-.103-6.249-.185-3.045-.082-6.508-.162t-6.708-.159l-8.077-.193q-4.833-.116-9.617-.224-4.784-.108-6.796-.172-2.012-.063-7.776-.22-2.309-.108-4.525-.169"/><path opacity=".9" fill="none" stroke-width="1.502" stroke-linecap="round" stroke-linejoin="round" d="M515.243 1779.987q.286 3.956.875 12.278.59 8.322 1.049 12.544.459 4.223 1.03 8.449.572 4.226.638 4.259.066.033.777 8.306.712 8.273.697 8.439-.016.166.466 8.61l.298 3.982"/><path opacity=".9" fill="none" stroke-width="2.064" stroke-linecap="round" stroke-linejoin="round" d="M1349.141 1821.136l-.283-3.177q.147-.024-.26-3.788-.407-3.763-1.216-11.322-.809-7.559-1.272-11.423-.462-3.864-.46-4.081.003-.217-.881-10.616"/><path opacity=".9" fill="none" stroke-width="1.686" stroke-linecap="round" stroke-linejoin="round" d="M945.537 1833.995q-.311-3.504-.559-7.129-.248-3.626-1.031-15.68-.784-12.054-1.045-15.951l-1.308-19.494q-1.045-15.598-1.567-23.576-.522-7.979-.798-11.977-.276-3.999-.738-11.66.033-.034-.234-3.76t-.607-7.147"/><path opacity=".9" fill="none" stroke-width="1.506" stroke-linecap="round" stroke-linejoin="round" d="M934.507 1715.199l-1.054 2.389q-.159.143-1.395 2.846-1.235 2.702-2.796 5.9-1.56 3.199-4.742 9.884l-3.987 8.471"/><path opacity=".9" fill="none" stroke-width="1.558" stroke-linecap="round" stroke-linejoin="round" d="M960.568 1740.446q-2.064-2.134-2.169-2.375-.106-.241-2.575-2.695-2.469-2.455-5.023-4.823-2.555-2.368-2.656-2.38-.101-.013-2.702-2.707-2.602-2.694-2.726-2.769-.124-.076-2.444-2.461-2.32-2.386-4.566-5.037"/><path opacity=".9" fill="none" stroke-width="1.435" stroke-linecap="round" stroke-linejoin="round" d="M699.837 1507.195q4.455.1 6.089.11 1.634.011 3.192-.124 1.559-.134 4.629-.146 3.07-.013 3.279-.036.208-.024 1.67-.062t3.077-.033q1.615.006 4.584-.066 2.968-.073 6.297-.08 3.329-.007 6.242-.011l3.125-.004 1.719.001q1.507.001 4.442.041 2.934.039 3.114.035.179-.004 1.658.026 1.48.029 1.569.056.09.026 1.537.065 1.447.038 1.461.053.014.016.157-.052.144-.069 1.604-.032 1.46.036 2.967.204 1.506.167 3.005.143 1.498-.025 1.691-.009.193.015 1.718.103 1.525.089 3.027.056 1.503-.032 3.108-.064 1.606-.031 4.345-.189.34.365 4.823.364"/><path opacity=".9" fill="none" stroke-width="1.313" stroke-linecap="round" stroke-linejoin="round" d="M782.985 1508.396q-1.867 2.343-3.94 4.642-2.073 2.299-2.324 2.373-.251.073-2.661 2.497-2.411 2.424-9.049 9.905"/><path opacity=".9" fill="none" stroke-width="1.357" stroke-linecap="round" stroke-linejoin="round" d="M779.813 1505.61q-1.693-1.586-3.517-4.179-1.824-2.592-3.842-5.558-2.019-2.966-7.3-9.916"/><path opacity=".9" fill="none" stroke-width="2.264" stroke-linecap="round" stroke-linejoin="round" d="M697.681 1506.854l-1.48 4.813-1.305 2.127q-1.937 3.137-2.571 4.185-.633 1.049-2.412 2.737-1.779 1.688-2.946 2.478-1.167.79-1.987 1.342-.821.551-1.526.934-.706.383-3.284 1.21-2.578.828-4.311.83-1.733.003-3.212-.443t-2.538-.704q-1.059-.259-2.385-.388-1.326-.129-2.126-.126-.8.003-1.469-.085-.67-.089-1.507-.421-.837-.333-1.637-.563-.799-.23-1.99-.918-1.19-.688-1.318-1.001-.127-.313-1.223-1.596-1.095-1.283-2.007-4.926-.913-3.644-.949-6.095-.036-2.451.046-3.31.082-.858.467-2.394t.42-1.776q.034-.24.848-2.293.813-2.054 1.354-2.952.541-.899.968-1.481.428-.582 1.348-1.937.921-1.355 1.925-2.538 1.004-1.182 2.538-2.65 1.534-1.468 3.839-3.551.458-.302 8.26-4.602.177.029 1.238.021t1.971-.246q.91-.237 1.413-.338.502-.101 1.686-.118 1.184-.017 1.962.069.778.085 1.956.449 1.179.363 1.894.738.715.375.881.523.165.147 1.569 1.008t1.558.896q1.365.966 2.071 1.632.705.666 1.352 1.521.647.855 1.332 2.722.684 1.868 1.051 2.888.368 1.02.634 2.789.266 1.77.343 3.611.076 1.84-.402 6.166-.478 4.326-.825 6.864"/><path opacity=".9" fill="none" stroke-width="1.826" stroke-linecap="round" stroke-linejoin="round" d="M671.296 1903.156l-3.511.072-.411-.025q-.409-.018-8.778.186-8.368.203-16.543.292-8.175.09-12.918.147-4.743.057-12.85.135-8.106.078-20.895.145-12.79.066-34.322.219-21.532.152-25.992.187-4.46.036-12.994.111-8.534.075-16.837.12-8.304.044-17.455.078-9.152.033-16.824.072-7.673.039-12.786.056l-8.737.028q-3.623.012-7.558-.007-3.935-.02-4.846-.027-.911-.008-4.909.017-3.998.025-8.508.034-4.51.009-8.572.041-4.062.033-7.742.065-3.681.033-4.109.011-.428-.023-.728-.032-.299-.008-7.812.138-8.075.105-8.905.14-.472-.01-4.023.041-3.55.05-3.766.045-.216-.005-4.572.025"/><path opacity=".9" fill="none" stroke-width="1.625" stroke-linecap="round" stroke-linejoin="round" d="M786.199 1913.722l7.948-.33q3.518-.145 4.619-.248 1.101-.103 8.769-.446 7.668-.342 12.123-.532 4.454-.19 9.568-.447 5.115-.258 12.657-.506t11.906-.429q4.364-.182 9.459-.44t17.435-.772l17.481-.726q5.141-.213 12.621-.464 7.479-.251 8.817-.339 1.337-.087 9.889-.35 8.553-.263 17.014-.519 8.461-.257 15.821-.485 7.36-.227 8.525-.244 1.165-.018 4.585-.118 3.42-.1 12.64-.3 9.22-.2 18.101-.389 8.881-.188 17.412-.357 8.53-.168 15.741-.364 7.21-.197 7.819-.175.608.021 4.528-.057 3.92-.077 8.953-.126 5.034-.05 9.238-.1 4.203-.049 7.995-.11 3.791-.06 7.769-.101 3.979-.041 12.791-.163 1.083.077 1.426.089.343.012 4.078-.072 3.736-.084 11.188-.289 1.03-.016 13.421-.164"/><path opacity=".9" fill="none" stroke-width="1.642" stroke-linecap="round" stroke-linejoin="round" d="M1195.861 1884.467q3.229-.077 8.651-.21 5.422-.132 10.123-.207 4.701-.076 8.881-.155 4.18-.079 11.844-.246 7.664-.168 17.381-.427 9.718-.258 14.148-.367 4.431-.11 21.491-.484 17.059-.375 26.156-.555 9.097-.18 17.014-.308 7.917-.127 17.257-.292 9.34-.164 16.957-.28l9.121-.139q1.503-.023 8.674-.119 7.172-.095 15.872-.235 8.699-.141 18.23-.281 9.531-.141 13.146-.187 3.614-.045 4.001-.048.388-.002 10.095-.14t17.391-.237q7.684-.099 12.209-.142 4.526-.043 8.847-.097l8.995-.112q4.674-.057 9.489-.131 4.814-.074 8.46-.119 3.646-.044 11.978-.156 8.333-.113 9.159-.119.825-.007 12.885-.173 12.06-.167 13.118-.173 1.059-.005 4.991-.052 3.932-.046 12.383-.126.863.033 4.661.011 3.798-.021 10.782-.075l2.347.092 11.839-.14"/><path opacity=".9" fill="none" stroke-width="1.896" stroke-linecap="round" stroke-linejoin="round" d="M366.554 1535.368q.038-.011.069 2.226-.012-.041.099-11.787.111-11.747.021-19.096-.091-7.35-.307-10.666-.216-3.317-.373-5.57-.156-2.253-.665-4.648-.509-2.395-.993-4.177-.483-1.783-.603-2.796-.12-1.014-.035-1.217-.045-.242-.002-1.761.042-1.519.487-2.765"/><path opacity=".9" fill="none" stroke-width="2.268" stroke-linecap="round" stroke-linejoin="round" d="M366.224 1481.735q.418-1.146.797-1.722.378-.577 3.728-2.244 3.35-1.667 5.09-1.767 1.741-.099 2.715.029.973.128 1.144.112.17-.017 1.729.639 1.559.656 2.468 1.299.909.643 1.283 1.061.374.417.459.466.085.048 1.219 1.88 1.134 1.831 1.569 3.436.435 1.606.485 3.006.051 1.4-.053 2.508-.104 1.107-.477 2.388t-2.273 3.182q-1.901 1.9-6.269 3.471-4.369 1.571-6.642 2.321-2.273.75-2.93 1.019"/><path opacity=".9" fill="none" stroke-width="1.83" stroke-linecap="round" stroke-linejoin="round" d="M380.719 1526.398q.012-.789-.125-5.905-.179-.065-.373 2.049-.194 2.115.313 3.964.507 1.848 1.05 2.569.543.72 1.196 1.216.653.496.996.608.343.112 1.007.126.664.014 1.467-.318t2.184-1.555q1.381-1.223 2.885-3.723 1.504-2.499 2.309-6.065-.084.524-.135.666-.05.141.093 2.928.143 2.786.449 4.667.305 1.88.728 2.912.422 1.031 2.05 2.966"/><path opacity=".9" fill="none" stroke-width="1.566" stroke-linecap="round" stroke-linejoin="round" d="M408.796 1522.197q-.223.206-.566.812-.342.606-1.32 2.737-.977 2.132-.161 8.25.681.517 3.432-.159t5.689-3.271q2.937-2.595 4.102-4.197 1.164-1.602 1.324-2.92.161-1.318-.274-2.041-.434-.724-2.666-1.385-2.232-.661-4.465-.305-2.233.356-3.291.967-1.059.612-2.746 1.666"/><path opacity=".9" fill="none" stroke-width="1.815" stroke-linecap="round" stroke-linejoin="round" d="M406.516 1528.155q-.094-.829.587-8.695.681-7.866.858-14.283.176-6.418.115-10.586-.06-4.168.464-9.035.332-.443.728-1.068"/><path opacity=".9" fill="none" stroke-width="1.45" stroke-linecap="round" stroke-linejoin="round" d="M430.044 1530.705l-.083-.13q.025-.043-.195-43.622l.203-.63"/><path opacity=".9" fill="none" stroke-width="1.671" stroke-linecap="round" stroke-linejoin="round" d="M440.165 1532.655q.256-3.916.451-7.056.196-3.139.397-4.952"/><path opacity=".9" fill="none" stroke-width="1.711" stroke-linecap="round" stroke-linejoin="round" d="M441.142 1509.596q-.184-.725-.553-1.031-.14.909-.222 1.268"/><path opacity=".9" fill="none" stroke-width="1.353" stroke-linecap="round" stroke-linejoin="round" d="M457.233 1514.665q.537-.068.975-.231.06.03.125-.787.065-.816-.218-1.586-.284-.769-.96-1.115-.676-.345-1.107-.357-.432-.013-.963.097-.532.109-1.129.616-.596.507-1.174 1.364-.578.857-.93 1.684-.352.827-.652 2.154-.3 1.327-.354 2.685-.053 1.358-.029 2.702.024 1.344.708 3.566.684 2.222 1.607 3.355.923 1.133 1.59 1.565.666.433.875.506.208.074.951.357.742.284 2.251.182 1.508-.102 2.423-.335.914-.233 2.703-.522"/><path opacity=".9" fill="none" stroke-width="1.491" stroke-linecap="round" stroke-linejoin="round" d="M470.322 1513.397q-2.088 8.715-1.177 12.986.666.424 2.482.954 1.817.529 3.818-.089 2.001-.618 2.631-1.065.629-.446 2.521-2.016 1.891-1.57 2.369-2.188.477-.619.832-1.423.356-.803.624-2.994.268-2.191-.142-3.726-.41-1.535-1.74-2.006-1.33-.472-3.234-.12-1.903.352-2.763.634-.86.281-1.296.385-.436.105-.743.229-.306.125-2.132 1.211"/><path opacity=".9" fill="none" stroke-width="1.76" stroke-linecap="round" stroke-linejoin="round" d="M483.965 1512.501q.332.676.913 4.538.58 3.862 1.16 5.937.581 2.075.838 2.684t1.195 2.358"/><path opacity=".9" fill="none" stroke-width="2.037" stroke-linecap="round" stroke-linejoin="round" d="M498.505 1528.638q.223-.475.276-7.819.053-7.344-.67-14.709-.724-7.364-1.403-11.281-.68-3.916-1.376-7.236-.695-3.321-.829-5.445-.134-2.125-.106-3.653.028-1.528.295-2.282.266-.754.656-2.145"/><path opacity=".9" fill="none" stroke-width="1.238" stroke-linecap="round" stroke-linejoin="round" d="M504.701 1491.224q-.639-.242-.746-.251-.108-.008-1.583-.096-1.474-.089-3.181-.555-1.707-.466-2.478-.655-.771-.188-1.544-.288-.774-.099-2.444-.323t-4.407-.865"/><path opacity=".9" fill="none" stroke-width="1.654" stroke-linecap="round" stroke-linejoin="round" d="M511.904 1525.236q-.279-.764-1.751-9.227-1.471-8.463-1.808-10.126"/><circle opacity=".9" stroke-width=".1" cx="510.532" cy="1499.994" r=".667"/><path opacity=".9" fill="none" stroke-width="1.216" stroke-linecap="round" stroke-linejoin="round" d="M509.661 1498.195q.432.488.871 1.799"/><path opacity=".9" fill="none" stroke-width="1.48" stroke-linecap="round" stroke-linejoin="round" d="M508.87 1499.914l.096-1.183q-.039.045.064.355.102.31.32.522"/><path opacity=".9" fill="none" stroke-width="1.407" stroke-linecap="round" stroke-linejoin="round" d="M521.441 1508.99q-.069.168-.524 3.041-.456 2.872-.097 5.293.359 2.421.561 2.836.202.414 1.65 1.177 1.447.763 2.424.824.977.061 1.418-.053.441-.114.76-.249.319-.134 1.644-1.259t2.39-3.031q1.066-1.907 1.125-3.507.059-1.599-.216-2.687-.275-1.088-1.367-2.262t-2.267-1.71q-1.174-.535-2.264-.772-1.089-.237-2.194-.251-1.104-.014-2.032.019"/><path opacity=".9" fill="none" stroke-width="1.348" stroke-linecap="round" stroke-linejoin="round" d="M539.145 1507.161q.063.285.104 4.368.041 4.083 2.182 10.573.124-.211 1.995-11.491.586-.633 2.396-1.142 1.809-.509 2.825-.573 1.016-.064 1.778-.09.762-.026 2.808.586.474.147 2.702 16.86l.195 1.735"/><path opacity=".9" fill="none" stroke-width="1.541" stroke-linecap="round" stroke-linejoin="round" d="M569.842 1524.045q-.282.084-.607-.045-2.644-14.545-4.149-20.667-1.505-6.123-2.134-9.028-.629-2.906-.695-4.614-.065-1.708.021-2.64.086-.933.078-1.027-.008-.093.597-1.004t2.162-1.678q1.558-.767 3.869-.968 2.312-.201 3.658.174 1.346.376 2.421 1.056 1.074.68 2.132 1.694 1.059 1.015 1.717 2.206.658 1.191.909 3.175.252 1.985-.075 3.947t-1.054 2.692q-.727.73-2.971 1.822-2.243 1.093-3.636 1.601-1.392.508-2.144 1.045-.752.537-2.331 1.56"/><path opacity=".9" fill="none" stroke-width="1.368" stroke-linecap="round" stroke-linejoin="round" d="M585.496 1511.32q-.2.719-.914 2.929-.714 2.209-.764 3.058-.051.849-.064 1.188-.014.338.136.927.149.588.39.891.241.303.553.513.312.211.33.283.018.073 3.053.383 3.034.309 4.857-.048 1.822-.358 2.876-.918 1.055-.561 1.553-1.26.498-.7.898-1.533.4-.834.662-2.927.263-2.093-.171-3.36-.434-1.267-.914-1.79-.481-.523-.969-.775-.487-.252-2.367-.577-1.88-.325-3.663.276-1.784.601-4.853 3.362"/><path opacity=".9" fill="none" stroke-width="1.445" stroke-linecap="round" stroke-linejoin="round" d="M606.699 1512.16l-.288.215-.284-.032q-.541.355-.757.918-.216.563-.339 1.407-.122.844-.06 1.728.063.884.208 1.294.145.41.336.62.19.209.488.558.298.349.618.663.321.314 1.158.657.836.342 2.089.298 1.253-.045 1.789-.135.537-.09.832-.136.296-.047 1.131-.317.836-.27 1.864-.857 1.027-.588 1.562-.983.534-.396.856-.612.322-.216.584-.397.262-.183.488-.381.226-.198.3-.235.074-.037.511-.902.438-.864.489-1.764.052-.901.008-1.002-.044-.102-.159-.228t-.672-.803q-.557-.677-.828-.941-.271-.263-.734-.483-.462-.221-1.832-.337-1.37-.116-2.42-.036-1.05.081-1.717.157t-1.724 1.362q-1.058 1.286-1.57 2.229"/><path opacity=".9" fill="none" stroke-width="1.53" stroke-linecap="round" stroke-linejoin="round" d="M627.344 1519.681l.004.316q-.076.046.074-2.984t.25-6.076q.1-3.047.064-5.668-.036-2.621.008-7.275t.172-6.921q.129-2.267.175-3.302.047-1.036.179-1.717.131-.681.4-4.367l.346-1.555"/><path opacity=".9" fill="none" stroke-width="2.724" stroke-linecap="round" stroke-linejoin="round" d="M850.07 1376.123l.006-.061q-.106-.519.698-5.477.804-4.958 1.58-8.303.775-3.344 2.243-8.742 1.467-5.399 2.193-7.717.726-2.319 1.183-3.543.457-1.225 1.028-1.577.15.181.513 2.249.363 2.069.493 3.481.129 1.413.264 2.477.135 1.065.608 4.755.472 3.69.746 5.631.273 1.94.549 4.058.277 2.118.362 3.003l.108 1.12q.024.235.111.588.087.354.355 1.18"/><path opacity=".9" fill="none" stroke-width="3.197" stroke-linecap="round" stroke-linejoin="round" d="M861.847 1360.783l-.259.363-.188.172q-.481.17-.534.205-.054.035-1.991.582-1.936.549-2.986.718-1.051.169-1.528.188-.476.019-2.109-.555"/><path opacity=".9" fill="none" stroke-width="3.343" stroke-linecap="round" stroke-linejoin="round" d="M869.438 1371.348l.013-.137q-.043-.554-.284-2.48-.242-1.927-.869-4.296-.628-2.37-1.405-3.757l-.515-.695"/><path opacity=".9" fill="none" stroke-width="2.809" stroke-linecap="round" stroke-linejoin="round" d="M866.842 1363.633q.809 0 1.22-.046l1.513-.176q1.102-.128 2.32-.092 1.218.037 3.496.729"/><path opacity=".9" fill="none" stroke-width="2.88" stroke-linecap="round" stroke-linejoin="round" d="M880.247 1372.184q.065-.185-.822-8.577t-2.687-19.649l-.133-.7"/><path opacity=".9" fill="none" stroke-width="3.844" stroke-linecap="round" stroke-linejoin="round" d="M883.061 1350.847q-.25.195-2.022.263-1.772.068-3.192.252-1.42.185-3.671 1.203"/><path opacity=".9" fill="none" stroke-width="2.218" stroke-linecap="round" stroke-linejoin="round" d="M889.892 1372.895q-.026-.053-.569-3.217-.542-3.165-.734-4.201"/><path opacity=".9" fill="none" stroke-width="1.662" stroke-linecap="round" stroke-linejoin="round" d="M888.342 1358.562l-.089 1.251"/><path opacity=".9" fill="none" stroke-width="1.485" stroke-linecap="round" stroke-linejoin="round" d="M899.951 1363.715q.305-.481.322-.51.017-.03.141-.277.123-.246.274-.486.151-.241.189-1.421.037-1.18-.213-1.81-.25-.629-.752-.876-.502-.246-.786-.221-.284.024-.477.111t-.607.44q-.414.352-.646.648-.232.295-.266.323-.033.027-.925 1.965-.892 1.939-1.104 4.098-.212 2.158.076 3.438.288 1.279.551 1.695.262.415.549.636.288.22.763.358.476.137.73.11.253-.028 1.812-.218 1.558-.189 2.246-.333.688-.143 1.273-.405.585-.261 1.024-.564.439-.303 1.571-1.045"/><path opacity=".9" fill="none" stroke-width="2.127" stroke-linecap="round" stroke-linejoin="round" d="M913.406 1370.422l.041-.127-.296-5.274q-.295-5.253-.68-8.418-.384-3.165-.625-4.764-.241-1.598-.387-2.492-.146-.894-.325-1.946-.179-1.051-.486-1.819-.308-.769-.549-1.361"/><path opacity=".9" fill="none" stroke-width="1.415" stroke-linecap="round" stroke-linejoin="round" d="M919.575 1364.425l.992-.287q1.208-.56 2.536-1.452 1.327-.892 2.013-1.859.687-.966.835-1.652.148-.687-.072-1.307-.221-.621-.796-.963-.575-.342-1.401-.412-.827-.07-1.282-.005-.456.064-1.098.535-.643.471-1.171 1.518-.527 1.047-.831 2.783-.305 1.737-.16 3.588.144 1.851.575 2.773.432.922 1.092 1.426.659.505.763.512.103.007 2.72.472 2.616.465 3.123.498"/><path opacity=".9" fill="none" stroke-width="1.86" stroke-linecap="round" stroke-linejoin="round" d="M953.563 1346.738q.018.014-.177.104-.195.09-.02-.801.174-.891.254-2.396.08-1.505-.06-2.782-.14-1.277-.313-1.767-.173-.489-.702-1.376-.528-.888-1.816-1.442-1.288-.554-3.019.091-1.732.645-3.287 2.058-1.554 1.413-2.329 2.839-.774 1.426-1.223 3.425-.449 1.999-.477 3.148-.028 1.15.206 2.262.235 1.111 1.284 2.574 1.05 1.462 2.426 2.519 1.376 1.058 2.261 1.695.886.638 1.452 1.293.567.655.759.966.192.312.767 1.285.574.972.855 1.649t.484 1.592l.251 1.131q.048.216.06.839.013.622-.05 1.185-.063.563-.281 1.36-.217.797-.502 1.274-.285.476-.572.711-.286.234-.68.427-.394.193-.447.229-.054.036-1.038.325-.985.288-1.826.371-.841.083-1.36.06-.519-.023-.944-.129-.425-.106-.974-.455-.549-.349-1.065-.96-.516-.61-1.095-1.337"/><path opacity=".9" fill="none" stroke-width="1.803" stroke-linecap="round" stroke-linejoin="round" d="M962.289 1370.341q.025-.191-.489-7.643-.513-7.452-.904-12.711-.39-5.26-.82-7.694l-.511-2.892"/><path opacity=".9" fill="none" stroke-width="1.746" stroke-linecap="round" stroke-linejoin="round" d="M965.932 1354.282l-.731.011q-.115-.034-3.858.173-3.744.207-4.76.364"/><path opacity=".9" fill="none" stroke-width="1.522" stroke-linecap="round" stroke-linejoin="round" d="M970.63 1363.381q-.016.023-.379.428-.364.405-.664.996-.3.591-.527 1.626-.227 1.036-.159 1.946.067.91.232 1.299.166.388.56.84.395.452 1.16.858.764.407 1.261.558.496.152 1.782-.31 1.287-.461 2.056-1.029.77-.568 1.247-1.065.478-.496.896-1.283.418-.787.513-1.885.095-1.097-.138-1.768t-.73-1.147q-.497-.476-1.009-.756-.511-.28-1.425-.372-.914-.093-1.53.154t-.949.58q-.332.333-1.239 1.626"/><path opacity=".9" fill="none" stroke-width="2.033" stroke-linecap="round" stroke-linejoin="round" d="M977.205 1363.085q-.142.293-.287 2.009t.522 3.429q.667 1.713 2.143 3.024 1.475 1.311 1.649 1.43"/><path opacity=".9" fill="none" stroke-width="1.771" stroke-linecap="round" stroke-linejoin="round" d="M988.281 1373.147q-.027-.122-1.625-10.755-1.599-10.633-3.666-22.317"/><path opacity=".9" fill="none" stroke-width="1.877" stroke-linecap="round" stroke-linejoin="round" d="M993.848 1354.615q-.106-.047-3.547-.091-3.44-.043-5.727.07-2.286.113-3.658.752-1.372.638-1.697.824"/><path opacity=".9" fill="none" stroke-width="1.836" stroke-linecap="round" stroke-linejoin="round" d="M995.398 1366.187l.443.299.571.061q.146.06 1.483-.198 1.337-.258 2.568-.618t1.861-.725q.629-.365.879-.595.249-.229.336-.429.086-.199.086-.509t-1.012-.897q-1.011-.588-2.407-.835-1.397-.247-2.416-.153t-1.513.302q-.494.209-.974.627-.479.418-1.037 1.497-.558 1.079-.726 2.574-.167 1.495.063 2.795.23 1.299.784 1.995.554.696 1.745 1.128 1.192.432 2.67.572 1.477.141 3.945-.701 2.467-.841 4.207-1.586 1.739-.745 5.008-1.546"/><path opacity=".9" fill="none" stroke-width="1.629" stroke-linecap="round" stroke-linejoin="round" d="M833.183 1445.276l1.861-.287q.707-.006 2.129-.582 1.421-.575 2.014-1.001.592-.425.922-.671.329-.247 1.754-1.969 1.424-1.723 1.879-3.14.456-1.417.278-2.386-.178-.969-.615-1.29-.437-.32-1.991-.54-1.553-.22-3.094.27-1.54.49-3.052 1.66-1.512 1.171-2.602 3.482-1.09 2.31-1.37 3.603-.28 1.293-.254 3.244.026 1.951.546 3.138.521 1.186 1.776 2.348 1.254 1.161 1.862 1.494.609.332 1.013.49.403.158 1.006.326.602.169 1.496.245.893.077 1.629.056.735-.021 2.235-.448 1.5-.428 2.951-.893 1.451-.466 4.346-1.243"/><path opacity=".9" fill="none" stroke-width="1.506" stroke-linecap="round" stroke-linejoin="round" d="M861.308 1441.092l-.296.127-.593.39q-2.11 2.301-2.803 4.616-.693 2.315-.38 3.453.312 1.138.336 1.204.023.066.312.312.289.247.607.4.318.152.588.175.27.023.35.103.081.08 3.933-1.577 3.852-1.656 5.309-3.402 1.457-1.746 1.967-3.395.511-1.648.132-2.969-.378-1.321-2.042-1.901-1.664-.58-3.749-.349-2.084.231-3.386.771-1.302.539-2.144.917"/><path opacity=".9" fill="none" stroke-width="1.33" stroke-linecap="round" stroke-linejoin="round" d="M873.183 1449.12q.033-2.975-.037-8.106-.071-5.132-.46-9.553-.39-4.422-1.307-17.314l.023-1.25"/><path opacity=".9" fill="none" stroke-width="1.457" stroke-linecap="round" stroke-linejoin="round" d="M887.183 1453.163q-.083-.607-.838-6.229-.754-5.622-.881-6.369"/><path opacity=".9" fill="none" stroke-width="1.495" stroke-linecap="round" stroke-linejoin="round" d="M884.73 1432.338q.081-.153.183-.106.049-.485.125-2.327l.161-.696"/><path opacity=".9" fill="none" stroke-width="1.575" stroke-linecap="round" stroke-linejoin="round" d="M904.902 1455.752l.022-.195q.167-.465-1.908-10.026-2.074-9.562-3.505-16.021-1.43-6.458-1.903-9.39-.474-2.932-1.022-6.803t-1.532-7.138l-.636-.583"/><path opacity=".9" fill="none" stroke-width="2.658" stroke-linecap="round" stroke-linejoin="round" d="M904.839 1420.924q-1.578-.054-5.748.122t-6.431.023q-2.26-.152-2.617-.215"/><path opacity=".9" fill="none" stroke-width="2.076" stroke-linecap="round" stroke-linejoin="round" d="M931.072 1458.356l.089.04q-.09.135-1.981-3.622-1.89-3.756-2.792-8.204-.902-4.448-.908-7.587-.005-3.138 1.015-7.515 1.02-4.377 1.698-6.44.678-2.063 1.753-4.572 1.075-2.51 1.498-3.37"/><path opacity=".9" fill="none" stroke-width="1.655" stroke-linecap="round" stroke-linejoin="round" d="M954.682 1458.502l-.123-.203.026-.031q.596-.799.748-1.031.152-.231 1.51-3.087 1.359-2.856 2.764-7.98 1.406-5.124 1.732-9.966.328-4.843-.127-8.554-.455-3.71-2.251-6.705-1.797-2.995-2.473-4.005"/><path opacity=".9" fill="none" stroke-width="1.391" stroke-linecap="round" stroke-linejoin="round" d="M837.427 1506.236q-.029-.018-.187-.017-.159 0-.437 5.157-.278 5.158.115 11.748.392 6.59.722 10.746.329 4.156.364 5.137.034.982.184 2.021"/><path opacity=".9" fill="none" stroke-width="2.078" stroke-linecap="round" stroke-linejoin="round" d="M837.197 1507.205q.756-.254 2.437-.68 1.681-.426 3.141-.464 1.461-.038 3.286.791 1.824.829 3.067 2.289 1.243 1.46 1.695 3.217.452 1.758.245 2.905-.206 1.147-.382 1.565-.176.418-3.322 2.112-3.147 1.693-4.752 2.323"/><path opacity=".9" fill="none" stroke-width="1.552" stroke-linecap="round" stroke-linejoin="round" d="M861.25 1509.833l-.358-.295q-.028-.1-1.459-.223-.313.404-.586 2.606-.274 2.202.02 3.408.293 1.206.78 2.024.486.818 1.254 1.21t2.056.331q1.289-.062 1.915-.315.625-.253 1.34-.597.714-.344 2.088-1.397 1.374-1.052 2.226-1.938.852-.885 2.107-3.301 1.254-2.415 1.189-5.253-.197-.215-1.1.48-.902.694-1.341 1.892-.439 1.198-.493 3.129-.053 1.932.716 4.006.769 2.073 1.608 3.294.838 1.22 3.082 2.74"/><path opacity=".9" fill="none" stroke-width="2.083" stroke-linecap="round" stroke-linejoin="round" d="M886.665 1512.621q.063.037-.386.007l-.176.636q-.051.647.356 2.34.407 1.693 1.164 2.102.757.409 1.697.49.941.081 1.672-.062.732-.143 1.986-.882 1.255-.738 2.586-2.065 1.332-1.328 2.121-2.766.79-1.438.883-1.924.094-.486-.147-1.391-.241-.904-2.096-1.621-1.855-.716-3.805-.395-1.949.322-5.483 2.146"/><path opacity=".9" fill="none" stroke-width="1.444" stroke-linecap="round" stroke-linejoin="round" d="M886.134 1516.298l-.872-27.61.27-1.779"/><path opacity=".9" fill="none" stroke-width="1.418" stroke-linecap="round" stroke-linejoin="round" d="M907.78 1518.183q-.219-.816-.438-2.017l-.353-1.945q-.134-.744-1.139-7.776-1.004-7.032-2.73-23.462l.005-1.331"/><path opacity=".9" fill="none" stroke-width="1.951" stroke-linecap="round" stroke-linejoin="round" d="M920.86 1521.263q.007-.248-.187-2.658-.193-2.41-.497-3.709-.304-1.3-.679-2.872"/><path opacity=".9" fill="none" stroke-width="1.471" stroke-linecap="round" stroke-linejoin="round" d="M916.789 1501.126q.757.203 1.664 1.115"/><path opacity=".9" fill="none" stroke-width="1.553" stroke-linecap="round" stroke-linejoin="round" d="M937.691 1505.4q-.036-.05.29-.424.326-.373.45-.712.124-.338.124-.778-.001-.439-.008-.548-.008-.108-.403-.58-.395-.473-1.635-.764-1.24-.292-2.153-.144t-1.616.558q-.703.41-1.447 1.78-.744 1.37-.738 3.049.006 1.679.338 2.475.331.795.582 1.106.25.311 1.507 1.248 1.257.936 2.085 1.5.827.563 1.739 1.251.911.687 1.762 1.656.85.97 1.433 4.891-.072.174-1.356.833t-2.529 1.271"/><path opacity=".9" fill="none" stroke-width="1.416" stroke-linecap="round" stroke-linejoin="round" d="M948.505 1483.086q-.054.293.695 7.908.749 7.616 1.57 13.519.821 5.903 1.262 8.468.441 2.564.784 3.601.343 1.036.418 1.355.074.32.226.759.151.438.271.55.121.112.322-.002.202-.115.541-.012"/><path opacity=".9" fill="none" stroke-width="1.615" stroke-linecap="round" stroke-linejoin="round" d="M953.921 1508.333l.371.143-.018-.151q-.001-.033 1.698-1.464 1.7-1.432 1.742-1.431.041.001 1.324-.825 1.282-.826 2.51-1.182 1.228-.355 2.557-.117 1.33.238 2.322.985.992.746 1.484 1.389t.784 1.151q.292.508.516.749.223.24 1.047 5.532.823 5.291.884 7.022"/><path opacity=".9" fill="none" stroke-width="1.472" stroke-linecap="round" stroke-linejoin="round" d="M992.558 1527.727q-.677-1.441-.66-1.633.018-.192-1.898-5.391-1.916-5.198-2.915-10.01-.999-4.813-1.053-7.131-.054-2.318.195-4.47.248-2.151.775-3.805.528-1.653 1.28-3.549.753-1.897 1.315-2.92.561-1.023.966-1.435.405-.411.42-.453.015-.042.791-.365l1.085.052"/><path opacity=".9" fill="none" stroke-width="1.565" stroke-linecap="round" stroke-linejoin="round" d="M1009.85 1525.842q.309.399.375.455.065.055.386-.065t2.081-2.944q1.76-2.823 3.106-6.585 1.347-3.761 1.921-7.915.574-4.154.343-7.804-.232-3.651-.999-6.277-.767-2.625-1.685-4.898-.919-2.273-4.784-7.931"/><path opacity=".9" fill="none" stroke-width="1.986" stroke-linecap="round" stroke-linejoin="round" d="M839.373 1575.534q-.357.005-.464.07-.107.064-.523 2.84-.416 2.776-.232 5.18.184 2.404.66 3.683.476 1.279.969 1.779t.87.706q.377.206.677.256.3.049 1.087.102.786.053 2.285-1.041 1.498-1.095 3.173-4.184 1.675-3.09 3.36-8.693-.109.001 1.365 13.507l.325.771"/><path opacity=".9" fill="none" stroke-width="1.768" stroke-linecap="round" stroke-linejoin="round" d="M859.41 1575.534q-.166.282-.305 3.444-.14 3.161-.037 5.068.102 1.908.799 2.816.213-.198.872-2.029.659-1.83 2.069-4.035 1.409-2.206 2.25-2.377.841-.171 1.252-.085.411.085 1.137.874.726.79 2.776 7.928l.517.716"/><path opacity=".9" fill="none" stroke-width="1.747" stroke-linecap="round" stroke-linejoin="round" d="M879.224 1580.429l-.336-.495q-.002-.093-.532-.207-.239.307-.595 5.996-.356 5.688 1.118 17.378l.234.083"/><path opacity=".9" fill="none" stroke-width="1.936" stroke-linecap="round" stroke-linejoin="round" d="M876.628 1578.721q.302-.971.359-1.103.057-.131.43-1.829.374-1.698.645-2.424.271-.725.571-1.043.3-.319.472-.482.172-.163 1.159-.415.987-.252 2.749.507 1.763.759 2.736 1.608.973.85 1.338 1.614.366.765.514 2.306.147 1.541-.162 2.711-.309 1.169-.72 1.865-.412.695-.907 1.258-.495.563-2.059.926-1.563.362-2.876.458"/><path opacity=".9" fill="none" stroke-width="1.752" stroke-linecap="round" stroke-linejoin="round" d="M896.679 1572.65q-.013-.015-.157-.038-.145-.023-.211.013-.198 0-.251 2.249-.053 2.248.248 3.723.3 1.475.63 2.086.33.61.926.945.596.334 1.097.368.502.033.902-.022.401-.055 1.012-.38.612-.324 1.747-1.428 1.135-1.104 2.238-2.886 1.104-1.781 1.558-3.277.454-1.496.443-2.232-.011-.736-.206-.838-.196-.102-.257-.07-.062.033-.187.333-.126.3-.133.683-.007.382-.125.786-.117.404 3.363 11.038l.568.85"/><path opacity=".9" fill="none" stroke-width="2.013" stroke-linecap="round" stroke-linejoin="round" d="M918.562 1573.118l-.656.753q-.914 1.411-.926 1.425-.011.013-.711 1.399-.7 1.385-.538 4.02.161 2.634 1.099 3.078.937.444 2.431.233 1.495-.21 3.557-1.766 2.061-1.557 3.104-3.07 1.042-1.512.663-4.402-.143-.293-2.486-.301-2.342-.009-4.191.231-1.849.24-3.123.462"/><path opacity=".9" fill="none" stroke-width="2.312" stroke-linecap="round" stroke-linejoin="round" d="M916.618 1582.908q-.088-.508-.142-3.657-.054-3.148-.933-10.206t-1.447-11.41q-.567-4.351-.158-7.973.278-.339 1.903.16"/><path opacity=".9" fill="none" stroke-width="1.91" stroke-linecap="round" stroke-linejoin="round" d="M938.78 1586.084l-.195-.47q-.736-2.24-1.603-6.637-.867-4.396-1.342-7.211-.476-2.814-1.244-6.84-.768-4.027-1.247-10.57l.146-.816"/><path opacity=".9" fill="none" stroke-width="1.877" stroke-linecap="round" stroke-linejoin="round" d="M948.277 1586.146q.127-.376-.861-6.336t-1.319-7.337"/><path opacity=".9" fill="none" stroke-width="1.234" stroke-linecap="round" stroke-linejoin="round" d="M943.973 1566.63l.19-.375q.261-.034.381.556.119.59.317 1.173"/><path opacity=".9" fill="none" stroke-width="1.839" stroke-linecap="round" stroke-linejoin="round" d="M960.358 1568.047q-.009-.128.254-.329.263-.2.49-1.064.226-.863.067-1.545-.158-.682-.447-.93-.289-.247-.885-.391-.596-.144-1.438-.044-.842.099-1.526.396-.685.297-2.293 1.536-1.608 1.24-2.303 2.367-.695 1.127-.826 1.795-.131.668-.03 1.572t1.886 1.828q1.786.924 4.056 1.948t3.665 2.315q1.395 1.291 1.705 2.059.31.767.262 1.258-.049.49-.209.787-.159.298-.421.525-.261.227-.267.265-.005.038-2.445 1.034-2.441.997-3.711 1.426"/><path opacity=".9" fill="none" stroke-width="1.58" stroke-linecap="round" stroke-linejoin="round" d="M969.8 1549.707q-.208.074-.769.354-.285.546-.549 2.656-.264 2.109-.198 3.929.066 1.82.123 2.854.056 1.033 3.827 20.383l.175.253.481 3.307.451.704"/><path opacity=".9" fill="none" stroke-width="1.686" stroke-linecap="round" stroke-linejoin="round" d="M973.341 1574.41l.139-.013q.023-.014-.015-.127.201-.778.82-1.522t2.331-1.793q1.713-1.05 2.778-1.371 1.065-.321 1.123-.32.059.002 1.209 0 1.151-.002 2.271 3.1 1.12 3.101 2.188 10.773"/><path opacity=".9" fill="none" stroke-width="1.828" stroke-linecap="round" stroke-linejoin="round" d="M1002.82 1584.376q.773-.23 1.617-.331-.132-.23-2.012-4.959-1.879-4.73-2.652-7.251-.772-2.521-.815-5.464-.044-2.942.687-5.181.731-2.239 2.392-4.527 1.66-2.288 2.884-3.305 1.225-1.018 2.787-1.641"/><path opacity=".9" fill="none" stroke-width="1.997" stroke-linecap="round" stroke-linejoin="round" d="M1026.467 1582.845q-.031.064-.084.492-.053.427.016 1.746.521-.351 1.483-2.369.962-2.019 1.536-3.946.573-1.927.851-2.988.277-1.061.66-4.915t.042-7.056q-.342-3.203-1.132-5.313-.791-2.111-2.446-4.211-1.655-2.102-5.758-4.401"/><path opacity=".9" fill="none" stroke-width="1.806" stroke-linecap="round" stroke-linejoin="round" d="M842.032 1633.034q-.518 1.093-1.18 2.184-.662 1.091-.994 2.682-.332 1.591-.093 2.747.24 1.156.744 1.775.504.62 1.134.8.63.181 1.526.132.895-.048 2.671-1.444 1.776-1.395 3.226-3.689 1.451-2.294 1.783-4.014.333-1.721.209-2.912-.125-1.191-.403-1.737t-.312-.553q-.034-.008-.996-.56-.962-.553-3.87 1.323-2.908 1.877-4.101 3.009"/><path opacity=".9" fill="none" stroke-width="1.751" stroke-linecap="round" stroke-linejoin="round" d="M852.72 1637.019q.02-.182-1.058-6.502-1.078-6.32-.914-14.601.163-8.282.113-9.155"/><path opacity=".9" fill="none" stroke-width="1.602" stroke-linecap="round" stroke-linejoin="round" d="M863.47 1635.566q-.117-.491.032-.727.15-.236.393-.799.244-.563.386-1.016.143-.453.293-1.258.15-.805.16-1.308.01-.503-.147-1.309l-.167-.851q-.009-.047-.184-.163-.174-.115-.466-.203-.291-.088-.834.104-.542.193-1.011.793-.468.601-.779 2.169t.053 2.802q.363 1.233.645 1.689.283.456.494.666.21.21 1.003.578.793.369 2.528.116 1.734-.252 4.335-.936t4.157-1.215"/><path opacity=".9" fill="none" stroke-width="1.822" stroke-linecap="round" stroke-linejoin="round" d="M881.517 1639.808q.332-.62-2.986-28.761-.024-.182.923-1.368"/><path opacity=".9" fill="none" stroke-width="1.39" stroke-linecap="round" stroke-linejoin="round" d="M892.47 1634.3q.392.004 2.099-1.162 1.707-1.166 2.398-1.901.692-.736.859-1.092.167-.355.222-.676.055-.319-.159-.739-.215-.419-.231-.413-.015.006-1.006-.207-.991-.212-2.409.13-1.419.343-2.265.919-.847.576-1.212 1.07-.366.494-.593 1.09-.227.595-.327 1.609-.101 1.015.147 2.15.248 1.136.403 1.387.155.25.545.56.39.311.895.555.506.244 1.753.514 1.247.271 3.932.321 2.686.05 3.645-.044.959-.094 5.96-1.68"/><path opacity=".9" fill="none" stroke-width="2.337" stroke-linecap="round" stroke-linejoin="round" d="M916.22 1638.214q.126-.519-1.028-7.096-1.153-6.576-2.224-11.805-1.071-5.229-1.548-8.463-.477-3.234-.971-9.725l-.073-.669"/><path opacity=".9" fill="none" stroke-width="2.902" stroke-linecap="round" stroke-linejoin="round" d="M920.064 1613.792l-.125-.052q-.199-.01-6.019.986t-7.45 1.457"/><path opacity=".9" fill="none" stroke-width="1.826" stroke-linecap="round" stroke-linejoin="round" d="M926.704 1632.906q1.037.771 2.08.641 1.043-.13 2.683-1.471 1.641-1.342 2.397-3.149.756-1.806.733-2.776-.024-.97-.233-1.364-.21-.394-.503-.543-.292-.148-.911-.244-.618-.095-1.229.008-.611.103-1.547.906-.937.803-1.448 1.672-.511.869-.935 2.679-.425 1.81-.093 3.383.332 1.573.839 2.404.507.832 1.107 1.47.599.639.849.798.25.159 1.451.439 1.202.28 3.549-.83 2.348-1.11 3.289-1.703"/><path opacity=".9" fill="none" stroke-width="1.555" stroke-linecap="round" stroke-linejoin="round" d="M962.736 1637.945q-.012-.035-.49.21-.891-.082-3.005-3.583-2.114-3.501-2.86-7.86t-.606-6.821q.139-2.463.881-4.458.741-1.995 1.7-3.287.959-1.292 1.799-1.669.839-.377 1.456-.657"/><path opacity=".9" fill="none" stroke-width="1.585" stroke-linecap="round" stroke-linejoin="round" d="M977.126 1637.886l.392-.125q.662-.621 2.312-3.46t2.367-4.817q.717-1.977 1.003-4.989.286-3.013-.149-5.469-.435-2.455-1.318-4.105-.883-1.65-2.257-2.731-1.373-1.082-2.803-1.972"/><path opacity=".9" fill="none" stroke-width="1.832" stroke-linecap="round" stroke-linejoin="round" d="M846.954 1693.222q.288-.803-3.396-21.576l.068-.526"/><path opacity=".9" fill="none" stroke-width="2.313" stroke-linecap="round" stroke-linejoin="round" d="M845.157 1678.691q.785-1.311 1.745-2.113.96-.801 1.56-1.057.601-.256.809-.326.208-.07.652-.245.444-.175 1.659-.273 1.214-.099 1.805-.08.592.018.981.186.39.168 2.727 1.587"/><path opacity=".9" fill="none" stroke-width="1.38" stroke-linecap="round" stroke-linejoin="round" d="M865.001 1681.937l1.304-1.156q.589-.358 1.595-1.934 1.006-1.575 1.254-2.26.248-.685.295-1.165.047-.48-.058-.995-.104-.515-.101-.516.002-.001-.474-.221-.477-.22-1.59.275-1.113.494-1.854 1.364-.741.869-1.275 2.354-.535 1.485-.657 2.482-.122.997-.135 1.716-.012.719-.028 1.192-.015.473.397 2.493.413 2.02 1.012 3.02t1.016 1.342q.417.343.71.489.292.145.354.241.061.096 2.681.388 2.62.293 4.174.008 1.554-.285 3.193-.75"/><path opacity=".9" fill="none" stroke-width="1.702" stroke-linecap="round" stroke-linejoin="round" d="M891.407 1676.101q.13-.192.362-.829.233-.637.274-.915.041-.277.01-.608-.031-.331-.096-.572-.065-.241-.408-.732-.343-.49-.543-.632-.201-.142-.337-.26-.137-.118-1.535-.335-1.398-.217-2.35.062-.951.278-1.467.803-.516.524-.72 1.254-.203.73-.23 1.53-.026.801 2.114 3.215 2.141 2.413 4.316 4.254 2.174 1.841 2.952 2.789.778.948 1.104 1.527.325.58.279 2.308l-.514.481q-.666.412-2.678.974-2.011.562-3.517.885"/><path opacity=".9" fill="none" stroke-width="2.336" stroke-linecap="round" stroke-linejoin="round" d="M908.657 1687.984q0-.035-9.004-36.332l-.355-1.028"/><path opacity=".9" fill="none" stroke-width="2.148" stroke-linecap="round" stroke-linejoin="round" d="M909.657 1661.3q-.263-.488-.437-.72-.05-.041-.738-.196-.689-.155-4.107-.246-3.419-.091-6.198.829-2.779.919-3.582 1.271"/><path opacity=".9" fill="none" stroke-width="1.607" stroke-linecap="round" stroke-linejoin="round" d="M922.392 1679.218l-.195-.128q-.597-.108-.661.03-.847.616-.869.634-.022.017-.522 1.009-.5.992-.325 3.182.174 2.19 1.682 2.76 1.508.571 3.379.097 1.87-.474 3.436-1.565 1.566-1.091 2.216-1.81.65-.719.98-1.503.33-.784.355-1.327.024-.543-.48-1.404-.505-.86-5.294-.858-4.789.003-5.421.086"/><path opacity=".9" fill="none" stroke-width="2.11" stroke-linecap="round" stroke-linejoin="round" d="M943.423 1689.038q-.029-.428-1.27-5.406-1.241-4.977-2.331-7.614-1.09-2.636-1.847-3.658-.757-1.021-1.701-1.4l-1.007.301"/><path opacity=".9" fill="none" stroke-width="1.791" stroke-linecap="round" stroke-linejoin="round" d="M939.704 1679.148q1.31-.775 2.408-1.559 1.098-.785 2.177-1.401 1.08-.616 1.872-.874.791-.258 1.893-.409 1.102-.151 2.086.214.985.364 2.439.982"/><path opacity=".9" fill="none" stroke-width="1.498" stroke-linecap="round" stroke-linejoin="round" d="M965.72 1683.132q.962-.715 2.156-1.525 1.194-.81 2.758-2.258 1.564-1.447 2.042-2.202.477-.755.603-1.659t-.07-1.562q-.197-.658-1.469-1.172-1.273-.514-2.818-.027-1.546.486-2.479 1.249-.934.763-1.952 2.459-1.018 1.695-1.248 3.672-.23 1.977.097 3.237.328 1.259 1.349 2.499 1.021 1.24 3.167 1.717 2.147.477 4.382.245 2.236-.231 4.061-.206 1.825.025 2.727.253.903.228 2.553.659"/><path opacity=".9" fill="none" stroke-width="1.556" stroke-linecap="round" stroke-linejoin="round" d="M1002.548 1689.308q.145-.101.087-.08-.595-.18-2.388-4.545t-2.491-7.775q-.698-3.41-.706-5.814-.008-2.405 1.749-6.721 1.758-4.316 2.768-5.759 1.01-1.444 1.965-2.681"/><path opacity=".9" fill="none" stroke-width="1.62" stroke-linecap="round" stroke-linejoin="round" d="M1018.064 1688.37q.666-1.11.706-1.209.04-.099.331-.487.292-.389 1.867-3.081 1.575-2.693 2.683-5.723 1.109-3.03 1.604-7.277.496-4.246.037-7.646-.458-3.4-1.524-5.742-1.065-2.342-2.448-3.995-1.383-1.652-2.54-2.465t-2.498-1.785"/><path opacity=".9" fill="none" stroke-width="1.921" stroke-linecap="round" stroke-linejoin="round" d="M414.204 1895.073q.027-.258-.701-8.024-.728-7.767-1.146-12.878-.418-5.112-.483-7.948-.065-2.836 1.695-9.559 3.316-1.022 5.123-1.125 1.807-.102 3.084.086 1.278.188 1.734.336.456.148 3.018 1.309t4.79 3.927q2.228 2.766 3.527 5.891 1.299 3.126 1.812 5.025.513 1.899 1.18 5.651.666 3.753.586 5.835-.081 2.082-.502 3.294-.422 1.212-1.41 2.26-.987 1.047-3.161 2.282-2.173 1.235-7.93 1.471-5.756.236-6.497.174"/><path opacity=".9" fill="none" stroke-width="2.188" stroke-linecap="round" stroke-linejoin="round" d="M447.579 1888.967q.009-.644-2.452-14.441-.566.067-.798-.02"/><path opacity=".9" fill="none" stroke-width="2.424" stroke-linecap="round" stroke-linejoin="round" d="M445.657 1879.018q.609-.24 1.105-.375.496-.136 1.758-.362 1.261-.227 2.854-.248 1.592-.02 2.58-.011"/><path opacity=".9" fill="none" stroke-width="2.107" stroke-linecap="round" stroke-linejoin="round" d="M463.235 1877.424l-.103.035q-.561.196-1.348 1.251-.786 1.055-1.132 1.94-.347.885-.503 2.352-.155 1.468.231 2.7.386 1.231 1.188 1.899.801.668 1.768.857.967.189 3.718-.913 2.752-1.103 4.197-2.112 1.444-1.008 2.374-1.914.93-.906 1.471-2.304.542-1.397.399-2.299-.143-.901-.636-1.554t-.755-.826q-.262-.174-1.9-.467-1.638-.293-2.934.161-1.297.455-2.234 1.042-.938.588-2.66 2.015"/><path opacity=".9" fill="none" stroke-width="2.576" stroke-linecap="round" stroke-linejoin="round" d="M473.798 1878.491q0 .23.128.783.128.552 1.006 3.097.879 2.544 1.385 3.653.506 1.11.865 1.617.36.508 1.319 1.396"/><path opacity=".9" fill="none" stroke-width="1.629" stroke-linecap="round" stroke-linejoin="round" d="M487.126 1889.764l.438-.49q.646-1.085-.959-8.522-1.605-7.436-2.926-11.719-1.321-4.283-1.606-6.738-.286-2.456.133-3.951.418-1.496 2.308-2.1 1.89-.604 4.962-.912 3.072-.308 5.678.01l1.862.918"/><path opacity=".9" fill="none" stroke-width="2.05" stroke-linecap="round" stroke-linejoin="round" d="M488.391 1866.409q-.082.061-4.944 1.537-4.862 1.477-6.399 1.92"/><path opacity=".9" fill="none" stroke-width="1.847" stroke-linecap="round" stroke-linejoin="round" d="M508.032 1857.584q-.015-.108-.214-.518-.2-.41-.304-.251-.105.159-.167 2.888-.062 2.729.135 5.214.198 2.485.511 4.665.314 2.181.51 3.632t.872 6.172q.676 4.72 1.867 9.632l.102.277"/><path opacity=".9" fill="none" stroke-width="1.894" stroke-linecap="round" stroke-linejoin="round" d="M515.126 1866.409q-.066-.194-5.907.526-5.84.719-7.156.938"/><path opacity=".9" fill="none" stroke-width="1.618" stroke-linecap="round" stroke-linejoin="round" d="M849.063 1897.405q-.131-.187-.225-.47-.095-.282-.109-.478-.013-.196-.598-3.444-.584-3.247-1.767-9.442-1.182-6.195-1.524-10.132-.342-3.937-.155-6.066.188-2.13.56-2.884.372-.754.775-1.061.403-.307.701-.389.298-.082 1.813-.21t2.781.04q1.267.168 1.857.3.589.132 2.741 1.756 2.151 1.624 3.027 3.029.876 1.405 1.035 2.304.159.9.157 1.293-.001.392-.989 1.966-.989 1.573-2.5 3.047-1.512 1.474-2.399 2.089-.886.615-1.377.872-.492.256-1.141.445-.65.188-1.619.444-.969.255-1.841.538"/><path opacity=".9" fill="none" stroke-width="1.607" stroke-linecap="round" stroke-linejoin="round" d="M863.001 1888.639l-.135-.402q-.397-.904-.502-1.075-.105-.171-.314.038-.21.209-.136.994.074.785.173 1.238.1.453.463 1.005.364.551 1.665 1.274 1.3.723 1.833.766.532.043 1.008.033.475-.01 1.456-.921.981-.91 1.499-1.762.517-.853.615-.921.097-.068 1.792-4.052.019.515.146 1.261.126.746.399 1.551.273.805.565 1.465.291.661.807 1.407.515.747 1.525 1.687"/><path opacity=".9" fill="none" stroke-width="1.487" stroke-linecap="round" stroke-linejoin="round" d="M884.423 1885.592q-.196.35.942 5.196.082.182 1.643.218 1.561.036 3.091-.918 1.531-.954 2.333-1.986.802-1.032.879-2.644.076-1.613-.493-1.975-.569-.362-1.079-.479-.509-.118-1.657-.106-1.148.011-3.059.534-1.91.522-3.194.965"/><path opacity=".9" fill="none" stroke-width="1.385" stroke-linecap="round" stroke-linejoin="round" d="M886.157 1888.639q-.265-2.812-.761-9.736-.495-6.923-2.046-12.978l-1.115-1.438"/><path opacity=".9" fill="none" stroke-width="1.721" stroke-linecap="round" stroke-linejoin="round" d="M903.266 1889.108l.201.099.181.449q.263.228-3.215-27.484l-.479-.931"/><path opacity=".9" fill="none" stroke-width="1.667" stroke-linecap="round" stroke-linejoin="round" d="M915.876 1892.694l-.096-.992q.105-.328-2.273-11.073l-.225-1.271"/><circle opacity=".9" stroke-width=".1" cx="912.688" cy="1872.186" r="1.122"/><path opacity=".9" fill="none" stroke-width="1.353" stroke-linecap="round" stroke-linejoin="round" d="M936.048 1872.655l-.328-.283q-.143-.013-1.783-.205-1.64-.192-3.39.229-1.75.42-2.767 1.127-1.016.707-1.456 1.6-.439.892-.453 1.792-.014.9.071 1.197.085.296.283.704.199.408.535.9.337.491.578.751.242.26.285.351.042.091 2.137 1.753 2.094 1.662 3.546 2.617 1.452.954 2.115 1.635.662.681.857 1.349.195.669.155.903-.039.235-.146.479-.107.245-.418.483-.312.238-1.269.769-.957.53-3.569 1.763-2.613 1.232-3.077 1.449"/><path opacity=".9" fill="none" stroke-width="1.446" stroke-linecap="round" stroke-linejoin="round" d="M942.344 1856.002q.022-.011-.041-.182.136 3.034.928 7.294t1.379 6.75q.587 2.49 1.456 5.848.869 3.358 3.102 14.775l.286.285"/><path opacity=".9" fill="none" stroke-width="1.538" stroke-linecap="round" stroke-linejoin="round" d="M948.251 1880.881l.338.062.086-.036.302-.35q.207-.054 2.218-1.418 2.011-1.364 3.546-1.857 1.534-.493 2.328-.532.793-.04 1.362.093.569.132 1.328 1.174.758 1.042 1.103 2.018.345.976.533 1.674.189.699.515 2.385t.425 2.075q.099.39.65.818"/><path opacity=".9" fill="none" stroke-width="1.361" stroke-linecap="round" stroke-linejoin="round" d="M968.829 1883.073q.21.013 1.326-.329 1.117-.341 2.655-1.374 1.539-1.032 2.18-1.783.64-.751.755-1.138.115-.387.109-.645-.006-.257-.191-.732t-.218-.477q-.034-.001-.421-.222t-1.067-.346q-.679-.126-2.115.272-1.436.398-2.463 1.339-1.026.941-1.392 2.478-.367 1.536-.131 2.637.237 1.101.852 1.896.615.795 1.071 1.175.456.38 1.624.955 1.168.575 3.033.913 1.866.337 8.658-2.17"/><path opacity=".9" fill="none" stroke-width="1.386" stroke-linecap="round" stroke-linejoin="round" d="M991.782 1879.217l-.243.153q-.04.061-.425.769t-.536 1.965q-.15 1.259.036 1.979.185.721.544 1.176.36.455 2.125.773 1.766.319 3.988-.977 2.223-1.296 3.448-2.776 1.225-1.48 1.673-2.53.447-1.051-.326-3.104-.595-.39-12.003-.404"/><path opacity=".9" fill="none" stroke-width="1.602" stroke-linecap="round" stroke-linejoin="round" d="M1004.657 1886.717l.112-.098q.004-1.103.078-1.19.075-.087-.192-6.584-.268-6.497-1.102-12.029-.835-5.531-1.487-8.561-.651-3.03-.999-4.279-.102.687-.129 1.159"/><path opacity=".9" fill="none" stroke-width="2.69" stroke-linecap="round" stroke-linejoin="round" d="M1310.516 1868.034q.091.811.257 1.35.166.538.409 1.302.404-.72-5.432-31.358.047.021 2.104 1.08 2.056 1.059 4.239 2.27 2.184 1.211 3.77 2.206 1.586.994 3.538 2.652 1.953 1.659 3.693 4.808 1.741 3.149 2.25 5.556.509 2.407.264 3.838-.244 1.431-1.795 2.376-1.551.944-4.072 2.188-2.521 1.243-3.79 1.623-1.268.379-2.778.706"/><path opacity=".9" fill="none" stroke-width="2.165" stroke-linecap="round" stroke-linejoin="round" d="M1334.141 1861.729l.058-.099.706-.524q.693-.629 1.589-2.474.896-1.844.726-2.788-.169-.944-.737-1.172-.568-.228-1.94-.073-1.373.156-1.768.629-.396.474-.812 2.136-.416 1.661.142 3.933.559 2.272 2.525 3.137 1.965.865 9.402-1.568"/><path opacity=".9" fill="none" stroke-width="2.345" stroke-linecap="round" stroke-linejoin="round" d="M1353.188 1865.912q.029-1.955-.022-4.47-.052-2.516-.472-7t-1.176-9.447q-.756-4.963-1.682-8.938l-.429-1.258"/><path opacity=".9" fill="none" stroke-width="1.587" stroke-linecap="round" stroke-linejoin="round" d="M1360.813 1860.803q.705.162.913.014.958-.083 2.309-.715 1.352-.632 2.291-1.798.939-1.166 1.126-2.168.188-1.001.067-1.482-.12-.481-.736-.849-.615-.368-1.193-.376-.579-.008-1.319.363-.739.371-1.541 1.493-.802 1.122-1.08 2.98-.279 1.857-.073 3.091.206 1.234 1.015 2.278.809 1.043 2.09 1.379 1.28.336 4.979.056 3.7-.28 4.762-.481"/><path opacity=".9" fill="none" stroke-width="2.382" stroke-linecap="round" stroke-linejoin="round" d="M1382.641 1864.319q.022-.452-.889-7.904t-1.631-11.824q-.72-4.372-1.504-7.665t-1.927-7.235l-.346 2.389"/><path opacity=".9" fill="none" stroke-width="3.063" stroke-linecap="round" stroke-linejoin="round" d="M1388.344 1841.432l-.478-.346q-.497-.293-2.569-.54-2.073-.248-6.641 1.316-4.568 1.563-7.317 2.552-2.749.989-3.823 1.401"/><path opacity=".9" fill="none" stroke-width="1.707" stroke-linecap="round" stroke-linejoin="round" d="M1393.594 1860.205q.365-.175 2.983-1.61 2.617-1.435 3.694-2.223 1.078-.788 1.279-1.065.201-.276.38-1.145.178-.869-.912-1.069-1.09-.2-2.692.205t-3.22 1.529q-1.618 1.124-2.383 3.168.499.848 1.216 1.632.717.784 1.651 1.309.934.525 2.838.905 1.904.379 4.882.948 2.977.568 7.003 2.198"/><path opacity=".9" fill="none" stroke-width="2.053" stroke-linecap="round" stroke-linejoin="round" d="M1420.532 1855.295q-.411.201-1.417 1.653-1.006 1.453-1.235 2.595-.228 1.143-.091 1.732.136.589.464.911.327.322 1.753.728 1.426.405 3.832-.28 2.407-.686 4.266-2.22 1.86-1.535 2.37-2.852.51-1.316.467-1.987-.043-.672-.315-1.183-.272-.512-1.495-.831-1.222-.318-4.927.978-3.705 1.295-4.938 1.952"/><path opacity=".9" fill="none" stroke-width="1.994" stroke-linecap="round" stroke-linejoin="round" d="M1435.001 1863.463l-.227-1.057q-.049-.404-1.735-11.247-1.686-10.844-2.927-25.146l-.361-.835"/><path opacity=".9" fill="none" stroke-width="2.132" stroke-linecap="round" stroke-linejoin="round" d="M403.77 1962.11l.002.076.003.08q.099.126.601.299.501.172 1.07.068.569-.105 1.346-.469.777-.364 2.519-2.278 1.742-1.914 2.567-3.392.825-1.479.967-2.947.142-1.468-.086-2.239-.228-.77-.969-1.327-.741-.558-2.57-.677-1.83-.119-3.912.829-2.083.948-3.568 2.741-1.486 1.792-2.1 3.708-.613 1.915-.643 3.872-.031 1.956.369 3.133.401 1.176 1.363 2.503.962 1.327 1.758 2.078.795.752 1.573 1.271.777.519 1.243.735.466.215 1.417.479.951.264 3.316-.459 2.364-.723 3.996-1.486 1.631-.764 3.128-1.488"/><path opacity=".9" fill="none" stroke-width="2.382" stroke-linecap="round" stroke-linejoin="round" d="M428.52 1955.337q-.808.622-.883.66-.076.038-.89 1.34-.814 1.303-1.222 3.181-.407 1.877-.326 2.845.082.968.202 1.597.12.629.542 1.222.422.592.911.829.49.237.965.352.474.115 1.159.142.685.028 2.457-.486 1.771-.514 3.028-1.186 1.258-.671 2.106-1.291.848-.621 1.819-1.646.971-1.026 1.561-2.421.591-1.395.356-3.081-.235-1.687-1.638-2.884-1.404-1.198-2.958-1.465-1.555-.266-2.818.004-1.264.27-4.246 4.21"/><path opacity=".9" fill="none" stroke-width="2.263" stroke-linecap="round" stroke-linejoin="round" d="M441.91 1962.708l-.1-.185q-.146-.246-.913-7.87-.768-7.624-1.336-14.568-.568-6.944-.203-12.455l-.026-.359"/><path opacity=".9" fill="none" stroke-width="2.251" stroke-linecap="round" stroke-linejoin="round" d="M455.316 1966.353q-.009-.2-1.139-3.592-1.13-3.391-1.617-6.711-.488-3.32-.556-3.76"/><path opacity=".9" fill="none" stroke-width="1.674" stroke-linecap="round" stroke-linejoin="round" d="M449.41 1946.314l.174.004.32.09.772.773"/><path opacity=".9" fill="none" stroke-width="2.474" stroke-linecap="round" stroke-linejoin="round" d="M471.379 1966.224q-.012-.2-.722-5.492t-1.659-9.872q-.949-4.581-1.967-8.764-1.019-4.183-1.71-7.256-.692-3.074-1.03-8.79.149-.201.385-.701"/><path opacity=".9" fill="none" stroke-width="2.295" stroke-linecap="round" stroke-linejoin="round" d="M475.691 1932.65q-.834-.008-5.006.173-4.172.18-7.349.96-3.176.779-4.77 1.257"/><path opacity=".9" fill="none" stroke-width="1.908" stroke-linecap="round" stroke-linejoin="round" d="M506.004 1973.384l-.519-.891q-.093-.229-1.019-1.532-.925-1.302-3.194-4.656-2.268-3.353-3.895-6.536-1.627-3.184-2.413-7.007-.786-3.823-.573-6.591.212-2.767 1.205-4.855.993-2.087 2.355-3.306 1.362-1.219 2.63-1.249 1.268-.03 2.11.002"/><path opacity=".9" fill="none" stroke-width="2.557" stroke-linecap="round" stroke-linejoin="round" d="M526.113 1971.134q.148-.089.705-.585.557-.497.861-.964.304-.467 1.01-1.443.705-.975 1.732-3.463 1.026-2.488 1.402-7.037.377-4.549-.173-8.558-.55-4.01-1.921-7.382-1.372-3.373-3.397-5.967-2.025-2.595-4.111-3.863-2.087-1.268-2.873-1.683"/><path opacity=".9" fill="none" stroke-width="2.051" stroke-linecap="round" stroke-linejoin="round" d="M406.879 2015.712q-.326.444-.135 7.667t.855 12.052q.663 4.83.902 6.402.238 1.571.172 1.113-.067-.459-.2-1.089"/><path opacity=".9" fill="none" stroke-width="1.99" stroke-linecap="round" stroke-linejoin="round" d="M405.16 2017.704q.58-.375 1.159-.832.58-.456 1.628-1.551 1.048-1.096 2.024-1.818.977-.722 2.385-1.022 1.408-.3 2.771.136 1.363.435 2.662 2.601 1.299 2.165 1.571 4.107.272 1.942.01 3.701-.263 1.76-.673 2.252-.409.492-1.072.886-.662.394-1.564.664t-1.391.414q-.489.144-1.557.482"/><path opacity=".9" fill="none" stroke-width="1.579" stroke-linecap="round" stroke-linejoin="round" d="M427.379 2018.771l-.581.085q.158 2.087.915 3.308.757 1.221 1.166 1.605.409.384 1.187.641.779.256 1.803.052 1.025-.205 1.62-.675.594-.47 1.623-1.712t1.767-5.675q-.101.225-.028 1.264.074 1.04.542 2.739.468 1.7 1.297 3.058.83 1.359 1.345 1.932t2.813 2.202"/><path opacity=".9" fill="none" stroke-width="1.833" stroke-linecap="round" stroke-linejoin="round" d="M450.801 2017.247q-.353 1.195-.456 1.573-.103.378-.143 1.175-.039.796.138 1.534.177.737.669 1.319.493.583 1.66.874 1.166.291 2.257-.044 1.091-.335 1.624-.711.534-.377 1.494-1.47.961-1.093 1.407-2.106.446-1.012.511-1.77.065-.757-.013-1.322-.077-.566-.339-1.142-.261-.575-2.41-.983-2.15-.408-4.275.395-2.126.803-3.64 1.612"/><path opacity=".9" fill="none" stroke-width="2.45" stroke-linecap="round" stroke-linejoin="round" d="M451.676 2022.087q.022-.172-1.413-8.077-1.434-7.905-2.372-13.032t-1.459-7.7q-.522-2.572-1.194-4.636"/><path opacity=".9" fill="none" stroke-width="2.72" stroke-linecap="round" stroke-linejoin="round" d="M469.379 2025.134q.014-.126-.282-1.819-.297-1.694-1.013-7.155t-1.322-9.743q-.606-4.283-2.344-14.589-.011.167.648 1.325"/><path opacity=".9" fill="none" stroke-width="2.391" stroke-linecap="round" stroke-linejoin="round" d="M484.441 2025.931q-.147-.195-1.994-7.644-1.847-7.45-2.177-8.938"/><path opacity=".9" fill="none" stroke-width="2.856" stroke-linecap="round" stroke-linejoin="round" d="M478.535 2001.052q.271.452.668 1.448.397.995.801 1.868"/><path opacity=".9" fill="none" stroke-width="1.912" stroke-linecap="round" stroke-linejoin="round" d="M499.707 2004.708q.133-.237-.562-2.09-.395-.272-2.356-.576-1.96-.303-3.85.485-1.889.787-3.13 2.152-1.242 1.364-1.522 2.528t-.093 2.356q.188 1.191 1.64 2.841 1.452 1.649 2.534 2.358 1.082.71 3.582 2.497 2.501 1.788 3.532 2.866 1.03 1.078 1.451 1.656.42.578.847 1.549t.214 2.563q-.544.414-6.271 1.233"/><path opacity=".9" fill="none" stroke-width="2.11" stroke-linecap="round" stroke-linejoin="round" d="M509.723 1986.521q-.389-.042-.573.039-.184.081-.362.883-.177.801.316 5.2.492 4.399 1.578 8.746 1.086 4.348 2.452 9.307 1.365 4.958 2.783 12.446.122-.094.26-.538.137-.443.311-.845"/><path opacity=".9" fill="none" stroke-width="1.677" stroke-linecap="round" stroke-linejoin="round" d="M514.098 2007.954q.406.071.905-.02t.72-.211q.222-.12 2.27-.87 2.047-.75 2.93-.954.882-.204 2.681-.365 1.798-.161 4.161.375 2.363.536 4.029 7.206 1.665 6.67 1.757 7.179"/><path opacity=".9" fill="none" stroke-width="3.367" stroke-linecap="round" stroke-linejoin="round" d="M554.707 2022.216l.231.616q.537 1.2.63 1.282.093.083-2.368-4.691-2.461-4.773-3.489-8.723-1.029-3.95-1.226-7.195-.198-3.244.146-5.663.343-2.418 1.36-4.233 1.017-1.815 2.164-2.761 1.146-.947 3.888-1.045l1.524.702"/><path opacity=".9" fill="none" stroke-width="2.15" stroke-linecap="round" stroke-linejoin="round" d="M577.27 2023.61q.964-.29 1.041-.541.702-.431.75-.575.869-1.166 1.677-2.322.807-1.156 1.569-5.249.762-4.094.663-6.943-.1-2.85-.485-5.578-.385-2.729-1.724-7.282-1.339-4.554-2.956-7.684-1.617-3.131-3.802-5.626-2.185-2.494-4.305-3.663-2.121-1.168-3.381-1.775"/><path opacity=".9" fill="none" stroke-width="2.495" stroke-linecap="round" stroke-linejoin="round" d="M414.441 2082.731q-1.466.909-1.627 1.078-.162.169-.283.356-.12.188-.252.277-.131.088-.744 2.189t-.466 3.373q.147 1.272.542 2.165.394.894 1.841 1.896 1.446 1.003 3.576.786 2.129-.216 4.229-1.667 2.101-1.451 3.644-3.644 1.544-2.193 2.07-4.233.526-2.04.505-3.039-.021-.999-.599-2.477-.577-1.479-2.101-2.25-1.523-.771-2.611-.861-1.087-.09-2.542.429-1.456.519-3.853 3.033"/><path opacity=".9" fill="none" stroke-width="2.387" stroke-linecap="round" stroke-linejoin="round" d="M427.254 2085.79q.055-.152.104-4.427.049-4.275-.55-10.623-.6-6.348-2.222-23.181.139.302.215.344"/><path opacity=".9" fill="none" stroke-width="2.086" stroke-linecap="round" stroke-linejoin="round" d="M442.051 2082.661q.08-.158.524-.314t1.246-.898q.802-.742 1.534-2.195.732-1.453.92-2.578.188-1.124-.039-2.28-.227-1.157-1.114-1.789-.888-.632-2.685-.746-1.798-.114-2.889.377-1.092.491-1.813 1.336-.722.845-1.545 3.811t-.685 5.272q.137 2.307.701 3.714.565 1.408 1.354 1.91.79.503 1.534.681.744.179 2.698-.041 1.955-.22 3.278-.598t2.364-.696l2.24-.687q1.201-.369 1.736-.564"/><path opacity=".9" fill="none" stroke-width="3.019" stroke-linecap="round" stroke-linejoin="round" d="M462.551 2087.372q.098-.303-2.18-13.845-2.277-13.541-3.499-29.145.23-.068.492.339.261.407.609.921"/><path opacity=".9" fill="none" stroke-width="1.851" stroke-linecap="round" stroke-linejoin="round" d="M472.238 2077.622q.093-.018 2.177-.922 2.085-.904 3.711-2.487 1.626-1.582 2.126-2.917.5-1.334.472-2.015-.027-.681-.313-1.165t-.835-.706q-.549-.222-1.167-.257t-1.28.123q-.661.158-1.656.748-.996.59-2.234 2.401-1.238 1.812-1.626 4.656-.387 2.845-.203 4.386t.463 2.204q.279.664.927 1.493.648.828 2.47 1.173 1.823.345 3.175.187 1.351-.159 3.762-.852 2.41-.693 5.367-1.245 2.957-.552 4.571-.821"/><path opacity=".9" fill="none" stroke-width="2.156" stroke-linecap="round" stroke-linejoin="round" d="M502.832 2081.536q-.047-.15-1.044-4.95-.996-4.799-2.119-9.578-1.123-4.778-3.174-12.182-2.051-7.404-2.499-10.883-.448-3.479-.195-4.008"/><path opacity=".9" fill="none" stroke-width="3.361" stroke-linecap="round" stroke-linejoin="round" d="M506.41 2052.544q-.163.072-6.349.548-6.186.475-9.49 1.232-3.304.757-4.926 1.337"/><path opacity=".9" fill="none" stroke-width="1.666" stroke-linecap="round" stroke-linejoin="round" d="M517.692 2077.224l.163-.191q.25.025 2.648-1.184 2.398-1.208 3.898-2.471 1.5-1.261 2.382-2.529.882-1.267 1.079-2.132.197-.865.12-1.377-.078-.513-.633-.882-.555-.368-1.55-.548-.994-.18-1.925-.167-.932.013-2.842.742-1.911.729-3.449 2.074-1.539 1.346-2.45 3.17-.911 1.824-.964 3.393-.054 1.568.134 2.206.187.638.427 1.037.24.4.761.874.522.473 2.044.92 1.523.446 6.508.416 4.984-.03 6.711-.035"/><path opacity=".9" fill="none" stroke-width="2.594" stroke-linecap="round" stroke-linejoin="round" d="M553.52 2084.524l-.328-.969q-.484-1.247-2.51-4.708-2.025-3.46-3.298-6.36-1.273-2.9-1.737-5.484-.464-2.584-.324-4.725.14-2.14.927-3.69.786-1.549 1.68-2.339.895-.79 1.917-1.265 1.022-.474 4.063-1.116"/><path opacity=".9" fill="none" stroke-width="2.241" stroke-linecap="round" stroke-linejoin="round" d="M574.348 2084.653l.826-.468q.943-.602 2.772-2.86 1.828-2.256 2.639-4.342.81-2.086.922-5.372.112-3.286-.578-5.868-.689-2.583-1.311-4.26-.622-1.678-3.606-5.754-2.985-4.075-4.383-5.646"/><path opacity=".9" fill="none" stroke-width="1.847" stroke-linecap="round" stroke-linejoin="round" d="M815.527 1960.258l.104-.105q1.403-.646 1.783-.854.381-.209 1.739-1.315 1.358-1.106 2.731-2.787 1.374-1.681 1.879-3.95.506-2.27.416-2.922-.09-.652-.467-1.639-.377-.986-1.442-1.532t-2.891-.3q-1.826.245-3.913 2.436-2.086 2.19-3.213 5.943-1.126 3.753-1 5.906.127 2.154.421 2.959.295.804.93 1.536.634.731 1.67 1.234 1.037.503 1.106.499.069-.004 2.282.297t6.793-1.326q4.58-1.627 6.209-2.406"/><path opacity=".9" fill="none" stroke-width="1.735" stroke-linecap="round" stroke-linejoin="round" d="M847.865 1952.211q-2.847 1.023-3.945 1.88-1.098.857-1.588 1.62-.491.764-.645 1.434-.155.671-.081 1.252.073.581 1.406 1.036 1.332.455 3.411.15 2.078-.305 4.138-1.625t3.533-3.23q1.472-1.91 1.34-5.232-.916-1.2-4.668-.212-3.753.988-4.495 1.337"/><path opacity=".9" fill="none" stroke-width="1.791" stroke-linecap="round" stroke-linejoin="round" d="M854.956 1961.383l.021-1.513q.12-.821-.868-30.528l-.185-1.343"/><path opacity=".9" fill="none" stroke-width="1.617" stroke-linecap="round" stroke-linejoin="round" d="M868.18 1959.779q-.211-1.046-.844-6.904-.633-5.859-.826-7.67"/><circle opacity=".9" stroke-width=".1" cx="865.947" cy="1941.069" r=".76"/><path opacity=".9" fill="none" stroke-width="1.919" stroke-linecap="round" stroke-linejoin="round" d="M882.041 1958.668l-.164-2.4q-.222-1.036-1.081-12.201-.86-11.165-4.226-23.599-.183-.223-.831-.67"/><path opacity=".9" fill="none" stroke-width="2.124" stroke-linecap="round" stroke-linejoin="round" d="M886.825 1929.758q-.869-.275-8.22 1.147-7.351 1.421-8.043 1.638"/><path opacity=".9" fill="none" stroke-width="2.348" stroke-linecap="round" stroke-linejoin="round" d="M909.352 1957.627q.243.075.334.135.092.061.106.067.014.006-1.34-3.42-1.355-3.426-2.136-7.036-.78-3.61-.753-6.303.027-2.694.571-4.461.544-1.767 1.521-2.91.977-1.144 1.986-1.436 1.01-.292 3.932 1.955"/><path opacity=".9" fill="none" stroke-width="2.249" stroke-linecap="round" stroke-linejoin="round" d="M931.58 1958.992q.203-.157 1.414-2.334 1.211-2.177 2.235-5.756 1.024-3.578 1.244-5.992.219-2.414.06-5.698-.16-3.284-1.132-5.997-.971-2.714-4.282-5.79-3.311-3.077-5.11-4.448"/><path opacity=".9" fill="none" stroke-width="1.956" stroke-linecap="round" stroke-linejoin="round" d="M815.452 2013.872q.043-.063-.148-3.442-.046-.043-.166.094-.12.137-.198.493-.079.357-.117.707-.038.351.021 2.066.059 1.715.374 3.114.314 1.398 1.493 3.057 1.178 1.66 2.415 2.221 1.237.561 2.425.623 1.189.062 3.457-2.031 2.269-2.093 3.324-3.921 1.055-1.828 2.107-4.761 1.053-2.933 1.569-5.318.038-.034.27 1.983t.937 5.019q.705 3.002 2.062 4.682 1.358 1.68 2.234 2.659"/><path opacity=".9" fill="none" stroke-width="1.817" stroke-linecap="round" stroke-linejoin="round" d="M846.833 2008.216q-.454-.805-1.038-1.32-.928.166.534 12.132.24-.159 1.1-2.577.859-2.419 1.511-3.819.651-1.4 1.236-2.158.584-.759 1.156-.958.572-.2.879-.125.307.075.316.102.009.026.44.359.431.332 1.09 1.246.66.913 1.523 2.316.863 1.404 1.542 2.059.678.655 1.529.889.85.233 1.65.534"/><path opacity=".9" fill="none" stroke-width="1.913" stroke-linecap="round" stroke-linejoin="round" d="M868.573 2003.996q-.324.581-1.355 25.577-.043-.318.083-3.272.126-2.953.306-8.69.18-5.736.611-8.561.431-2.824.918-3.798.487-.973.825-1.364.338-.39 1.134-.442.795-.051 1.46.407.664.459 1.028.804.364.346.596.73.232.384.376.996.145.612.102 1.018-.042.405-.493 1.453-.452 1.049-.894 1.692t-1.346 1.651q-.903 1.008-2.319 2.702"/><path opacity=".9" fill="none" stroke-width="1.911" stroke-linecap="round" stroke-linejoin="round" d="M887.856 2003.911q.39-.008.018-.5-.292.566-.137 2.203.155 1.637.605 2.981.45 1.344 1.089 2.101.639.756 1.94 1.317 1.301.561 2.432.352 1.13-.209 2.536-1.245 1.405-1.036 3.19-3.728 1.784-2.691 2.992-4.556.198.249.55 1.648.351 1.399 1.106 3.134.755 1.736 1.514 2.859t2.874 2.593"/><path opacity=".9" fill="none" stroke-width="1.885" stroke-linecap="round" stroke-linejoin="round" d="M919.95 2002.082q-.018.086-.53 1.195t-.592 4.186q-.08 3.077.894 3.777.974.7 2.724 1.07 1.749.369 3.84-.221 2.091-.589 3.411-1.611 1.321-1.022 2.123-2.982.802-1.959.734-3.155-.067-1.195-.701-2.209-.634-1.013-2.77-1.724-2.135-.712-4.025-.485-1.89.227-3.588.57"/><path opacity=".9" fill="none" stroke-width="2.027" stroke-linecap="round" stroke-linejoin="round" d="M918.675 2007.808l.265-1.779q-.041-.121.672-10.207.712-10.086.719-14.329.007-4.243-.248-3.63-.254.612-.526 1.19"/><path opacity=".9" fill="none" stroke-width="2.255" stroke-linecap="round" stroke-linejoin="round" d="M942.966 2011.564l.026-.159q.228-.47.35-5.609.121-5.14-.525-12.328-.647-7.189-1.336-11.617-.69-4.429-1.047-6.295-.357-1.866-.49-2.316-.133-.449-.139-.028-.006.421.066.903"/><path opacity=".9" fill="none" stroke-width="1.737" stroke-linecap="round" stroke-linejoin="round" d="M955.552 2012.591q.021-3.432-.044-6.677-.065-3.244-.181-5.351"/><path opacity=".9" fill="none" stroke-width="1.521" stroke-linecap="round" stroke-linejoin="round" d="M953.639 1992.924l.431-.552q.437-.057 1.257.144"/><path opacity=".9" fill="none" stroke-width="1.562" stroke-linecap="round" stroke-linejoin="round" d="M976.505 1992.924q-.168.012-1.091-.513-.923-.525-3.493-.678-2.57-.153-4.063.307-1.492.46-2.108 1.031-.617.572-.703 1.788-.087 1.217.204 1.84.292.624.561 1.03.269.406.901 1.113.633.707 1.851 1.84t2.335 2.861q1.116 1.727 1.249 3.115.133 1.388-.309 2.341-.443.953-.809 1.249-.366.296-.68.523-.313.226-.328.284-.014.059-1.302.487l-.581.022"/><path opacity=".9" fill="none" stroke-width="1.795" stroke-linecap="round" stroke-linejoin="round" d="M981.925 1969.5q-.038-.321-.769-2.299l-.181-.012q-.163-.347-.557 5.939t2.098 30.761q.167.187.837-1.947.67-2.134 1.552-3.902.882-1.768 1.559-2.318.677-.55 1.003-.578.325-.028.636.024.31.052.652.259.341.206.701.541.359.335 1.08 1.491.72 1.156 1.482 2.965t1.244 2.916q.481 1.107 1.553 2.004l1.197.635"/><path opacity=".9" fill="none" stroke-width="1.688" stroke-linecap="round" stroke-linejoin="round" d="M1018.803 2013.224q.191-.095 1.569 1.653-.292-.024-1.502-7.387-1.21-7.363-1.663-12.65-.452-5.287-.198-7.31.253-2.024.968-3.016t2.739-2.507"/><path opacity=".9" fill="none" stroke-width="1.598" stroke-linecap="round" stroke-linejoin="round" d="M1035.685 2011.564q.018-.001 1.122.565.613.122 2.334-1.605 1.721-1.727 2.941-5.522 1.22-3.796 1.509-8.917.289-5.12-.719-10.31-1.008-5.191-2.848-8.138-1.84-2.947-3.139-4.633"/><path opacity=".9" fill="none" stroke-width="1.924" stroke-linecap="round" stroke-linejoin="round" d="M820.46 2083.087q-.099-.278-.431-.961-.212.005-.547.135-.334.13-.608 1.255-.274 1.125-.053 2.023.221.898.44 1.254.22.357 1.152.624.932.266 2.29-.135 1.359-.401 2.255-.902.895-.502 3.295-2.512 2.401-2.011 3.831-4.169 1.43-2.157 1.768-3.786.337-1.628.209-2.643-.128-1.014-.535-1.673-.407-.658-2.286-1.111-1.878-.452-4.352.519-2.473.97-3.633 1.573"/><path opacity=".9" fill="none" stroke-width="1.704" stroke-linecap="round" stroke-linejoin="round" d="M834.716 2075.518q.495-1.758.418-2.004.263-1.109-.588-32.755l.414-.678"/><path opacity=".9" fill="none" stroke-width="1.613" stroke-linecap="round" stroke-linejoin="round" d="M845.483 2077.038l.357-.033q1.365-.714 1.551-.808.186-.095 2.316-1.737 2.129-1.643 3.47-3.411 1.34-1.768 1.118-4.778-.645-.369-2.296-.28-1.65.088-4.912 2.29-3.262 2.203-4.911 4.571-1.65 2.368-2.058 4.132-.409 1.764-.23 2.717.18.953.45 1.463.27.511 2.484 1.35 2.213.839 8.118-1.739 5.905-2.578 6.96-3.189"/><path opacity=".9" fill="none" stroke-width="2.136" stroke-linecap="round" stroke-linejoin="round" d="M869.286 2079.978q-.069-.25-.553.245-.211-.261-4.128-48.084-.067.042.143 2.063.211 2.021.487 3.881"/><path opacity=".9" fill="none" stroke-width="1.678" stroke-linecap="round" stroke-linejoin="round" d="M879.247 2069.947l.31.241.608.39q1.196-.128 1.245-.188.869-.382 2.835-1.646 1.967-1.265 2.844-2.661.877-1.397.963-2.698.086-1.3-.528-1.632-.614-.331-1.51-.347-.896-.015-2.516.876-1.62.89-3.598 3.282-1.978 2.393-2.731 5.336-.753 2.944-.637 4.248.116 1.305.539 2.202.422.897 1.542 1.363 1.121.465 1.994.44.873-.026 1.816-.219.943-.192 2.204-.62 1.261-.428 9.907-3.837"/><path opacity=".9" fill="none" stroke-width="2.018" stroke-linecap="round" stroke-linejoin="round" d="M908.321 2075.673q.158-.144.188-.246-.175-.812-.779-9.149-.604-8.337-.995-13.507-.392-5.169-1.259-10.584-.868-5.416-2.463-12.838-.048.046-.024.261.024.215.08.426"/><path opacity=".9" fill="none" stroke-width="2.445" stroke-linecap="round" stroke-linejoin="round" d="M911.66 2049.957l-.313-.109q-.689-.148-5.481 1.298-4.792 1.445-7.428 2.081-2.636.636-4.373 1.105"/><path opacity=".9" fill="none" stroke-width="1.53" stroke-linecap="round" stroke-linejoin="round" d="M917.399 2066.993q.564.155 4.071-1.405 3.507-1.56 5.035-2.907t2.001-2.014q.472-.668.659-1.115.186-.447.166-1.193-.019-.745-.421-.956-.403-.211-1.234-.3-.832-.088-1.363.029-.531.118-2.49 1.306-1.96 1.189-3.382 3.742-1.422 2.554-1.602 4.008-.18 1.453.13 3.113.309 1.659 6.153 2.024 5.844.364 7.171.212"/><path opacity=".9" fill="none" stroke-width="2.025" stroke-linecap="round" stroke-linejoin="round" d="M961.686 2077.347q-.689-.474-.73-.531-.042-.057-2.512-4.285-2.471-4.228-3.605-9.3-1.134-5.071-.994-8.281.14-3.21 1.018-5.197.877-1.988 1.815-3.001t2.058-1.113q1.121-.099 2.631-.142"/><path opacity=".9" fill="none" stroke-width="2.428" stroke-linecap="round" stroke-linejoin="round" d="M983.595 2074.956l.834-.608q1.359-1.191 3.358-7.278 1.998-6.088 2.071-11.431.072-5.344-1.214-10.154t-3.133-7.993q-1.847-3.183-2.704-4.502"/><path opacity=".9" fill="none" stroke-width="3.424" stroke-linecap="round" stroke-linejoin="round" d="M1224.232 1938.159l-.12-.248q.03-.932-4.804-18.054l-.346-1.04"/><path opacity=".9" fill="none" stroke-width="2.447" stroke-linecap="round" stroke-linejoin="round" d="M1223.794 1924.7q.204-.064 4.171-1.057 3.966-.993 6.331-1.605 2.364-.612 3.4-.91"/><path opacity=".9" fill="none" stroke-width="1.862" stroke-linecap="round" stroke-linejoin="round" d="M1253.016 1922.612q-.176.143-.651.994.322.09 1.485-1.106 1.163-1.196 1.662-1.899.499-.704.752-1.691.254-.986.118-1.409-.137-.422-.757-.643-.619-.222-1.148-.155-.529.067-1.62.766-1.091.699-2.199 3.259-1.107 2.559-1.305 4.469-.197 1.909.23 4.056.426 2.147 1.376 3.451.95 1.305 1.626 1.708.675.403 1.342.547.666.144 1.089.345.422.2 5.244-1.606 4.823-1.807 6.43-2.682"/><path opacity=".9" fill="none" stroke-width="2.635" stroke-linecap="round" stroke-linejoin="round" d="M1286.019 1918.672q-.14-.396-.52-.984t-1.864-1.242q-1.484-.655-3.109-.629-1.624.027-2.832.55-1.207.523-2.121 1.585-.914 1.062-1.042 1.956-.127.893.274 1.554t3.552 2.752q3.151 2.09 5.802 3.786 2.652 1.695 3.639 2.808.987 1.113 1.176 1.837.189.724-.229 1.405-.418.681-4.333 1.66-3.915.979-5.449 1.11"/><path opacity=".9" fill="none" stroke-width="2.419" stroke-linecap="round" stroke-linejoin="round" d="M1307.432 1937.109q.116-.989-2.792-12.437-2.908-11.448-4.766-17.839-1.859-6.39-3.209-9.894-1.35-3.504-2.467-5.383-.098-.076-.668.578"/><path opacity=".9" fill="none" stroke-width="3.991" stroke-linecap="round" stroke-linejoin="round" d="M1309.585 1909.533q-.426-.515-.623-.82-.197-.306-.415-.496-.219-.19-.77-.546-.55-.356-1.928-.885-1.379-.529-5.572-1.114-4.194-.585-7.123-.16-2.93.425-4.894.896"/><path opacity=".9" fill="none" stroke-width="2.134" stroke-linecap="round" stroke-linejoin="round" d="M1327.584 1928.114q-.795-.22-2.52-.152-1.725.069-2.401.251-.676.183-1.381.617-.704.434-1.214 1.772-.511 1.337-.471 2.257.039.919.771 1.735.732.814 2.361 1.108 1.63.293 4.35-.489 2.721-.782 4.281-1.956 1.561-1.174 2.287-2.332t.904-1.99q.178-.832.122-1.329-.055-.498-.046-.645.008-.147-.362-.911t-2.054-1.448q-1.684-.684-2.989-.616-1.305.067-2.829.267"/><path opacity=".9" fill="none" stroke-width="2.305" stroke-linecap="round" stroke-linejoin="round" d="M1351.308 1934.876l.299-.51q.082-1.224-1.601-6.008-1.684-4.784-3.527-7.169-1.844-2.384-3.05-3.711"/><path opacity=".9" fill="none" stroke-width="2.264" stroke-linecap="round" stroke-linejoin="round" d="M1341.853 1925.067q.16.047 5.982-.602 5.822-.65 9.616-.743 3.795-.093 5.073.162 1.279.255 2.983.658"/><path opacity=".9" fill="none" stroke-width="1.859" stroke-linecap="round" stroke-linejoin="round" d="M1375.609 1928.337l3.17-.865q.875-.364 2.919-1.828t2.87-2.876q.825-1.411.796-2.527-.03-1.115-.386-1.511-.356-.395-1.271-.601-.915-.206-2.063.048-1.148.254-2.857 2.599-1.71 2.344-1.999 4.463-.288 2.118-.08 3.211.207 1.092.633 1.861.427.767.642.953.216.186.871.874.654.688 8.343.94 7.689.251 9.458.091"/><path opacity=".9" fill="none" stroke-width="2.712" stroke-linecap="round" stroke-linejoin="round" d="M1428.1 1940.379l-.01-.239q-.105-.068-2.609-3.178-2.504-3.111-4.662-6.815t-3.239-7.28q-1.081-3.576-1.091-6.375-.011-2.799.466-4.524.476-1.725 1.932-3.413 1.456-1.688 3.685-2.53 2.229-.843 4.597-.956 2.367-.113 3.382-.079"/><path opacity=".9" fill="none" stroke-width="2.956" stroke-linecap="round" stroke-linejoin="round" d="M1449.512 1943.28q.039-.211 2.098-3.395 2.059-3.184 3.419-6.343 1.359-3.158 1.805-8.217.445-5.059.233-7.423-.212-2.363-1.122-5.567-.91-3.205-2.81-6.108-1.899-2.904-7.79-6.214"/></g></svg>
