<svg xmlns="http://www.w3.org/2000/svg" viewBox="-543.222 -121.41 873.158 491.212"><g fill="none" stroke="#000" stroke-linecap="round" stroke-linejoin="round"><path opacity=".9" stroke-width="2.058" d="M-309.39-17.834q-.339-3.494-.505-5.486"/><path opacity=".9" stroke-width="1.96" d="M-308.152-47.308q-.003-2.084-.039-3.943"/><path opacity=".9" stroke-width="2.085" d="M-481.939-48.47l.431 1.331q.458.103 1.731-5.291 1.272-5.394 1.43-9.804.157-4.411-.496-6.572-.653-2.16-1.311-3.066-.657-.907-1.545-1.531-.889-.624-2.837-.932-1.949-.307-4.582.941-2.633 1.249-6.036 5.229-3.402 3.979-5.56 9.51-2.158 5.531-3.818 14.507-1.659 8.976-2.073 15.152-.414 6.176.025 10.302.44 4.126.967 5.735.528 1.609 1.222 2.808.694 1.199 1.349 1.867.656.668 1.097.906.44.238 1.225.496.786.258 2.886.001 2.101-.258 5.154-.608 3.053-.351 4.101-.571"/><path opacity=".9" stroke-width="1.474" d="M-470.5-6.076q-.04-.19.748-10.138.789-9.947.699-20.659-.091-10.711-.232-15.88-.14-5.168.039-8.079.178-2.912.38-3.965.201-1.053.4-2.029"/><path opacity=".9" stroke-width="1.832" d="M-452.832-4.52q.081-4.741-1.487-18.496"/><path opacity=".9" stroke-width="1.921" d="M-454.707-39.69l.039.057q.065.242-.124.748t-.46 1.241"/><path opacity=".9" stroke-width="2.195" d="M-442.288-22.919q.479.736 1.801 1.699 1.322.962 1.993 1.192.672.231 1.361.323.689.093 1.25-.056.561-.148 1.198-.521.637-.373 1.077-.726.439-.353.662-.576.222-.223 1.454-1.646 1.231-1.424 2.081-3.432.849-2.009.895-3.212.045-1.203-.025-1.621-.071-.419-.568-.92-.496-.501-2.081-.735-1.584-.235-2.617.091-1.033.327-2.71 1.864-1.677 1.537-3.307 4.434-1.629 2.898-2.753 5.538t-1.315 4.222q-.191 1.581-.127 2.46.064.878.5 1.868.436.99 1.666 1.884 1.23.893 3.451 1.401 2.222.507 5.487-.399 3.264-.906 4.296-1.329"/><path opacity=".9" stroke-width="1.578" d="M-416.081-30.544q-.056.077-.501 4.066-.444 3.99-.158 7.723.287 3.732 1.841 7.46.175-.201.774-2.639.598-2.437 1.07-4.218.471-1.781 1.481-3.831 1.01-2.051 2.123-3.226 1.113-1.174 1.531-1.416.418-.242 1.119-.511.701-.268 1.842-.368 1.142-.1 1.692.028.549.128 1.094.589.545.462 1.605 2.055 1.06 1.594 3.417 9.874l.209.446"/><path opacity=".9" stroke-width="1.663" d="M-381.148-11.895q.083-.153.058-.235-.025-.082.051-6.477.075-6.394-.288-12.015-.362-5.622-.665-8.232-.303-2.61-.905-8.922-.602-6.312-2.301-11.69-.281-.257-.633-.662"/><path opacity=".9" stroke-width="2.212" d="M-369.149-48.65q-1.201-.163-2.08-.222-.878-.06-6.719-.162-5.84-.102-9.284-.17-3.443-.068-5.179.047-1.736.115-4.534.142l-.882-.33"/><path opacity=".9" stroke-width="3.062" d="M-301.096-23.926q-.287.18-1.997.627-1.709.446-3.425.404-1.717-.042-2.52-.291-.804-.249-1.006-.345-.202-.096-.811-.56-.609-.465-1.526-1.573-.917-1.109-1.456-2.158-.539-1.05-.801-1.788t-.594-2.925q-.333-2.186-.271-3.384.061-1.198.505-2.935.444-1.736.92-2.743.475-1.007.792-1.509.316-.501.802-1.121.487-.619 1.405-1.477.917-.858 2.195-1.606 1.278-.748 2.21-1.018.932-.27 1.74-.338.808-.068 1.885.073 1.077.141 1.659.35.582.209 1.086.497.505.288 1.065.775.559.487 1.7 2.293 1.14 1.806 1.598 3.306.458 1.5.631 3.092t-.418 4.862q-.592 3.27-1.428 4.596-.835 1.326-1.64 2.271-.804.946-2.507 2.705"/><path opacity=".9" stroke-width="1.866" d="M-294.806-34.799q1.752.078 6.585.394t8.628.589q3.795.273 8.062.546 4.268.273 5.872.388 1.604.114 3.402.255 1.798.14 4.276.343 2.478.203 4.873.419 2.395.217 4.726.448l4.369.431q2.038.201 4.675.456 2.638.256 4.915.443t4.252.355q1.974.169 4.406.382l4.49.393 4.59.405q2.531.225 4.342.399 1.81.174 4.242.431 2.432.258 4.371.447 1.939.189 4.195.397 2.256.207 4.243.392 1.986.184 4.562.428 2.576.244 4.604.419 2.029.175 4.135.316 2.106.142 6.8.501l6.553.612"/><path opacity=".9" stroke-width="2.145" d="M-168.803-22.355q-.066.089-1.984 1.578-1.919 1.488-4.408 3.255-2.49 1.767-3.001 2.139-.51.372-6.087 5.083"/><path opacity=".9" stroke-width="2.214" d="M-168.833-24.636q-2.985-3.688-4.812-5.743-1.827-2.055-2.249-2.515-.422-.461-5.512-6.962"/><path opacity=".9" stroke-width="1.925" d="M82.235-60.56q-.194-.306-.524-.122-.142-.101-1.679-3.136-1.538-3.035-2.319-4.981-.782-1.946-1.525-3.031-.744-1.084-2.373-1.916-1.63-.833-3.164-.591-1.535.243-3.234 1.549-1.699 1.305-2.278 3.517-.58 2.212-.173 5.853.408 3.641 1.189 6.084.781 2.444 2.041 4.132 1.259 1.689 4.292 3.928t4.796 4.112q1.764 1.873 3.224 4.098 1.46 2.225 2.189 3.831.729 1.606.865 3.144.137 1.537-.031 2.167-.168.63-1.035 2.028-.632.464-2.763 1.075-2.131.61-5.156.907-3.024.297-6.504-.991-3.48-1.287-8.409-4.126"/><path opacity=".9" stroke-width="1.453" d="M93.75-37.678q.518-.303 2.234-1.082 1.717-.778 3.785-1.944t2.685-1.595q.618-.43 1.282-1.023.663-.593 1.152-.964.49-.37 1.32-1.88.83-1.509.795-2.662-.036-1.153-1.185-1.79t-3.742.052q-2.592.688-4.009 1.657-1.418.969-2.573 1.983-1.156 1.013-2.398 2.88-1.242 1.866-1.844 5.131-.602 3.266.133 4.847.735 1.58 1.44 2.266.705.687 1.188.995.482.308 1.669.786 1.186.478 3.56.758 2.375.28 6.176-1.006 3.801-1.285 4.447-1.512"/><path opacity=".9" stroke-width="1.402" d="M116.436-27.043q.089-.289.584-7.028t-1.629-14.893l-1.158-1.325"/><path opacity=".9" stroke-width="2.094" d="M115.542-44.471l1.63-.095q.892.11 4.766-.574 3.874-.684 6.04-.784 2.165-.101 3.644.798t2.709 1.77"/><path opacity=".9" stroke-width="1.517" d="M139.086-46.295l.005.409"/><path opacity=".9" stroke-width="1.807" d="M139.093-45.68q.046 4.296.363 6.068.317 1.771.957 3.976.64 2.205 2.376 5.934 1.735 3.73 2.923 5.407 1.189 1.677 4.394 3.058.255-.08 1.373-3.001 1.118-2.922 2.54-7.26 1.422-4.338 2.844-6.692 1.422-2.355 2.203-3.405.78-1.05 2.808-2.218l1.713-.31"/><path opacity=".9" stroke-width="1.424" d="M169.598-30.681q-.128.243-.393.403-.265.16-.463.12-.197-.039 2.342-1.795t4.321-3.31q1.782-1.555 2.566-2.716.783-1.162 1.113-2.39.33-1.228.302-2.183-.027-.954-.256-1.413-.228-.459-1.068-.809-.841-.35-1.632-.356-.791-.007-1.688.329-.896.336-2.97 1.97-2.074 1.633-4.145 5.69-2.07 4.058-2.305 6.391-.234 2.333.247 4.375t1.935 3.028q1.454.986 6.81 1.25t10.038-.285q4.683-.549 5.754-.623"/><path opacity=".9" stroke-width="1.518" d="M204.594-20.578l-.084-.06q.102-.122-.73-6.099-.831-5.977-1.848-9.625-1.017-3.648-1.788-4.957-.772-1.31-1.804-1.778l-1.522.675"/><path opacity=".9" stroke-width="1.502" d="M202.698-36.31q.377-.017 5.274-.639 4.897-.621 7.496-.554 2.599.067 4.42.554 1.821.488 4.127 2.181"/><path opacity=".9" stroke-width="2.058" d="M-309.39-17.834q-.339-3.494-.505-5.486"/><path opacity=".9" stroke-width="1.96" d="M-308.152-47.308q-.003-2.084-.039-3.943"/><path opacity=".9" stroke-width="2.085" d="M-481.939-48.47l.431 1.331q.458.103 1.731-5.291 1.272-5.394 1.43-9.804.157-4.411-.496-6.572-.653-2.16-1.311-3.066-.657-.907-1.545-1.531-.889-.624-2.837-.932-1.949-.307-4.582.941-2.633 1.249-6.036 5.229-3.402 3.979-5.56 9.51-2.158 5.531-3.818 14.507-1.659 8.976-2.073 15.152-.414 6.176.025 10.302.44 4.126.967 5.735.528 1.609 1.222 2.808.694 1.199 1.349 1.867.656.668 1.097.906.44.238 1.225.496.786.258 2.886.001 2.101-.258 5.154-.608 3.053-.351 4.101-.571"/><path opacity=".9" stroke-width="1.474" d="M-470.5-6.076q-.04-.19.748-10.138.789-9.947.699-20.659-.091-10.711-.232-15.88-.14-5.168.039-8.079.178-2.912.38-3.965.201-1.053.4-2.029"/><path opacity=".9" stroke-width="1.832" d="M-452.832-4.52q.081-4.741-1.487-18.496"/><path opacity=".9" stroke-width="1.921" d="M-454.707-39.69l.039.057q.065.242-.124.748t-.46 1.241"/><path opacity=".9" stroke-width="2.195" d="M-442.288-22.919q.479.736 1.801 1.699 1.322.962 1.993 1.192.672.231 1.361.323.689.093 1.25-.056.561-.148 1.198-.521.637-.373 1.077-.726.439-.353.662-.576.222-.223 1.454-1.646 1.231-1.424 2.081-3.432.849-2.009.895-3.212.045-1.203-.025-1.621-.071-.419-.568-.92-.496-.501-2.081-.735-1.584-.235-2.617.091-1.033.327-2.71 1.864-1.677 1.537-3.307 4.434-1.629 2.898-2.753 5.538t-1.315 4.222q-.191 1.581-.127 2.46.064.878.5 1.868.436.99 1.666 1.884 1.23.893 3.451 1.401 2.222.507 5.487-.399 3.264-.906 4.296-1.329"/><path opacity=".9" stroke-width="1.578" d="M-416.081-30.544q-.056.077-.501 4.066-.444 3.99-.158 7.723.287 3.732 1.841 7.46.175-.201.774-2.639.598-2.437 1.07-4.218.471-1.781 1.481-3.831 1.01-2.051 2.123-3.226 1.113-1.174 1.531-1.416.418-.242 1.119-.511.701-.268 1.842-.368 1.142-.1 1.692.028.549.128 1.094.589.545.462 1.605 2.055 1.06 1.594 3.417 9.874l.209.446"/><path opacity=".9" stroke-width="1.663" d="M-381.148-11.895q.083-.153.058-.235-.025-.082.051-6.477.075-6.394-.288-12.015-.362-5.622-.665-8.232-.303-2.61-.905-8.922-.602-6.312-2.301-11.69-.281-.257-.633-.662"/><path opacity=".9" stroke-width="2.212" d="M-369.149-48.65q-1.201-.163-2.08-.222-.878-.06-6.719-.162-5.84-.102-9.284-.17-3.443-.068-5.179.047-1.736.115-4.534.142l-.882-.33"/><path opacity=".9" stroke-width="3.062" d="M-301.096-23.926q-.287.18-1.997.627-1.709.446-3.425.404-1.717-.042-2.52-.291-.804-.249-1.006-.345-.202-.096-.811-.56-.609-.465-1.526-1.573-.917-1.109-1.456-2.158-.539-1.05-.801-1.788t-.594-2.925q-.333-2.186-.271-3.384.061-1.198.505-2.935.444-1.736.92-2.743.475-1.007.792-1.509.316-.501.802-1.121.487-.619 1.405-1.477.917-.858 2.195-1.606 1.278-.748 2.21-1.018.932-.27 1.74-.338.808-.068 1.885.073 1.077.141 1.659.35.582.209 1.086.497.505.288 1.065.775.559.487 1.7 2.293 1.14 1.806 1.598 3.306.458 1.5.631 3.092t-.418 4.862q-.592 3.27-1.428 4.596-.835 1.326-1.64 2.271-.804.946-2.507 2.705"/><path opacity=".9" stroke-width="1.866" d="M-294.806-34.799q1.752.078 6.585.394t8.628.589q3.795.273 8.062.546 4.268.273 5.872.388 1.604.114 3.402.255 1.798.14 4.276.343 2.478.203 4.873.419 2.395.217 4.726.448l4.369.431q2.038.201 4.675.456 2.638.256 4.915.443t4.252.355q1.974.169 4.406.382l4.49.393 4.59.405q2.531.225 4.342.399 1.81.174 4.242.431 2.432.258 4.371.447 1.939.189 4.195.397 2.256.207 4.243.392 1.986.184 4.562.428 2.576.244 4.604.419 2.029.175 4.135.316 2.106.142 6.8.501l6.553.612"/><path opacity=".9" stroke-width="2.145" d="M-168.803-22.355q-.066.089-1.984 1.578-1.919 1.488-4.408 3.255-2.49 1.767-3.001 2.139-.51.372-6.087 5.083"/><path opacity=".9" stroke-width="2.214" d="M-168.833-24.636q-2.985-3.688-4.812-5.743-1.827-2.055-2.249-2.515-.422-.461-5.512-6.962"/><path opacity=".9" stroke-width="1.925" d="M82.235-60.56q-.194-.306-.524-.122-.142-.101-1.679-3.136-1.538-3.035-2.319-4.981-.782-1.946-1.525-3.031-.744-1.084-2.373-1.916-1.63-.833-3.164-.591-1.535.243-3.234 1.549-1.699 1.305-2.278 3.517-.58 2.212-.173 5.853.408 3.641 1.189 6.084.781 2.444 2.041 4.132 1.259 1.689 4.292 3.928t4.796 4.112q1.764 1.873 3.224 4.098 1.46 2.225 2.189 3.831.729 1.606.865 3.144.137 1.537-.031 2.167-.168.63-1.035 2.028-.632.464-2.763 1.075-2.131.61-5.156.907-3.024.297-6.504-.991-3.48-1.287-8.409-4.126"/><path opacity=".9" stroke-width="1.453" d="M93.75-37.678q.518-.303 2.234-1.082 1.717-.778 3.785-1.944t2.685-1.595q.618-.43 1.282-1.023.663-.593 1.152-.964.49-.37 1.32-1.88.83-1.509.795-2.662-.036-1.153-1.185-1.79t-3.742.052q-2.592.688-4.009 1.657-1.418.969-2.573 1.983-1.156 1.013-2.398 2.88-1.242 1.866-1.844 5.131-.602 3.266.133 4.847.735 1.58 1.44 2.266.705.687 1.188.995.482.308 1.669.786 1.186.478 3.56.758 2.375.28 6.176-1.006 3.801-1.285 4.447-1.512"/><path opacity=".9" stroke-width="1.402" d="M116.436-27.043q.089-.289.584-7.028t-1.629-14.893l-1.158-1.325"/><path opacity=".9" stroke-width="2.094" d="M115.542-44.471l1.63-.095q.892.11 4.766-.574 3.874-.684 6.04-.784 2.165-.101 3.644.798t2.709 1.77"/><path opacity=".9" stroke-width="1.517" d="M139.086-46.295l.005.409"/><path opacity=".9" stroke-width="1.807" d="M139.093-45.68q.046 4.296.363 6.068.317 1.771.957 3.976.64 2.205 2.376 5.934 1.735 3.73 2.923 5.407 1.189 1.677 4.394 3.058.255-.08 1.373-3.001 1.118-2.922 2.54-7.26 1.422-4.338 2.844-6.692 1.422-2.355 2.203-3.405.78-1.05 2.808-2.218l1.713-.31"/><path opacity=".9" stroke-width="1.424" d="M169.598-30.681q-.128.243-.393.403-.265.16-.463.12-.197-.039 2.342-1.795t4.321-3.31q1.782-1.555 2.566-2.716.783-1.162 1.113-2.39.33-1.228.302-2.183-.027-.954-.256-1.413-.228-.459-1.068-.809-.841-.35-1.632-.356-.791-.007-1.688.329-.896.336-2.97 1.97-2.074 1.633-4.145 5.69-2.07 4.058-2.305 6.391-.234 2.333.247 4.375t1.935 3.028q1.454.986 6.81 1.25t10.038-.285q4.683-.549 5.754-.623"/><path opacity=".9" stroke-width="1.518" d="M204.594-20.578l-.084-.06q.102-.122-.73-6.099-.831-5.977-1.848-9.625-1.017-3.648-1.788-4.957-.772-1.31-1.804-1.778l-1.522.675"/><path opacity=".9" stroke-width="1.502" d="M202.698-36.31q.377-.017 5.274-.639 4.897-.621 7.496-.554 2.599.067 4.42.554 1.821.488 4.127 2.181"/><path opacity=".9" stroke-width="1.334" d="M-159.342-11.887q.464-1.36 3.612-11.441 3.148-10.082 5.287-16.488 2.139-6.405 3.651-10.359 1.513-3.954 2.569-6.497 1.056-2.543 3.311-8.537 2.254-5.995 3.537-10.089t2.898-8.186q1.615-4.092 2.7-5.507 1.085-1.415 2.036-1.696.267-.054 1.761 6.75 1.494 6.806 2.058 12.856.564 6.05.757 9.228.194 3.177.532 9.201.338 6.024.501 10.337.163 4.313.118 6.862-.046 2.549-.094 3.502-.049.954-.212 2.718-.164 1.765-.548 6.903l.021 1.82"/><path opacity=".9" stroke-width="2.03" d="M-127.125-38.454q-10.515-.354-16.684.026-6.169.38-8.698.632"/><path opacity=".9" stroke-width="1.451" d="M-115.575-35.025q-.579.506-1.369 1.509-.789 1.003-1.11 2.111-.32 1.107-.171 2.153.15 1.046.616 1.827.466.781 1.701 1.604 1.234.823 1.904 1.02.669.198 1.775.284 1.106.087 3.823-.689 2.717-.776 5.009-2.659 2.293-1.883 2.91-3.092t.563-2.391q-.054-1.182-.705-1.883-.651-.701-1.192-.943-.542-.241-3.077-.548-2.534-.306-5.449.223t-5.945 1.341"/><path opacity=".9" stroke-width="1.264" d="M-118.035-27.456q.397-1.626 2.331-14.344 1.935-12.718 2.889-20.35.953-7.633 1.347-10.403.394-2.769.868-5.75"/><path opacity=".9" stroke-width="1.727" d="M-77.404-43.003l-.212-.318-.606-.627q-.575-.483-2.365-.95-1.791-.466-3.086-.202-1.294.264-2.041.681-.747.417-1.617 1.089-.87.672-1.405 1.234-.535.562-1.233 1.597-.699 1.036-1.031 2.46-.333 1.424 2.187 3.259 2.519 1.835 4.418 2.658 1.898.823 2.721 1.534.824.712 1.189 1.591.364.879.103 1.98t-.701 1.868q-.44.767-1.716 1.795-1.277 1.027-2.247 1.375-.97.348-1.686.538-.716.191-2.654.124-1.938-.066-5.122-1.004"/><path opacity=".9" stroke-width="1.768" d="M-68.329-21.149q.084-1.097 1.935-14.545 1.852-13.448 3.748-45.093l.034-2.168"/><path opacity=".9" stroke-width="1.962" d="M-56.185-60.525q-2.328.017-4.928.116-2.599.099-6.667.311-4.069.212-5.978.437-1.91.225-7.082 1.4"/><path opacity=".9" stroke-width="1.341" d="M-54.741-23.552q-.016-.335.398-21.996l.015-2.591"/><path opacity=".9" stroke-width="1.306" d="M-53.877-36.985q1.337-3.581 3.449-6.319 2.112-2.739 4.192-.357 2.081 2.382 3.16 2.903 1.08.522 1.453.288"/><path opacity=".9" stroke-width="1.402" d="M-28.632-39.298q-2.01-1.156-3.241-1.628-1.23-.473-2.379-.074-1.15.4-1.783 3.2-.634 2.8-.133 4.134.501 1.334 1.064 2.044.562.711 1.447 1.308.885.597 1.459.81.575.214 2.234.256 1.658.043 4.33-1.339t3.58-2.74q.909-1.359 1.097-2.542.187-1.184-.188-2.243-.374-1.058-1.401-1.835-1.027-.777-1.74-.994-.713-.217-1.473-.188-.759.028-4.27.08"/><path opacity=".9" stroke-width="2.146" d="M-20.855-41.014q.188 4.433.376 5.914.187 1.481.423 2.451.236.969 2.61 8.008"/><path opacity=".9" stroke-width="1.417" d="M-3.43-34.074q.814-2.893.816-3.441.002-.547-.122-.976-.123-.428-1.221-1.028-1.098-.601-2.218-.558-1.119.042-1.89.307-.771.265-1.755.946-.984.681-1.951 2.661-.967 1.98-.856 3.411.111 1.431.444 2.13.333.698 3.149 1.933 2.815 1.234 6.643 1.697 3.827.462 5.295.486 1.467.023 4.374-.056"/><path opacity=".9" stroke-width="1.441" d="M13.254-23.878q.305-.583 1.418-12.568 1.114-11.984 1.188-20.358.075-8.375.085-11.893.01-3.519-.002-5.428-.012-1.909-.247-5.273"/><path opacity=".9" stroke-width="1.733" d="M30.225-61.195q-.781-.513-2.782-1.355-2.002-.842-9.331-1.455-7.33-.612-11.147-.308-3.816.303-7.138.688"/><path opacity=".9" stroke-width="2.33" d="M10.989 178.498l-.096-.963q-.072-2.668-.131-12.752-.058-10.084-1.166-22.777-1.108-12.693-1.788-19.744-.68-7.051-1.676-13.088-.995-6.038-2.117-15.098-1.123-9.061-1.632-14.534-.509-5.474-.584-7.758-.076-2.284-.076-4.635-.001-2.352.172-3.685.172-1.332.429-2.078"/><path opacity=".9" stroke-width="1.853" d="M-1.629 55.717q-2.657 5.655-4.258 8.982-1.601 3.327-2.41 5.019-.81 1.692-2.094 4.35-1.284 2.658-1.879 3.966-.595 1.309-.774 1.798-.178.49-.419 1.05"/><path opacity=".9" stroke-width="3.335" d="M-3.809 55.584l.337.033q1.158.564 1.236.899.69.932 3.853 4.868 3.163 3.937 5.246 6.068 2.084 2.132 4.494 4.683 2.41 2.552 3.167 3.308.756.757 1.27 1.178.514.421 1.125.918.611.497 1.06 2.116.45 1.62.646 2.978"/><path opacity=".9" stroke-width="2.13" d="M-162.541 175.826q36.99.286 47.921.402 10.931.116 21.484.26 10.552.144 24.483.375 13.93.23 27.638.541 13.709.311 24.223.617 10.515.305 22.18.707 11.666.401 28.403 1.106 16.737.704 26.696 1.197 9.958.491 20.51 1.06 10.552.568 20.48 1.157 9.927.59 23.298 1.441 13.372.852 29.887 1.971 16.515 1.119 24.826 1.716 8.312.597 13.635.973l17.809 1.261"/><path opacity=".9" stroke-width="1.753" d="M-160.981 248.925l-.085-3.061q.008-.047-.315-6.69-.322-6.643-.629-13.466-.307-6.824-.424-10.31-.117-3.485-1.235-30.341l-.084-3.305"/><path opacity=".9" stroke-width="1.535" d="M214.907 242.255q-.088-2.388-.478-8.27-.391-5.882-.572-8.974-.182-3.092-.31-6.155-.128-3.064-.525-9.023-.397-5.958-.584-8.849-.187-2.89-.327-5.535"/><path opacity=".9" stroke-width="1.578" d="M220.782 244.093l-3.793.12"/><path opacity=".9" stroke-width="2.396" d="M-212.605 301.319l.474.28.956.186q1.78-.544 1.767-.667.644-.837.676-.846.032-.01.247-1.166.214-1.155-.355-2.892-.57-1.737-.676-1.801-.106-.063-1.383-1.067t-4.016-1.42q-2.74-.416-4.55-.194-1.81.222-3.524 1.459t-2.629 4.282q-.914 3.045-.975 5.638-.061 2.592.058 4.165.119 1.574 3.366 5.046 3.248 3.472 5.617 6.095 2.37 2.624 3.23 4.731.86 2.107.941 2.748.081.642.043 1.109-.038.467-.091.74-.054.272-1.987 1.703-1.934 1.43-3.24 2.053-1.306.624-5.417 3.629l-.737.88"/><path opacity=".9" stroke-width="2.08" d="M-205.742 327.444q.017-.156.057-.275.04-.119 1.151-.395 1.11-.276 1.917-.57.808-.293 1.133-.469.324-.175 1.169-1.118.844-.942 1.239-3.277.396-2.334.157-3.354-.238-1.02-1.059-1.953-.821-.932-2.85-.828-2.029.103-3.302 1.55-1.274 1.446-1.981 4.436-.707 2.99-.636 4.925.071 1.936.35 2.88.279.944.34 1.065t1.195 1.165q1.134 1.045 3.21.87 2.076-.175 3.317-.735 1.24-.56 5.587-2.617"/><path opacity=".9" stroke-width="2.122" d="M-187.387 330.863q.064-.983-1.414-6.045t-3.178-7.113q-1.701-2.051-2.674-3.083"/><path opacity=".9" stroke-width="2.077" d="M-192.73 318.255q.21-.496 4.264-1.734 4.053-1.238 6.59-.734 2.536.505 3.251.758"/><path opacity=".9" stroke-width="1.971" d="M-175.206 314.426l-.037.156q-.166 1.464 1.639 6.928 1.805 5.465 5.934 8.626.703-.409 2.473-4.716 1.769-4.307 6.306-8.761l.829-.719"/><path opacity=".9" stroke-width="1.691" d="M-154.12 323.597l.141.389q.093.142 2.631-1.086t4.411-3.59q1.872-2.362 2.307-3.725.434-1.363.178-2.305-1.184-.516-4.214.742-3.03 1.258-4.586 3.655-1.556 2.397-1.746 4.007-.191 1.611.078 2.731.268 1.121.586 1.499.318.378.88.659.561.282 1.113.475.552.194 7.029-1.473t7.932-2.173"/><path opacity=".9" stroke-width="2.679" d="M-129.521 328.637q-.043-.218.133-1.802.175-1.583.221-5.313.047-3.73-.258-5.476-.304-1.745-.851-3.072-.548-1.327-1.435-1.844-.888-.516-1.941-.943"/><path opacity=".9" stroke-width="1.872" d="M-133.035 315.441q.887.312 8.979-1.188 8.091-1.499 9.566-1.733"/><path opacity=".9" stroke-width="1.626" d="M-96.942 329.652q-.15-.353-.562-.563-.223-.1 2.832-1.105 3.055-1.006 8.564-1.422l.513-.358q.468-.152 1.76-.38"/><path opacity=".9" stroke-width="1.567" d="M-89.795 326.429l.147-.183q.022-.03-1.01-16.669t-1.329-15.558q-.297 1.081-3.002 6.288-2.705 5.207-3.259 6.051"/><path opacity=".9" stroke-width="1.798" d="M134.573 285.896q.036-.154.478-1.041.441-.887.944-1.792.503-.905.747-1.508.243-.603.409-1.558.166-.955-1.195-3.375t-4.564-3.363q-3.202-.944-6.018-.324-2.815.62-5.168 3.039-2.353 2.418-3.223 5.822-.869 3.403-.843 5.848.026 2.444 5.377 9.987 5.352 7.543 8.516 11.501 3.164 3.958 4.254 5.779 1.089 1.82 1.146 3.059.057 1.238-.227 2.122-.283.885-2.841 2.658-2.558 1.774-4.335 2.44-1.778.666-2.771.92-.993.253-1.835.341-.843.088-1.528.035-.684-.053-2.164-.253"/><path opacity=".9" stroke-width="1.619" d="M143.739 314.123q.812-.024 3.751-1.05t4.449-2.81q1.511-1.783 1.471-3.821-.041-2.037-.878-2.751-.837-.713-2.524-1.094-1.687-.38-3.786.254-2.099.635-4.219 3.451-2.12 2.815-2.629 5.997-.509 3.183-.421 4.519.087 1.336 1.19 3.197t8.364.6q7.262-1.26 8.648-1.648"/><path opacity=".9" stroke-width="1.518" d="M167.128 317.952l.04-.074q.724-1.112-3.439-13.891.24-.174 4.958-.11 4.718.064 7.172.704 2.453.639 3.911 1.331 1.458.692 1.599 1.008.142.317.884 1.255"/><path opacity=".9" stroke-width="2.226" d="M191.633 300.606q.089.212.12 3.873.03 3.662.386 5.657t2.269 4.917q1.913 2.922 4.374 3.946.38-.155 2.353-4.928 1.973-4.773 4.027-8.707 2.055-3.934 5.707-6.109l1.54-.056"/><path opacity=".9" stroke-width="1.668" d="M217.348 309.279q.462.201 2.969-.906 2.507-1.108 4.07-2.754 1.563-1.646 1.914-2.853.35-1.207.287-1.996-.063-.79-.403-1.418-.34-.628-2.436-1.231-2.095-.604-4.041-.162-1.945.441-4.028 3.466-2.083 3.026-.238 12.8 1.515.547 1.818.649.302.102 6.306-2.005 6.004-2.106 8.959-2.374 2.955-.268 4.389-.094"/><path opacity=".9" stroke-width="1.513" d="M245.676 314.729q.17-.331.319-2.783.149-2.453-.472-5.509-.62-3.057-1.764-5.414-1.144-2.357-2.463-3.215-1.318-.858-1.865-1.12"/><path opacity=".9" stroke-width="1.706" d="M238.814 300.82q2.229-1.22 12.59-.823t11.63.609"/><path opacity=".9" stroke-width="1.539" d="M269.683 285.095q.122-1.72.767-4.101.645-2.38 2.151-3.314 1.506-.934 2.101-1.087.594-.152 2.925-.091 2.33.061 3.154.365.823.303 1.723 1.384.899 1.081 1.102 1.572.203.491.604 3.169.401 2.677-.178 5.974-.579 3.296-1.686 5.645-1.106 2.349-3.365 5.906-2.26 3.557-3.416 5.966-1.156 2.409-1.321 3.674-.164 1.266-.106 1.301.058.035.023.134-.035.098.098.463t.797.768q.664.402.806.452.142.05 1.481-.376 1.338-.427 4.211-1.309 2.872-.882 5.152-.85 2.279.031 3.366.278 1.086.247 3.712 2.108"/><path opacity=".9" stroke-width="1.634" d="M-308.015-18.953q.093 1.62.369 5.401.275 3.781.338 5.771.064 1.989.159 5.744.095 3.754.079 3.796-.017.043.066 2.056.084 2.014.271 5.763.021-.006.048.037.027.042.132 1.829.105 1.786.158 1.777l.003.071.051 1.805"/><path opacity=".9" stroke-width="1.949" d="M-305.679 17.851q-1.347.027-2.086.065-.738.039-2.544.071l-3.537.06q-1.732.03-3.472.069-1.739.039-3.857.093-2.118.053-7.691.118-5.572.065-7.982.099t-8.337.096l-11.538.122q-5.61.061-9.716.109-4.106.049-9.167.097-5.062.048-8.769.075l-6.067.044q-2.36.016-9.956.053-7.595.037-9.856.039-2.261.001-5.461-.007-3.199-.008-8.188-.038-4.989-.029-8.841-.055-3.852-.025-6.067-.042-2.214-.017-7.033-.039-4.819-.023-7.213-.037-2.394-.015-7.224-.066-4.83-.051-7.072-.085-2.241-.034-3.814-.052l-3.133-.034q-1.561-.018-6.86-.108-5.298-.091-7.659-.14-2.362-.049-5.025-.094-2.664-.045-3.294-.075-.629-.029-1.941-.058l-2.911-.061q-1.599-.034-2.051-.048-.452-.014-1.764-.042-1.311-.029-1.769-.054-.458-.025-2.231-.081-1.774-.056-2.956-.077l-2.788-.05q-1.606-.027-1.892-.042-.285-.014-.828-.033-.542-.02-1.706-.033-1.164-.014-2.422-.058l-2.455-.015-.686-.047q-1.888-.013-4.485-.061"/><path opacity=".9" stroke-width="1.568" d="M-531.219 16.532q-.024-1.521-.114-5.504-.09-3.982-.176-11.128-.087-7.146-.117-12.57-.03-5.424-.044-7.539-.014-2.116-.129-11.018-.115-8.901-.203-14.578-.089-5.677-.15-10.96-.061-5.284-.15-12.486-.09-7.201-.07-7.743-.056-3.039-.074-3.154-.018-.115-.019-.217-.001-.101-.068-3.258-.023-.113-.046-.279-.023-.166-.06-1.706-.037-1.541-.048-1.664-.01-.123-.032-.231-.055-3.186-.103-5.059"/><path opacity=".9" stroke-width="1.699" d="M-532.471-90.768q1.809-.004 2.321-.009l6.435-.07q5.922-.066 8.688-.102 2.765-.037 8.889-.086 6.123-.05 10.395-.094 4.272-.043 6.521-.07l6.732-.079q4.482-.052 13.483-.112 9-.06 14.844-.097 5.845-.038 8.693-.054 2.849-.017 9.166-.047 6.318-.029 10.973-.033l8.394-.009q3.739-.005 5.867-.01l4.733-.012q2.604-.007 8.567-.016 5.962-.008 8.908-.008 2.946.001 6.916.01 3.971.009 8.117.025 4.146.016 10.897.027l10.826.018q4.075.007 6.787.031 2.711.025 4.863.038 2.152.013 4.089.015 1.936.002 4.166.01 2.23.009 4.457.027 2.226.017 4.161.027 1.935.01 8.041.026"/><path opacity=".9" stroke-width="1.443" d="M-313.924-89.206q.317 1.836.355 1.923.038.087.351 2.154.314 2.066.918 6.112.603 4.046.955 6.126.351 2.08.716 4.223t1.355 8.292q.99 6.149 1.002 6.149.012.001.384 2.057"/><path opacity=".9" stroke-width="1.918" d="M-165.454 3.269l-.096-1.972q-.01-.105-.247-6.005-.237-5.899-.435-10.136-.197-4.238-.465-10.307t-.438-10.151q-.169-4.082-.263-6.144-.094-2.062-.183-4.08-.089-2.017-.232-6.028-.144-4.012-.332-8.103-.187-4.092-.369-8.25-.182-4.159-.27-6.32-.087-2.162-.273-6.173-.185-4.011-.287-6.003-.102-1.992-.108-2.185-.006-.192-.097-2.115-.091-1.923-.167-3.847l-.084-2.133q-.008-.208-.095-2.188-.086-1.98-.225-5.562l-.118-2.226"/><path opacity=".9" stroke-width="2.574" d="M-169.211-106.237l2.243-.035q1.781-.029 3.766-.064t3.559-.07q1.573-.036 3.831-.092 2.259-.056 4.881-.115 2.623-.058 8.612-.169 5.989-.112 8.22-.156 2.231-.045 7.719-.161t10.292-.205q4.804-.089 7.684-.144 2.88-.055 15.562-.265 12.683-.211 19.222-.313 6.538-.102 16.075-.247 9.537-.145 16.898-.241l17.083-.224q9.723-.129 14.689-.192 4.966-.064 11.781-.146 6.816-.082 11.171-.132 4.356-.049 14.851-.148l19.359-.18q8.862-.083 15.065-.139 6.202-.056 12.788-.123 6.586-.066 12.878-.126 6.291-.06 9.817-.089 3.526-.029 5.638-.043 2.111-.014 7.116-.051 5.004-.037 11.426-.088 6.423-.051 12.098-.086 5.674-.034 12.431-.066 6.757-.033 13.307-.06l10.18-.045q3.631-.017 7.555-.024 3.924-.007 7.598-.007t8.658-.016q4.985-.015 10.345-.029l6.405-.015 2.652-.004 2.244-.031.797.003 1.595.018 2.875.016 3.297-.01q1.749-.025 7.63-.044"/><path opacity=".9" stroke-width="1.474" d="M234.652-109.35q.017 1.103.061 5.84t.083 7.932q.039 3.195.051 6.142.013 2.947.017 4.502l.013 5.567q.009 4.012.11 11.315.1 7.302.225 14.423t.177 9.939q.051 2.818.089 4.497l.09 4.048q.053 2.368.065 2.571.013.202.016.277.003.074.015 1.157t.01 1.155q-.003.072.02 1.422.023 1.35.041 2.772.017 1.422.068 5.004.05 3.582.07 4.863.019 1.281.013 1.477-.003.182.081 2.867.084 2.686.144 5.076.061 2.391.095 2.676.034.286.058 1.391.023 1.105.048 1.421.02 2.183.071 3.63"/><path opacity=".9" stroke-width="1.821" d="M236.622 3.216q-3.277.127-10.163.323-6.885.196-13.359.373l-10.899.297q-4.425.121-10.44.281-6.014.161-20.652.544-14.637.382-23.628.603-8.99.221-16.826.403-7.835.182-14.653.323-6.817.142-11.84.236l-10.228.191q-5.206.097-9.425.168l-13.389.227q-9.17.155-15.916.263-6.745.108-21.016.33-14.27.223-20.186.299-5.915.077-11.098.137-5.183.061-11.162.116-5.98.056-12.025.1-6.044.045-11.819.09l-8.28.063q-2.504.018-8.644.073-6.14.055-11.141.096t-8.233.062q-3.233.021-8.554.046-5.321.026-8.394.037-3.073.011-7.595.041-4.521.029-7.312.049-2.791.019-4.249.023l-6.18.017q-4.722.014-7.656.025-2.935.012-4.825.012l-5.232-.002q-3.341-.001-5.973.002l-5.535.01-3.842.008q-.938.001-2.895-.007t-3.256-.001q-1.299.006-1.943.005-.645-.001-1.258-.009-.613-.007-2.015-.008"/><path opacity=".9" stroke-width="1.647" d="M-72.726 260.403q-1.658-.053-1.899-.072-.241-.019-1.748-.056-1.507-.037-2.127-.068-.621-.031-5.876-.134-5.256-.102-7.83-.163-2.575-.061-10.052-.188-7.477-.126-13.912-.247-6.435-.122-10.329-.178-3.894-.056-11.28-.155-7.386-.099-11.162-.137-3.776-.039-7.682-.077-3.906-.037-9.498-.077-5.592-.039-7.867-.053-2.275-.013-5.96-.023t-5.721-.008l-5.522.001q-3.486 0-7.305.014-3.819.013-6.202.035-2.383.021-5.924.038-3.541.016-5.357.036-1.815.02-3.519.022-1.705.001-2.136.026-.432.024-2.14.046-1.708.022-1.959.033-.251.01-3.001-.006l-2.456-.003q-1.775-.002-4.659-.048-.344.026-.568.031l-1.858-.024"/><path opacity=".9" stroke-width="1.982" d="M-240.723 261.722q.051 1.762.26 9.977.209 8.214.39 14.344.181 6.131.305 10.258.124 4.126.275 8.27.152 4.144.356 10.148.205 6.004.268 8.157l.176 6.191q.114 4.038.221 7.981.107 3.944.218 8.118t.114 4.403l.16 5.704"/><path opacity=".9" stroke-width="2.02" d="M-236.362 359.156q2.195-.021 2.347-.024l2.061-.053q1.909-.05 5.849-.171 3.941-.122 6.034-.181l4.07-.116q1.976-.058 4.241-.132 2.264-.075 4.641-.14 2.376-.066 4.484-.111 2.109-.045 5.95-.119l6.051-.116q2.21-.042 8.097-.191 5.887-.148 8.272-.212 2.385-.065 6.791-.177 4.406-.113 10.621-.267 6.216-.154 11.958-.29 5.742-.137 12.065-.303 6.323-.165 10.349-.281 4.026-.116 8.107-.221 4.081-.106 7.989-.188 3.907-.082 8.138-.155 4.231-.072 8.773-.166 4.541-.093 8.343-.196 3.801-.102 5.65-.143 1.848-.04 2.233-.051.384-.011 2.224-.072 1.839-.062 2.054-.073.216-.011 3.94-.068l.498.002 5.425-.079"/><path opacity=".9" stroke-width="1.447" d="M-59.107 353.184q-.126-1.789-.386-5.834t-1.002-13.756q-.743-9.71-1.045-13.791l-.593-8.044q-.291-3.962-.734-9.902-.443-5.939-.751-9.993-.308-4.053-.586-7.761-.278-3.708-.292-3.849-.015-.141-.181-2.112-.167-1.972-.337-3.933-.17-1.962-.308-3.784-.138-1.822-.138-1.991 0-.169-.107-2.024-.108-1.856-.103-1.936.004-.079-.43-5.738"/><path opacity=".9" stroke-width="1.612" d="M97.846 251.329l.383 5.901q.26 3.999.515 8.23.254 4.231.495 8.481.241 4.251.733 12.297l.744 12.132.387 6.324q.136 2.239.401 6.341.264 4.102.502 8.014.237 3.912.372 5.97t.15 2.174q.015.116.287 4.267.273 4.151.416 6.181.142 2.03.26 3.86.117 1.829.128 1.947.011.118.056.463.24 3.641.293 3.918l.392 5.83"/><path opacity=".9" stroke-width="2.075" d="M105.668 358.502q5.704-.372 7.749-.488 2.044-.116 2.626-.157.581-.041 4.974-.312 4.393-.27 8.813-.556 4.42-.286 8.118-.519 3.698-.232 7.831-.469 4.132-.236 10.887-.584 6.755-.348 10.892-.568 4.137-.22 6.603-.356 2.465-.137 6.835-.371 4.37-.234 8.458-.458 4.088-.225 8.283-.471 4.195-.247 10.328-.599 6.132-.352 10.428-.595 4.296-.244 7.222-.403 2.926-.159 9.031-.474 6.105-.314 11.952-.593l8.612-.408q2.765-.13 6.655-.299 3.891-.17 5.999-.254l4.62-.18q2.513-.096 6.351-.27 3.838-.174 8.001-.384 4.162-.211 8.704-.434l8.608-.42q4.065-.197 8.597-.364l.879.005 5.651-.309"/><path opacity=".9" stroke-width="1.625" d="M317.04 346.199l-.119-1.987q.007-.101-.613-8.538-.62-8.438-1.185-17.106-.566-8.668-1.01-15.058-.445-6.39-.738-10.553-.293-4.163-.596-8.42-.303-4.256-.596-8.495-.293-4.238-.43-6.425-.138-2.186-.742-10.568-.605-8.382-.724-10.474"/><path opacity=".9" stroke-width="1.622" d="M309.274 246.96q-1.688-.009-5.863.042-4.175.05-9.07.098-4.895.047-8.976.072-4.08.026-7.631.053-3.55.026-12.671.107-9.12.081-14.855.14-5.735.059-9.78.107-4.046.047-7.955.095-3.91.048-8.249.11-4.338.062-8.228.113-3.889.051-6.242.077-2.353.025-4.771.058-2.417.032-10.653.118-8.236.087-13.689.15-5.453.063-9.966.106-4.512.043-6.772.069-2.259.027-7.819.083-5.56.056-9.718.095t-6.257.062q-2.1.023-4.396.051-2.296.027-7.719.087-5.424.059-7.943.094-2.519.035-6.473.097-4.103.111-5.573.142-1.469.032-1.771.044-.302.012-.512.015l-5.611.047"/></g></svg>
