<svg xmlns="http://www.w3.org/2000/svg" width="500" viewBox="161.976 153.182 485.107 155.241"><g stroke="#000"><path opacity=".9" fill="none" stroke-width="2.273" stroke-linecap="round" stroke-linejoin="round" d="M313.317 176.059q-.539-.091-.793-.19t-2.007-.13q-1.753-.031-3.463.035-1.71.065-3.957.226-2.247.16-4.469.289-2.221.129-4.417.22-2.196.091-4.369.151-2.173.059-4.324.09-2.152.031-4.136.04-1.984.008-3.802 0-1.819-.009-3.472-.031-1.654-.021-3.887-.069-2.233-.047-4.351-.081-2.118-.033-3.377-.022-1.259.01-3.115.08-1.856.07-4.31.195-2.454.125-4.844.273-2.39.148-4.716.321-2.326.173-4.441.293-2.115.119-4.018.186-1.904.067-3.438.108-1.535.04-2.701.056l-2.989.039-4.305.058q-2.481.033-4.421.045-1.94.011-3.339.001-1.399-.011-3.176.004-1.778.015-3.934.054-2.156.04-4.082.174-1.927.134-3.623.363-1.696.229-2.906.437-1.211.208-2.298.49-1.088.282-2.902 1.076-1.815.793-3.76 2.019-1.945 1.226-3.954 2.841-2.009 1.616-3.43 3.126-1.421 1.511-1.795 2.056-.375.546-.944 1.657t-1.458 2.969q-.888 1.859-1.512 3.354-.623 1.496-.982 2.629-.358 1.134-.744 2.647-.385 1.513-.798 3.407-.413 1.893-.807 4.339-.394 2.445-.685 4.417-.291 1.972-.61 4.286-.319 2.313-.595 4.684-.275 2.37-.508 4.797-.232 2.426-.422 4.91-.189 2.483-.335 5.022-.146 2.54-.259 4.749-.113 2.209-.194 4.088-.081 1.878-.13 3.426-.048 1.548-.064 2.765t.003 2.852q.02 1.635.075 3.687.055 2.052.145 4.522.09 2.469.216 5.357.125 2.887.247 5.174.121 2.287.237 3.975.116 1.687.255 2.897.139 1.209.38 2.306.242 1.097.759 2.522.517 1.425.78 1.941t.999 1.629q.737 1.112 1.199 1.668.462.555.873.963.412.408 1.434 1.053 1.021.644 2.789 1.661 1.768 1.017 3.553 1.753t3.586 1.192q1.802.455 3.441.755 1.638.299 3.114.442 1.476.143 3.607.221 2.131.079 4.916.093 2.786.014 5.387.018 2.601.003 5.018-.003 2.417-.007 4.832.019 2.415.025 4.828.084 2.414.059 4.361.087 1.947.028 4.168.025 2.221-.004 4.52-.164 2.299-.161 3.937-.26 1.637-.099 3.378-.19t3.308-.148q1.567-.058 3.656-.095 2.089-.036 4.232-.091 2.144-.055 3.818-.138 1.674-.083 3.593-.213 1.919-.129 4.001-.283 2.083-.154 4.328-.333 2.246-.179 4.712-.357 2.467-.178 5.155-.354 2.689-.176 4.688-.303 2-.127 3.312-.204 1.311-.077 3-.195 1.689-.118 3.756-.276 2.067-.158 4.134-.357 2.068-.199 4.136-.439t3.868-.467q1.801-.227 4.101-.55 2.3-.323 5.197-.681 2.897-.358 4.845-.656 1.948-.298 3.692-.622 1.743-.323 3.932-.772 2.189-.448 3.81-.816 1.621-.368 3.201-.799 1.58-.431 3.351-1.067 1.772-.636 3.491-1.465 1.719-.828 3.03-1.615 1.311-.787 2.787-1.809 1.475-1.021 2.615-1.937 1.139-.915 2.342-2.13 1.204-1.214 2.358-2.773 1.154-1.558 1.763-2.559.61-1.001 1.659-3.271 1.05-2.27 1.637-4.345.588-2.076.859-3.686.272-1.61.42-3.436.148-1.827.197-3.164.048-1.337-.021-2.629-.07-1.291-.373-3.549-.304-2.259-.543-3.819-.24-1.561-.514-3.181-.275-1.621-.526-3.167-.251-1.547-.472-3.037"/><path opacity=".9" fill="none" stroke-width="2.124" stroke-linecap="round" stroke-linejoin="round" d="M358.672 221.391q-.104-1.568-.402-5.13-.298-3.561-.636-7.155-.338-3.595-.691-6.22-.352-2.625-.801-4.794-.45-2.169-1.736-5.686-1.285-3.517-2.365-5.362-1.08-1.844-1.733-2.663-.653-.819-1.256-1.425-.603-.607-1.161-1.076-.558-.47-1.892-1.329-1.333-.86-2.752-1.485-1.419-.624-2.907-1.152-1.488-.528-5.561-1.57-4.072-1.042-8.606-1.356-4.534-.315-8.306-.23-3.773.084-4.931.183-1.157.099-2.651.245-1.493.145-4.306.209"/><path opacity=".9" fill="none" stroke-width="2.085" stroke-linecap="round" stroke-linejoin="round" d="M227.894 228.925l.389.98q.349.056 1.045-4.063.697-4.119.602-7.444-.095-3.325-.691-4.919-.596-1.594-1.134-2.244-.539-.649-1.237-1.076-.698-.427-2.179-.564-1.481-.137-3.401.93-1.92 1.067-4.287 4.225-2.367 3.158-3.722 7.423-1.356 4.265-2.17 11.096-.814 6.832-.826 11.498-.013 4.666.517 7.748.531 3.082 1.005 4.266.475 1.185 1.055 2.053.58.869 1.105 1.34.526.47.869.628.343.158.946.314t2.171-.139q1.567-.295 3.847-.707 2.279-.411 3.057-.628"/><path opacity=".9" fill="none" stroke-width="1.474" stroke-linecap="round" stroke-linejoin="round" d="M238.55 260.26q-.04-.141.072-7.662.112-7.52-.474-15.573-.587-8.053-.942-11.934-.356-3.881-.363-6.079-.006-2.198.094-3.001.101-.802.203-1.545"/><path opacity=".9" fill="none" stroke-width="1.832" stroke-linecap="round" stroke-linejoin="round" d="M251.915 260.576q-.169-3.57-2.014-13.841"/><path opacity=".9" fill="none" stroke-width="1.921" stroke-linecap="round" stroke-linejoin="round" d="M248.803 234.212l.031.041q.062.178-.056.568l-.287.956"/><path opacity=".9" fill="none" stroke-width="2.195" stroke-linecap="round" stroke-linejoin="round" d="M258.955 246.226q.397.53 1.437 1.19 1.041.66 1.558.801.516.141 1.039.177.523.036.938-.102.414-.139.875-.451.461-.311.775-.598.313-.286.47-.465.157-.179 1.014-1.309.858-1.13 1.399-2.682.542-1.552.518-2.459-.024-.907-.097-1.218-.073-.312-.471-.664-.398-.353-1.601-.453-1.204-.1-1.965.195-.761.296-1.948 1.533-1.187 1.238-2.273 3.496-1.085 2.258-1.803 4.298-.717 2.04-.784 3.24-.067 1.199.023 1.856.091.658.466 1.381.376.724 1.344 1.336.969.613 2.665.887 1.696.275 4.107-.565 2.412-.84 3.168-1.207"/><path opacity=".9" fill="none" stroke-width="1.578" stroke-linecap="round" stroke-linejoin="round" d="M278.299 239.222q-.038.061-.179 3.083-.142 3.023.254 5.816.397 2.794 1.746 5.523.122-.16.454-2.022.333-1.863.601-3.225.268-1.362.929-2.954.66-1.591 1.441-2.528.78-.938 1.083-1.14.302-.202.817-.438.514-.236 1.368-.367.853-.13 1.273-.06.42.07.852.39.432.321 1.307 1.468.874 1.148 3.048 7.262l.178.326"/><path opacity=".9" fill="none" stroke-width="1.663" stroke-linecap="round" stroke-linejoin="round" d="M305.478 251.56q.055-.119.032-.18-.022-.061-.275-4.874-.253-4.814-.797-9.024-.545-4.211-.899-6.16-.354-1.948-1.113-6.667-.758-4.719-2.296-8.682-.224-.18-.508-.467"/><path opacity=".9" fill="none" stroke-width="2.212" stroke-linecap="round" stroke-linejoin="round" d="M312.725 223.332q-.911-.064-1.575-.066-.664-.003-5.062.203-4.398.206-6.991.321-2.593.116-3.894.286-1.3.171-3.403.327l-.68-.206"/><path opacity=".9" fill="none" stroke-width="3.062" stroke-linecap="round" stroke-linejoin="round" d="M365.11 238.637q-.207.149-1.471.568-1.265.418-2.557.47-1.293.051-1.91-.097t-.773-.211q-.157-.062-.637-.383-.481-.32-1.224-1.109-.743-.789-1.2-1.553-.456-.763-.689-1.306-.233-.542-.588-2.171-.356-1.628-.368-2.532-.012-.904.238-2.232.251-1.328.559-2.108.309-.78.523-1.173.214-.393.55-.882.335-.49.984-1.179.649-.69 1.574-1.314.925-.625 1.613-.873.688-.249 1.292-.339.605-.09 1.422-.036t1.264.183q.448.129.842.321.393.193.838.532.444.339 1.39 1.642.945 1.304 1.362 2.41.417 1.106.624 2.295.207 1.189-.079 3.677-.287 2.488-.852 3.526-.564 1.038-1.123 1.788-.56.75-1.756 2.156"/><path opacity=".9" fill="none" stroke-width="1.866" stroke-linecap="round" stroke-linejoin="round" d="M369.315 230.154q1.322-.026 4.973-.022 3.65.003 6.518.025 2.868.022 6.091.021 3.223-.001 4.435.007 1.212.009 2.572.028 1.359.018 3.233.051 1.874.032 3.686.079 1.812.047 3.576.108l3.307.113q1.543.053 3.539.117 1.997.065 3.718.095 1.722.031 3.216.062 1.493.031 3.332.074l3.397.078 3.472.083q1.915.046 3.285.09 1.37.043 3.212.119t3.309.125q1.468.048 3.175.095 1.707.046 3.21.089 1.504.043 3.453.102 1.949.059 3.483.093 1.535.033 3.126.037 1.591.005 5.139.048l5.145.148"/><path opacity=".9" fill="none" stroke-width="2.098" stroke-linecap="round" stroke-linejoin="round" d="M465.917 232.078l-1.095 1.146q-.171.263-1.542 1.476t-3.158 2.662q-1.787 1.45-2.153 1.754-.367.305-4.333 4.118"/><path opacity=".9" fill="none" stroke-width="2.336" stroke-linecap="round" stroke-linejoin="round" d="M466.37 233.812q-1.674-1.966-2.953-3.352-1.278-1.387-2.751-2.844-1.474-1.457-1.813-1.783-.34-.326-4.483-4.97"/><circle opacity=".9" stroke-width=".1" cx="469.557" cy="256.23" r=".677"/><path opacity=".9" fill="none" stroke-width="2.035" stroke-linecap="round" stroke-linejoin="round" d="M469.263 261.024q.084-.417.199-1.855t.206-2.746q.092-1.308.197-2.925.104-1.616.187-3.26.082-1.645.142-3.299.06-1.655.096-3.316.036-1.662.05-3.343.014-1.681.023-3.153.008-1.471.013-2.763.006-1.291.008-2.417l.004-2.093q.001-.968.015-2.132.014-1.165.042-2.527.028-1.363.069-2.923.041-1.561.096-3.32.055-1.76.108-3.244.053-1.485.103-2.695.05-1.21.098-2.145.047-.935.115-1.926.068-.991.149-2.06.081-1.07.151-1.887.071-.818.213-2.286.141-1.468.354-3.587.212-2.118.385-3.59.174-1.472.375-2.71t.511-2.584q.31-1.347.552-2.152.243-.805.577-1.705.334-.901.84-2.166t.894-2.157q.387-.892.79-1.671.404-.778 1.428-2.407 1.024-1.628 2.158-3.163 1.134-1.534 2.03-2.515.896-.981 1.836-1.819.94-.839 1.667-1.364.727-.525 1.527-.992.799-.467 2.212-1.124 1.413-.656 2.318-.954.905-.298 2.082-.527 1.178-.229 2.205-.408 1.028-.18 2.296-.386 1.269-.206 2.497-.384 1.227-.179 2.413-.331 1.186-.152 2.33-.276 1.144-.125 2.246-.222 1.103-.098 2.21-.185 1.107-.088 2.219-.165 1.111-.077 2.227-.144 1.116-.067 2.237-.124l2.035-.103 1.978-.099q1.063-.053 1.955-.095.892-.041 1.979-.068 1.087-.027 2.42-.027 1.333-.001 3.274.016 1.941.016 3.533.006 1.592-.01 2.834-.047 1.243-.037 2.877-.143 1.634-.106 3.659-.281 2.026-.175 3.604-.315l2.648-.236 2.162-.195q1.09-.099 1.977-.177.886-.079 1.909-.165 1.022-.086 1.842-.133.819-.047 1.938-.081 1.119-.033 2.235-.031 1.116.002 2.602.028 1.487.027 2.677.071t2.53.136q1.34.093 2.111.173.77.081 1.693.161.922.079 2.254.185 1.331.105 2.479.191 1.147.085 2.111.151.964.065 2.338.074 1.374.008 3.159-.04 1.785-.049 3.134-.101 1.35-.053 2.721-.139 1.371-.085 2.225-.176.854-.092 1.993-.186 1.138-.095 2.844-.224 1.707-.129 3.267-.237 1.561-.108 2.975-.195 1.414-.087 2.826-.146 1.412-.058 2.821-.087 1.409-.03 2.407-.031.998-.001 1.879.041.881.041 1.943.15 1.063.108 1.758.214.695.105 1.707.33 1.012.224 2.573.603 1.56.379 2.927.784 1.366.406 2.537.838 1.171.432 1.983.774.812.341 1.491.718.679.377 1.623 1.035.944.659 1.462 1.137t.841.835q.323.357 1.061 1.5.737 1.142 1.294 2.408.556 1.266.858 2.255.302.989.534 2.139.232 1.151.495 2.792.263 1.642.414 3.425.151 1.783.191 3.708.04 1.925.035 3.721-.004 1.796-.04 3.046l-.066 2.347q-.031 1.096-.067 2.455l-.08 2.981-.093 3.507q-.049 1.884-.089 3.525-.04 1.642-.07 3.039-.03 1.398-.051 2.552-.02 1.155-.032 2.065-.011.911-.022 2.12-.012 1.209-.024 2.716l-.025 3.312-.026 3.909q-.013 2.103-.021 4.02-.009 1.917-.014 3.649-.004 1.731-.004 3.276 0 1.546.005 2.905l.008 2.513.008 2.575.009 2.492q.004 1.071-.002 2.255-.005 1.184-.02 2.482l-.02 1.982q-.006.685-.004.755.003.07-.044.765-.048.695-.145 2.015-.098 1.319-.268 2.536-.169 1.218-.41 2.332-.241 1.114-.425 1.842-.183.727-.372 1.237-.188.51-.848 1.698-.66 1.187-.995 1.562-.335.375-1.085 1.012-.751.637-1.701 1.166-.949.529-2.348 1.163-1.4.633-2.655 1.085-1.255.452-2.366.722-1.112.27-2.049.455-.937.185-1.7.285-.762.1-2.11.163-1.347.064-3.28.09l-2.938.041q-1.006.014-1.085.017-.08.003-.71-.026-.63-.029-1.811-.09-1.18-.061-2.404-.107-1.223-.046-2.488-.077-1.265-.032-2.271-.044-1.005-.012-2.122-.002-1.118.01-2.011.055l-1.988.096-2.686.127q-1.592.074-3.021.146-1.429.072-2.46.126l-2.14.112q-1.109.059-2.094.109-.984.05-2.274.113-1.289.062-2.51.111-1.22.049-2.713.132t-3.258.201q-1.765.117-3.099.199-1.334.083-2.236.13l-2.11.114-2.19.122q-.982.054-2.141.12l-2.133.119-2.159.118q-1.185.064-2.448.127-1.262.062-2.126.119-.864.058-1.943.159-1.078.101-2.66.264-1.581.163-2.985.342-1.405.179-2.632.373t-2.645.471q-1.418.277-2.53.506-1.111.228-2.388.5t-2.402.508q-1.126.236-2.586.535-1.461.3-2.801.554-1.341.255-2.465.448-1.124.193-2.485.391-1.36.198-1.951.252-.591.054-1.393.096-.801.042-2.009.09-1.209.047-2.843.041-1.635-.007-3.695-.067-2.061-.061-3.598-.149-1.536-.088-3.055-.262-1.519-.174-2.293-.27-.775-.096-1.574-.212-.8-.116-1.883-.284-1.083-.168-2.16-.358-1.077-.191-2.147-.403-1.07-.212-2.027-.407-.958-.194-1.802-.371-.844-.176-2.001-.461-1.156-.284-2.624-.68-1.468-.396-2.422-.675-.954-.278-1.617-.512-.662-.234-1.76-.746-1.099-.512-1.886-.964-.788-.452-1.55-1.041-.762-.59-1.19-1.002-.429-.411-1.32-1.558-.89-1.146-1.852-3.235-.962-2.089-1.276-3.218-.314-1.129-.602-3.029t-.367-2.834q-.079-.933-.191-4.107"/><path opacity=".9" fill="none" stroke-width="1.925" stroke-linecap="round" stroke-linejoin="round" d="M509.056 208.404q-.161-.22-.4-.067-.111-.068-1.415-2.277-1.303-2.209-1.985-3.635-.682-1.426-1.294-2.205-.612-.78-1.878-1.327-1.265-.547-2.408-.291-1.143.256-2.358 1.321-1.215 1.064-1.543 2.756-.329 1.692.154 4.411.482 2.719 1.188 4.519.706 1.8 1.735 3.009 1.029 1.21 3.418 2.747 2.39 1.537 3.807 2.861 1.417 1.323 2.623 2.926 1.206 1.603 1.832 2.776.627 1.173.803 2.323.177 1.15.081 1.632-.096.482-.68 1.575-.452.38-2.026.942-1.574.563-3.834.932-2.261.37-4.941-.43-2.68-.801-6.525-2.697"/><path opacity=".9" fill="none" stroke-width="1.453" stroke-linecap="round" stroke-linejoin="round" d="M518.825 225.058q.375-.253 1.628-.921 1.253-.669 2.752-1.646 1.5-.976 1.943-1.33.444-.353.915-.831.47-.478.82-.781.35-.302.902-1.478.551-1.175.469-2.041-.083-.865-.978-1.289-.895-.423-2.812.22-1.917.644-2.936 1.441t-1.839 1.616q-.82.818-1.664 2.282t-1.139 3.949q-.295 2.486.334 3.639.629 1.154 1.193 1.636.564.482.942.69.378.208 1.293.511.916.302 2.715.398 1.8.095 4.597-1.056 2.797-1.151 3.271-1.353"/><path opacity=".9" fill="none" stroke-width="1.402" stroke-linecap="round" stroke-linejoin="round" d="M536.403 231.961q.053-.222.1-5.315.046-5.093-1.947-11.124l-.934-.94"/><path opacity=".9" fill="none" stroke-width="2.094" stroke-linecap="round" stroke-linejoin="round" d="M534.888 218.894l1.222-.149q.675.039 3.557-.663 2.881-.702 4.505-.882 1.624-.181 2.779.424 1.156.605 2.124 1.2"/><path opacity=".9" fill="none" stroke-width="1.517" stroke-linecap="round" stroke-linejoin="round" d="M552.51 216.383l.023.308"/><path opacity=".9" fill="none" stroke-width="1.807" stroke-linecap="round" stroke-linejoin="round" d="M552.544 216.845q.242 3.23.567 4.547.324 1.317.912 2.945.589 1.628 2.074 4.349 1.486 2.721 2.461 3.925.975 1.204 3.453 2.087.188-.072.887-2.323.7-2.252 1.559-5.584.86-3.332 1.816-5.172.956-1.839 1.492-2.667.537-.828 2.005-1.804l1.274-.316"/><path opacity=".9" fill="none" stroke-width="1.424" stroke-linecap="round" stroke-linejoin="round" d="M576.216 226.652q-.085.189-.277.322-.191.133-.342.113-.15-.02 1.675-1.464t3.09-2.699q1.265-1.256 1.798-2.167.534-.912.722-1.852.189-.939.122-1.656t-.261-1.051q-.194-.334-.843-.556-.649-.223-1.245-.189-.595.033-1.253.329-.658.296-2.139 1.625-1.481 1.329-2.842 4.481-1.362 3.152-1.425 4.919-.063 1.766.397 3.278.461 1.513 1.602 2.184 1.141.672 5.183.611 4.042-.06 7.537-.7 3.496-.639 4.298-.747"/><path opacity=".9" fill="none" stroke-width="1.518" stroke-linecap="round" stroke-linejoin="round" d="M603.028 232.558l-.066-.041q.071-.097-.844-4.552-.915-4.456-1.856-7.151-.941-2.695-1.585-3.642-.644-.948-1.442-1.25l-1.113.582"/><path opacity=".9" fill="none" stroke-width="1.502" stroke-linecap="round" stroke-linejoin="round" d="M600.841 220.816q.282-.031 3.936-.735 3.653-.705 5.612-.78 1.958-.076 3.351.203 1.394.278 3.21 1.441"/><path opacity=".9" fill="none" stroke-width="2.273" stroke-linecap="round" stroke-linejoin="round" d="M313.317 176.059q-.539-.091-.793-.19t-2.007-.13q-1.753-.031-3.463.035-1.71.065-3.957.226-2.247.16-4.469.289-2.221.129-4.417.22-2.196.091-4.369.151-2.173.059-4.324.09-2.152.031-4.136.04-1.984.008-3.802 0-1.819-.009-3.472-.031-1.654-.021-3.887-.069-2.233-.047-4.351-.081-2.118-.033-3.377-.022-1.259.01-3.115.08-1.856.07-4.31.195-2.454.125-4.844.273-2.39.148-4.716.321-2.326.173-4.441.293-2.115.119-4.018.186-1.904.067-3.438.108-1.535.04-2.701.056l-2.989.039-4.305.058q-2.481.033-4.421.045-1.94.011-3.339.001-1.399-.011-3.176.004-1.778.015-3.934.054-2.156.04-4.082.174-1.927.134-3.623.363-1.696.229-2.906.437-1.211.208-2.298.49-1.088.282-2.902 1.076-1.815.793-3.76 2.019-1.945 1.226-3.954 2.841-2.009 1.616-3.43 3.126-1.421 1.511-1.795 2.056-.375.546-.944 1.657t-1.458 2.969q-.888 1.859-1.512 3.354-.623 1.496-.982 2.629-.358 1.134-.744 2.647-.385 1.513-.798 3.407-.413 1.893-.807 4.339-.394 2.445-.685 4.417-.291 1.972-.61 4.286-.319 2.313-.595 4.684-.275 2.37-.508 4.797-.232 2.426-.422 4.91-.189 2.483-.335 5.022-.146 2.54-.259 4.749-.113 2.209-.194 4.088-.081 1.878-.13 3.426-.048 1.548-.064 2.765t.003 2.852q.02 1.635.075 3.687.055 2.052.145 4.522.09 2.469.216 5.357.125 2.887.247 5.174.121 2.287.237 3.975.116 1.687.255 2.897.139 1.209.38 2.306.242 1.097.759 2.522.517 1.425.78 1.941t.999 1.629q.737 1.112 1.199 1.668.462.555.873.963.412.408 1.434 1.053 1.021.644 2.789 1.661 1.768 1.017 3.553 1.753t3.586 1.192q1.802.455 3.441.755 1.638.299 3.114.442 1.476.143 3.607.221 2.131.079 4.916.093 2.786.014 5.387.018 2.601.003 5.018-.003 2.417-.007 4.832.019 2.415.025 4.828.084 2.414.059 4.361.087 1.947.028 4.168.025 2.221-.004 4.52-.164 2.299-.161 3.937-.26 1.637-.099 3.378-.19t3.308-.148q1.567-.058 3.656-.095 2.089-.036 4.232-.091 2.144-.055 3.818-.138 1.674-.083 3.593-.213 1.919-.129 4.001-.283 2.083-.154 4.328-.333 2.246-.179 4.712-.357 2.467-.178 5.155-.354 2.689-.176 4.688-.303 2-.127 3.312-.204 1.311-.077 3-.195 1.689-.118 3.756-.276 2.067-.158 4.134-.357 2.068-.199 4.136-.439t3.868-.467q1.801-.227 4.101-.55 2.3-.323 5.197-.681 2.897-.358 4.845-.656 1.948-.298 3.692-.622 1.743-.323 3.932-.772 2.189-.448 3.81-.816 1.621-.368 3.201-.799 1.58-.431 3.351-1.067 1.772-.636 3.491-1.465 1.719-.828 3.03-1.615 1.311-.787 2.787-1.809 1.475-1.021 2.615-1.937 1.139-.915 2.342-2.13 1.204-1.214 2.358-2.773 1.154-1.558 1.763-2.559.61-1.001 1.659-3.271 1.05-2.27 1.637-4.345.588-2.076.859-3.686.272-1.61.42-3.436.148-1.827.197-3.164.048-1.337-.021-2.629-.07-1.291-.373-3.549-.304-2.259-.543-3.819-.24-1.561-.514-3.181-.275-1.621-.526-3.167-.251-1.547-.472-3.037"/><path opacity=".9" fill="none" stroke-width="2.124" stroke-linecap="round" stroke-linejoin="round" d="M358.672 221.391q-.104-1.568-.402-5.13-.298-3.561-.636-7.155-.338-3.595-.691-6.22-.352-2.625-.801-4.794-.45-2.169-1.736-5.686-1.285-3.517-2.365-5.362-1.08-1.844-1.733-2.663-.653-.819-1.256-1.425-.603-.607-1.161-1.076-.558-.47-1.892-1.329-1.333-.86-2.752-1.485-1.419-.624-2.907-1.152-1.488-.528-5.561-1.57-4.072-1.042-8.606-1.356-4.534-.315-8.306-.23-3.773.084-4.931.183-1.157.099-2.651.245-1.493.145-4.306.209"/><path opacity=".9" fill="none" stroke-width="2.085" stroke-linecap="round" stroke-linejoin="round" d="M227.894 228.925l.389.98q.349.056 1.045-4.063.697-4.119.602-7.444-.095-3.325-.691-4.919-.596-1.594-1.134-2.244-.539-.649-1.237-1.076-.698-.427-2.179-.564-1.481-.137-3.401.93-1.92 1.067-4.287 4.225-2.367 3.158-3.722 7.423-1.356 4.265-2.17 11.096-.814 6.832-.826 11.498-.013 4.666.517 7.748.531 3.082 1.005 4.266.475 1.185 1.055 2.053.58.869 1.105 1.34.526.47.869.628.343.158.946.314t2.171-.139q1.567-.295 3.847-.707 2.279-.411 3.057-.628"/><path opacity=".9" fill="none" stroke-width="1.474" stroke-linecap="round" stroke-linejoin="round" d="M238.55 260.26q-.04-.141.072-7.662.112-7.52-.474-15.573-.587-8.053-.942-11.934-.356-3.881-.363-6.079-.006-2.198.094-3.001.101-.802.203-1.545"/><path opacity=".9" fill="none" stroke-width="1.832" stroke-linecap="round" stroke-linejoin="round" d="M251.915 260.576q-.169-3.57-2.014-13.841"/><path opacity=".9" fill="none" stroke-width="1.921" stroke-linecap="round" stroke-linejoin="round" d="M248.803 234.212l.031.041q.062.178-.056.568l-.287.956"/><path opacity=".9" fill="none" stroke-width="2.195" stroke-linecap="round" stroke-linejoin="round" d="M258.955 246.226q.397.53 1.437 1.19 1.041.66 1.558.801.516.141 1.039.177.523.036.938-.102.414-.139.875-.451.461-.311.775-.598.313-.286.47-.465.157-.179 1.014-1.309.858-1.13 1.399-2.682.542-1.552.518-2.459-.024-.907-.097-1.218-.073-.312-.471-.664-.398-.353-1.601-.453-1.204-.1-1.965.195-.761.296-1.948 1.533-1.187 1.238-2.273 3.496-1.085 2.258-1.803 4.298-.717 2.04-.784 3.24-.067 1.199.023 1.856.091.658.466 1.381.376.724 1.344 1.336.969.613 2.665.887 1.696.275 4.107-.565 2.412-.84 3.168-1.207"/><path opacity=".9" fill="none" stroke-width="1.578" stroke-linecap="round" stroke-linejoin="round" d="M278.299 239.222q-.038.061-.179 3.083-.142 3.023.254 5.816.397 2.794 1.746 5.523.122-.16.454-2.022.333-1.863.601-3.225.268-1.362.929-2.954.66-1.591 1.441-2.528.78-.938 1.083-1.14.302-.202.817-.438.514-.236 1.368-.367.853-.13 1.273-.06.42.07.852.39.432.321 1.307 1.468.874 1.148 3.048 7.262l.178.326"/><path opacity=".9" fill="none" stroke-width="1.663" stroke-linecap="round" stroke-linejoin="round" d="M305.478 251.56q.055-.119.032-.18-.022-.061-.275-4.874-.253-4.814-.797-9.024-.545-4.211-.899-6.16-.354-1.948-1.113-6.667-.758-4.719-2.296-8.682-.224-.18-.508-.467"/><path opacity=".9" fill="none" stroke-width="2.212" stroke-linecap="round" stroke-linejoin="round" d="M312.725 223.332q-.911-.064-1.575-.066-.664-.003-5.062.203-4.398.206-6.991.321-2.593.116-3.894.286-1.3.171-3.403.327l-.68-.206"/><path opacity=".9" fill="none" stroke-width="3.062" stroke-linecap="round" stroke-linejoin="round" d="M365.11 238.637q-.207.149-1.471.568-1.265.418-2.557.47-1.293.051-1.91-.097t-.773-.211q-.157-.062-.637-.383-.481-.32-1.224-1.109-.743-.789-1.2-1.553-.456-.763-.689-1.306-.233-.542-.588-2.171-.356-1.628-.368-2.532-.012-.904.238-2.232.251-1.328.559-2.108.309-.78.523-1.173.214-.393.55-.882.335-.49.984-1.179.649-.69 1.574-1.314.925-.625 1.613-.873.688-.249 1.292-.339.605-.09 1.422-.036t1.264.183q.448.129.842.321.393.193.838.532.444.339 1.39 1.642.945 1.304 1.362 2.41.417 1.106.624 2.295.207 1.189-.079 3.677-.287 2.488-.852 3.526-.564 1.038-1.123 1.788-.56.75-1.756 2.156"/><path opacity=".9" fill="none" stroke-width="1.866" stroke-linecap="round" stroke-linejoin="round" d="M369.315 230.154q1.322-.026 4.973-.022 3.65.003 6.518.025 2.868.022 6.091.021 3.223-.001 4.435.007 1.212.009 2.572.028 1.359.018 3.233.051 1.874.032 3.686.079 1.812.047 3.576.108l3.307.113q1.543.053 3.539.117 1.997.065 3.718.095 1.722.031 3.216.062 1.493.031 3.332.074l3.397.078 3.472.083q1.915.046 3.285.09 1.37.043 3.212.119t3.309.125q1.468.048 3.175.095 1.707.046 3.21.089 1.504.043 3.453.102 1.949.059 3.483.093 1.535.033 3.126.037 1.591.005 5.139.048l5.145.148"/><path opacity=".9" fill="none" stroke-width="2.098" stroke-linecap="round" stroke-linejoin="round" d="M465.917 232.078l-1.095 1.146q-.171.263-1.542 1.476t-3.158 2.662q-1.787 1.45-2.153 1.754-.367.305-4.333 4.118"/><path opacity=".9" fill="none" stroke-width="2.336" stroke-linecap="round" stroke-linejoin="round" d="M466.37 233.812q-1.674-1.966-2.953-3.352-1.278-1.387-2.751-2.844-1.474-1.457-1.813-1.783-.34-.326-4.483-4.97"/><circle opacity=".9" stroke-width=".1" cx="469.557" cy="256.23" r=".677"/><path opacity=".9" fill="none" stroke-width="2.035" stroke-linecap="round" stroke-linejoin="round" d="M469.263 261.024q.084-.417.199-1.855t.206-2.746q.092-1.308.197-2.925.104-1.616.187-3.26.082-1.645.142-3.299.06-1.655.096-3.316.036-1.662.05-3.343.014-1.681.023-3.153.008-1.471.013-2.763.006-1.291.008-2.417l.004-2.093q.001-.968.015-2.132.014-1.165.042-2.527.028-1.363.069-2.923.041-1.561.096-3.32.055-1.76.108-3.244.053-1.485.103-2.695.05-1.21.098-2.145.047-.935.115-1.926.068-.991.149-2.06.081-1.07.151-1.887.071-.818.213-2.286.141-1.468.354-3.587.212-2.118.385-3.59.174-1.472.375-2.71t.511-2.584q.31-1.347.552-2.152.243-.805.577-1.705.334-.901.84-2.166t.894-2.157q.387-.892.79-1.671.404-.778 1.428-2.407 1.024-1.628 2.158-3.163 1.134-1.534 2.03-2.515.896-.981 1.836-1.819.94-.839 1.667-1.364.727-.525 1.527-.992.799-.467 2.212-1.124 1.413-.656 2.318-.954.905-.298 2.082-.527 1.178-.229 2.205-.408 1.028-.18 2.296-.386 1.269-.206 2.497-.384 1.227-.179 2.413-.331 1.186-.152 2.33-.276 1.144-.125 2.246-.222 1.103-.098 2.21-.185 1.107-.088 2.219-.165 1.111-.077 2.227-.144 1.116-.067 2.237-.124l2.035-.103 1.978-.099q1.063-.053 1.955-.095.892-.041 1.979-.068 1.087-.027 2.42-.027 1.333-.001 3.274.016 1.941.016 3.533.006 1.592-.01 2.834-.047 1.243-.037 2.877-.143 1.634-.106 3.659-.281 2.026-.175 3.604-.315l2.648-.236 2.162-.195q1.09-.099 1.977-.177.886-.079 1.909-.165 1.022-.086 1.842-.133.819-.047 1.938-.081 1.119-.033 2.235-.031 1.116.002 2.602.028 1.487.027 2.677.071t2.53.136q1.34.093 2.111.173.77.081 1.693.161.922.079 2.254.185 1.331.105 2.479.191 1.147.085 2.111.151.964.065 2.338.074 1.374.008 3.159-.04 1.785-.049 3.134-.101 1.35-.053 2.721-.139 1.371-.085 2.225-.176.854-.092 1.993-.186 1.138-.095 2.844-.224 1.707-.129 3.267-.237 1.561-.108 2.975-.195 1.414-.087 2.826-.146 1.412-.058 2.821-.087 1.409-.03 2.407-.031.998-.001 1.879.041.881.041 1.943.15 1.063.108 1.758.214.695.105 1.707.33 1.012.224 2.573.603 1.56.379 2.927.784 1.366.406 2.537.838 1.171.432 1.983.774.812.341 1.491.718.679.377 1.623 1.035.944.659 1.462 1.137t.841.835q.323.357 1.061 1.5.737 1.142 1.294 2.408.556 1.266.858 2.255.302.989.534 2.139.232 1.151.495 2.792.263 1.642.414 3.425.151 1.783.191 3.708.04 1.925.035 3.721-.004 1.796-.04 3.046l-.066 2.347q-.031 1.096-.067 2.455l-.08 2.981-.093 3.507q-.049 1.884-.089 3.525-.04 1.642-.07 3.039-.03 1.398-.051 2.552-.02 1.155-.032 2.065-.011.911-.022 2.12-.012 1.209-.024 2.716l-.025 3.312-.026 3.909q-.013 2.103-.021 4.02-.009 1.917-.014 3.649-.004 1.731-.004 3.276 0 1.546.005 2.905l.008 2.513.008 2.575.009 2.492q.004 1.071-.002 2.255-.005 1.184-.02 2.482l-.02 1.982q-.006.685-.004.755.003.07-.044.765-.048.695-.145 2.015-.098 1.319-.268 2.536-.169 1.218-.41 2.332-.241 1.114-.425 1.842-.183.727-.372 1.237-.188.51-.848 1.698-.66 1.187-.995 1.562-.335.375-1.085 1.012-.751.637-1.701 1.166-.949.529-2.348 1.163-1.4.633-2.655 1.085-1.255.452-2.366.722-1.112.27-2.049.455-.937.185-1.7.285-.762.1-2.11.163-1.347.064-3.28.09l-2.938.041q-1.006.014-1.085.017-.08.003-.71-.026-.63-.029-1.811-.09-1.18-.061-2.404-.107-1.223-.046-2.488-.077-1.265-.032-2.271-.044-1.005-.012-2.122-.002-1.118.01-2.011.055l-1.988.096-2.686.127q-1.592.074-3.021.146-1.429.072-2.46.126l-2.14.112q-1.109.059-2.094.109-.984.05-2.274.113-1.289.062-2.51.111-1.22.049-2.713.132t-3.258.201q-1.765.117-3.099.199-1.334.083-2.236.13l-2.11.114-2.19.122q-.982.054-2.141.12l-2.133.119-2.159.118q-1.185.064-2.448.127-1.262.062-2.126.119-.864.058-1.943.159-1.078.101-2.66.264-1.581.163-2.985.342-1.405.179-2.632.373t-2.645.471q-1.418.277-2.53.506-1.111.228-2.388.5t-2.402.508q-1.126.236-2.586.535-1.461.3-2.801.554-1.341.255-2.465.448-1.124.193-2.485.391-1.36.198-1.951.252-.591.054-1.393.096-.801.042-2.009.09-1.209.047-2.843.041-1.635-.007-3.695-.067-2.061-.061-3.598-.149-1.536-.088-3.055-.262-1.519-.174-2.293-.27-.775-.096-1.574-.212-.8-.116-1.883-.284-1.083-.168-2.16-.358-1.077-.191-2.147-.403-1.07-.212-2.027-.407-.958-.194-1.802-.371-.844-.176-2.001-.461-1.156-.284-2.624-.68-1.468-.396-2.422-.675-.954-.278-1.617-.512-.662-.234-1.76-.746-1.099-.512-1.886-.964-.788-.452-1.55-1.041-.762-.59-1.19-1.002-.429-.411-1.32-1.558-.89-1.146-1.852-3.235-.962-2.089-1.276-3.218-.314-1.129-.602-3.029t-.367-2.834q-.079-.933-.191-4.107"/><path opacity=".9" fill="none" stroke-width="1.925" stroke-linecap="round" stroke-linejoin="round" d="M509.056 208.404q-.161-.22-.4-.067-.111-.068-1.415-2.277-1.303-2.209-1.985-3.635-.682-1.426-1.294-2.205-.612-.78-1.878-1.327-1.265-.547-2.408-.291-1.143.256-2.358 1.321-1.215 1.064-1.543 2.756-.329 1.692.154 4.411.482 2.719 1.188 4.519.706 1.8 1.735 3.009 1.029 1.21 3.418 2.747 2.39 1.537 3.807 2.861 1.417 1.323 2.623 2.926 1.206 1.603 1.832 2.776.627 1.173.803 2.323.177 1.15.081 1.632-.096.482-.68 1.575-.452.38-2.026.942-1.574.563-3.834.932-2.261.37-4.941-.43-2.68-.801-6.525-2.697"/><path opacity=".9" fill="none" stroke-width="1.453" stroke-linecap="round" stroke-linejoin="round" d="M518.825 225.058q.375-.253 1.628-.921 1.253-.669 2.752-1.646 1.5-.976 1.943-1.33.444-.353.915-.831.47-.478.82-.781.35-.302.902-1.478.551-1.175.469-2.041-.083-.865-.978-1.289-.895-.423-2.812.22-1.917.644-2.936 1.441t-1.839 1.616q-.82.818-1.664 2.282t-1.139 3.949q-.295 2.486.334 3.639.629 1.154 1.193 1.636.564.482.942.69.378.208 1.293.511.916.302 2.715.398 1.8.095 4.597-1.056 2.797-1.151 3.271-1.353"/><path opacity=".9" fill="none" stroke-width="1.402" stroke-linecap="round" stroke-linejoin="round" d="M536.403 231.961q.053-.222.1-5.315.046-5.093-1.947-11.124l-.934-.94"/><path opacity=".9" fill="none" stroke-width="2.094" stroke-linecap="round" stroke-linejoin="round" d="M534.888 218.894l1.222-.149q.675.039 3.557-.663 2.881-.702 4.505-.882 1.624-.181 2.779.424 1.156.605 2.124 1.2"/><path opacity=".9" fill="none" stroke-width="1.517" stroke-linecap="round" stroke-linejoin="round" d="M552.51 216.383l.023.308"/><path opacity=".9" fill="none" stroke-width="1.807" stroke-linecap="round" stroke-linejoin="round" d="M552.544 216.845q.242 3.23.567 4.547.324 1.317.912 2.945.589 1.628 2.074 4.349 1.486 2.721 2.461 3.925.975 1.204 3.453 2.087.188-.072.887-2.323.7-2.252 1.559-5.584.86-3.332 1.816-5.172.956-1.839 1.492-2.667.537-.828 2.005-1.804l1.274-.316"/><path opacity=".9" fill="none" stroke-width="1.424" stroke-linecap="round" stroke-linejoin="round" d="M576.216 226.652q-.085.189-.277.322-.191.133-.342.113-.15-.02 1.675-1.464t3.09-2.699q1.265-1.256 1.798-2.167.534-.912.722-1.852.189-.939.122-1.656t-.261-1.051q-.194-.334-.843-.556-.649-.223-1.245-.189-.595.033-1.253.329-.658.296-2.139 1.625-1.481 1.329-2.842 4.481-1.362 3.152-1.425 4.919-.063 1.766.397 3.278.461 1.513 1.602 2.184 1.141.672 5.183.611 4.042-.06 7.537-.7 3.496-.639 4.298-.747"/><path opacity=".9" fill="none" stroke-width="1.518" stroke-linecap="round" stroke-linejoin="round" d="M603.028 232.558l-.066-.041q.071-.097-.844-4.552-.915-4.456-1.856-7.151-.941-2.695-1.585-3.642-.644-.948-1.442-1.25l-1.113.582"/><path opacity=".9" fill="none" stroke-width="1.502" stroke-linecap="round" stroke-linejoin="round" d="M600.841 220.816q.282-.031 3.936-.735 3.653-.705 5.612-.78 1.958-.076 3.351.203 1.394.278 3.21 1.441"/></g></svg>
