<svg xmlns="http://www.w3.org/2000/svg" viewBox="849.57 1385.573 2001.194 508.602"><path fill="none" stroke="#000" stroke-width="2.438" stroke-linecap="round" stroke-linejoin="round" d="M905.372 1505.678q-.127.55.083 2.78.181-.266 2.486-6.693 2.304-6.428 3.321-12.962 1.017-6.535.626-10.096-.391-3.56-1.368-5.637-.977-2.077-3.116-3.191-2.138-1.115-4.461-1.029-2.324.085-5.436 1.933-3.113 1.848-8.742 10.998-5.63 9.15-8.784 18.611-3.155 9.461-4.388 15.176-1.234 5.714-2.438 12.977-1.204 7.263-1.773 20.311-.569 13.049 2.126 22.795 1.944 1.718 9.069-2.738 7.126-4.455 8.343-5.514"/><path fill="none" stroke="#000" stroke-width="2.807" stroke-linecap="round" stroke-linejoin="round" d="M930.763 1466.079l-.333-.047q-.078.013-2.337 13.69-2.259 13.677-3.122 27.789-.863 14.112-2.719 28.705-1.856 14.594-5.059 27.194-.128-.053-.084-.213.045-.16.059-.059"/><path fill="none" stroke="#000" stroke-width="3.115" stroke-linecap="round" stroke-linejoin="round" d="M920.509 1542.638q.195-.17.739-1.122.545-.952 2.152-3.881 1.607-2.93 4.048-6.035 2.44-3.106 4.783-4.451 2.344-1.344 3.75-1.442 1.406-.099 2.498.766 1.093.866 1.996 4.823.903 3.958.748 7.929-.155 3.971-.456 16.608l1.835-.764"/><path fill="none" stroke="#000" stroke-width="3.535" stroke-linecap="round" stroke-linejoin="round" d="M958.315 1532.606l-.329.282q-1.629 1.979-2.304 7.141-.675 5.162-.276 7.351.399 2.188 1.032 3.245t2.104 1.436q1.472.379 5.417-2.21 3.945-2.588 6.504-5.878 2.559-3.29 3.331-6.109.772-2.819.118-5.145-.655-2.326-1.618-2.794-.963-.467-2.908-.525-1.945-.057-5.325 1.828-3.379 1.885-5.759 5.161-2.38 3.276-3.415 4.912"/><path fill="none" stroke="#000" stroke-width="4.274" stroke-linecap="round" stroke-linejoin="round" d="M975.174 1529.935q-.067.743-.141 5.527-.074 4.784.355 7.668.428 2.883.879 4.211.45 1.327.731 1.889.281.561 1.887 3.262"/><path fill="none" stroke="#000" stroke-width="2.634" stroke-linecap="round" stroke-linejoin="round" d="M994.907 1524.096q-.467.443-1 7.51-.532 7.068-1.333 21.452-.168.267 1.387-4.996 1.555-5.263 3.392-9.123 1.836-3.86 3.48-5.513 1.643-1.653 2.602-2.001.958-.348 1.87-.121.913.228 2.182 2.712t2.155 7.473q.885 4.989 1.349 7.426.463 2.437.82 3.599.357 1.162 1.584 2.299l1.94.428"/><path fill="none" stroke="#000" stroke-width="2.813" stroke-linecap="round" stroke-linejoin="round" d="M1037.191 1530.428l-.185.146q-1.11.806-2.97 5.349-1.86 4.544-1.868 6.98-.009 2.436.751 4.535.76 2.098 3.544 2.925 2.785.827 6.488-.789 3.703-1.617 6.227-4.576 2.524-2.959 3.383-5.444.859-2.486.866-4.658.007-2.171-.743-3.768-.751-1.597-1.982-2.485-1.231-.887-3.592-1.651-2.36-.764-8.351 1.697-5.99 2.462-8.182 3.813"/><path fill="none" stroke="#000" stroke-width="2.661" stroke-linecap="round" stroke-linejoin="round" d="M1052.951 1531.411q-.295.48-1.618 4.009-1.324 3.53-1.71 17.891-.387 14.362-.202 21.286.184 6.923-.661 11.206-.846 4.283-2.398 5.926-1.552 1.644-8.765 1.399-7.214-.246-10.616-.989"/><path fill="none" stroke="#000" stroke-width="2.4" stroke-linecap="round" stroke-linejoin="round" d="M1058.154 1538.757q.583-.124 3.497-.427 2.915-.303 9.45-3.228 6.535-2.926 9.941-5.663 3.407-2.737 4.617-5.286-.516-.251-4.706 1.686-4.19 1.937-7.263 4.435-3.074 2.497-4.188 4.313-1.115 1.815-1.04 4.864.074 3.049 5.849 4.951 5.775 1.902 12.333.744t9.832-2.24"/><path fill="none" stroke="#000" stroke-width="3.346" stroke-linecap="round" stroke-linejoin="round" d="M1120.346 1516.071q.509-1.081-.979-7.443-.962-1.078-4.171-1.284-3.208-.206-5.446.614-2.237.821-3.619 2.01-1.382 1.189-2.445 2.938t-1.416 4.586q-.352 2.838.201 5.15.554 2.311 3.694 5.239 3.14 2.927 7.8 5.986 4.661 3.059 7.054 5.575 2.392 2.516 2.954 3.936.563 1.42.655 2.525.092 1.106-3.762 4.172-3.854 3.067-8.738 5.138-4.885 2.072-8.26 3.487"/><path fill="none" stroke="#000" stroke-width="2.205" stroke-linecap="round" stroke-linejoin="round" d="M993.734 1570.081q.003 3.107.073 9.711l.141 13.471q.072 6.867.191 13.477.119 6.609.179 10.081.059 3.471.101 6.82.043 3.349.069 6.765l.05 6.807q.024 3.392.047 3.54.024.149-.008 6.408l.043 3.381"/><path fill="none" stroke="#000" stroke-width="3.237" stroke-linecap="round" stroke-linejoin="round" d="M993.92 1651.137q2.974.029 3.101.038.126.009 3.279-.025t6.49-.029q3.337.005 6.617-.082 3.28-.087 6.438-.162 3.158-.076 6.516-.119 3.359-.043 6.574-.117 3.216-.074 3.222-.083.007-.009 3.296-.036 3.288-.026 6.662-.019 3.374.007 9.812-.092 6.438-.099 9.846-.181 3.408-.082 3.448-.072.04.01 3.297-.06 3.257-.071 6.418-.128 3.162-.058 3.267-.069.106-.011.246-.011t3.263-.065q3.123-.064 3.266-.02.142.045 9.47.037"/><path fill="none" stroke="#000" stroke-width="2.38" stroke-linecap="round" stroke-linejoin="round" d="M1108.271 1651.925q-1.98 1.433-4.554 3.393-2.574 1.959-12.383 9.453l-2.289 1.713"/><path fill="none" stroke="#000" stroke-width="2.865" stroke-linecap="round" stroke-linejoin="round" d="M1110.044 1651.137q-1.781-1.932-3.967-3.814-2.186-1.881-4.7-4.058-2.515-2.177-7.03-6.297-4.514-4.121-6.398-6.147"/><path fill="none" stroke="#000" stroke-width="2.086" stroke-linecap="round" stroke-linejoin="round" d="M985.007 1573.056q-.036 3.296.021 10.303l.059 7.249q.001.242.091 10.803.091 10.561.115 14.268.024 3.708.172 10.76.147 7.053.287 14.025.139 6.972.194 14.103.055 7.13.125 14.129.071 6.999.115 10.691.044 3.691.038 7.135-.007 3.444-.027 7.016"/><path fill="none" stroke="#000" stroke-width="3.815" stroke-linecap="round" stroke-linejoin="round" d="M988.391 1696.705q3.409.177 3.424.181.015.004 3.603.072 3.588.067 10.618.112 7.031.044 13.826.155 6.794.111 10.249.165 3.455.055 3.583.053.128-.002 3.788.062 3.661.063 7.108.119 3.447.055 6.892.103 3.445.047 6.891.133 3.445.085 7.1.145 3.654.06 7.217.14 3.562.08 7.023.073 3.462-.006 6.798.03 3.337.036 3.489.034.152-.002 3.608.055t6.824.258"/><path fill="none" stroke="#000" stroke-width="2.749" stroke-linecap="round" stroke-linejoin="round" d="M1108.061 1702.06q-2.037 1.696-2.168 1.899-.131.203-2.531 2.122-2.401 1.918-5.002 3.99-2.601 2.071-5.006 4.132-2.406 2.061-4.798 4.201"/><path fill="none" stroke="#000" stroke-width="2.682" stroke-linecap="round" stroke-linejoin="round" d="M1108.761 1700.467q-1.521-2.018-3.405-4.423-1.884-2.405-14.934-18.361"/><path fill="none" stroke="#000" stroke-width="2.19" stroke-linecap="round" stroke-linejoin="round" d="M957.172 1580.878q.063 3.135.329 13.765t.495 20.906l.317 14.216q.088 3.94.295 11.059t.378 14.38q.17 7.261.307 13.635.137 6.373.272 10.525.136 4.152.238 7.485.103 3.334.311 10.229.209 6.895.362 13.709t.37 14.047q.217 7.233.349 11.073.132 3.84.311 10.589.18 6.75.278 10.332l.107 3.93q.009.348.101 3.445.093 3.097.11 3.547.017.45.094 3.545.076 3.096.088 3.39.012.295.139 4.022.126 3.727.395 13.316"/><path fill="none" stroke="#000" stroke-width="3.105" stroke-linecap="round" stroke-linejoin="round" d="M962.515 1792.618q2.92-.035 6.612-.055 3.691-.02 6.778-.052 3.086-.033 6.567-.137 3.482-.104 6.968-.177 3.487-.073 7.111-.105 3.624-.032 10.202-.167 6.578-.135 6.806-.162.228-.027 3.592-.14 3.365-.113 6.857-.178 3.491-.066 10.082-.201 6.591-.136 9.923-.242 3.331-.106 3.588-.122.257-.015.381-.029.124-.013 6.826-.129 6.702-.115 13.32-.208 6.618-.093 10.087-.194l3.913-.114q.048.002 16.53-.161"/><path fill="none" stroke="#000" stroke-width="2.766" stroke-linecap="round" stroke-linejoin="round" d="M1101.038 1789.748q-1.75 2.853-3.669 5.404-1.918 2.551-5.768 7.778-3.85 5.226-5.519 8.009"/><path fill="none" stroke="#000" stroke-width="2.826" stroke-linecap="round" stroke-linejoin="round" d="M1100.945 1794.49q-1.249-2.184-2.74-4.719t-3.164-5.31q-1.673-2.775-4.541-8.013-2.867-5.238-4.021-7.804"/><path fill="none" stroke="#000" stroke-width="2.253" stroke-linecap="round" stroke-linejoin="round" d="M937.246 1568.891q.041 2.849.162 14.72.121 11.872.286 26.109.165 14.237.258 21.447.094 7.21.137 10.742.042 3.532.126 11.584.084 8.051.169 14.804.085 6.752.263 21.489.178 14.738.296 22.346.118 7.608.178 12.173l.153 11.331q.093 6.767.196 13.847.103 7.08.177 11.26.075 4.18.174 11.196.1 7.017.176 11.448.075 4.432.201 10.924.126 6.493.207 10.779.08 4.285.136 7.609.056 3.324.151 7.677.096 4.353.153 7.709.058 3.356.142 7.229.085 3.873.204 10.207.12 6.333.174 7.859l.058 3.337"/><path fill="none" stroke="#000" stroke-width="3.147" stroke-linecap="round" stroke-linejoin="round" d="M944.993 1860.094q3.28-.252 3.307-.261.027-.009 6.883-.428 6.857-.42 10.481-.635 3.624-.214 6.905-.424 3.28-.209 10.059-.618 6.779-.41 10.624-.638 3.845-.228 10.703-.757 6.857-.529 10.395-.781 3.537-.252 6.791-.469 3.255-.216 3.443-.241.188-.025 3.618-.27 3.43-.245 6.766-.47 3.337-.225 3.549-.231.213-.006 6.713-.381 6.5-.374 6.732-.365.232.01 3.692-.227 3.46-.237 6.803-.472 3.342-.236 3.606-.224.263.012 3.381-.175 3.118-.188 6.643-.392 3.525-.205 3.806-.211.28-.005 3.411-.193 3.132-.187 6.721-.464"/><path fill="none" stroke="#000" stroke-width="2.417" stroke-linecap="round" stroke-linejoin="round" d="M1104.491 1852.85q-1.281 1.492-7.159 7.402-5.879 5.909-7.839 8.003-1.959 2.094-3.527 3.826"/><path fill="none" stroke="#000" stroke-width="2.776" stroke-linecap="round" stroke-linejoin="round" d="M1104.701 1853.55q-2.002-2.33-4.313-4.967-2.31-2.636-17.782-20.092"/><path fill="none" stroke="#000" stroke-width="2.234" stroke-linecap="round" stroke-linejoin="round" d="M1503.091 1694.52l-2.756-1.6.015-.071q-.044.007-6.716-3.996-6.672-4.004-13.348-8.019-6.677-4.015-9.885-6.09t-3.405-2.188q-.197-.114-3.383-2.039-3.185-1.925-3.33-1.975-.144-.049-3.35-2.011-3.207-1.961-3.29-2.017-.083-.056-3.306-1.805-3.222-1.75-3.309-1.8-.087-.05-.318-.052-5.936-3.388-8.649-4.738"/><path fill="none" stroke="#000" stroke-width="2.956" stroke-linecap="round" stroke-linejoin="round" d="M1501.624 1693.408q-2.559 1.119-6.051 2.637-3.492 1.517-3.904 1.656-.413.138-9.702 4.59"/><path fill="none" stroke="#000" stroke-width="2.097" stroke-linecap="round" stroke-linejoin="round" d="M1501.898 1697.161q-.718-3.701-1.337-12.233-.62-8.532.125-12.614"/><path fill="none" stroke="#000" stroke-width="2.455" stroke-linecap="round" stroke-linejoin="round" d="M1405.53 1794.923l3.919-1.973q.373-.141 9.159-4.43 8.787-4.289 18.396-8.483 9.609-4.193 14.816-6.141 5.208-1.949 5.464-2.026.256-.078 5.827-1.686 5.57-1.609 11.462-3.006 5.891-1.397 6.132-1.462.241-.064 6.208-1.12 5.967-1.057 12.179-1.93"/><path fill="none" stroke="#000" stroke-width="2.706" stroke-linecap="round" stroke-linejoin="round" d="M1502.155 1763.603q-.216 1.443-.197 1.346.018-.098-.09-.039-.107.059-1.129 5.346-1.023 5.287-2.885 15.487l-.355 1.344"/><path fill="none" stroke="#000" stroke-width="3.676" stroke-linecap="round" stroke-linejoin="round" d="M1498.795 1760.082q-2.023-.558-2.293-.358-.27.199-2.812-.362-2.541-.561-10.499-1.554"/><path fill="none" stroke="#000" stroke-width="3.365" stroke-linecap="round" stroke-linejoin="round" d="M1915.92 1461.978l.463.013q.327-.675 1.269-3.761.942-3.085.946-6.823.004-3.738-.633-5.638-.638-1.899-2.139-3.13-1.501-1.231-3.888-1.618-2.386-.387-5.454 1.217-3.067 1.603-8.537 8.782-5.471 7.179-10.71 20.32-5.24 13.14-5.661 25.962.034.382 4.643 1.484 4.608 1.102 7.366 1.471 2.758.368 4.181 1.028 1.422.661 2.244 1.434.822.772 1.92 2.71"/><path fill="none" stroke="#000" stroke-width="3.057" stroke-linecap="round" stroke-linejoin="round" d="M1938.566 1436.888q-.687.215-2.021 2.487-1.334 2.272-3.722 11.176-2.388 8.902-3.332 16.077-.944 7.174-5.804 37.612-.273-.255.797-5.917 1.069-5.663 2.353-9.246 1.284-3.583 3.763-6.692 2.48-3.109 3.657-3.98 1.178-.871 2.141-1.131.964-.26 1.544-.21.579.05.629.026.049-.024.909.763.861.786 3.694 20.58.556.458.831.417.275-.041 1.24.236"/><path fill="none" stroke="#000" stroke-width="3.634" stroke-linecap="round" stroke-linejoin="round" d="M1958.145 1481.199q-.262.312-.977 2.04-.715 1.729-.966 4.601t.74 4.586q.991 1.715 1.77 2.193.778.478 2.73.981 1.952.504 5.237-.448 3.284-.952 6.284-3.12 3.001-2.169 4.61-4.475 1.61-2.306 1.96-5.536.35-3.229-.023-4.895-.371-1.666-1.956-3.102-1.585-1.437-4.173-1.693-2.588-.257-6.056 2.819t-4.651 4.479"/><path fill="none" stroke="#000" stroke-width="4.049" stroke-linecap="round" stroke-linejoin="round" d="M1976.778 1474.62q.105.33.205 6.04.1 5.71 1.017 9.484.916 3.773 2.015 5.514 1.099 1.74 4.933 4.159"/><path fill="none" stroke="#000" stroke-width="3.185" stroke-linecap="round" stroke-linejoin="round" d="M1991.014 1476.929l-.212.235q-.091.116.189 1.582t.55 3.935q.27 2.468.287 5.483.017 3.015.051 6.47.02-.198.654-1.676.635-1.477 1.859-4.214 1.225-2.738 2.426-4.951 1.201-2.213 3.02-4.719 1.819-2.505 3.645-3.551 1.826-1.046 2.954-1.192 1.127-.147 2.12.067.992.214 2.203 1.167 1.211.954 2.194 2.171.983 1.216 2.509 3.621 1.526 2.405 2.526 4.588 1 2.182 3.145 9.849"/><path fill="none" stroke="#000" stroke-width="2.832" stroke-linecap="round" stroke-linejoin="round" d="M2032.533 1484.617q-.695.475-.99.812-.295.337-.803 2.395-.507 2.059-.328 3.681.179 1.622 1.153 2.448.975.825 3.975 1.139 3.001.315 5.107-.253 2.107-.567 4.28-1.736t4.603-3.573q2.43-2.404 3.129-5.488.699-3.085.335-4.8-.365-1.715-1.638-2.718-1.274-1.003-3.58-1.478-2.305-.474-6.705 1.784t-6.703 4.132"/><path fill="none" stroke="#000" stroke-width="2.696" stroke-linecap="round" stroke-linejoin="round" d="M2052.857 1480.833q-.039.085 1.939-.523.471-.137-.754 6.142-1.224 6.28-2.119 12.371-.896 6.092-.948 14.934-.053 8.841-.701 14.968-.647 6.128-1.599 8.919-.951 2.791-2.269 4.318-1.317 1.527-5.218 1.839-3.901.312-6.507-.377-2.607-.69-4.814-1.489"/><path fill="none" stroke="#000" stroke-width="3.054" stroke-linecap="round" stroke-linejoin="round" d="M2057.243 1482.424q1.015.377 4.506 1.105 3.492.728 7.124.661 3.633-.067 7.609-2.158 3.977-2.09 6.648-5.58 2.67-3.49 2.674-7.691-1.511-.837-5.95 1.938t-7.563 6.704q-3.124 3.929-4.047 6.772-.924 2.843-.731 4.113.193 1.269.465 1.856.273.587 12.887 1.957t14.59 1.524"/><path fill="none" stroke="#000" stroke-width="3.831" stroke-linecap="round" stroke-linejoin="round" d="M2126.644 1462.946q-.117.04-.938-.762-.297-.151-5.455.173-5.157.323-9.087 2.502-3.931 2.179-5.22 3.655-1.289 1.475-1.793 3.609t.674 3.806q1.178 1.671 7.462 5.575 6.283 3.903 9.701 6.44 3.418 2.537 5.281 5.205 1.864 2.668 2.35 4.69.486 2.023.236 4.205-.25 2.181-6.792 4.016-6.541 1.835-9.691 2.293"/><path fill="none" stroke="#000" stroke-width="2.658" stroke-linecap="round" stroke-linejoin="round" d="M2026.773 1527.038l.068 2.542q.11 5.064.258 11.262.148 6.198.287 14.243.138 8.045.282 13.78.144 5.734.256 11.448.111 5.714.335 17.028.224 11.313.343 17.106.119 5.793.22 11.189.101 5.397.167 8.592.066 3.196.167 8.439.1 5.242.152 8.129.053 2.886.113 5.958.061 3.071.108 5.99l.139 8.399q.091 5.481.13 8.402.038 2.92.084 5.604.045 2.684.111 5.896.067 3.213.166 8.533.099 5.32.124 7.996.026 2.676.024 2.947-.001.272.046 3.02t.053 2.821q.005.074.049 2.823.044 2.749.096 5.487.051 2.738.083 3.885l.138 7.675"/><path fill="none" stroke="#000" stroke-width="2.948" stroke-linecap="round" stroke-linejoin="round" d="M2099.288 1732.733l-2.253.119q-.001.039-7.506.485-7.505.447-12.657.675-5.152.228-7.753.381-2.602.153-5.154.331-2.552.179-5.274.317-2.721.138-5.313.281-2.591.143-5.131.302-2.54.158-5.164.339-2.625.18-4.951.296-2.326.116-4.439.312"/><path fill="none" stroke="#000" stroke-width="2.919" stroke-linecap="round" stroke-linejoin="round" d="M2112.188 1730.748l-5.072 5.469q-3.569 3.849-5.408 5.969-1.838 2.121-5.328 5.935l-1.424 1.77"/><path fill="none" stroke="#000" stroke-width="2.922" stroke-linecap="round" stroke-linejoin="round" d="M2114.031 1727.911l-1.772-1.199q-3.786-2.587-12.233-7.8-8.448-5.212-9.814-6.484"/><path fill="none" stroke="#000" stroke-width="2.939" stroke-linecap="round" stroke-linejoin="round" d="M1990.408 1514.217l.093 2.671q.003.59.241 8.909.238 8.32.418 14.505.181 6.186.462 14.832.281 8.647.524 17.713.244 9.066.421 14.957l.867 28.624q.688 22.734.927 32.24.238 9.506.652 23.941l.666 23.272q.253 8.838.406 14.452.154 5.614.229 8.646.075 3.032.138 6.302.064 3.269.192 8.307.129 5.038.207 7.963.078 2.925.174 5.924.096 2.999.174 6.002.078 3.003.14 5.896.062 2.893.138 6.053.075 3.16.231 8.623-.007.451.09 5.255.006.428.098 3.713"/><path fill="none" stroke="#000" stroke-width="3.125" stroke-linecap="round" stroke-linejoin="round" d="M1998.818 1784.943q2.44-.203 5.371-.436 2.932-.233 8.256-.547 5.325-.313 8.233-.475 2.909-.162 11.136-.794 8.227-.631 13.684-1.043 5.457-.413 8.262-.587 2.805-.174 5.445-.299 2.64-.124 5.477-.242 2.836-.118 5.555-.278 2.718-.159 5.704-.398 2.986-.238 5.697-.421 2.712-.183 7.982-.6 5.269-.417 11.161-.858.164.032 2.731-.111 2.568-.143 2.615-.16.046-.016 5.598-.383l5.287-.318q.117-.007.196-.003.08.004 7.977-.633"/><circle stroke="#000" stroke-width=".1" cx="2126.518" cy="1778.356" r="1.232"/><path fill="none" stroke="#000" stroke-width="2.715" stroke-linecap="round" stroke-linejoin="round" d="M2131.262 1780.356q-1.218.722-1.245.671-.027-.051-1.663 1.082-1.635 1.133-3.318 2.49-1.683 1.357-3.131 2.506-1.447 1.15-2.64 1.999"/><path fill="none" stroke="#000" stroke-width="3.618" stroke-linecap="round" stroke-linejoin="round" d="M2129.086 1775.695q-.805-1.977-1.719-3.93-.915-1.954-1.7-4.112-.786-2.157-.972-2.296-.186-.139-1.764-6.305"/><path fill="none" stroke="#000" stroke-width="6.1" stroke-linecap="round" stroke-linejoin="round" stroke-dasharray="0.610,9.150" d="M2162.472 1621.858l225.936.573"/><path fill="none" stroke="#000" stroke-width="2.805" stroke-linecap="round" stroke-linejoin="round" d="M2389.053 1503.807q4.045.063 13.102-.003t13.802-.104q4.744-.038 9.368-.091 4.624-.054 9.321-.087 4.697-.034 9.243-.046 4.546-.011 13.467.009 8.92.021 13.774-.056 4.855-.076 13.763-.032 8.908.045 13.513.011l4.829-.035 4.644-.046q4.421-.043 9.156-.124 4.736-.081 9.221-.109 4.484-.028 8.945-.076 4.46-.049 4.71-.095l13.173.087"/><path fill="none" stroke="#000" stroke-width="2.453" stroke-linecap="round" stroke-linejoin="round" d="M2558.397 1499.307q-2.727 1.989-5.676 4.865-2.949 2.875-8.918 8.515-5.969 5.64-8.656 7.972"/><path fill="none" stroke="#000" stroke-width="2.643" stroke-linecap="round" stroke-linejoin="round" d="M2559.178 1496.378q-2.22-1.991-2.316-2.119-.095-.128-15.059-12.342"/><path fill="none" stroke="#000" stroke-width="2.857" stroke-linecap="round" stroke-linejoin="round" d="M2410.022 1760.331q4.494.067 17.413.235 12.919.167 13.151.178.231.01 4.665-.035 4.435-.045 8.867-.069 4.432-.024 8.756-.054t8.865-.028q4.542.001 8.869.018 4.328.016 4.498-.004.17-.02 4.437-.126t4.407-.078q.14.029 4.384-.011 4.244-.039 8.629-.086l4.687-.05q.303-.002 4.691.031 4.388.034 8.639.06 4.25.025 4.447-.013.175.102 8.727.056l4.305.116"/><path fill="none" stroke="#000" stroke-width="2.894" stroke-linecap="round" stroke-linejoin="round" d="M2556.397 1756.206q-3.107 2.737-6.672 5.46-3.565 2.723-7.143 5.436-3.578 2.714-13.779 11.533"/><path fill="none" stroke="#000" stroke-width="2.674" stroke-linecap="round" stroke-linejoin="round" d="M2556.928 1764.432q-1.025-2.872-2.79-5.826-1.766-2.954-9.554-18.174"/><path fill="none" stroke="#000" stroke-width="2.984" stroke-linecap="round" stroke-linejoin="round" d="M1568.107 1674.357q.042-.159-.134-1.648-.176-1.488-.375-2.093t-.489-1.127q-.289-.522-2.019-1.139-1.731-.617-3.993-.466-2.264.15-5.636 1.982-3.372 1.832-6.133 5.214-2.76 3.381-4.263 9.163-1.504 5.781-.538 8.482.967 2.701 2.173 4.171 1.206 1.47 1.769 1.939.563.468 1.746 1.214 1.183.747 3.712 1.085 2.529.338 8.679-.789"/><path fill="none" stroke="#000" stroke-width="2.613" stroke-linecap="round" stroke-linejoin="round" d="M1578.191 1695.409q-.036 1.734-.022 2.997.014 1.263.287 2.288.274 1.024 2.108 1.923 1.833.899 4.322.228t3.755-1.758q1.266-1.086 1.977-3.258.71-2.172.451-3.515-.258-1.342-1.334-2.274-1.076-.932-2.957-1.144-1.881-.212-3.614.517-1.733.729-2.984 1.319"/><path fill="none" stroke="#000" stroke-width="2.787" stroke-linecap="round" stroke-linejoin="round" d="M1604.383 1687.702q-.211.348 2.57 9.74.677-.159 1.719-1.049 1.042-.891 2.142-1.474 1.1-.583 2.289-.611.409.202 3.36 3.428.737.165 1.624-.142.888-.309 1.723-.724.836-.415 2.988-1.439 2.153-1.023 6.76-.529.744 1.105.844 1.146.099.042 1.344 5.317l1.18 1.757"/><path fill="none" stroke="#000" stroke-width="2.8" stroke-linecap="round" stroke-linejoin="round" d="M1644.642 1692.627l-.431-.003-.626.359q-.102.011-1 1.461-.898 1.45-1.008 2.657-.111 1.207.067 1.927.177.72.496 1.139.318.418.814.805.496.388.526.475.029.086 1.944.727 1.915.64 4.166.556 2.252-.082 3.577-.606 1.325-.524 3.241-1.933 1.916-1.409 2.909-2.548.993-1.14 1.772-2.768.779-1.627.427-3.653.105-.281-1.613-.892-1.717-.611-3.279-.46-1.562.152-3.851.579"/><path fill="none" stroke="#000" stroke-width="2.414" stroke-linecap="round" stroke-linejoin="round" d="M1643.749 1696.69q-.145-.209-.698-.577-.201-.968-.516-27.24-.342-.368-.731-1.754"/><path fill="none" stroke="#000" stroke-width="2.837" stroke-linecap="round" stroke-linejoin="round" d="M1676.366 1705.266q.191-.505-.319-5.714-.511-5.208-1.73-8.762-1.22-3.553-1.708-4.781"/><path fill="none" stroke="#000" stroke-width="2.081" stroke-linecap="round" stroke-linejoin="round" d="M1673.719 1676.499q.759.111 1.205.266.446.155 1.76.631"/><path fill="none" stroke="#000" stroke-width="2.949" stroke-linecap="round" stroke-linejoin="round" d="M1689.479 1680.182q-.276.312-.371.467-.207.348-.125 4.595.081 4.246.66 7.644.58 3.397 2.873 6.914.337-.385.704-2.731.367-2.346 1.425-4.979 1.058-2.632 2.161-3.81 1.103-1.177 2.2-1.481 1.097-.305 2.534.151 1.437.456 2.008.985.572.528 1.078 1.031.506.504 1.826 3.385 1.32 2.882 1.598 6.018.278 3.137.248 3.558"/><path fill="none" stroke="#000" stroke-width="2.064" stroke-linecap="round" stroke-linejoin="round" d="M1722.316 1681.821l-.435.465q-.28.394-1.767 3.701"/><path fill="none" stroke="#000" stroke-width="2.622" stroke-linecap="round" stroke-linejoin="round" d="M1720.114 1685.987q1.588.232 3.423.137 1.835-.094 3.775-.342 1.94-.248 4.043-1.345 2.103-1.098 3.138-2.26 1.034-1.163 1.094-1.664.06-.5-.01-.886-.071-.386-2.728-1.146-2.656-.76-4.936-.56-2.28.2-4.3 1.268-2.019 1.068-3.208 2.759-1.189 1.69-1.398 4.234-.21 2.543.964 4.67 1.173 2.127 4.543 4.469 3.371 2.34 7.542 3.598 4.171 1.259 11.48.715 7.31-.543 9.002-.815"/><path fill="none" stroke="#000" stroke-width="3.123" stroke-linecap="round" stroke-linejoin="round" d="M1595.186 1735.406l-.173-1.408-.091.037q-.122 1.296-.043 11.435.078 10.14.278 16.229.199 6.089.453 8.687.255 2.599.928 3.879l.883.014"/><path fill="none" stroke="#000" stroke-width="2.649" stroke-linecap="round" stroke-linejoin="round" d="M1603.998 1747.119l-1.212.142q-.68-.224-8.502 2.264-7.822 2.487-9.936 3.313"/><path fill="none" stroke="#000" stroke-width="3.006" stroke-linecap="round" stroke-linejoin="round" d="M1612.939 1733.346q-.723 1.299-1.684 6.852-.962 5.553-.672 10.243.29 4.691 1.927 12.35 1.636 7.659 2.864 13.911.088.043.377.878"/><path fill="none" stroke="#000" stroke-width="2.914" stroke-linecap="round" stroke-linejoin="round" d="M1614.885 1762.304q.254-.101 11.13-.348.427.039 2 3.062 1.574 3.022 3.878 6.981l1.217 1.436"/><path fill="none" stroke="#000" stroke-width="2.328" stroke-linecap="round" stroke-linejoin="round" d="M1640.475 1767.997l1.199-.177 1.622-.321q.279.031 3.014-1.146 2.735-1.177 3.559-1.85.824-.673 1.196-1.346.373-.674.089-1.273-.284-.599-1.508-.972-1.224-.372-2.567-.429-1.342-.058-2.371.352t-1.679 1.239q-.649.829-.7 1.641-.052.812-.112 1.074-.059.261 1.04 1.942 1.099 1.682 3.889 3.596 2.791 1.915 4.562 2.532 1.77.618 2.919.652 1.149.035 3.497.063"/><path fill="none" stroke="#000" stroke-width="2.227" stroke-linecap="round" stroke-linejoin="round" d="M1668.644 1766.634l.248-.369q2.42-1.054 3.848-1.745 1.427-.691 2.389-1.494.963-.802 1.016-1.298.054-.497-.045-.842-.099-.346-.522-.689-.422-.343-2.865-.416-2.442-.073-3.624.714-1.182.787-2.046 2.791-.865 2.004-.567 4.193.298 2.189 1.158 3.151.862.963 1.771 1.422.91.459 3.256.843 2.346.383 4.212-.002 1.865-.385 4.353-1.074"/><path fill="none" stroke="#000" stroke-width="2.688" stroke-linecap="round" stroke-linejoin="round" d="M1700.395 1759.146l-1.324-1.579-1.303-.39q-1.617-.304-4.152-.099-2.534.206-3.556.943-1.021.736-1.214 1.073-.193.338-.271.906-.078.568.54 1.488t4.275 3.309q3.656 2.39 6.313 5.858.438.271-3.162 1.367t-5.298 1.492"/><path fill="none" stroke="#000" stroke-width="2.239" stroke-linecap="round" stroke-linejoin="round" d="M1712.67 1766.502q10.065-.755 13.269-1.759 3.205-1.004 5.211-2.433 2.006-1.429 2.474-4.333-.891-.783-4.763-1.185-3.872-.403-7.32.496-3.449.899-5.503 2.73-2.054 1.831-2.661 3.812-.607 1.98-.302 3.22.305 1.241.543 1.901.238.661 7.801 3.389 7.563 2.729 9.597 3.121"/><path fill="none" stroke="#000" stroke-width="3.028" stroke-linecap="round" stroke-linejoin="round" d="M2616.769 1476.793q.058-.079.12-1.322l.266-.393q.218-.857.169-.984-.034-1.074-.164-2.001-.131-.927-.404-1.331-.273-.403-1.083-1.015-.809-.612-2.456-.713-1.648-.101-2.867.233-1.22.334-2.671 1.196-1.451.863-3.283 3.014-1.831 2.152-2.71 5.631-.879 3.478-.456 6.468.424 2.99 4.541 8.847 4.116 5.857 6.679 9.171 2.562 3.314 3.262 5.014.701 1.699.606 3.354-.094 1.655-4.329 3.627-4.236 1.972-7.725 2.795-3.49.823-5.704 1.391"/><path fill="none" stroke="#000" stroke-width="3.14" stroke-linecap="round" stroke-linejoin="round" d="M2626.687 1509.075q4.605-.826 5.366-1.148.761-.322.842-.343.08-.022 1.363-1.019 1.283-.997 1.69-2.153.407-1.157.167-2.891-.239-1.735-1.603-2.284-1.364-.55-2.506-.389-1.141.16-1.834.445-.694.284-2.607 2.04-1.912 1.755-2.999 4.921-1.087 3.167-1.029 5.757.057 2.591.734 3.985.676 1.393 2.315 2.642 1.639 1.249 4.129 1.699 2.489.449 5.07.07 2.581-.379 3.766-.632"/><path fill="none" stroke="#000" stroke-width="4.176" stroke-linecap="round" stroke-linejoin="round" d="M2647.395 1502.08q-.075-.167-.641-.732-.473.531-.637.564-.165.032-.363 6.667-.198 6.635.182 11.215.38 4.579 1.076 9.011.696 4.431 1.716 8.528.227.139-.789-4.542-1.014-4.681-1.397-6.111"/><path fill="none" stroke="#000" stroke-width="4.795" stroke-linecap="round" stroke-linejoin="round" d="M2647.314 1508.039q.269-.443 1.584-2.851t2.515-3.219q1.2-.81 2.542-.932 1.342-.122 2.554.042 1.211.164 2.236 1.24 1.025 1.076 1.48 3.733.455 2.657-1.034 5.607-1.488 2.949-9.378 7.674"/><path fill="none" stroke="#000" stroke-width="3.642" stroke-linecap="round" stroke-linejoin="round" d="M2672.331 1505.021q-.171-.025-.673.029-.501.054-.558.065-.057.012-.717.699-.66.687-.803 2.322-.144 1.635-.024 2.552.119.916 1 1.929.882 1.013 2.618 1.548 1.737.535 3.507-.164 1.77-.698 2.992-1.88 1.222-1.181 1.961-3.086.738-1.904.637-3.146-.101-1.241-.693-1.86-.591-.618-2.446-.728-1.855-.11-4.512 1.476-2.657 1.586-6.333 6.28"/><path fill="none" stroke="#000" stroke-width="4.139" stroke-linecap="round" stroke-linejoin="round" d="M2678.976 1504.671l.523.447q3.919 7.815 5.142 9.996 1.223 2.181 2.36 3.265 1.138 1.083 2.604 2.433"/><path fill="none" stroke="#000" stroke-width="3.23" stroke-linecap="round" stroke-linejoin="round" d="M2702.713 1517.702q.051-.357-.801-4.897-.851-4.54-4.149-12.356-3.298-7.815-3.85-8.902"/><path fill="none" stroke="#000" stroke-width="3.064" stroke-linecap="round" stroke-linejoin="round" d="M2697.86 1499.939l.494-.286q.29.023.712-.033.422-.057.861-.389.44-.332.994-.765.555-.433 1.48-.97.925-.536 1.082-.523.158.013 2.745-.795t7.561-1.4l2.117.313"/><path fill="none" stroke="#000" stroke-width="3.27" stroke-linecap="round" stroke-linejoin="round" d="M2724.965 1503.393l-1.763.817q-.211.037-1.639 1.707-1.428 1.67-1.552 2.585-.124.914-.094 1.69.029.776.24.927.211.15 1.237.692 1.027.543 2.896.781 1.868.238 3.139.079 1.271-.159 3.393-.916 2.122-.758 3.509-2.062 1.387-1.305 1.728-2.45.34-1.146.106-1.91-.235-.765-.758-1.488t-2.251-1.267q-1.727-.545-3.676-.531-1.949.013-4.201 1.348-2.251 1.336-3.504 2.201"/><path fill="none" stroke="#000" stroke-width="4.561" stroke-linecap="round" stroke-linejoin="round" d="M2732.967 1500.573l-.037.134q-.261 1.499 3.257 8.271 3.518 6.772 4.143 7.668"/><path fill="none" stroke="#000" stroke-width="3.369" stroke-linecap="round" stroke-linejoin="round" d="M2754.989 1520.841l-.006-.154q.154-.915-1.522-13.277-1.675-12.362-2.182-20.79-.507-8.428-.696-10.727"/><path fill="none" stroke="#000" stroke-width="5.019" stroke-linecap="round" stroke-linejoin="round" d="M2763.072 1489.726q-.983-.543-4.736-.518-3.753.025-6.208.468-2.456.443-4.992.923-2.536.479-6.615 1.579-4.078 1.099-6.55 1.922"/><path fill="none" stroke="#000" stroke-width="2.507" stroke-linecap="round" stroke-linejoin="round" d="M2771.413 1510.805l.25.061 1.492-.153q1.159-.28 5.138-1.297 3.98-1.017 5.95-2.257 1.971-1.241 2.64-2.597.668-1.357.508-2.349-.161-.991-2.164-1.762-2.004-.771-3.947-.839-1.943-.069-4.346.817-2.404.887-4.353 2.497-1.95 1.61-2.591 3.353-.641 1.743-.532 2.543.11.8.531 1.717.421.917 3.31 2.91 2.889 1.992 6.973 3.001 4.083 1.009 6.662.939 2.578-.071 4.83-.294"/><path fill="none" stroke="#000" stroke-width="4.469" stroke-linecap="round" stroke-linejoin="round" d="M2622.071 1778.64l.058-.281-.284-3.032q-.337-1.491-1.486-13.677t-2.469-21.767q-1.32-9.581-2.466-16.897l-.499-.813"/><path fill="none" stroke="#000" stroke-width="3.632" stroke-linecap="round" stroke-linejoin="round" d="M2627.489 1733.229q-.134-.116-.59-.458-1.193-.489-7.047 1.892-5.854 2.381-9.581 4.229-3.727 1.847-6.218 2.5-2.491.652-6.897-.018"/><path fill="none" stroke="#000" stroke-width="2.794" stroke-linecap="round" stroke-linejoin="round" d="M2634.918 1716.849q-.36 1.447-1.241 9.403-.882 7.956.607 18.625 1.489 10.669 2.817 16.292 1.327 5.623 2.146 10.892l-.316.491q.014-.096.317-.141"/><path fill="none" stroke="#000" stroke-width="2.897" stroke-linecap="round" stroke-linejoin="round" d="M2637.332 1758.747l.574.011q.974-.218 3.02-1.583 2.046-1.365 5.001-2.509 2.955-1.144 4.673-1.152 1.718-.008 2.735.297 1.017.306 1.868 1.978.851 1.672 1.291 4.752.44 3.079 1.796 10.596.093.067 1.449.28"/><path fill="none" stroke="#000" stroke-width="2.578" stroke-linecap="round" stroke-linejoin="round" d="M2670.386 1760.859l.607.265q.943.332 4.071-.941 3.129-1.272 4.668-2.655 1.54-1.383 2.223-2.707.684-1.323.526-2.392.011-.155-2.033-.331-2.043-.175-5.443 1.473-3.399 1.648-5.701 4.046-2.302 2.397-3.039 5.319-.736 2.921-.577 4.196.16 1.276.565 2.042.404.767 1.67 1.733 1.266.966 4.893 1.239 3.628.273 6.783-1.281 3.156-1.555 5.362-2.979"/><path fill="none" stroke="#000" stroke-width="2.367" stroke-linecap="round" stroke-linejoin="round" d="M2697.431 1761.16l.184-.088q.387.129 3.983-1.804t5.502-3.538q1.906-1.605 2.643-2.702.738-1.097.551-2.207-.186-1.111-2.377-1.569-2.191-.459-5.466.633-3.275 1.091-5.748 3.285-2.473 2.194-3.656 5.302-1.182 3.108-1.032 5.994.151 2.885 1.152 4.417 1.003 1.532 3.765 2.56 2.762 1.027 10.629-2.923 7.867-3.95 9.248-4.84"/><path fill="none" stroke="#000" stroke-width="2.503" stroke-linecap="round" stroke-linejoin="round" d="M2741.322 1749.2l-1.297-.115-1.442-.246q-.282-.115-4.097-.32-3.815-.205-5.892.406-2.077.612-2.771 1.171-.695.559-1.161.957-.466.398-1.19 2.596t.279 3.492q1.004 1.293 2.502 2.119 1.498.826 1.978.996.479.171 4.059 1.515 3.579 1.345 6.61 3.328 3.032 1.984 3.964 6.579-.29.435-4.458 2.483-4.167 2.048-5.413 2.58"/><path fill="none" stroke="#000" stroke-width="2.979" stroke-linecap="round" stroke-linejoin="round" d="M2756.394 1760.167q.376-.233 2.92-.197 2.544.036 6.413-1.971 3.868-2.007 6.166-4.242 2.298-2.234 2.877-3.418.578-1.183.527-1.942-.052-.76-2.578-1.694-2.527-.935-5.41-.83-2.882.105-4.998.765-2.115.66-4.113 2.542-1.998 1.882-2.924 3.861-.927 1.978-.925 5.748.002 3.77 1.441 6.245 1.438 2.476 3.121 3.824 1.683 1.348 4.335 2.217t7.078.638q4.426-.231 7.53-1.542 3.105-1.31 5.679-2.676"/><path fill="none" stroke="#171612" stroke-width="2.6" stroke-linecap="round" stroke-linejoin="round" d="M1134.098 1696.745l-.255-.755-.106-1.107q.057-.352-.613-4.658-.669-4.305-1.098-6.501-.428-2.196-1.144-5.225-.716-3.029-1.351-6.538-.635-3.508-.807-5.352-.173-1.843-.457-3.215-.285-1.372-.442-2.859-.158-1.486.045-4.962t.19-3.659q-.013-.184.772-2.609.785-2.426 1.933-5.225 1.147-2.798 2.019-4.665.871-1.867 1.22-2.594.35-.728 1.113-1.881t2.513-3.32q4.133-3.445 4.968-3.998.836-.553 2.141-1.099 1.306-.547 2.577-1.134 1.27-.587 2.887-1.29 1.617-.702 5.043-1.866 3.426-1.165 5.838-1.784t4.085-.921q1.673-.302 3.51-.575 1.837-.273 3.502-.598 1.664-.324 3.127-.667 1.463-.342 3.856-.704 2.393-.363 9.781-1.403 7.388-1.041 12.137-1.488 4.749-.447 7.806-.672 3.057-.226 10.035-.664 6.978-.439 12.521-1.123 5.542-.684 6.911-.907 1.369-.223 1.593-.206.224.017 5.689-1.197 5.466-1.215 8.644-1.838 3.179-.624 6.074-.961 2.895-.337 7.119-.514 4.225-.177 5.317-.136 1.091.04 2.667.025 1.575-.015 4.18.062 2.605.077 4.914.221 2.31.145 6.514.202 4.203.057 5.972-.017 1.769-.074 2.358-.124.589-.049 4.643-.129t6.342.061q2.287.14 5.64.105 3.353-.035 5.721-.184 2.368-.15 4.659-.276 2.292-.126 7.752-1.156l3.98-.457q1.782-.062 6.974.255 5.192.318 7.214.438 2.023.119 3.285.376 1.262.256 1.882.432.62.176 1.114.239.493.063 1.864.506t3.161 1.032q1.79.59 2.721.837.931.248 2.246.73 1.314.482 2.677 1.128 1.362.645 4.17 2.107 2.809 1.462 4.06 2.076 1.252.614 2.217 1.234.964.621 1.567 1.136.603.515 1.565 1.259.962.743 2.268 2.135 1.306 1.391 3.224 4.941 1.919 3.55 2.321 4.955.403 1.405.94 3.595.537 2.19.877 5.465.34 3.276.311 5.728-.029 2.452-.165 3.707t-.376 3.822q-.239 2.567-.63 4.663-.391 2.095-.565 4.333-.175 2.238-2.56 19.641l-1.042 2.832q-.395.616-4.932 7.111l-3.93 1.233q-.442.315-3.049.287-2.608-.028-4.402-.312t-3.164-.435q-1.37-.15-1.504-.124-.134.027-2.89-.143-2.755-.171-5.15-.284-2.396-.113-3.911-.005-1.516.107-3.318.461-1.802.353-2.501.477-.698.124-4.337.904-3.637.779-8.386 2.307-4.747 1.527-6.726 2.372-1.978.845-6.776 2.05-4.799 1.205-7.243 1.696-2.444.491-3.713.801-1.268.311-1.621.4-.353.089-4.322.751-3.97.662-11.294 1.086-7.324.424-12.952.673-5.629.248-8.646.442-3.017.193-5.788.657-2.77.463-4.344.795-1.574.332-2.985.564-1.41.231-5.402.625-3.992.395-8.53 1.016-4.539.622-8.506.806-3.967.185-6.573.136-2.606-.048-6.841-.043-4.235.005-6.027.031-1.792.026-5.144-.062-3.352-.088-6.592.037-3.24.125-4.753.316-1.513.192-2.903.33-1.389.138-3.02.242-1.631.104-5.189.138-3.558.033-7.527-.493-3.968-.526-7.448-.869-3.48-.343-5.139-.393-1.658-.049-3.646-.144-1.989-.094-5.567-.306-3.578-.212-6.49-.36-2.913-.148-6.679-.307l-1.638-.244-1.416-.129-2.773-.688-3.233-2.948-1.44-.737q-2.218-3.112-6.215-7.9M1142.203 1776.558q-.513-.162-1.573-.262-.734.315-2.286 5.925-1.553 5.609-2.115 10.252-.563 4.644-.653 10.191-.09 5.547-.004 9.94.087 4.393.482 9.251.394 4.858 1.401 10.984 1.006 6.126 1.933 9.806.927 3.681 4.287 10.482.551.349 1.419 1.175.868.827 4.313 2.357 3.445 1.53 9.493 1.724 6.048.194 9.031-.146 2.983-.341 5.811-.647 2.828-.307 7.793-.873 4.966-.567 9.536-1.383 4.57-.816 10.218-2.093 5.648-1.276 10.319-2.077 4.67-.801 8.274-1.116 3.604-.315 11.408-.452 7.805-.137 11.117-.103 3.312.034 8.59.521 5.278.488 9.88.637 4.602.149 7.424-.356 2.821-.504 4.154-.896 1.333-.391 4.903-.821 3.571-.431 5.836-.613 2.264-.182 4.034-.281 1.769-.1 7.344-.646 5.574-.546 8.941-.903 3.366-.357 5.407-.487 2.04-.13 8.63-.859 6.591-.729 9.504-1.045 2.913-.316 5.36-.76 2.448-.444 5.806-1.088 3.358-.644 5.403-1.094 2.045-.451 4.34-.925 2.296-.473 3.24-.651.943-.178 2.082-.453 1.138-.276 2.447-.675 1.308-.399 2.718-.901 1.41-.503 4.021-1.404 2.61-.9 3.386-1.153.776-.253 2.651-1.257 1.875-1.005 5.015-3.01 3.141-2.005 4.739-3.726 1.598-1.72 1.651-1.763.054-.043 1.604-2.588 1.551-2.545 2.3-4.813.749-2.269 1.321-8.548t.459-8.529q-.113-2.25-1.433-8.972-1.321-6.723-2.186-9.825-.865-3.101-1.397-4.649t-1.448-4.261q-.916-2.712-1.575-4.339-.66-1.626-1.957-3.711-1.297-2.084-2.263-3.329-.966-1.246-1.803-2.123-.838-.878-1.654-1.554t-2.734-1.84q-1.917-1.164-3.108-1.822-1.191-.658-3.683-1.677-2.491-1.02-7.679-1.955-5.189-.935-9.215-1.261-4.026-.327-6.838-.286-2.811.041-5.869.227t-7.185.341q-4.128.156-6.801.177-2.673.022-6.407.216-3.735.194-9.589 1.256-5.855 1.063-11.824 1.851-5.97.788-8.991.987-3.02.199-6.453.212-3.433.013-6.128-.116-2.694-.13-7.7-.684-5.005-.554-9.888-1.226-4.883-.671-15.724-.444-10.841.227-15.03 1.027-4.189.8-5.999 1.163-1.811.363-3.071.683-1.261.32-2.313.642-1.053.323-3.14 1.05-2.086.727-4.206 1.255-2.121.529-3.696.806-1.574.277-5.452 1.104-3.879.827-5.558 1.168-1.679.342-2.593.451-.913.109-2.939.328-2.027.218-4.479.97t-3.897 1.261q-1.446.51-2.534.967-1.089.456-3.39 1.308-2.302.853-4.883 1.615t-3.51 1.191q-.928.429-2.904 1.563-1.975 1.133-5.291 2.698-3.315 1.565-6.234 3.087M1531.959 1658.506q-.118 1.023.153 8.26.27 7.237-.078 15.219-.349 7.982-.659 13.843-.311 5.861-.482 9.819-.172 3.957-.611 8.051t-.658 7.585q-.22 3.492-.243 7.606-.023 4.114.126 8.016.148 3.902.106 4.184-.042.282 1.32 8.236 1.363 7.954 2.243 11.512.88 3.558 1.805 6.81.925 3.251 1.945 5.897 1.02 2.646 2.396 5.281 1.376 2.636 2.53 4.263 1.154 1.627 2.789 3.683 1.636 2.057 3.241 3.728 1.606 1.671 3.884 3.626 2.278 1.954 3.33 2.862 1.053.907 1.959 1.626.907.718 3.582 2.289 2.674 1.572 8.086 3.83 5.411 2.258 7.911 3.035 2.5.777 5.376 1.163 2.875.386 4.267.521 1.392.135 2.894.3 1.501.166 4.044.108 2.544-.058 4.661-.33 2.117-.272 4.9-.548 2.783-.275 4.638-.38 1.855-.105 7.677-.048 5.821.057 10.903.313 5.082.255 9.551.418 4.469.163 6.818.185 2.35.021 4.603.067 2.254.046 5.316.091t5.32-.022q2.257-.067 6.251-.333 3.994-.265 9.279-.476 5.285-.21 11.377-.528 6.093-.318 11.266-.979 5.173-.662 8.339-1.177 3.166-.515 3.986-.693.82-.177 7.682-.654 6.863-.476 10.698-.474 3.835.001 8.604-.138 4.77-.139 6.59-.1 1.821.04 3.318.149 1.498.109 3.234.148 1.737.039 4.58-.15t3.802-.255q.959-.066 3.378-.495 2.42-.428 4.784-1.514 2.364-1.085 4.4-2.089 2.037-1.004 3.553-1.953 1.515-.95 3.147-2.263 1.633-1.314 1.87-1.54l1.837-1.748q1.598-1.521 3.251-3.259 1.653-1.737 4.268-5.267 2.616-3.529 4.205-7.651 1.588-4.122 2.212-6.801.623-2.68 1.017-4.52.394-1.841.721-5.831.328-3.989.29-6.249-.038-2.259-.227-3.457t-.926-8.573q-.736-7.375-1.109-11.563-.373-4.188-1.011-8.819-.639-4.631-.805-6.837-.167-2.205-.617-6.333-.451-4.128-.892-8.539-.441-4.412-1.022-10.483-.582-6.071-1.029-10.686-.447-4.614-.915-9.352-.469-4.738-1.247-9.361-.779-4.622-1.227-6.3-.449-1.677-1.082-3.755-.632-2.078-.657-2.279-.025-.2-1.336-2.892-1.311-2.692-2.618-4.526-1.307-1.835-3.843-4.25-2.537-2.415-3.965-3.642-1.428-1.227-3.291-2.295-1.864-1.067-4.451-2.087-2.587-1.02-3.815-1.376-1.227-.356-3.836-.889-2.608-.533-2.945-.58-.337-.047-3.611-.853-3.274-.806-6.081-1.505-2.807-.699-6.11-1.524-3.303-.825-5.474-1.283-2.172-.458-2.476-.544-.304-.086-6.004-.874-5.7-.787-8.92-.946-3.22-.159-4.798-.088-1.577.071-6.378.741t-10.255.823q-5.455.154-9.693-.018-4.237-.172-8.284-.465-4.047-.293-6.526-.712-2.478-.419-5.129-.689-2.651-.269-5.259-.353-2.609-.083-2.808-.106-.2-.023-2.793.134t-4.914.31q-2.322.153-3.404.172-1.082.018-7.675.695-6.592.676-15.609 1.989-9.017 1.313-11.456 1.868-2.438.556-6.369 1.448-3.93.893-7.691 1.772-3.761.878-8.014 1.726-4.252.849-6.592 1.23l-3.431.56q-1.09.179-4.514.93-3.424.752-4.643.828-1.218.077-1.442.143-.224.066-2.684.169-2.46.104-3.668.112-1.208.009-2.248-.113-1.04-.122-1.764-.166-.723-.045-1.747.024-1.023.069-1.245.043-.221-.025-4.116.688-3.894.714-6.068 1.595-2.174.881-3.673 1.864-1.498.983-2.397 1.876-.899.894-1.469 1.634-.569.74-1.888 4.108-1.319 3.368-1.663 4.993-.344 1.626-.622 3.12-.279 1.493-.469 2.999-.191 1.507-.353 3.498-.163 1.992-.283 3.047-.12 1.056-.282 2.097-.162 1.041-.594 2.559-.432 1.518-.706 2.722M2570.272 1522.39q.134.115.943.096.639.347.852.433.212.086.352.1.141.013.4-.064.26-.077 1.269-6.32 1.01-6.244 1.298-12.607.288-6.363.416-10.459.129-4.096.523-9.43.394-5.333.819-8.256.425-2.924.885-4.799.461-1.875 1.026-3.396.565-1.52 1.827-3.915 1.261-2.396 1.944-3.351.682-.954 1.845-2.177 1.162-1.224 2.093-2.143.93-.919 2.859-2.391 1.928-1.472 4.068-2.624 2.14-1.152 6.02-2.774 3.881-1.622 5.882-2.064 2.001-.442 4.084-.759 2.082-.317 3.251-.392 1.169-.074 6.777-.498 5.607-.424 9.44-.35 3.833.074 6.592.336 2.76.263 3.376.34.616.078 3.656.313 3.04.236 5.692.364 2.653.128 5.205.254 2.551.125 6.475.274 3.923.15 6.445.144 2.521-.006 6.004-.025 3.483-.019 7.261-.351 3.778-.331 12.927-1.251 9.149-.92 11.947-1.346 2.799-.426 6.48-.847 3.681-.42 11.852-1.16 8.172-.739 16.304-1.823 8.132-1.084 14.946-1.428 6.813-.344 10.572-.203 3.759.142 7.597.664 3.837.523 5.058.661 1.221.138 4.738.804 3.518.665 6.607 1.6 3.088.934 5.587 2.019 2.498 1.084 4.844 2.481 2.345 1.397 4.003 2.878 1.659 1.482 4.593 5.407 2.934 3.926 3.734 5.292.799 1.366 1.79 4.033.991 2.666 1.475 4.466.484 1.8 1.068 5.515.585 3.715.826 6.751.242 3.036.718 14.116.476 11.079.026 19.92-.449 8.841-.708 10.19-.257 1.349-.77 2.821-.512 1.471-.813 2.263-.301.791-1.602 3.946-1.302 3.155-2.014 4.49-.712 1.335-1.387 2.619-.675 1.285-2.353 4.785-1.679 3.499-2.329 4.576-.649 1.077-1.683 2.171-1.033 1.093-2.827 2.223-1.794 1.129-2.672 1.609-.878.48-1.038.635-.16.156-5.261 1.911-5.099 1.755-8.381 2.394-3.282.639-6.778 1.656-3.497 1.017-11.213 2.74-7.717 1.722-11.976 2.517-4.26.794-14.942 1.392-10.682.599-17.407.335-6.725-.264-13.46-.617-6.735-.354-14.033-.281-7.299.073-11.673.409-4.375.337-8.347.795-3.972.459-12.309.687-8.337.229-17.19-.433-8.853-.663-13.639-.986-4.785-.324-8.845-.444-4.06-.119-8.795-.21-4.735-.092-8.109-.078-3.374.014-6.593-.158-3.22-.172-5.887-.603-2.666-.431-3.775-.736-1.108-.306-1.459-.334-.351-.029-2.974-1.277-2.623-1.247-3.886-2.215-1.262-.968-2.486-2.031-1.223-1.063-1.345-1.133-.122-.071-1.018-1.181-.897-1.111-1.617-2.51-.721-1.398-1.008-2.186-.288-.788-.545-1.449-.256-.661-1.438-6.621-1.183-5.96-1.257-15.608-.075-9.648.073-14.355M2579.099 1702.68l-.142.753q-.179.96-.193 8.158-.014 7.198.145 12.463.159 5.266.311 10.447.152 5.182.35 12.035.197 6.852.36 11.211.163 4.36.356 7.158.192 2.797.49 4.77.298 1.973.766 4.511.469 2.539.942 5.183.474 2.645.844 4.364.369 1.719 1.465 5.523 1.097 3.803 2.213 6.05 1.115 2.246 1.5 2.775.386.528 2.415 2.477 2.029 1.949 2.564 2.422.534.473 1.84 1.319 1.305.846 9.099 2.357 7.794 1.511 14.083 1.289 6.289-.222 10.093-.713 3.804-.491 5.832-.821 2.028-.331 3.586-.796 1.557-.464 11.166-2.222 9.608-1.758 19.403-2.574 9.795-.817 14.8-1.049 5.005-.232 9.951-.34 4.947-.109 8.494.077 3.548.185 10.79.669 7.243.484 12.266.606t7.4.183q2.376.061 6.575.217 4.199.157 10.722-.112 6.524-.268 10.851-.45 4.328-.181 5.525-.225 1.196-.045 2.105-.112.908-.068 8.636-.554 7.728-.486 11.881-.791 4.153-.306 8.507-.999 4.355-.694 7.087-1.189 2.731-.496 4.792-.895 2.06-.398 2.342-.441.282-.042 3.605-1.049 3.323-1.006 5.189-1.846 1.866-.84 3.015-1.466 1.15-.626 2.346-1.557.55-.743 2.274-6.198 1.723-5.455 1.604-14.589-.118-9.133-.431-12.669-.313-3.535-.859-7.567-.547-4.033-1.724-9.096-1.177-5.064-2.317-8.274-1.139-3.21-1.408-3.79-.268-.581-1.635-2.864-1.366-2.283-2.635-4.332-1.269-2.049-1.805-2.759-.536-.709-2.105-2.454-1.569-1.746-2.481-2.753-.913-1.008-1.851-2.068t-1.787-2.042q-.848-.983-1.524-1.652-.677-.669-1.325-1.212-.649-.542-.951-.695-.302-.152-2.827-1.785t-3.93-2.391q-1.405-.757-3.045-1.187-1.64-.43-4.899-.843-3.26-.412-6.987-.719-3.727-.306-7.183-.176-3.455.129-10.179 1.212-6.724 1.082-10.453 1.374-3.729.292-7.267.225-3.538-.067-8.427-.98-4.889-.914-9.782-1.73-4.894-.816-7.319-1.136-2.426-.319-5.422-.767-2.997-.447-5.76-.616-2.762-.17-7.256-.102-4.494.067-13.368.28-8.873.213-14.076.341-5.202.128-10.307.176-5.105.048-12.524.139-7.419.09-17.337.722-9.917.631-16.225 1.182-6.309.551-9.446.873-3.137.323-4.694.471-1.556.149-2.873.223-1.317.073-2.793.178-1.475.104-3.845.433-2.369.329-2.871.357-.502.027-.825.108-.323.081-4.54-.542t-8.754-1.876M2389.326 1763.422q-.681-8.206-1.754-15.484-1.072-7.279-1.539-9.764-.466-2.486-1.366-9.831-.9-7.345-1.064-14.636-.164-7.29.093-12.65t.471-8.086q.213-2.725.729-7.666.515-4.942.638-6.293t.554-13.872q.43-12.522-.007-19.732-.436-7.21-1.074-11.937-.637-4.727-.73-5.406-.093-.679-1.937-9.624t-2.599-12.376q-.756-3.43-2.002-13.615-1.247-10.184-1.774-17.176-.528-6.992-.662-10.385-.135-3.393-.727-13.365-.593-9.973-.882-37.431-.29-27.459-.427-29.663-.137-2.204-.286-4.022-.149-1.817-.198-2.068-.049-.251-1.625-20.629t-2.22-22.592q-.643-2.214-1.537-4.126-.893-1.912-1.913-3.303t-3.108-3.452q-2.088-2.061-2.324-2.273-.236-.212-2.54-1.267-2.304-1.055-7.37-2.357-5.067-1.303-8.902-2.117-3.835-.815-9.18-1.262-5.345-.446-9.882-.55-4.537-.104-9.148-.547-4.61-.444-11.12-1.968-6.51-1.525-12.184-2.701-5.674-1.176-14.249-1.706t-13.441-.497q-4.868.033-9.228.185-4.361.152-4.544.196-.183.044-6.266.195-6.082.151-13.224.195-7.142.043-10.969.235-3.828.192-5.705.399-1.877.207-4.599.524-2.722.316-4.515.545-1.794.229-3.774.503-1.981.274-4.955.873-2.975.598-6.966 1.959-3.991 1.361-5.276 1.804-1.285.442-3.468 1.197-2.183.755-4.794 2.113-2.61 1.357-5.805 3.382-3.195 2.024-3.811 2.469-.617.444-1.782 1.442-1.165.997-1.883 1.878-.718.882-.991 1.327-.272.446-1.629 2.575t-3.053 5.138q-1.696 3.01-2.386 4.424-.69 1.415-1.517 4.089-.827 2.674-1.001 3.439-.174.764-2.341 11.4-2.168 10.636-3.013 17.175-.845 6.54-1.856 13.939-1.01 7.4-1.402 12.119-.392 4.72-.584 8.752-.193 4.032-.383 15.898-.191 11.866-.19 19.5.001 7.634.267 15.855.267 8.22.726 13.357.459 5.137 1.129 10.91.67 5.772 1.192 9.864.522 4.092 1.044 10.109t1.277 13.414q.755 7.398 2.143 17.775 1.388 10.378 2.04 15.653.652 5.275 1.649 14.111t1.344 14.297q.348 5.46.471 8.832.122 3.371.199 8.268.077 4.897.176 12.318.098 7.42.317 12.061.219 4.64.441 6.601.223 1.961.336 4.197.113 2.235.502 8.174.388 5.939.544 9.707.156 3.768.47 15.984.315 12.216.31 12.285-.005.07.342 5.099.348 5.03 1.45 11.083 1.102 6.053 1.747 8.001.645 1.948 1.148 3.323.502 1.376 1.362 2.937 3.68 4.229 3.927 4.488.247.259 4.064 2.384 3.816 2.126 7.244 3.079 3.428.953 9.725 1.653 6.297.7 14.392.267 8.096-.434 14.895-1.028 6.799-.593 12.296-.853 5.496-.26 12.107-.376 6.612-.116 9.439.079 2.827.196 5.499.523 2.672.327 6.069.641 3.397.315 9.198.868 5.801.553 12.203 1.495 6.402.943 11.096 1.438 4.693.495 10.947.803 6.254.307 10.467.542 4.213.234 8.413.479 4.2.244 10.425-.328 6.225-.573 10.529-1.525 4.304-.953 6.152-1.572 1.849-.62 4.185-1.603 2.336-.982 6.315-3.447 3.98-2.465 5.846-3.918 1.867-1.453 3.269-2.948 1.403-1.495 2.957-3.656 1.555-2.16 2.011-2.911.457-.751 3.367-7.401 2.91-6.65 3.902-9.701.993-3.051 1.484-5.38.491-2.328 1.164-7.636.673-5.307.818-6.947.145-1.639.305-2.83.16-1.19.435-4.245t.527-5.741q.251-2.685.543-5.147"/></svg>
