<svg xmlns="http://www.w3.org/2000/svg" viewBox="854.609 1361.569 2060.706 537.109"><g stroke="#000"><path fill="none" stroke-width="2.438" stroke-linecap="round" stroke-linejoin="round" d="M897.526 1515.196q-.09.292-.061 1.506.108-.137 1.601-3.524 1.493-3.387 2.293-6.881.801-3.495.727-5.435-.075-1.94-.524-3.101-.448-1.16-1.562-1.845-1.113-.685-2.373-.728-1.26-.043-3.014.837-1.754.88-5.149 5.611-3.396 4.732-5.465 9.726-2.068 4.995-2.955 8.038t-1.816 6.924q-.93 3.881-1.739 10.915-.809 7.033.274 12.407.985 1.003 5.009-1.132 4.024-2.136 4.723-2.662"/><path fill="none" stroke-width="2.807" stroke-linecap="round" stroke-linejoin="round" d="M912.776 1494.758l-.178-.038q-.042.004-1.789 7.313-1.747 7.309-2.755 14.907-1.009 7.597-2.573 15.417-1.564 7.82-3.78 14.51-.067-.033-.037-.118.031-.085.034-.03"/><path fill="none" stroke-width="3.115" stroke-linecap="round" stroke-linejoin="round" d="M904.292 1535.762q.112-.084.443-.578.331-.494 1.312-2.016.982-1.522 2.421-3.108 1.439-1.586 2.758-2.222 1.318-.637 2.082-.637.764.001 1.322.511.557.51.894 2.684.336 2.175.1 4.317-.236 2.141-.885 8.963l1.022-.343"/><path fill="none" stroke-width="3.535" stroke-linecap="round" stroke-linejoin="round" d="M925.12 1531.79l-.189.139q-.957 1.008-1.52 3.773-.563 2.766-.431 3.965.132 1.198.433 1.794.302.596 1.083.857.781.262 3.014-.986 2.233-1.249 3.743-2.929 1.51-1.681 2.035-3.176.526-1.494.261-2.777-.264-1.283-.767-1.573-.503-.29-1.552-.396-1.05-.105-2.95.784-1.9.89-3.312 2.57-1.413 1.68-2.035 2.525"/><path fill="none" stroke-width="4.274" stroke-linecap="round" stroke-linejoin="round" d="M934.339 1530.993q-.065.399-.289 2.983-.223 2.584-.102 4.16.121 1.576.313 2.311.193.735.323 1.049.131.315.896 1.837"/><path fill="none" stroke-width="2.619" stroke-linecap="round" stroke-linejoin="round" d="M945.886 1528.731q-.541.503-2.184 16.339-.096.136 1.097-2.826 1.192-2.961 2.51-5.269 1.318-2.308 2.39-3.359 1.073-1.05 1.66-1.307.588-.257 1.121-.193.534.065 1.257 1.196.724 1.131 1.263 3.346.54 2.215.827 3.276.287 1.062.501 1.564.214.503.935.951l1.17.016"/><path fill="none" stroke-width="2.813" stroke-linecap="round" stroke-linejoin="round" d="M967.855 1533.641l-.106.072q-.631.393-1.811 2.778-1.18 2.386-1.279 3.702-.098 1.317.232 2.482.331 1.164 1.805 1.718 1.473.554 3.538-.178 2.064-.732 3.543-2.235 1.478-1.503 2.038-2.814.56-1.312.647-2.485.087-1.174-.257-2.067-.344-.892-.976-1.419t-1.879-1.031q-1.247-.504-4.581.597-3.333 1.101-4.571 1.747"/><path fill="none" stroke-width="2.661" stroke-linecap="round" stroke-linejoin="round" d="M976.339 1534.778q-.178.248-1.029 2.105-.852 1.858-1.612 9.609-.76 7.751-.927 11.502-.166 3.751-.787 6.034-.622 2.284-1.524 3.113-.903.829-4.794.419-3.891-.409-5.702-.942"/><path fill="none" stroke-width="2.4" stroke-linecap="round" stroke-linejoin="round" d="M978.87 1538.95q.32-.045 1.908-.097 1.587-.051 5.233-1.383 3.646-1.331 5.593-2.68 1.948-1.349 2.7-2.681-.27-.155-2.61.731-2.34.887-4.097 2.119-1.758 1.233-2.431 2.172-.672.938-.749 2.59-.077 1.651 2.973 2.902 3.05 1.25 6.64.875 3.591-.374 5.403-.833"/><path fill="none" stroke-width="3.346" stroke-linecap="round" stroke-linejoin="round" d="M1013.37 1529.071q.317-.565-.243-4.062-.479-.62-2.206-.855-1.727-.234-2.969.123-1.241.358-2.034.948-.793.59-1.435 1.495-.642.905-.941 2.425-.3 1.521-.089 2.793.21 1.271 1.796 2.974 1.585 1.704 3.988 3.537t3.6 3.285q1.197 1.453 1.446 2.242.25.789.257 1.391.008.601-2.194 2.111-2.202 1.51-4.923 2.443-2.72.932-4.6 1.568"/><path fill="none" stroke-width="2.368" stroke-linecap="round" stroke-linejoin="round" d="M1123.134 1711.859q-.018-3.313-.004-10.693.015-7.381.007-11.075-.008-3.694-.053-32.69-.044-28.995-.034-32.659.009-3.664.009-7.35 0-3.686-.019-7.185"/><path fill="none" stroke-width="3.377" stroke-linecap="round" stroke-linejoin="round" d="M1124.72 1611.694q2.387-.174 2.924-.179.537-.005 7.523-.453t13.45-.839q6.463-.391 13.839-.856 7.376-.464 11.249-.711 3.874-.247 14.732-.877 10.858-.63 20.517-1.215 9.659-.586 14.015-.855t7.546-.464l14.278-.873 17.854-1.089q6.767-.411 17.482-1.073 10.715-.661 27.34-1.713 16.625-1.053 24.413-1.555 7.788-.501 17.201-1.076 9.413-.574 13.119-.806l8.085-.505q4.38-.273 11.096-.709 6.715-.436 10.112-.652 3.398-.216 7.436-.483 4.038-.266 10.514-.68 5.165-.332 5.666-.38.501-.048 4.061-.278"/><path fill="none" stroke-width="2.317" stroke-linecap="round" stroke-linejoin="round" d="M1424.329 1591.483q-.167 2.981-.464 9.902-.297 6.921-.82 17.218-.523 10.296-.896 17.11-.374 6.814-1.001 16.996-.627 10.183-.835 13.913-.207 3.73-.529 10.336-.321 6.606-.478 10.08-.158 3.473-.34 6.943-.182 3.471-.342 6.819-.16 3.349-.133 3.421.028.072-.509 10.018"/><path fill="none" stroke-width="2.213" stroke-linecap="round" stroke-linejoin="round" d="M1420.665 1714.747q-10.038.361-13.816.512-3.778.15-8.177.301l-10.729.368q-6.33.218-13.58.49t-14.154.496q-6.904.225-18.664.616-11.761.391-21.622.693-9.861.302-20.828.63-10.968.329-15.234.447-4.266.119-7.929.215l-13.635.361q-9.971.265-17.208.437-7.236.173-7.87.183-.633.01-7.769.166-7.135.156-14.106.301-6.972.145-17.085.313-10.113.167-14.158.215-4.046.048-7.604.109-3.559.061-6.745.126-3.185.066-4.047.08-.861.015-3.919.056-3.057.041-6.814.049-3.756.008-7.736.058-3.979.05-4.214.051-.234.002-3.064.054-2.829.052-6.721.092"/><path fill="none" stroke-width="2.703" stroke-linecap="round" stroke-linejoin="round" d="M1122.924 1758.232q-.071 17.8.008 32.161.078 14.36.069 28.336-.01 13.975 0 14.258.01.283.038 3.778.028 3.494.039 7.007.011 3.513.014 3.517.004.004.007 3.57.003 3.567-.023 7.206-.027 3.64-.05 10.677l.014 3.427"/><path fill="none" stroke-width="2.717" stroke-linecap="round" stroke-linejoin="round" d="M1123.134 1876.036q3.559-.009 7.099-.103 3.539-.094 9.972-.197 6.432-.102 14.199-.245 7.767-.142 14.791-.279 7.024-.137 13.846-.249 6.822-.113 11.299-.17 4.476-.056 14.132-.172 9.656-.116 23.824-.309 14.169-.192 21.492-.333 7.322-.142 13.994-.284 6.671-.143 20.817-.427 14.146-.284 27.951-.454 13.804-.17 24.482-.292 10.679-.122 17.602-.226 6.924-.104 11.139-.187 4.214-.084 10.662-.191 6.447-.107 7.479-.109 1.032-.003 14.283-.211l.98.027 5.479-.132q1.387-.007 10.61-.112"/><path fill="none" stroke-width="2.267" stroke-linecap="round" stroke-linejoin="round" d="M1416.396 1869.596l.085-2.487q.06-.194.381-15.155.32-14.961.362-23.961.043-8.999.099-12.146.055-3.147.068-6.118.012-2.971.074-9.015.063-6.044.154-11.822.091-5.779.144-8.818.052-3.04.04-3.121-.012-.082.131-6.007.048-.092.352-8.444"/><path fill="none" stroke-width="2.382" stroke-linecap="round" stroke-linejoin="round" d="M1422.649 1753.472q-3.255.118-3.791.125-.535.007-3.667.063-3.131.056-6.62.113-3.488.058-6.514.144-3.027.087-3.27.083-.243-.003-4.284.121-4.042.124-7.56.223-3.517.099-7.382.173-3.866.073-10.365.223-6.5.149-10.884.22-4.384.071-11.512.198-7.127.127-28.25.614t-32.089.76q-10.966.273-17.869.453-6.903.181-14.198.387-7.294.206-27.575.796-20.281.589-31.363.902-11.082.313-17.833.516-6.751.203-11.535.362-4.785.159-11.498.417-6.713.259-9.875.376-3.163.118-6.356.22-3.193.101-3.632.107-.44.005-1.057-.001t-3.446.083q-2.829.089-3.164.111-.335.022-3.436.138"/><path fill="none" stroke-width="2.205" stroke-linecap="round" stroke-linejoin="round" d="M993.734 1570.081q.003 3.107.073 9.711l.141 13.471q.072 6.867.191 13.477.119 6.609.179 10.081.059 3.471.101 6.82.043 3.349.069 6.765l.05 6.807q.024 3.392.047 3.54.024.149-.008 6.408l.043 3.381"/><path fill="none" stroke-width="3.237" stroke-linecap="round" stroke-linejoin="round" d="M993.92 1651.137q2.974.029 3.101.038.126.009 3.279-.025t6.49-.029q3.337.005 6.617-.082 3.28-.087 6.438-.162 3.158-.076 6.516-.119 3.359-.043 6.574-.117 3.216-.074 3.222-.083.007-.009 3.296-.036 3.288-.026 6.662-.019 3.374.007 9.812-.092 6.438-.099 9.846-.181 3.408-.082 3.448-.072.04.01 3.297-.06 3.257-.071 6.418-.128 3.162-.058 3.267-.069.106-.011.246-.011t3.263-.065q3.123-.064 3.266-.02.142.045 9.47.037"/><path fill="none" stroke-width="2.38" stroke-linecap="round" stroke-linejoin="round" d="M1108.271 1651.925q-1.98 1.433-4.554 3.393-2.574 1.959-12.383 9.453l-2.289 1.713"/><path fill="none" stroke-width="2.865" stroke-linecap="round" stroke-linejoin="round" d="M1110.044 1651.137q-1.781-1.932-3.967-3.814-2.186-1.881-4.7-4.058-2.515-2.177-7.03-6.297-4.514-4.121-6.398-6.147"/><path fill="none" stroke-width="2.086" stroke-linecap="round" stroke-linejoin="round" d="M985.007 1573.056q-.036 3.296.021 10.303l.059 7.249q.001.242.091 10.803.091 10.561.115 14.268.024 3.708.172 10.76.147 7.053.287 14.025.139 6.972.194 14.103.055 7.13.125 14.129.071 6.999.115 10.691.044 3.691.038 7.135-.007 3.444-.027 7.016"/><path fill="none" stroke-width="3.815" stroke-linecap="round" stroke-linejoin="round" d="M988.391 1696.705q3.409.177 3.424.181.015.004 3.603.072 3.588.067 10.618.112 7.031.044 13.826.155 6.794.111 10.249.165 3.455.055 3.583.053.128-.002 3.788.062 3.661.063 7.108.119 3.447.055 6.892.103 3.445.047 6.891.133 3.445.085 7.1.145 3.654.06 7.217.14 3.562.08 7.023.073 3.462-.006 6.798.03 3.337.036 3.489.034.152-.002 3.608.055t6.824.258"/><path fill="none" stroke-width="2.749" stroke-linecap="round" stroke-linejoin="round" d="M1108.061 1702.06q-2.037 1.696-2.168 1.899-.131.203-2.531 2.122-2.401 1.918-5.002 3.99-2.601 2.071-5.006 4.132-2.406 2.061-4.798 4.201"/><path fill="none" stroke-width="2.682" stroke-linecap="round" stroke-linejoin="round" d="M1108.761 1700.467q-1.521-2.018-3.405-4.423-1.884-2.405-14.934-18.361"/><path fill="none" stroke-width="2.19" stroke-linecap="round" stroke-linejoin="round" d="M957.172 1580.878q.063 3.135.329 13.765t.495 20.906l.317 14.216q.088 3.94.295 11.059t.378 14.38q.17 7.261.307 13.635.137 6.373.272 10.525.136 4.152.238 7.485.103 3.334.311 10.229.209 6.895.362 13.709t.37 14.047q.217 7.233.349 11.073.132 3.84.311 10.589.18 6.75.278 10.332l.107 3.93q.009.348.101 3.445.093 3.097.11 3.547.017.45.094 3.545.076 3.096.088 3.39.012.295.139 4.022.126 3.727.395 13.316"/><path fill="none" stroke-width="3.105" stroke-linecap="round" stroke-linejoin="round" d="M962.515 1792.618q2.92-.035 6.612-.055 3.691-.02 6.778-.052 3.086-.033 6.567-.137 3.482-.104 6.968-.177 3.487-.073 7.111-.105 3.624-.032 10.202-.167 6.578-.135 6.806-.162.228-.027 3.592-.14 3.365-.113 6.857-.178 3.491-.066 10.082-.201 6.591-.136 9.923-.242 3.331-.106 3.588-.122.257-.015.381-.029.124-.013 6.826-.129 6.702-.115 13.32-.208 6.618-.093 10.087-.194l3.913-.114q.048.002 16.53-.161"/><path fill="none" stroke-width="2.766" stroke-linecap="round" stroke-linejoin="round" d="M1101.038 1789.748q-1.75 2.853-3.669 5.404-1.918 2.551-5.768 7.778-3.85 5.226-5.519 8.009"/><path fill="none" stroke-width="2.826" stroke-linecap="round" stroke-linejoin="round" d="M1100.945 1794.49q-1.249-2.184-2.74-4.719t-3.164-5.31q-1.673-2.775-4.541-8.013-2.867-5.238-4.021-7.804"/><path fill="none" stroke-width="2.253" stroke-linecap="round" stroke-linejoin="round" d="M937.246 1568.891q.041 2.849.162 14.72.121 11.872.286 26.109.165 14.237.258 21.447.094 7.21.137 10.742.042 3.532.126 11.584.084 8.051.169 14.804.085 6.752.263 21.489.178 14.738.296 22.346.118 7.608.178 12.173l.153 11.331q.093 6.767.196 13.847.103 7.08.177 11.26.075 4.18.174 11.196.1 7.017.176 11.448.075 4.432.201 10.924.126 6.493.207 10.779.08 4.285.136 7.609.056 3.324.151 7.677.096 4.353.153 7.709.058 3.356.142 7.229.085 3.873.204 10.207.12 6.333.174 7.859l.058 3.337"/><path fill="none" stroke-width="3.147" stroke-linecap="round" stroke-linejoin="round" d="M944.993 1860.094q3.28-.252 3.307-.261.027-.009 6.883-.428 6.857-.42 10.481-.635 3.624-.214 6.905-.424 3.28-.209 10.059-.618 6.779-.41 10.624-.638 3.845-.228 10.703-.757 6.857-.529 10.395-.781 3.537-.252 6.791-.469 3.255-.216 3.443-.241.188-.025 3.618-.27 3.43-.245 6.766-.47 3.337-.225 3.549-.231.213-.006 6.713-.381 6.5-.374 6.732-.365.232.01 3.692-.227 3.46-.237 6.803-.472 3.342-.236 3.606-.224.263.012 3.381-.175 3.118-.188 6.643-.392 3.525-.205 3.806-.211.28-.005 3.411-.193 3.132-.187 6.721-.464"/><path fill="none" stroke-width="2.417" stroke-linecap="round" stroke-linejoin="round" d="M1104.491 1852.85q-1.281 1.492-7.159 7.402-5.879 5.909-7.839 8.003-1.959 2.094-3.527 3.826"/><path fill="none" stroke-width="2.776" stroke-linecap="round" stroke-linejoin="round" d="M1104.701 1853.55q-2.002-2.33-4.313-4.967-2.31-2.636-17.782-20.092"/><path fill="none" stroke-width="2.845" stroke-linecap="round" stroke-linejoin="round" d="M1523.78 1773.423q.035-3.497.048-7.043.013-3.547.007-7.785-.007-4.237-.011-11.948-.003-7.71.009-11.845.013-4.134-.031-15.981-.043-11.847-.062-16.023-.02-4.177.001-8.186.022-4.009.082-11.791.06-7.782.043-15.514-.024-.025-.012-3.709.011-3.684.051-7.081"/><path fill="none" stroke-width="3.775" stroke-linecap="round" stroke-linejoin="round" d="M1524.061 1659.705q4.419-.255 4.764-.308.344-.053 9.377-.326 9.032-.273 14.076-.456 5.043-.184 9.621-.34 4.578-.157 9.283-.352l5-.208q.295-.013 18.468-.725 18.174-.711 22.874-.854 4.701-.143 18.743-.6 14.042-.458 23.894-.776 9.853-.319 18.604-.58 8.751-.262 13.956-.375 5.205-.114 14.54-.403 9.335-.289 13.998-.423 4.663-.133 13.75-.446 9.087-.312 9.589-.299.503.014 5.004-.09 4.501-.104 4.66-.092.159.011 9.117-.209 8.959-.22 9.364-.192.405.029 4.609-.103 4.204-.131 9.303-.351"/><path fill="none" stroke-width="2.653" stroke-linecap="round" stroke-linejoin="round" d="M1785.217 1650.142q.016 4.241-.399 22.004-.415 17.762-.819 40.042-.403 22.28-.76 40.19-.039.117-.238 9.077-.144 8.466-.211 8.74l-.104 12.65"/><path fill="none" stroke-width="3.01" stroke-linecap="round" stroke-linejoin="round" d="M1785.467 1781.65q-4.135-.016-13.7-.045-9.565-.03-24.025-.07-14.459-.041-29.478-.044-15.018-.002-19.648-.014-4.63-.013-14.278-.066-9.648-.053-14.567-.096l-19.196-.171q-14.276-.129-28.645-.21-14.369-.081-19.607-.092-5.238-.01-24.504-.117-19.266-.107-19.48-.12-.215-.014-4.541-.045-4.326-.032-4.871-.043-.546-.012-9.425-.087-.607.028-5.097.025"/><path fill="none" stroke-width="2.235" stroke-linecap="round" stroke-linejoin="round" d="M1502.03 1689.822l-2.689-1.303.017-.065q-.044.012-6.559-3.298-6.515-3.309-13.059-6.739-6.545-3.431-9.7-5.271-3.155-1.841-3.349-1.941-.195-.101-3.336-1.832-3.142-1.731-3.284-1.773-.143-.043-3.312-1.839-3.17-1.797-3.252-1.848-.082-.052-3.274-1.665-3.192-1.614-3.278-1.66-.086-.046-.315-.041-5.887-3.169-8.579-4.428"/><path fill="none" stroke-width="2.956" stroke-linecap="round" stroke-linejoin="round" d="M1501.624 1693.408q-2.559 1.119-6.051 2.637-3.492 1.517-3.904 1.656-.413.138-9.702 4.59"/><path fill="none" stroke-width="2.098" stroke-linecap="round" stroke-linejoin="round" d="M1509.842 1695.658q-1.377-3.577-4.558-11.624t-4.598-11.72"/><path fill="none" stroke-width="2.472" stroke-linecap="round" stroke-linejoin="round" d="M1440.061 1814.298l2.984-2.501q.29-.188 6.848-5.735 6.558-5.547 13.176-11.418 6.618-5.87 9.885-8.902 3.267-3.033 3.425-3.165.159-.133 3.455-3.012 3.297-2.879 6.544-5.757 3.246-2.878 3.368-3.009.122-.131 3.202-2.808 3.082-2.677 6.144-5.325"/><path fill="none" stroke-width="2.706" stroke-linecap="round" stroke-linejoin="round" d="M1502.155 1763.603q-.216 1.443-.197 1.346.018-.098-.09-.039-.107.059-1.129 5.346-1.023 5.287-2.885 15.487l-.355 1.344"/><path fill="none" stroke-width="3.676" stroke-linecap="round" stroke-linejoin="round" d="M1507.342 1754.978q-2.601-.65-2.948-.417-.347.232-3.615-.421-3.268-.654-13.499-1.81"/><path fill="none" stroke-width="3.365" stroke-linecap="round" stroke-linejoin="round" d="M1927.532 1453.056l.332.009q.235-.484.91-2.696t.678-4.891q.003-2.68-.454-4.042-.457-1.362-1.533-2.244-1.076-.882-2.787-1.16-1.711-.277-3.91.872-2.199 1.15-6.12 6.296-3.922 5.147-7.678 14.566-3.756 9.42-4.057 18.612.024.273 3.328 1.064 3.303.79 5.28 1.054 1.977.264 2.997.737 1.02.474 1.609 1.028.589.553 1.377 1.943"/><path fill="none" stroke-width="3.057" stroke-linecap="round" stroke-linejoin="round" d="M1943.766 1435.07q-.492.154-1.449 1.782-.956 1.629-2.668 8.012-1.712 6.382-2.388 11.525-.677 5.143-4.161 26.962-.195-.183.571-4.242.767-4.058 1.687-6.627t2.698-4.797q1.777-2.229 2.621-2.853.844-.625 1.535-.811.691-.187 1.107-.151.415.036.451.019.035-.018.652.546.616.564 2.647 14.753.399.329.596.299.197-.029.889.17"/><path fill="none" stroke-width="3.634" stroke-linecap="round" stroke-linejoin="round" d="M1957.801 1466.834q-.187.224-.7 1.463-.512 1.239-.692 3.298-.18 2.059.53 3.288.711 1.228 1.269 1.571.558.343 1.957.704 1.4.361 3.754-.321 2.355-.683 4.505-2.237 2.151-1.555 3.305-3.208 1.154-1.653 1.405-3.968.25-2.315-.016-3.509-.267-1.195-1.403-2.224-1.136-1.03-2.991-1.214-1.855-.184-4.341 2.021-2.487 2.205-3.335 3.211"/><path fill="none" stroke-width="4.049" stroke-linecap="round" stroke-linejoin="round" d="M1971.158 1462.118q.076.237.148 4.33t.729 6.798q.656 2.705 1.444 3.953.788 1.248 3.536 2.982"/><path fill="none" stroke-width="3.158" stroke-linecap="round" stroke-linejoin="round" d="M1984.249 1462.827l-.354-.856q-.573-.369-.742 15.685.029-.194 1.674-2.784t3.197-4.185q1.552-1.595 2.698-2.022 1.146-.428 1.85-.379.704.048 1.307.307.602.259 1.272 1.021.669.763 1.17 1.579.5.816 1.338 2.06.837 1.243 1.602 1.99.766.748 3.667 2.071"/><path fill="none" stroke-width="2.832" stroke-linecap="round" stroke-linejoin="round" d="M2011.127 1469.285q-.498.34-.71.581-.211.242-.575 1.718-.363 1.475-.235 2.638.128 1.163.827 1.755.698.592 2.849.817 2.151.225 3.661-.182 1.51-.406 3.068-1.244t3.3-2.562q1.742-1.723 2.243-3.934.501-2.211.24-3.441-.261-1.229-1.175-1.948-.913-.719-2.565-1.059-1.653-.341-4.807 1.278-3.155 1.619-4.805 2.963"/><path fill="none" stroke-width="2.696" stroke-linecap="round" stroke-linejoin="round" d="M2025.697 1466.572q-.028.061 1.39-.375.337-.099-.54 4.403-.878 4.502-1.52 8.869-.642 4.366-.68 10.704-.037 6.338-.502 10.731-.464 4.393-1.146 6.393-.682 2.001-1.626 3.096-.945 1.094-3.741 1.318-2.796.224-4.665-.27-1.869-.495-3.451-1.068"/><path fill="none" stroke-width="3.054" stroke-linecap="round" stroke-linejoin="round" d="M2028.841 1467.713q.728.27 3.23.792 2.503.522 5.107.473 2.604-.048 5.455-1.546 2.851-1.499 4.765-4 1.914-2.502 1.917-5.514-1.083-.6-4.265 1.389-3.183 1.99-5.422 4.806t-2.901 4.855q-.662 2.038-.524 2.948.138.91.334 1.331.195.42 9.237 1.402 9.043.982 10.46 1.093"/><path fill="none" stroke-width="3.831" stroke-linecap="round" stroke-linejoin="round" d="M2078.592 1453.749q-.084.029-.673-.546-.213-.108-3.91.124-3.697.232-6.515 1.794-2.817 1.562-3.741 2.62-.924 1.057-1.286 2.587-.361 1.53.483 2.728.845 1.198 5.349 3.997 4.505 2.798 6.955 4.617 2.45 1.818 3.786 3.731 1.336 1.912 1.684 3.362.349 1.45.17 3.014-.18 1.564-4.869 2.879-4.69 1.315-6.948 1.644"/><path fill="none" stroke-width="2.729" stroke-linecap="round" stroke-linejoin="round" d="M2160.139 1416.06q.022 2.231.046 14.83t.019 19.261q-.006 6.663-.001 9.873.005 3.21.025 11.641.02 8.43.048 18.503t.14 28.175q.112 18.101.202 28.384.09 10.282.187 21.111.096 10.829.199 19.604.102 8.775.201 16.393.1 7.618.189 13.988.089 6.369.229 15.63.14 9.262.337 21.027.196 11.764.475 26.098.279 14.335.421 20.863l.292 13.352q.151 6.825.408 17.746.256 10.921.399 16.52.143 5.6.228 9.004.085 3.404.134 5.526t.353 14.361q.303 12.24.461 18.5.158 6.26.262 9.948.104 3.688.158 5.886.055 2.198.079 2.942.025.744.136 5.583.111 4.838.199 8.001.089 3.163.358 10.525.059 2.865.133 4.332.073 1.466.107 2.908l.054 2.322.109 3.636"/><path fill="none" stroke-width="2.797" stroke-linecap="round" stroke-linejoin="round" d="M2168.628 1855.444q2.625.016 3.035-.033.41-.05 2.851-.015 2.44.036 2.653.015.212-.02 2.746.033 2.534.053 8.765.071 6.231.017 25.724.204 19.494.186 28.499.279 9.004.093 14.779.163l10.954.131 11.397.133q6.218.073 11.68.165 5.463.092 11.467.226 6.005.134 13.927.33 7.923.197 16.613.477 8.69.279 12.041.426 3.35.148 5.988.216 2.638.069 2.787.083.149.014 2.468.08 2.32.067 2.68.109.36.043 2.922.117 2.562.074 3.014.101.452.027 3.113.127 2.66.1 5.403.216 2.742.116 2.883.136.141.021.196.027.054.006 2.623.097 2.568.092 5.054.152 2.485.061 2.683.085.199.025 3.168.098"/><path fill="none" stroke-width="2.953" stroke-linecap="round" stroke-linejoin="round" d="M2396.74 1857.444q-.06-1.71-.322-10.729-.261-9.018-.48-16.481-.221-7.464-.469-16.055-.249-8.591-.438-15.194l-.384-13.368-.618-21.51q-.423-14.746-.925-32.371t-1.465-51.725q-.962-34.099-1.458-52.121-.496-18.022-.7-25.55l-.333-12.31-.311-11.71-.607-23.003q-.423-16.072-.855-33.005-.432-16.933-.647-25.64l-.303-12.324q-.088-3.617-.228-9.533l-.361-15.443q-.221-9.528-.435-18.638-.213-9.109-.351-14.769-.138-5.659-.277-11.235l-.183-7.312q-.045-1.736-.146-6.483-.101-4.747-.126-5.819-.025-1.071-.071-2.616-.047-1.546-.171-6.317"/><path fill="none" stroke-width="2.625" stroke-linecap="round" stroke-linejoin="round" d="M2388.33 1384.022q-2.58.089-8.22.383-5.64.293-8.859.464-3.22.171-6.293.309-3.073.138-6.362.268-3.29.13-8.673.362-5.382.233-11.14.504-5.758.271-9.069.429-3.311.158-20.741 1.037-17.429.879-25.96 1.255-8.532.375-12.089.518-3.556.143-8.905.385-5.349.241-8.208.387-2.861.145-5.899.311-3.039.167-5.791.307-2.752.14-5.678.272-2.925.133-5.928.29-3.002.157-3.449.194-.446.036-3.486.187l-8.23.41q-5.19.258-11.354.56-6.165.301-9.292.44-3.128.139-5.868.253-2.74.114-3.063.129-.324.015-3.217.164-2.893.148-5.634.285-2.74.138-5.379.301-2.638.163-2.921.188-.283.024-8.64.391"/><path fill="none" stroke-width="2.658" stroke-linecap="round" stroke-linejoin="round" d="M2026.773 1527.038l.068 2.542q.11 5.064.258 11.262.148 6.198.287 14.243.138 8.045.282 13.78.144 5.734.256 11.448.111 5.714.335 17.028.224 11.313.343 17.106.119 5.793.22 11.189.101 5.397.167 8.592.066 3.196.167 8.439.1 5.242.152 8.129.053 2.886.113 5.958.061 3.071.108 5.99l.139 8.399q.091 5.481.13 8.402.038 2.92.084 5.604.045 2.684.111 5.896.067 3.213.166 8.533.099 5.32.124 7.996.026 2.676.024 2.947-.001.272.046 3.02t.053 2.821q.005.074.049 2.823.044 2.749.096 5.487.051 2.738.083 3.885l.138 7.675"/><path fill="none" stroke-width="2.948" stroke-linecap="round" stroke-linejoin="round" d="M2099.288 1732.733l-2.253.119q-.001.039-7.506.485-7.505.447-12.657.675-5.152.228-7.753.381-2.602.153-5.154.331-2.552.179-5.274.317-2.721.138-5.313.281-2.591.143-5.131.302-2.54.158-5.164.339-2.625.18-4.951.296-2.326.116-4.439.312"/><path fill="none" stroke-width="2.919" stroke-linecap="round" stroke-linejoin="round" d="M2112.188 1730.748l-5.072 5.469q-3.569 3.849-5.408 5.969-1.838 2.121-5.328 5.935l-1.424 1.77"/><path fill="none" stroke-width="2.922" stroke-linecap="round" stroke-linejoin="round" d="M2114.031 1727.911l-1.772-1.199q-3.786-2.587-12.233-7.8-8.448-5.212-9.814-6.484"/><path fill="none" stroke-width="2.939" stroke-linecap="round" stroke-linejoin="round" d="M1990.408 1514.217l.093 2.671q.003.59.241 8.909.238 8.32.418 14.505.181 6.186.462 14.832.281 8.647.524 17.713.244 9.066.421 14.957l.867 28.624q.688 22.734.927 32.24.238 9.506.652 23.941l.666 23.272q.253 8.838.406 14.452.154 5.614.229 8.646.075 3.032.138 6.302.064 3.269.192 8.307.129 5.038.207 7.963.078 2.925.174 5.924.096 2.999.174 6.002.078 3.003.14 5.896.062 2.893.138 6.053.075 3.16.231 8.623-.007.451.09 5.255.006.428.098 3.713"/><path fill="none" stroke-width="3.125" stroke-linecap="round" stroke-linejoin="round" d="M1998.818 1784.943q2.44-.203 5.371-.436 2.932-.233 8.256-.547 5.325-.313 8.233-.475 2.909-.162 11.136-.794 8.227-.631 13.684-1.043 5.457-.413 8.262-.587 2.805-.174 5.445-.299 2.64-.124 5.477-.242 2.836-.118 5.555-.278 2.718-.159 5.704-.398 2.986-.238 5.697-.421 2.712-.183 7.982-.6 5.269-.417 11.161-.858.164.032 2.731-.111 2.568-.143 2.615-.16.046-.016 5.598-.383l5.287-.318q.117-.007.196-.003.08.004 7.977-.633"/><circle stroke-width=".1" cx="2126.518" cy="1778.356" r="1.232"/><path fill="none" stroke-width="2.715" stroke-linecap="round" stroke-linejoin="round" d="M2131.262 1780.356q-1.218.722-1.245.671-.027-.051-1.663 1.082-1.635 1.133-3.318 2.49-1.683 1.357-3.131 2.506-1.447 1.15-2.64 1.999"/><path fill="none" stroke-width="3.618" stroke-linecap="round" stroke-linejoin="round" d="M2129.086 1775.695q-.805-1.977-1.719-3.93-.915-1.954-1.7-4.112-.786-2.157-.972-2.296-.186-.139-1.764-6.305"/><path fill="none" stroke-width="6.1" stroke-linecap="round" stroke-linejoin="round" stroke-dasharray="0.610,9.150" d="M2162.472 1621.858l225.936.573"/><path fill="none" stroke-width="2.805" stroke-linecap="round" stroke-linejoin="round" d="M2389.053 1503.807q4.045.063 13.102-.003t13.802-.104q4.744-.038 9.368-.091 4.624-.054 9.321-.087 4.697-.034 9.243-.046 4.546-.011 13.467.009 8.92.021 13.774-.056 4.855-.076 13.763-.032 8.908.045 13.513.011l4.829-.035 4.644-.046q4.421-.043 9.156-.124 4.736-.081 9.221-.109 4.484-.028 8.945-.076 4.46-.049 4.71-.095l13.173.087"/><path fill="none" stroke-width="2.453" stroke-linecap="round" stroke-linejoin="round" d="M2558.397 1499.307q-2.727 1.989-5.676 4.865-2.949 2.875-8.918 8.515-5.969 5.64-8.656 7.972"/><path fill="none" stroke-width="2.643" stroke-linecap="round" stroke-linejoin="round" d="M2559.178 1496.378q-2.22-1.991-2.316-2.119-.095-.128-15.059-12.342"/><path fill="none" stroke-width="2.857" stroke-linecap="round" stroke-linejoin="round" d="M2410.022 1760.331q4.494.067 17.413.235 12.919.167 13.151.178.231.01 4.665-.035 4.435-.045 8.867-.069 4.432-.024 8.756-.054t8.865-.028q4.542.001 8.869.018 4.328.016 4.498-.004.17-.02 4.437-.126t4.407-.078q.14.029 4.384-.011 4.244-.039 8.629-.086l4.687-.05q.303-.002 4.691.031 4.388.034 8.639.06 4.25.025 4.447-.013.175.102 8.727.056l4.305.116"/><path fill="none" stroke-width="2.894" stroke-linecap="round" stroke-linejoin="round" d="M2556.397 1756.206q-3.107 2.737-6.672 5.46-3.565 2.723-7.143 5.436-3.578 2.714-13.779 11.533"/><path fill="none" stroke-width="2.674" stroke-linecap="round" stroke-linejoin="round" d="M2556.928 1764.432q-1.025-2.872-2.79-5.826-1.766-2.954-9.554-18.174"/><path fill="none" stroke-width="2.369" stroke-linecap="round" stroke-linejoin="round" d="M2581.209 1538.589q-.15-3.635-.43-7.912l-.846-12.89q-.565-8.613-.833-13.01-.267-4.397-.827-13.088l-.837-13.016q-.277-4.325-1.282-21.361l-.132-3.919"/><path fill="none" stroke-width="2.848" stroke-linecap="round" stroke-linejoin="round" d="M2574.053 1445.682q3.749-.085 4.503-.112.755-.028 9.118-.176 8.363-.149 17.701-.39 9.337-.24 14.717-.403 5.381-.163 14.174-.368 8.792-.204 17.783-.408 8.992-.204 18.682-.402 9.69-.198 23.043-.405 13.354-.206 18.305-.304 4.951-.099 14.327-.337 9.376-.239 18.292-.415 8.916-.175 17.983-.279 9.068-.104 14.024-.131 4.955-.027 13.928-.134 8.973-.106 18.308-.227 9.336-.12 17.896-.253 8.561-.133 17.637-.235 9.076-.102 18.973-.178l.379-.027 8.559-.033.8.087 12.837-.167"/><path fill="none" stroke-width="2.567" stroke-linecap="round" stroke-linejoin="round" d="M2888.553 1436.659q.329 3.684.774 11.963t.686 17.022q.242 8.743.502 17.136.26 8.393.544 17.045.283 8.652.523 17.102.24 8.45.27 8.613.031.162.186 8.497.098.131.131.223.032.092.199 3.99.166 3.897.435 7.909"/><path fill="none" stroke-width="2.1" stroke-linecap="round" stroke-linejoin="round" d="M2891.209 1547.073q-4.28-.006-9.618-.046-5.337-.041-10.22-.087-4.883-.046-9.742-.064-4.859-.018-23.98.062-19.121.081-28.253.11-9.132.029-18.771-.022-9.639-.05-14.918-.084-5.28-.034-14.59-.042-9.31-.009-14.625-.023-5.314-.014-9.953-.032-4.639-.018-14.091-.05-9.451-.032-18.679-.086-9.229-.055-19.027-.14-9.799-.086-14.968-.111-5.168-.026-14.247.033-9.078.06-13.884.089-4.806.028-5.478-.001-.672-.029-5.011-.025-4.34.005-9.007.006t-5.236-.001q-.57-.003-5.231-.06-4.661-.057-9.223-.101-4.561-.043-4.596-.038-.035.005-.488-.028-.453-.033-4.647-.093l-4.479-.064q-.284-.003-4.913-.016"/><path fill="none" stroke-width="2.964" stroke-linecap="round" stroke-linejoin="round" d="M2580.147 1800.667q-.165-3.925-.359-7.72-.193-3.796-.689-16.594-.495-12.798-.805-21.162-.308-8.363-.432-12.74-.124-4.377-.311-8.591-.186-4.213-.406-8.482-.22-4.27-.371-8.48-.152-4.21-.319-8.427t-.303-8.089q-.137-3.872-.141-3.948l-.239-3.791"/><path fill="none" stroke-width="2.75" stroke-linecap="round" stroke-linejoin="round" d="M2574.959 1690.534q4.38-.211 8.647-.324 4.267-.113 9.519-.292l9.819-.335q4.565-.154 13.355-.509t13.358-.571q4.568-.215 8.978-.409 4.409-.193 9.657-.406 5.248-.213 14.401-.525 9.153-.312 13.776-.473l13.049-.46q8.426-.297 13.31-.502 4.883-.205 9.303-.373 4.421-.167 14.042-.461 9.622-.294 18.207-.568 8.586-.274 18.245-.607 9.659-.334 14.495-.461l9.325-.245q4.489-.117 8.585-.239 4.096-.121 8.728-.23 4.632-.109 9.013-.216t5.081-.122q.699-.015 9.388-.299t17.701-.528q9.012-.243 26.84-.582.563.049 1.309.126 7.627-.268 12.682-.35"/><path fill="none" stroke-width="2.848" stroke-linecap="round" stroke-linejoin="round" d="M2890.397 1675.276q.053 4.61.281 19.415.227 14.805.328 29.452.1 14.647.203 24.267.103 9.619.158 14.581.055 4.961.276 14.825l.122 9.612.074.072.027 4.94"/><path fill="none" stroke-width="2.868" stroke-linecap="round" stroke-linejoin="round" d="M2887.209 1793.495q-3.96.053-23.487.506-19.526.453-33.362.801-13.836.348-23.124.557-9.289.209-9.972.246-.683.038-9.57.261-8.888.224-14.033.382-5.145.159-9.881.293-4.736.134-9.371.229-4.636.095-9.639.179-5.004.084-14.208.249-9.203.166-18.297.418-9.094.253-13.853.405-4.76.152-9.954.285l-14.541.375q-9.347.241-18.578.444t-14.443.359q-5.211.157-9.658.284-4.447.127-8.913.245t-9.252.185q-4.787.066-5.276.086-.489.019-13.713.265"/><path fill="none" stroke-width="2.984" stroke-linecap="round" stroke-linejoin="round" d="M1557.616 1681.96q.028-.107-.091-1.103-.119-.995-.253-1.4-.134-.405-.328-.754t-1.352-.76q-1.158-.411-2.672-.308-1.514.103-3.768 1.332-2.255 1.229-4.098 3.493-1.843 2.265-2.844 6.134t-.352 5.675q.649 1.806 1.458 2.788.808.983 1.185 1.296.377.313 1.169.811.792.498 2.485.722 1.692.224 5.805-.536"/><path fill="none" stroke-width="2.613" stroke-linecap="round" stroke-linejoin="round" d="M1564.381 1696.034q-.022 1.16-.011 2.005.01.845.194 1.53t1.411 1.285q1.228.6 2.892.148 1.665-.451 2.511-1.179.846-.728 1.319-2.182.474-1.453.299-2.351-.174-.898-.894-1.521-.721-.622-1.98-.762-1.258-.141-2.417.349-1.159.489-1.995.885"/><path fill="none" stroke-width="2.787" stroke-linecap="round" stroke-linejoin="round" d="M1581.897 1690.854q-.141.233 1.728 6.514.453-.108 1.149-.704.696-.597 1.432-.988.735-.391 1.53-.411.274.135 2.251 2.291.494.109 1.087-.097.593-.207 1.152-.486.559-.278 1.998-.965 1.439-.687 4.522-.36.498.738.565.766.067.027.904 3.555l.791 1.174"/><path fill="none" stroke-width="2.8" stroke-linecap="round" stroke-linejoin="round" d="M1608.835 1694.112l-.289-.002-.418.241q-.069.007-.668.978-.6.971-.672 1.779-.073.807.046 1.289.12.481.333.761.213.279.546.538.332.259.352.317.02.058 1.301.485 1.282.426 2.788.368 1.506-.057 2.392-.409.886-.351 2.167-1.296 1.28-.944 1.943-1.707.664-.764 1.184-1.853.519-1.09.282-2.445.07-.188-1.08-.595-1.149-.407-2.194-.304-1.045.102-2.576.39"/><path fill="none" stroke-width="2.414" stroke-linecap="round" stroke-linejoin="round" d="M1608.241 1696.831q-.098-.14-.468-.385-.135-.649-.37-18.224-.229-.245-.49-1.173"/><path fill="none" stroke-width="2.837" stroke-linecap="round" stroke-linejoin="round" d="M1630.069 1702.538q.128-.338-.219-3.822-.346-3.484-1.165-5.86-.82-2.377-1.147-3.197"/><path fill="none" stroke-width="2.081" stroke-linecap="round" stroke-linejoin="round" d="M1628.272 1683.296q.508.073.806.177.298.103 1.178.42"/><path fill="none" stroke-width="2.949" stroke-linecap="round" stroke-linejoin="round" d="M1638.819 1685.745q-.184.209-.248.313-.138.233-.08 3.074.059 2.841.449 5.113.391 2.272 1.928 4.622.225-.257.469-1.827.243-1.57.949-3.332.705-1.762 1.442-2.551.737-.788 1.47-.993.734-.205 1.696.099.961.304 1.344.657.383.353.722.689.339.336 1.225 2.263.885 1.927 1.074 4.024.189 2.099.169 2.38"/><path fill="none" stroke-width="2.064" stroke-linecap="round" stroke-linejoin="round" d="M1660.788 1686.811l-.29.312q-.188.263-1.179 2.477"/><path fill="none" stroke-width="2.622" stroke-linecap="round" stroke-linejoin="round" d="M1659.319 1689.6q1.062.154 2.29.089 1.227-.065 2.525-.232 1.298-.168 2.703-.904 1.406-.736 2.097-1.515.691-.779.731-1.114.04-.334-.008-.592-.048-.259-1.825-.765-1.778-.506-3.303-.37-1.526.136-2.875.852-1.35.717-2.144 1.849-.794 1.132-.932 2.834-.138 1.701.649 3.123.787 1.422 3.044 2.985t5.049 2.401q2.791.838 7.681.468 4.889-.37 6.021-.554"/><path fill="none" stroke-width="3.123" stroke-linecap="round" stroke-linejoin="round" d="M1575.788 1722.776l-.117-.942-.061.025q-.08.867-.018 7.65.061 6.783.2 10.857.139 4.073.312 5.811.173 1.739.624 2.594l.591.009"/><path fill="none" stroke-width="2.649" stroke-linecap="round" stroke-linejoin="round" d="M1581.694 1730.604l-.811.096q-.455-.149-5.686 1.522-5.23 1.671-6.644 2.226"/><path fill="none" stroke-width="3.006" stroke-linecap="round" stroke-linejoin="round" d="M1587.663 1721.381q-.483.87-1.121 4.586t-.44 6.853q.199 3.138 1.3 8.261 1.102 5.122 1.93 9.303.058.029.253.587"/><path fill="none" stroke-width="2.914" stroke-linecap="round" stroke-linejoin="round" d="M1588.991 1740.753q.17-.068 7.445-.244.286.027 1.342 2.047 1.055 2.02 2.6 4.667l.816.959"/><path fill="none" stroke-width="2.328" stroke-linecap="round" stroke-linejoin="round" d="M1606.116 1744.538l.802-.12 1.085-.216q.186.02 2.015-.77 1.829-.79 2.379-1.241.551-.451.799-.901.249-.451.058-.852-.19-.4-1.009-.648-.82-.248-1.718-.285-.898-.038-1.586.237-.688.275-1.122.831-.433.555-.467 1.099-.034.543-.074.718-.039.174.698 1.298t2.605 2.402q1.869 1.279 3.054 1.69 1.185.412 1.954.434.768.022 2.339.039"/><path fill="none" stroke-width="2.227" stroke-linecap="round" stroke-linejoin="round" d="M1624.96 1743.6l.165-.247q1.618-.707 2.573-1.171.954-.464 1.597-1.002.643-.537.678-.869.036-.332-.031-.563-.067-.232-.349-.461-.283-.228-1.917-.275-1.635-.047-2.425.481-.789.527-1.366 1.868-.576 1.342-.375 2.806.201 1.465.778 2.107.577.643 1.186.95.608.306 2.178.561 1.57.254 2.818-.005t2.911-.723"/><path fill="none" stroke-width="2.688" stroke-linecap="round" stroke-linejoin="round" d="M1646.194 1738.561l-.887-1.055-.872-.26q-1.083-.201-2.778-.062-1.695.14-2.378.634t-.811.72q-.129.226-.181.606-.052.38.363.995.414.615 2.863 2.21 2.448 1.595 4.228 3.912.294.182-2.114.918-2.407.737-3.542 1.003"/><path fill="none" stroke-width="2.239" stroke-linecap="round" stroke-linejoin="round" d="M1654.413 1743.471q6.732-.514 8.875-1.189 2.143-.674 3.484-1.632 1.341-.958 1.651-2.901-.597-.523-3.188-.789-2.59-.266-4.896.339-2.307.604-3.679 1.831-1.373 1.227-1.777 2.553-.404 1.325-.199 2.155.205.829.365 1.271.159.442 5.222 2.26 5.062 1.819 6.423 2.079"/><path fill="none" stroke-width="3.028" stroke-linecap="round" stroke-linejoin="round" d="M2616.769 1476.793q.058-.079.12-1.322l.266-.393q.218-.857.169-.984-.034-1.074-.164-2.001-.131-.927-.404-1.331-.273-.403-1.083-1.015-.809-.612-2.456-.713-1.648-.101-2.867.233-1.22.334-2.671 1.196-1.451.863-3.283 3.014-1.831 2.152-2.71 5.631-.879 3.478-.456 6.468.424 2.99 4.541 8.847 4.116 5.857 6.679 9.171 2.562 3.314 3.262 5.014.701 1.699.606 3.354-.094 1.655-4.329 3.627-4.236 1.972-7.725 2.795-3.49.823-5.704 1.391"/><path fill="none" stroke-width="3.14" stroke-linecap="round" stroke-linejoin="round" d="M2626.687 1509.075q4.605-.826 5.366-1.148.761-.322.842-.343.08-.022 1.363-1.019 1.283-.997 1.69-2.153.407-1.157.167-2.891-.239-1.735-1.603-2.284-1.364-.55-2.506-.389-1.141.16-1.834.445-.694.284-2.607 2.04-1.912 1.755-2.999 4.921-1.087 3.167-1.029 5.757.057 2.591.734 3.985.676 1.393 2.315 2.642 1.639 1.249 4.129 1.699 2.489.449 5.07.07 2.581-.379 3.766-.632"/><path fill="none" stroke-width="4.176" stroke-linecap="round" stroke-linejoin="round" d="M2647.395 1502.08q-.075-.167-.641-.732-.473.531-.637.564-.165.032-.363 6.667-.198 6.635.182 11.215.38 4.579 1.076 9.011.696 4.431 1.716 8.528.227.139-.789-4.542-1.014-4.681-1.397-6.111"/><path fill="none" stroke-width="4.795" stroke-linecap="round" stroke-linejoin="round" d="M2647.314 1508.039q.269-.443 1.584-2.851t2.515-3.219q1.2-.81 2.542-.932 1.342-.122 2.554.042 1.211.164 2.236 1.24 1.025 1.076 1.48 3.733.455 2.657-1.034 5.607-1.488 2.949-9.378 7.674"/><path fill="none" stroke-width="3.642" stroke-linecap="round" stroke-linejoin="round" d="M2672.331 1505.021q-.171-.025-.673.029-.501.054-.558.065-.057.012-.717.699-.66.687-.803 2.322-.144 1.635-.024 2.552.119.916 1 1.929.882 1.013 2.618 1.548 1.737.535 3.507-.164 1.77-.698 2.992-1.88 1.222-1.181 1.961-3.086.738-1.904.637-3.146-.101-1.241-.693-1.86-.591-.618-2.446-.728-1.855-.11-4.512 1.476-2.657 1.586-6.333 6.28"/><path fill="none" stroke-width="4.139" stroke-linecap="round" stroke-linejoin="round" d="M2678.976 1504.671l.523.447q3.919 7.815 5.142 9.996 1.223 2.181 2.36 3.265 1.138 1.083 2.604 2.433"/><path fill="none" stroke-width="3.23" stroke-linecap="round" stroke-linejoin="round" d="M2702.713 1517.702q.051-.357-.801-4.897-.851-4.54-4.149-12.356-3.298-7.815-3.85-8.902"/><path fill="none" stroke-width="3.064" stroke-linecap="round" stroke-linejoin="round" d="M2697.86 1499.939l.494-.286q.29.023.712-.033.422-.057.861-.389.44-.332.994-.765.555-.433 1.48-.97.925-.536 1.082-.523.158.013 2.745-.795t7.561-1.4l2.117.313"/><path fill="none" stroke-width="3.27" stroke-linecap="round" stroke-linejoin="round" d="M2724.965 1503.393l-1.763.817q-.211.037-1.639 1.707-1.428 1.67-1.552 2.585-.124.914-.094 1.69.029.776.24.927.211.15 1.237.692 1.027.543 2.896.781 1.868.238 3.139.079 1.271-.159 3.393-.916 2.122-.758 3.509-2.062 1.387-1.305 1.728-2.45.34-1.146.106-1.91-.235-.765-.758-1.488t-2.251-1.267q-1.727-.545-3.676-.531-1.949.013-4.201 1.348-2.251 1.336-3.504 2.201"/><path fill="none" stroke-width="4.561" stroke-linecap="round" stroke-linejoin="round" d="M2732.967 1500.573l-.037.134q-.261 1.499 3.257 8.271 3.518 6.772 4.143 7.668"/><path fill="none" stroke-width="3.369" stroke-linecap="round" stroke-linejoin="round" d="M2754.989 1520.841l-.006-.154q.154-.915-1.522-13.277-1.675-12.362-2.182-20.79-.507-8.428-.696-10.727"/><path fill="none" stroke-width="5.019" stroke-linecap="round" stroke-linejoin="round" d="M2763.072 1489.726q-.983-.543-4.736-.518-3.753.025-6.208.468-2.456.443-4.992.923-2.536.479-6.615 1.579-4.078 1.099-6.55 1.922"/><path fill="none" stroke-width="2.507" stroke-linecap="round" stroke-linejoin="round" d="M2771.413 1510.805l.25.061 1.492-.153q1.159-.28 5.138-1.297 3.98-1.017 5.95-2.257 1.971-1.241 2.64-2.597.668-1.357.508-2.349-.161-.991-2.164-1.762-2.004-.771-3.947-.839-1.943-.069-4.346.817-2.404.887-4.353 2.497-1.95 1.61-2.591 3.353-.641 1.743-.532 2.543.11.8.531 1.717.421.917 3.31 2.91 2.889 1.992 6.973 3.001 4.083 1.009 6.662.939 2.578-.071 4.83-.294"/><path fill="none" stroke-width="4.469" stroke-linecap="round" stroke-linejoin="round" d="M2622.071 1778.64l.058-.281-.284-3.032q-.337-1.491-1.486-13.677t-2.469-21.767q-1.32-9.581-2.466-16.897l-.499-.813"/><path fill="none" stroke-width="3.632" stroke-linecap="round" stroke-linejoin="round" d="M2627.489 1733.229q-.134-.116-.59-.458-1.193-.489-7.047 1.892-5.854 2.381-9.581 4.229-3.727 1.847-6.218 2.5-2.491.652-6.897-.018"/><path fill="none" stroke-width="2.794" stroke-linecap="round" stroke-linejoin="round" d="M2634.918 1716.849q-.36 1.447-1.241 9.403-.882 7.956.607 18.625 1.489 10.669 2.817 16.292 1.327 5.623 2.146 10.892l-.316.491q.014-.096.317-.141"/><path fill="none" stroke-width="2.897" stroke-linecap="round" stroke-linejoin="round" d="M2637.332 1758.747l.574.011q.974-.218 3.02-1.583 2.046-1.365 5.001-2.509 2.955-1.144 4.673-1.152 1.718-.008 2.735.297 1.017.306 1.868 1.978.851 1.672 1.291 4.752.44 3.079 1.796 10.596.093.067 1.449.28"/><path fill="none" stroke-width="2.578" stroke-linecap="round" stroke-linejoin="round" d="M2670.386 1760.859l.607.265q.943.332 4.071-.941 3.129-1.272 4.668-2.655 1.54-1.383 2.223-2.707.684-1.323.526-2.392.011-.155-2.033-.331-2.043-.175-5.443 1.473-3.399 1.648-5.701 4.046-2.302 2.397-3.039 5.319-.736 2.921-.577 4.196.16 1.276.565 2.042.404.767 1.67 1.733 1.266.966 4.893 1.239 3.628.273 6.783-1.281 3.156-1.555 5.362-2.979"/><path fill="none" stroke-width="2.367" stroke-linecap="round" stroke-linejoin="round" d="M2697.431 1761.16l.184-.088q.387.129 3.983-1.804t5.502-3.538q1.906-1.605 2.643-2.702.738-1.097.551-2.207-.186-1.111-2.377-1.569-2.191-.459-5.466.633-3.275 1.091-5.748 3.285-2.473 2.194-3.656 5.302-1.182 3.108-1.032 5.994.151 2.885 1.152 4.417 1.003 1.532 3.765 2.56 2.762 1.027 10.629-2.923 7.867-3.95 9.248-4.84"/><path fill="none" stroke-width="2.503" stroke-linecap="round" stroke-linejoin="round" d="M2741.322 1749.2l-1.297-.115-1.442-.246q-.282-.115-4.097-.32-3.815-.205-5.892.406-2.077.612-2.771 1.171-.695.559-1.161.957-.466.398-1.19 2.596t.279 3.492q1.004 1.293 2.502 2.119 1.498.826 1.978.996.479.171 4.059 1.515 3.579 1.345 6.61 3.328 3.032 1.984 3.964 6.579-.29.435-4.458 2.483-4.167 2.048-5.413 2.58"/><path fill="none" stroke-width="2.979" stroke-linecap="round" stroke-linejoin="round" d="M2756.394 1760.167q.376-.233 2.92-.197 2.544.036 6.413-1.971 3.868-2.007 6.166-4.242 2.298-2.234 2.877-3.418.578-1.183.527-1.942-.052-.76-2.578-1.694-2.527-.935-5.41-.83-2.882.105-4.998.765-2.115.66-4.113 2.542-1.998 1.882-2.924 3.861-.927 1.978-.925 5.748.002 3.77 1.441 6.245 1.438 2.476 3.121 3.824 1.683 1.348 4.335 2.217t7.078.638q4.426-.231 7.53-1.542 3.105-1.31 5.679-2.676"/></g></svg>
