<svg xmlns="http://www.w3.org/2000/svg" viewBox="849.57 1385.573 2001.194 508.602"><path fill="none" stroke="#000" stroke-width="2.438" stroke-linecap="round" stroke-linejoin="round" d="M905.372 1505.678q-.127.55.083 2.78.181-.266 2.486-6.693 2.304-6.428 3.321-12.962 1.017-6.535.626-10.096-.391-3.56-1.368-5.637-.977-2.077-3.116-3.191-2.138-1.115-4.461-1.029-2.324.085-5.436 1.933-3.113 1.848-8.742 10.998-5.63 9.15-8.784 18.611-3.155 9.461-4.388 15.176-1.234 5.714-2.438 12.977-1.204 7.263-1.773 20.311-.569 13.049 2.126 22.795 1.944 1.718 9.069-2.738 7.126-4.455 8.343-5.514"/><path fill="none" stroke="#000" stroke-width="2.807" stroke-linecap="round" stroke-linejoin="round" d="M930.763 1466.079l-.333-.047q-.078.013-2.337 13.69-2.259 13.677-3.122 27.789-.863 14.112-2.719 28.705-1.856 14.594-5.059 27.194-.128-.053-.084-.213.045-.16.059-.059"/><path fill="none" stroke="#000" stroke-width="3.115" stroke-linecap="round" stroke-linejoin="round" d="M920.509 1542.638q.195-.17.739-1.122.545-.952 2.152-3.881 1.607-2.93 4.048-6.035 2.44-3.106 4.783-4.451 2.344-1.344 3.75-1.442 1.406-.099 2.498.766 1.093.866 1.996 4.823.903 3.958.748 7.929-.155 3.971-.456 16.608l1.835-.764"/><path fill="none" stroke="#000" stroke-width="3.535" stroke-linecap="round" stroke-linejoin="round" d="M958.315 1532.606l-.329.282q-1.629 1.979-2.304 7.141-.675 5.162-.276 7.351.399 2.188 1.032 3.245t2.104 1.436q1.472.379 5.417-2.21 3.945-2.588 6.504-5.878 2.559-3.29 3.331-6.109.772-2.819.118-5.145-.655-2.326-1.618-2.794-.963-.467-2.908-.525-1.945-.057-5.325 1.828-3.379 1.885-5.759 5.161-2.38 3.276-3.415 4.912"/><path fill="none" stroke="#000" stroke-width="4.274" stroke-linecap="round" stroke-linejoin="round" d="M975.174 1529.935q-.067.743-.141 5.527-.074 4.784.355 7.668.428 2.883.879 4.211.45 1.327.731 1.889.281.561 1.887 3.262"/><path fill="none" stroke="#000" stroke-width="2.634" stroke-linecap="round" stroke-linejoin="round" d="M994.907 1524.096q-.467.443-1 7.51-.532 7.068-1.333 21.452-.168.267 1.387-4.996 1.555-5.263 3.392-9.123 1.836-3.86 3.48-5.513 1.643-1.653 2.602-2.001.958-.348 1.87-.121.913.228 2.182 2.712t2.155 7.473q.885 4.989 1.349 7.426.463 2.437.82 3.599.357 1.162 1.584 2.299l1.94.428"/><path fill="none" stroke="#000" stroke-width="2.813" stroke-linecap="round" stroke-linejoin="round" d="M1037.191 1530.428l-.185.146q-1.11.806-2.97 5.349-1.86 4.544-1.868 6.98-.009 2.436.751 4.535.76 2.098 3.544 2.925 2.785.827 6.488-.789 3.703-1.617 6.227-4.576 2.524-2.959 3.383-5.444.859-2.486.866-4.658.007-2.171-.743-3.768-.751-1.597-1.982-2.485-1.231-.887-3.592-1.651-2.36-.764-8.351 1.697-5.99 2.462-8.182 3.813"/><path fill="none" stroke="#000" stroke-width="2.661" stroke-linecap="round" stroke-linejoin="round" d="M1052.951 1531.411q-.295.48-1.618 4.009-1.324 3.53-1.71 17.891-.387 14.362-.202 21.286.184 6.923-.661 11.206-.846 4.283-2.398 5.926-1.552 1.644-8.765 1.399-7.214-.246-10.616-.989"/><path fill="none" stroke="#000" stroke-width="2.4" stroke-linecap="round" stroke-linejoin="round" d="M1058.154 1538.757q.583-.124 3.497-.427 2.915-.303 9.45-3.228 6.535-2.926 9.941-5.663 3.407-2.737 4.617-5.286-.516-.251-4.706 1.686-4.19 1.937-7.263 4.435-3.074 2.497-4.188 4.313-1.115 1.815-1.04 4.864.074 3.049 5.849 4.951 5.775 1.902 12.333.744t9.832-2.24"/><path fill="none" stroke="#000" stroke-width="3.346" stroke-linecap="round" stroke-linejoin="round" d="M1120.346 1516.071q.509-1.081-.979-7.443-.962-1.078-4.171-1.284-3.208-.206-5.446.614-2.237.821-3.619 2.01-1.382 1.189-2.445 2.938t-1.416 4.586q-.352 2.838.201 5.15.554 2.311 3.694 5.239 3.14 2.927 7.8 5.986 4.661 3.059 7.054 5.575 2.392 2.516 2.954 3.936.563 1.42.655 2.525.092 1.106-3.762 4.172-3.854 3.067-8.738 5.138-4.885 2.072-8.26 3.487"/><path fill="none" stroke="#000" stroke-width="2.205" stroke-linecap="round" stroke-linejoin="round" d="M993.734 1570.081q.003 3.107.073 9.711l.141 13.471q.072 6.867.191 13.477.119 6.609.179 10.081.059 3.471.101 6.82.043 3.349.069 6.765l.05 6.807q.024 3.392.047 3.54.024.149-.008 6.408l.043 3.381"/><path fill="none" stroke="#000" stroke-width="3.237" stroke-linecap="round" stroke-linejoin="round" d="M993.92 1651.137q2.974.029 3.101.038.126.009 3.279-.025t6.49-.029q3.337.005 6.617-.082 3.28-.087 6.438-.162 3.158-.076 6.516-.119 3.359-.043 6.574-.117 3.216-.074 3.222-.083.007-.009 3.296-.036 3.288-.026 6.662-.019 3.374.007 9.812-.092 6.438-.099 9.846-.181 3.408-.082 3.448-.072.04.01 3.297-.06 3.257-.071 6.418-.128 3.162-.058 3.267-.069.106-.011.246-.011t3.263-.065q3.123-.064 3.266-.02.142.045 9.47.037"/><path fill="none" stroke="#000" stroke-width="2.38" stroke-linecap="round" stroke-linejoin="round" d="M1108.271 1651.925q-1.98 1.433-4.554 3.393-2.574 1.959-12.383 9.453l-2.289 1.713"/><path fill="none" stroke="#000" stroke-width="2.865" stroke-linecap="round" stroke-linejoin="round" d="M1110.044 1651.137q-1.781-1.932-3.967-3.814-2.186-1.881-4.7-4.058-2.515-2.177-7.03-6.297-4.514-4.121-6.398-6.147"/><path fill="none" stroke="#000" stroke-width="2.086" stroke-linecap="round" stroke-linejoin="round" d="M985.007 1573.056q-.036 3.296.021 10.303l.059 7.249q.001.242.091 10.803.091 10.561.115 14.268.024 3.708.172 10.76.147 7.053.287 14.025.139 6.972.194 14.103.055 7.13.125 14.129.071 6.999.115 10.691.044 3.691.038 7.135-.007 3.444-.027 7.016"/><path fill="none" stroke="#000" stroke-width="3.815" stroke-linecap="round" stroke-linejoin="round" d="M988.391 1696.705q3.409.177 3.424.181.015.004 3.603.072 3.588.067 10.618.112 7.031.044 13.826.155 6.794.111 10.249.165 3.455.055 3.583.053.128-.002 3.788.062 3.661.063 7.108.119 3.447.055 6.892.103 3.445.047 6.891.133 3.445.085 7.1.145 3.654.06 7.217.14 3.562.08 7.023.073 3.462-.006 6.798.03 3.337.036 3.489.034.152-.002 3.608.055t6.824.258"/><path fill="none" stroke="#000" stroke-width="2.749" stroke-linecap="round" stroke-linejoin="round" d="M1108.061 1702.06q-2.037 1.696-2.168 1.899-.131.203-2.531 2.122-2.401 1.918-5.002 3.99-2.601 2.071-5.006 4.132-2.406 2.061-4.798 4.201"/><path fill="none" stroke="#000" stroke-width="2.682" stroke-linecap="round" stroke-linejoin="round" d="M1108.761 1700.467q-1.521-2.018-3.405-4.423-1.884-2.405-14.934-18.361"/><path fill="none" stroke="#000" stroke-width="2.19" stroke-linecap="round" stroke-linejoin="round" d="M957.172 1580.878q.063 3.135.329 13.765t.495 20.906l.317 14.216q.088 3.94.295 11.059t.378 14.38q.17 7.261.307 13.635.137 6.373.272 10.525.136 4.152.238 7.485.103 3.334.311 10.229.209 6.895.362 13.709t.37 14.047q.217 7.233.349 11.073.132 3.84.311 10.589.18 6.75.278 10.332l.107 3.93q.009.348.101 3.445.093 3.097.11 3.547.017.45.094 3.545.076 3.096.088 3.39.012.295.139 4.022.126 3.727.395 13.316"/><path fill="none" stroke="#000" stroke-width="3.105" stroke-linecap="round" stroke-linejoin="round" d="M962.515 1792.618q2.92-.035 6.612-.055 3.691-.02 6.778-.052 3.086-.033 6.567-.137 3.482-.104 6.968-.177 3.487-.073 7.111-.105 3.624-.032 10.202-.167 6.578-.135 6.806-.162.228-.027 3.592-.14 3.365-.113 6.857-.178 3.491-.066 10.082-.201 6.591-.136 9.923-.242 3.331-.106 3.588-.122.257-.015.381-.029.124-.013 6.826-.129 6.702-.115 13.32-.208 6.618-.093 10.087-.194l3.913-.114q.048.002 16.53-.161"/><path fill="none" stroke="#000" stroke-width="2.766" stroke-linecap="round" stroke-linejoin="round" d="M1101.038 1789.748q-1.75 2.853-3.669 5.404-1.918 2.551-5.768 7.778-3.85 5.226-5.519 8.009"/><path fill="none" stroke="#000" stroke-width="2.826" stroke-linecap="round" stroke-linejoin="round" d="M1100.945 1794.49q-1.249-2.184-2.74-4.719t-3.164-5.31q-1.673-2.775-4.541-8.013-2.867-5.238-4.021-7.804"/><path fill="none" stroke="#000" stroke-width="2.253" stroke-linecap="round" stroke-linejoin="round" d="M937.246 1568.891q.041 2.849.162 14.72.121 11.872.286 26.109.165 14.237.258 21.447.094 7.21.137 10.742.042 3.532.126 11.584.084 8.051.169 14.804.085 6.752.263 21.489.178 14.738.296 22.346.118 7.608.178 12.173l.153 11.331q.093 6.767.196 13.847.103 7.08.177 11.26.075 4.18.174 11.196.1 7.017.176 11.448.075 4.432.201 10.924.126 6.493.207 10.779.08 4.285.136 7.609.056 3.324.151 7.677.096 4.353.153 7.709.058 3.356.142 7.229.085 3.873.204 10.207.12 6.333.174 7.859l.058 3.337"/><path fill="none" stroke="#000" stroke-width="3.147" stroke-linecap="round" stroke-linejoin="round" d="M944.993 1860.094q3.28-.252 3.307-.261.027-.009 6.883-.428 6.857-.42 10.481-.635 3.624-.214 6.905-.424 3.28-.209 10.059-.618 6.779-.41 10.624-.638 3.845-.228 10.703-.757 6.857-.529 10.395-.781 3.537-.252 6.791-.469 3.255-.216 3.443-.241.188-.025 3.618-.27 3.43-.245 6.766-.47 3.337-.225 3.549-.231.213-.006 6.713-.381 6.5-.374 6.732-.365.232.01 3.692-.227 3.46-.237 6.803-.472 3.342-.236 3.606-.224.263.012 3.381-.175 3.118-.188 6.643-.392 3.525-.205 3.806-.211.28-.005 3.411-.193 3.132-.187 6.721-.464"/><path fill="none" stroke="#000" stroke-width="2.417" stroke-linecap="round" stroke-linejoin="round" d="M1104.491 1852.85q-1.281 1.492-7.159 7.402-5.879 5.909-7.839 8.003-1.959 2.094-3.527 3.826"/><path fill="none" stroke="#000" stroke-width="2.776" stroke-linecap="round" stroke-linejoin="round" d="M1104.701 1853.55q-2.002-2.33-4.313-4.967-2.31-2.636-17.782-20.092"/><path fill="none" stroke="#000" stroke-width="2.234" stroke-linecap="round" stroke-linejoin="round" d="M1503.091 1694.52l-2.756-1.6.015-.071q-.044.007-6.716-3.996-6.672-4.004-13.348-8.019-6.677-4.015-9.885-6.09t-3.405-2.188q-.197-.114-3.383-2.039-3.185-1.925-3.33-1.975-.144-.049-3.35-2.011-3.207-1.961-3.29-2.017-.083-.056-3.306-1.805-3.222-1.75-3.309-1.8-.087-.05-.318-.052-5.936-3.388-8.649-4.738"/><path fill="none" stroke="#000" stroke-width="2.956" stroke-linecap="round" stroke-linejoin="round" d="M1501.624 1693.408q-2.559 1.119-6.051 2.637-3.492 1.517-3.904 1.656-.413.138-9.702 4.59"/><path fill="none" stroke="#000" stroke-width="2.097" stroke-linecap="round" stroke-linejoin="round" d="M1501.898 1697.161q-.718-3.701-1.337-12.233-.62-8.532.125-12.614"/><path fill="none" stroke="#000" stroke-width="2.455" stroke-linecap="round" stroke-linejoin="round" d="M1405.53 1794.923l3.919-1.973q.373-.141 9.159-4.43 8.787-4.289 18.396-8.483 9.609-4.193 14.816-6.141 5.208-1.949 5.464-2.026.256-.078 5.827-1.686 5.57-1.609 11.462-3.006 5.891-1.397 6.132-1.462.241-.064 6.208-1.12 5.967-1.057 12.179-1.93"/><path fill="none" stroke="#000" stroke-width="2.706" stroke-linecap="round" stroke-linejoin="round" d="M1502.155 1763.603q-.216 1.443-.197 1.346.018-.098-.09-.039-.107.059-1.129 5.346-1.023 5.287-2.885 15.487l-.355 1.344"/><path fill="none" stroke="#000" stroke-width="3.676" stroke-linecap="round" stroke-linejoin="round" d="M1498.795 1760.082q-2.023-.558-2.293-.358-.27.199-2.812-.362-2.541-.561-10.499-1.554"/><path fill="none" stroke="#000" stroke-width="3.365" stroke-linecap="round" stroke-linejoin="round" d="M1915.92 1461.978l.463.013q.327-.675 1.269-3.761.942-3.085.946-6.823.004-3.738-.633-5.638-.638-1.899-2.139-3.13-1.501-1.231-3.888-1.618-2.386-.387-5.454 1.217-3.067 1.603-8.537 8.782-5.471 7.179-10.71 20.32-5.24 13.14-5.661 25.962.034.382 4.643 1.484 4.608 1.102 7.366 1.471 2.758.368 4.181 1.028 1.422.661 2.244 1.434.822.772 1.92 2.71"/><path fill="none" stroke="#000" stroke-width="3.057" stroke-linecap="round" stroke-linejoin="round" d="M1938.566 1436.888q-.687.215-2.021 2.487-1.334 2.272-3.722 11.176-2.388 8.902-3.332 16.077-.944 7.174-5.804 37.612-.273-.255.797-5.917 1.069-5.663 2.353-9.246 1.284-3.583 3.763-6.692 2.48-3.109 3.657-3.98 1.178-.871 2.141-1.131.964-.26 1.544-.21.579.05.629.026.049-.024.909.763.861.786 3.694 20.58.556.458.831.417.275-.041 1.24.236"/><path fill="none" stroke="#000" stroke-width="3.634" stroke-linecap="round" stroke-linejoin="round" d="M1958.145 1481.199q-.262.312-.977 2.04-.715 1.729-.966 4.601t.74 4.586q.991 1.715 1.77 2.193.778.478 2.73.981 1.952.504 5.237-.448 3.284-.952 6.284-3.12 3.001-2.169 4.61-4.475 1.61-2.306 1.96-5.536.35-3.229-.023-4.895-.371-1.666-1.956-3.102-1.585-1.437-4.173-1.693-2.588-.257-6.056 2.819t-4.651 4.479"/><path fill="none" stroke="#000" stroke-width="4.049" stroke-linecap="round" stroke-linejoin="round" d="M1976.778 1474.62q.105.33.205 6.04.1 5.71 1.017 9.484.916 3.773 2.015 5.514 1.099 1.74 4.933 4.159"/><path fill="none" stroke="#000" stroke-width="3.185" stroke-linecap="round" stroke-linejoin="round" d="M1991.014 1476.929l-.212.235q-.091.116.189 1.582t.55 3.935q.27 2.468.287 5.483.017 3.015.051 6.47.02-.198.654-1.676.635-1.477 1.859-4.214 1.225-2.738 2.426-4.951 1.201-2.213 3.02-4.719 1.819-2.505 3.645-3.551 1.826-1.046 2.954-1.192 1.127-.147 2.12.067.992.214 2.203 1.167 1.211.954 2.194 2.171.983 1.216 2.509 3.621 1.526 2.405 2.526 4.588 1 2.182 3.145 9.849"/><path fill="none" stroke="#000" stroke-width="2.832" stroke-linecap="round" stroke-linejoin="round" d="M2032.533 1484.617q-.695.475-.99.812-.295.337-.803 2.395-.507 2.059-.328 3.681.179 1.622 1.153 2.448.975.825 3.975 1.139 3.001.315 5.107-.253 2.107-.567 4.28-1.736t4.603-3.573q2.43-2.404 3.129-5.488.699-3.085.335-4.8-.365-1.715-1.638-2.718-1.274-1.003-3.58-1.478-2.305-.474-6.705 1.784t-6.703 4.132"/><path fill="none" stroke="#000" stroke-width="2.696" stroke-linecap="round" stroke-linejoin="round" d="M2052.857 1480.833q-.039.085 1.939-.523.471-.137-.754 6.142-1.224 6.28-2.119 12.371-.896 6.092-.948 14.934-.053 8.841-.701 14.968-.647 6.128-1.599 8.919-.951 2.791-2.269 4.318-1.317 1.527-5.218 1.839-3.901.312-6.507-.377-2.607-.69-4.814-1.489"/><path fill="none" stroke="#000" stroke-width="3.054" stroke-linecap="round" stroke-linejoin="round" d="M2057.243 1482.424q1.015.377 4.506 1.105 3.492.728 7.124.661 3.633-.067 7.609-2.158 3.977-2.09 6.648-5.58 2.67-3.49 2.674-7.691-1.511-.837-5.95 1.938t-7.563 6.704q-3.124 3.929-4.047 6.772-.924 2.843-.731 4.113.193 1.269.465 1.856.273.587 12.887 1.957t14.59 1.524"/><path fill="none" stroke="#000" stroke-width="3.831" stroke-linecap="round" stroke-linejoin="round" d="M2126.644 1462.946q-.117.04-.938-.762-.297-.151-5.455.173-5.157.323-9.087 2.502-3.931 2.179-5.22 3.655-1.289 1.475-1.793 3.609t.674 3.806q1.178 1.671 7.462 5.575 6.283 3.903 9.701 6.44 3.418 2.537 5.281 5.205 1.864 2.668 2.35 4.69.486 2.023.236 4.205-.25 2.181-6.792 4.016-6.541 1.835-9.691 2.293"/><path fill="none" stroke="#000" stroke-width="2.658" stroke-linecap="round" stroke-linejoin="round" d="M2026.773 1527.038l.068 2.542q.11 5.064.258 11.262.148 6.198.287 14.243.138 8.045.282 13.78.144 5.734.256 11.448.111 5.714.335 17.028.224 11.313.343 17.106.119 5.793.22 11.189.101 5.397.167 8.592.066 3.196.167 8.439.1 5.242.152 8.129.053 2.886.113 5.958.061 3.071.108 5.99l.139 8.399q.091 5.481.13 8.402.038 2.92.084 5.604.045 2.684.111 5.896.067 3.213.166 8.533.099 5.32.124 7.996.026 2.676.024 2.947-.001.272.046 3.02t.053 2.821q.005.074.049 2.823.044 2.749.096 5.487.051 2.738.083 3.885l.138 7.675"/><path fill="none" stroke="#000" stroke-width="2.948" stroke-linecap="round" stroke-linejoin="round" d="M2099.288 1732.733l-2.253.119q-.001.039-7.506.485-7.505.447-12.657.675-5.152.228-7.753.381-2.602.153-5.154.331-2.552.179-5.274.317-2.721.138-5.313.281-2.591.143-5.131.302-2.54.158-5.164.339-2.625.18-4.951.296-2.326.116-4.439.312"/><path fill="none" stroke="#000" stroke-width="2.919" stroke-linecap="round" stroke-linejoin="round" d="M2112.188 1730.748l-5.072 5.469q-3.569 3.849-5.408 5.969-1.838 2.121-5.328 5.935l-1.424 1.77"/><path fill="none" stroke="#000" stroke-width="2.922" stroke-linecap="round" stroke-linejoin="round" d="M2114.031 1727.911l-1.772-1.199q-3.786-2.587-12.233-7.8-8.448-5.212-9.814-6.484"/><path fill="none" stroke="#000" stroke-width="2.939" stroke-linecap="round" stroke-linejoin="round" d="M1990.408 1514.217l.093 2.671q.003.59.241 8.909.238 8.32.418 14.505.181 6.186.462 14.832.281 8.647.524 17.713.244 9.066.421 14.957l.867 28.624q.688 22.734.927 32.24.238 9.506.652 23.941l.666 23.272q.253 8.838.406 14.452.154 5.614.229 8.646.075 3.032.138 6.302.064 3.269.192 8.307.129 5.038.207 7.963.078 2.925.174 5.924.096 2.999.174 6.002.078 3.003.14 5.896.062 2.893.138 6.053.075 3.16.231 8.623-.007.451.09 5.255.006.428.098 3.713"/><path fill="none" stroke="#000" stroke-width="3.125" stroke-linecap="round" stroke-linejoin="round" d="M1998.818 1784.943q2.44-.203 5.371-.436 2.932-.233 8.256-.547 5.325-.313 8.233-.475 2.909-.162 11.136-.794 8.227-.631 13.684-1.043 5.457-.413 8.262-.587 2.805-.174 5.445-.299 2.64-.124 5.477-.242 2.836-.118 5.555-.278 2.718-.159 5.704-.398 2.986-.238 5.697-.421 2.712-.183 7.982-.6 5.269-.417 11.161-.858.164.032 2.731-.111 2.568-.143 2.615-.16.046-.016 5.598-.383l5.287-.318q.117-.007.196-.003.08.004 7.977-.633"/><circle stroke="#000" stroke-width=".1" cx="2126.518" cy="1778.356" r="1.232"/><path fill="none" stroke="#000" stroke-width="2.715" stroke-linecap="round" stroke-linejoin="round" d="M2131.262 1780.356q-1.218.722-1.245.671-.027-.051-1.663 1.082-1.635 1.133-3.318 2.49-1.683 1.357-3.131 2.506-1.447 1.15-2.64 1.999"/><path fill="none" stroke="#000" stroke-width="3.618" stroke-linecap="round" stroke-linejoin="round" d="M2129.086 1775.695q-.805-1.977-1.719-3.93-.915-1.954-1.7-4.112-.786-2.157-.972-2.296-.186-.139-1.764-6.305"/><path fill="none" stroke="#000" stroke-width="6.1" stroke-linecap="round" stroke-linejoin="round" stroke-dasharray="0.610,9.150" d="M2162.472 1621.858l225.936.573"/><path fill="none" stroke="#000" stroke-width="2.805" stroke-linecap="round" stroke-linejoin="round" d="M2389.053 1503.807q4.045.063 13.102-.003t13.802-.104q4.744-.038 9.368-.091 4.624-.054 9.321-.087 4.697-.034 9.243-.046 4.546-.011 13.467.009 8.92.021 13.774-.056 4.855-.076 13.763-.032 8.908.045 13.513.011l4.829-.035 4.644-.046q4.421-.043 9.156-.124 4.736-.081 9.221-.109 4.484-.028 8.945-.076 4.46-.049 4.71-.095l13.173.087"/><path fill="none" stroke="#000" stroke-width="2.453" stroke-linecap="round" stroke-linejoin="round" d="M2558.397 1499.307q-2.727 1.989-5.676 4.865-2.949 2.875-8.918 8.515-5.969 5.64-8.656 7.972"/><path fill="none" stroke="#000" stroke-width="2.643" stroke-linecap="round" stroke-linejoin="round" d="M2559.178 1496.378q-2.22-1.991-2.316-2.119-.095-.128-15.059-12.342"/><path fill="none" stroke="#000" stroke-width="2.857" stroke-linecap="round" stroke-linejoin="round" d="M2410.022 1760.331q4.494.067 17.413.235 12.919.167 13.151.178.231.01 4.665-.035 4.435-.045 8.867-.069 4.432-.024 8.756-.054t8.865-.028q4.542.001 8.869.018 4.328.016 4.498-.004.17-.02 4.437-.126t4.407-.078q.14.029 4.384-.011 4.244-.039 8.629-.086l4.687-.05q.303-.002 4.691.031 4.388.034 8.639.06 4.25.025 4.447-.013.175.102 8.727.056l4.305.116"/><path fill="none" stroke="#000" stroke-width="2.894" stroke-linecap="round" stroke-linejoin="round" d="M2556.397 1756.206q-3.107 2.737-6.672 5.46-3.565 2.723-7.143 5.436-3.578 2.714-13.779 11.533"/><path fill="none" stroke="#000" stroke-width="2.674" stroke-linecap="round" stroke-linejoin="round" d="M2556.928 1764.432q-1.025-2.872-2.79-5.826-1.766-2.954-9.554-18.174"/><path fill="none" stroke="#000" stroke-width="2.984" stroke-linecap="round" stroke-linejoin="round" d="M1557.339 1612.184q.06-.327-.188-3.387t-.53-4.304q-.282-1.244-.69-2.317-.408-1.073-2.853-2.342-2.444-1.269-5.641-.958-3.196.31-7.96 4.076-4.763 3.766-8.662 10.718-3.899 6.952-6.023 18.838-2.124 11.886-.759 17.438 1.365 5.553 3.069 8.575 1.704 3.022 2.499 3.985.795.964 2.466 2.498 1.671 1.534 5.244 2.23 3.572.695 12.258-1.623"/><path fill="none" stroke="#000" stroke-width="2.613" stroke-linecap="round" stroke-linejoin="round" d="M1571.584 1655.464q-.051 3.564-.031 6.161.019 2.598.405 4.704.387 2.106 2.977 3.954 2.59 1.848 6.106.468 3.515-1.379 5.304-3.613 1.789-2.234 2.792-6.699 1.004-4.465.638-7.225-.365-2.761-1.885-4.677-1.52-1.915-4.176-2.351-2.657-.436-5.105 1.062-2.448 1.498-4.216 2.712"/><path fill="none" stroke="#000" stroke-width="2.787" stroke-linecap="round" stroke-linejoin="round" d="M1608.581 1639.62q-.298.714 3.629 20.024.957-.328 2.429-2.158 1.471-1.83 3.026-3.029 1.553-1.199 3.232-1.257.579.416 4.746 7.048 1.042.34 2.295-.293 1.254-.633 2.434-1.487 1.18-.853 4.221-2.958 3.04-2.105 9.548-1.088 1.051 2.271 1.192 2.356.14.084 1.899 10.929l1.667 3.612"/><path fill="none" stroke="#000" stroke-width="2.8" stroke-linecap="round" stroke-linejoin="round" d="M1665.448 1649.745l-.61-.007-.883.738q-.144.022-1.413 3.003-1.269 2.982-1.425 5.463-.155 2.48.096 3.962.25 1.481.7 2.34.449.86 1.15 1.657.701.796.743.975.041.179 2.746 1.495t5.886 1.145q3.18-.171 5.052-1.247 1.871-1.077 4.577-3.974 2.706-2.897 4.109-5.24 1.404-2.342 2.504-5.688 1.1-3.346.602-7.512.149-.577-2.277-1.833t-4.633-.945q-2.206.311-5.439 1.189"/><path fill="none" stroke="#000" stroke-width="2.414" stroke-linecap="round" stroke-linejoin="round" d="M1664.186 1658.097q-.205-.429-.986-1.186-.283-1.991-.729-56.002-.483-.756-1.032-3.606"/><path fill="none" stroke="#000" stroke-width="2.837" stroke-linecap="round" stroke-linejoin="round" d="M1710.258 1675.727q.271-1.036-.45-11.745-.721-10.708-2.444-18.014-1.723-7.306-2.413-9.829"/><path fill="none" stroke="#000" stroke-width="2.081" stroke-linecap="round" stroke-linejoin="round" d="M1706.52 1616.588q1.072.229 1.701.547.63.318 2.487 1.297"/><path fill="none" stroke="#000" stroke-width="2.949" stroke-linecap="round" stroke-linejoin="round" d="M1728.782 1624.158q-.391.643-.525.961-.293.716-.177 9.446.115 8.731.933 15.715.819 6.985 4.058 14.214.475-.79.994-5.614.518-4.823 2.013-10.235 1.495-5.412 3.052-7.833 1.558-2.421 3.108-3.046t3.579.312q2.03.937 2.838 2.023.807 1.086 1.522 2.121.714 1.035 2.578 6.959 1.865 5.925 2.258 12.373.393 6.448.35 7.313"/><path fill="none" stroke="#000" stroke-width="2.064" stroke-linecap="round" stroke-linejoin="round" d="M1775.164 1627.528l-.614.957q-.396.809-2.495 7.608"/><path fill="none" stroke="#000" stroke-width="2.622" stroke-linecap="round" stroke-linejoin="round" d="M1772.055 1636.093q2.241.477 4.833.283 2.593-.194 5.333-.705 2.74-.51 5.711-2.765 2.97-2.256 4.432-4.647 1.461-2.39 1.546-3.419.085-1.028-.015-1.822-.1-.793-3.852-2.356-3.752-1.563-6.973-1.151-3.221.411-6.073 2.607-2.853 2.195-4.532 5.671-1.68 3.476-1.975 8.704-.296 5.229 1.361 9.602 1.657 4.374 6.418 9.186 4.761 4.813 10.653 7.4 5.892 2.587 16.217 1.469t12.715-1.677"/><path fill="none" stroke="#000" stroke-width="3.123" stroke-linecap="round" stroke-linejoin="round" d="M1573.439 1695.58l-.244-2.895-.128.075q-.172 2.666-.062 23.51.111 20.845.393 33.364.281 12.518.641 17.861.36 5.342 1.31 7.974l1.248.029"/><path fill="none" stroke="#000" stroke-width="2.649" stroke-linecap="round" stroke-linejoin="round" d="M1585.887 1719.661l-1.713.29q-.96-.459-12.009 4.654-11.049 5.114-14.034 6.812"/><path fill="none" stroke="#000" stroke-width="3.006" stroke-linecap="round" stroke-linejoin="round" d="M1598.517 1691.344q-1.022 2.671-2.38 14.087-1.358 11.416-.948 21.059.409 9.644 2.72 25.39 2.312 15.745 4.047 28.598.123.089.532 1.806"/><path fill="none" stroke="#000" stroke-width="2.914" stroke-linecap="round" stroke-linejoin="round" d="M1601.265 1750.878q.358-.206 15.721-.716.603.082 2.825 6.295 2.224 6.212 5.478 14.352l1.72 2.952"/><path fill="none" stroke="#000" stroke-width="2.328" stroke-linecap="round" stroke-linejoin="round" d="M1637.411 1762.582l1.694-.364 2.291-.66q.394.063 4.258-2.356 3.863-2.42 5.027-3.804 1.164-1.383 1.69-2.767t.124-2.616q-.401-1.233-2.13-1.998-1.729-.765-3.625-.883-1.896-.119-3.35.724-1.453.842-2.37 2.547t-.99 3.374q-.073 1.67-.158 2.207-.084.537 1.469 3.994 1.552 3.457 5.494 7.392 3.942 3.936 6.443 5.206 2.501 1.27 4.124 1.341 1.622.071 4.94.129"/><path fill="none" stroke="#000" stroke-width="2.227" stroke-linecap="round" stroke-linejoin="round" d="M1677.201 1759.781l.35-.76q3.419-2.166 5.435-3.588 2.016-1.421 3.375-3.07 1.36-1.65 1.436-2.67.076-1.02-.064-1.731-.14-.711-.737-1.415-.597-.705-4.047-.855-3.451-.151-5.12 1.467t-2.89 5.737q-1.221 4.12-.801 8.621.421 4.501 1.637 6.479 1.216 1.978 2.501 2.923 1.285.944 4.599 1.732 3.313.788 5.949-.003 2.635-.792 6.149-2.208"/><path fill="none" stroke="#000" stroke-width="2.688" stroke-linecap="round" stroke-linejoin="round" d="M1722.05 1744.385l-1.87-3.245-1.841-.803q-2.284-.625-5.864-.203-3.579.423-5.023 1.938-1.443 1.514-1.715 2.208-.273.694-.383 1.862-.11 1.167.763 3.059.873 1.892 6.038 6.803 5.165 4.912 8.917 12.042.619.558-4.466 2.811-5.085 2.254-7.483 3.068"/><path fill="none" stroke="#000" stroke-width="2.239" stroke-linecap="round" stroke-linejoin="round" d="M1739.389 1759.509q14.217-1.553 18.744-3.618 4.525-2.063 7.36-5.001 2.833-2.937 3.494-8.908-1.259-1.609-6.728-2.437-5.469-.828-10.34 1.02-4.871 1.848-7.773 5.613-2.901 3.765-3.758 7.836-.858 4.072-.427 6.622t.767 3.908q.335 1.357 11.019 6.968 10.684 5.61 13.556 6.415"/><path fill="none" stroke="#000" stroke-width="3.087" stroke-linecap="round" stroke-linejoin="round" d="M2607.006 1485.806q.088-.302.49-4.724l.394-1.452q.426-2.947.4-3.381.072-1.737.079-3.281.008-1.544-.059-2.884-.068-1.341-.207-2.266-.139-.924-.418-1.717-.279-.792-1.401-2.292-1.123-1.5-3.353-2-2.23-.5-3.984.047-1.755.547-3.508 1.867-1.753 1.321-2.889 2.601t-1.972 2.363q-.837 1.084-1.756 2.409-.918 1.326-1.663 2.62t-1.602 3.17q-.857 1.876-1.44 3.597t-.952 3.434q-.369 1.714-.441 3.148-.072 1.434.086 2.658.157 1.223.508 2.279.351 1.056.853 1.97.503.914 1.409 1.955.907 1.04 2.18 2.184 1.272 1.144 2.439 2.122 1.167.979 1.975 1.707.808.728 1.643 1.555.834.827 1.568 1.69.734.864 1.733 2.161.998 1.296 2.129 3.003t2.118 3.323q.988 1.616 1.834 3.092.845 1.476 1.525 2.866.679 1.391 1.435 3.284.756 1.894 1.161 3.605.406 1.712.542 3.316.137 1.604.007 3.036t-1.143 2.441q-1.012 1.01-2.025 1.474-1.012.465-2.397.682-1.384.217-2.771.131t-2.981-.497q-1.594-.411-2.834-.882-1.241-.47-2.659-1.138-1.419-.668-2.752-1.326-1.333-.658-2.579-1.306-1.248-.649-2.366-1.236-1.118-.588-2.107-1.115"/><path fill="none" stroke="#000" stroke-width="3.14" stroke-linecap="round" stroke-linejoin="round" d="M2619.549 1519.493q4.974-1.244 5.799-1.737.825-.493.911-.526.087-.032 1.481-1.568 1.395-1.535 1.847-3.325.453-1.789.214-4.48-.238-2.691-1.702-3.554-1.465-.862-2.697-.623-1.233.24-1.983.676-.751.435-2.833 3.141-2.083 2.705-3.291 7.606-1.208 4.9-1.176 8.917.032 4.016.746 6.182.713 2.166 2.465 4.116 1.753 1.949 4.432 2.666 2.678.716 5.466.149 2.787-.567 4.066-.949"/><path fill="none" stroke="#000" stroke-width="4.176" stroke-linecap="round" stroke-linejoin="round" d="M2641.955 1508.814q-.078-.258-.682-1.139-.516.82-.694.868-.178.049-.468 10.334-.29 10.285.067 17.387.358 7.102 1.057 13.978.699 6.876 1.751 13.235.243.217-.798-7.048-1.04-7.265-1.436-9.485"/><path fill="none" stroke="#000" stroke-width="4.738" stroke-linecap="round" stroke-linejoin="round" d="M2642.248 1512.046q.135-.163.528-.706.393-.543 1.053-1.566.66-1.023 1.31-1.792.651-.77 1.601-1.36.949-.59 2.374-.505 1.424.084 2.709.501 1.286.418 2.079 1.765.793 1.346 1.143 2.807.351 1.46.49 3.404.138 1.943-.334 3.784-.473 1.841-1.317 3.073-.843 1.231-1.932 1.956-1.088.725-2.301 1.121t-2.128.576q-.915.179-1.917.286-1.001.107-2.068.154-1.067.048-2.229.038"/><path fill="none" stroke="#000" stroke-width="3.947" stroke-linecap="round" stroke-linejoin="round" d="M2672.519 1512.713q-.39.212-1.676.962l-1.396.814q-.111.064-.572.512-.462.447-1.402 1.258-.94.81-1.548 1.627-.608.817-.808 1.698-.199.88-.308 1.952-.109 1.071-.21 2.317-.101 1.246-.164 2.345-.062 1.099-.093 2.527-.031 1.427.027 2.885.058 1.458.293 2.598.234 1.139.682 2.449.447 1.31 1.142 2.319.695 1.009 1.646 1.72.952.71 1.941.672.99-.039 2.036-.825 1.046-.785 1.859-1.72.813-.934 1.669-2.563.856-1.628 1.331-3.16.475-1.532.748-2.68.273-1.147.5-2.419.228-1.273.377-2.414.149-1.142.255-2.658.106-1.515-.094-3.757-.199-2.241-.983-3.726-.783-1.485-2.443-2.253-1.659-.767-2.915-.813-1.256-.047-2.189.083-.933.131-1.385.188-.452.058-.594-.066-.142-.124.018-.509.16-.384.546-.952"/><path fill="none" stroke="#000" stroke-width="4.139" stroke-linecap="round" stroke-linejoin="round" d="M2675.973 1513.084l.559.697q4.135 12.147 5.428 15.538 1.293 3.392 2.507 5.08 1.214 1.689 2.779 3.793"/><path fill="none" stroke="#000" stroke-width="3.23" stroke-linecap="round" stroke-linejoin="round" d="M2701.414 1533.477q.059-.554-.807-7.599-.866-7.045-4.33-19.187-3.466-12.143-4.049-13.832"/><path fill="none" stroke="#000" stroke-width="3.064" stroke-linecap="round" stroke-linejoin="round" d="M2696.387 1505.9l.536-.439q.312.038.767-.046.456-.085.934-.596.477-.512 1.08-1.179.602-.666 1.606-1.491 1.004-.824 1.173-.802.17.021 2.969-1.211 2.798-1.231 8.167-2.109l2.279.502"/><path fill="none" stroke="#000" stroke-width="3.297" stroke-linecap="round" stroke-linejoin="round" d="M2725.569 1511.471l-2.761 1.007q-.15.023-.87.627-.72.603-1.902 1.91t-1.79 2.425q-.609 1.119-.799 2.387-.19 1.268-.116 2.817.075 1.55.335 1.892.26.342 1.584 1.684 1.326 1.342 3.777 2.404 2.451 1.062 3.698 1.138 1.247.076 2.355-.095 1.108-.172 2.465-.664 1.357-.493 2.474-1.308 1.116-.816 1.991-1.953t1.405-2.264q.531-1.127.835-2.757.304-1.629.034-3.115-.269-1.486-.877-2.919-.608-1.434-2.563-2.726-1.956-1.293-3.597-1.541-1.641-.247-2.816.12-1.176.368-2.434 1.261-1.257.893-2.229 1.666-.971.773-1.664 1.395"/><path fill="none" stroke="#000" stroke-width="4.561" stroke-linecap="round" stroke-linejoin="round" d="M2734.229 1507.164l-.042.208q-.298 2.321 3.416 12.848 3.714 10.526 4.378 11.92"/><path fill="none" stroke="#000" stroke-width="3.369" stroke-linecap="round" stroke-linejoin="round" d="M2757.736 1538.761l-.004-.239q.176-1.416-1.487-20.594-1.664-19.178-2.113-32.248-.45-13.07-.627-16.635"/><path fill="none" stroke="#000" stroke-width="5.019" stroke-linecap="round" stroke-linejoin="round" d="M2766.81 1490.589q-1.054-.848-5.1-.84-4.046.009-6.698.676-2.653.667-5.393 1.39-2.74.723-7.149 2.395-4.41 1.671-7.085 2.928"/><path fill="none" stroke="#000" stroke-width="2.507" stroke-linecap="round" stroke-linejoin="round" d="M2775.559 1523.335l.268.096 1.611-.225q1.253-.424 5.555-1.969 4.302-1.545 6.441-3.452 2.139-1.908 2.875-4.005.737-2.098.575-3.637-.162-1.538-2.313-2.749-2.151-1.211-4.245-1.333-2.094-.121-4.695 1.233-2.602 1.355-4.722 3.835-2.12 2.48-2.832 5.178-.711 2.697-.603 3.938.109 1.241.553 2.665.443 1.425 3.535 4.538 3.092 3.113 7.483 4.709 4.391 1.597 7.172 1.509 2.78-.089 5.21-.416"/><path fill="none" stroke="#000" stroke-width="4.469" stroke-linecap="round" stroke-linejoin="round" d="M2615.892 1795.555l.071-.425-.349-4.58q-.415-2.253-1.83-20.664-1.414-18.411-3.039-32.886-1.626-14.475-3.037-25.528l-.614-1.229"/><path fill="none" stroke="#000" stroke-width="3.632" stroke-linecap="round" stroke-linejoin="round" d="M2622.563 1726.946q-.164-.174-.726-.692-1.469-.738-8.676 2.86-7.208 3.598-11.797 6.389-4.589 2.79-7.656 3.776-3.067.987-8.492-.027"/><path fill="none" stroke="#000" stroke-width="2.794" stroke-linecap="round" stroke-linejoin="round" d="M2631.71 1702.2q-.443 2.185-1.528 14.206-1.086 12.02.747 28.139 1.834 16.12 3.468 24.614 1.634 8.495 2.642 16.457l-.388.741q.017-.145.39-.213"/><path fill="none" stroke="#000" stroke-width="2.897" stroke-linecap="round" stroke-linejoin="round" d="M2634.682 1765.5l.707.016q1.199-.328 3.718-2.391 2.52-2.062 6.158-3.79 3.638-1.729 5.753-1.741 2.115-.012 3.367.449 1.253.461 2.301 2.988 1.047 2.526 1.589 7.179.542 4.653 2.212 16.01.114.1 1.783.423"/><path fill="none" stroke="#000" stroke-width="2.578" stroke-linecap="round" stroke-linejoin="round" d="M2675.38 1768.691l.747.401q1.16.5 5.012-1.422 3.852-1.923 5.747-4.012 1.896-2.09 2.738-4.089.841-2 .647-3.615.014-.234-2.502-.499-2.516-.265-6.702 2.225-4.185 2.49-7.02 6.112-2.835 3.623-3.741 8.036-.908 4.413-.711 6.341.197 1.927.695 3.085.499 1.158 2.057 2.618 1.559 1.459 6.025 1.872 4.466.412 8.351-1.936 3.886-2.35 6.602-4.501"/><path fill="none" stroke="#000" stroke-width="2.367" stroke-linecap="round" stroke-linejoin="round" d="M2708.678 1769.146l.227-.133q.476.194 4.904-2.726 4.427-2.921 6.774-5.345 2.346-2.425 3.254-4.083.909-1.658.679-3.334-.23-1.677-2.927-2.371-2.698-.693-6.73.957-4.032 1.649-7.077 4.963-3.045 3.315-4.501 8.01-1.456 4.696-1.271 9.056.186 4.36 1.419 6.674 1.234 2.315 4.635 3.867 3.4 1.553 13.086-4.415 9.687-5.968 11.387-7.313"/><path fill="none" stroke="#000" stroke-width="2.503" stroke-linecap="round" stroke-linejoin="round" d="M2762.718 1751.076l-1.596-.174-1.776-.371q-.347-.173-5.044-.484-4.698-.31-7.255.614-2.557.924-3.412 1.769-.855.845-1.429 1.446-.574.601-1.465 3.922-.891 3.321.344 5.276 1.236 1.954 3.08 3.202t2.435 1.505q.591.256 4.997 2.288 4.407 2.032 8.14 5.028 3.732 2.997 4.88 9.94-.357.656-5.488 3.751-5.131 3.094-6.666 3.898"/><path fill="none" stroke="#000" stroke-width="2.979" stroke-linecap="round" stroke-linejoin="round" d="M2781.275 1767.645q.464-.351 3.596-.297 3.132.055 7.895-2.978 4.764-3.033 7.593-6.408 2.829-3.376 3.541-5.164.713-1.789.649-2.936-.063-1.147-3.174-2.559-3.111-1.412-6.66-1.253-3.549.158-6.154 1.156-2.604.997-5.064 3.84t-3.601 5.833q-1.14 2.989-1.137 8.684.002 5.696 1.773 9.436 1.771 3.741 3.843 5.777 2.072 2.037 5.337 3.35 3.265 1.313 8.715.963 5.448-.349 9.271-2.329 3.823-1.98 6.992-4.042"/><path fill="none" stroke="#171612" stroke-width="2.6" stroke-linecap="round" stroke-linejoin="round" d="M1134.098 1696.745l-.255-.755-.106-1.107q.057-.352-.613-4.658-.669-4.305-1.098-6.501-.428-2.196-1.144-5.225-.716-3.029-1.351-6.538-.635-3.508-.807-5.352-.173-1.843-.457-3.215-.285-1.372-.442-2.859-.158-1.486.045-4.962t.19-3.659q-.013-.184.772-2.609.785-2.426 1.933-5.225 1.147-2.798 2.019-4.665.871-1.867 1.22-2.594.35-.728 1.113-1.881t2.513-3.32q4.133-3.445 4.968-3.998.836-.553 2.141-1.099 1.306-.547 2.577-1.134 1.27-.587 2.887-1.29 1.617-.702 5.043-1.866 3.426-1.165 5.838-1.784t4.085-.921q1.673-.302 3.51-.575 1.837-.273 3.502-.598 1.664-.324 3.127-.667 1.463-.342 3.856-.704 2.393-.363 9.781-1.403 7.388-1.041 12.137-1.488 4.749-.447 7.806-.672 3.057-.226 10.035-.664 6.978-.439 12.521-1.123 5.542-.684 6.911-.907 1.369-.223 1.593-.206.224.017 5.689-1.197 5.466-1.215 8.644-1.838 3.179-.624 6.074-.961 2.895-.337 7.119-.514 4.225-.177 5.317-.136 1.091.04 2.667.025 1.575-.015 4.18.062 2.605.077 4.914.221 2.31.145 6.514.202 4.203.057 5.972-.017 1.769-.074 2.358-.124.589-.049 4.643-.129t6.342.061q2.287.14 5.64.105 3.353-.035 5.721-.184 2.368-.15 4.659-.276 2.292-.126 7.752-1.156l3.98-.457q1.782-.062 6.974.255 5.192.318 7.214.438 2.023.119 3.285.376 1.262.256 1.882.432.62.176 1.114.239.493.063 1.864.506t3.161 1.032q1.79.59 2.721.837.931.248 2.246.73 1.314.482 2.677 1.128 1.362.645 4.17 2.107 2.809 1.462 4.06 2.076 1.252.614 2.217 1.234.964.621 1.567 1.136.603.515 1.565 1.259.962.743 2.268 2.135 1.306 1.391 3.224 4.941 1.919 3.55 2.321 4.955.403 1.405.94 3.595.537 2.19.877 5.465.34 3.276.311 5.728-.029 2.452-.165 3.707t-.376 3.822q-.239 2.567-.63 4.663-.391 2.095-.565 4.333-.175 2.238-2.56 19.641l-1.042 2.832q-.395.616-4.932 7.111l-3.93 1.233q-.442.315-3.049.287-2.608-.028-4.402-.312t-3.164-.435q-1.37-.15-1.504-.124-.134.027-2.89-.143-2.755-.171-5.15-.284-2.396-.113-3.911-.005-1.516.107-3.318.461-1.802.353-2.501.477-.698.124-4.337.904-3.637.779-8.386 2.307-4.747 1.527-6.726 2.372-1.978.845-6.776 2.05-4.799 1.205-7.243 1.696-2.444.491-3.713.801-1.268.311-1.621.4-.353.089-4.322.751-3.97.662-11.294 1.086-7.324.424-12.952.673-5.629.248-8.646.442-3.017.193-5.788.657-2.77.463-4.344.795-1.574.332-2.985.564-1.41.231-5.402.625-3.992.395-8.53 1.016-4.539.622-8.506.806-3.967.185-6.573.136-2.606-.048-6.841-.043-4.235.005-6.027.031-1.792.026-5.144-.062-3.352-.088-6.592.037-3.24.125-4.753.316-1.513.192-2.903.33-1.389.138-3.02.242-1.631.104-5.189.138-3.558.033-7.527-.493-3.968-.526-7.448-.869-3.48-.343-5.139-.393-1.658-.049-3.646-.144-1.989-.094-5.567-.306-3.578-.212-6.49-.36-2.913-.148-6.679-.307l-1.638-.244-1.416-.129-2.773-.688-3.233-2.948-1.44-.737q-2.218-3.112-6.215-7.9M1142.203 1776.558q-.513-.162-1.573-.262-.734.315-2.286 5.925-1.553 5.609-2.115 10.252-.563 4.644-.653 10.191-.09 5.547-.004 9.94.087 4.393.482 9.251.394 4.858 1.401 10.984 1.006 6.126 1.933 9.806.927 3.681 4.287 10.482.551.349 1.419 1.175.868.827 4.313 2.357 3.445 1.53 9.493 1.724 6.048.194 9.031-.146 2.983-.341 5.811-.647 2.828-.307 7.793-.873 4.966-.567 9.536-1.383 4.57-.816 10.218-2.093 5.648-1.276 10.319-2.077 4.67-.801 8.274-1.116 3.604-.315 11.408-.452 7.805-.137 11.117-.103 3.312.034 8.59.521 5.278.488 9.88.637 4.602.149 7.424-.356 2.821-.504 4.154-.896 1.333-.391 4.903-.821 3.571-.431 5.836-.613 2.264-.182 4.034-.281 1.769-.1 7.344-.646 5.574-.546 8.941-.903 3.366-.357 5.407-.487 2.04-.13 8.63-.859 6.591-.729 9.504-1.045 2.913-.316 5.36-.76 2.448-.444 5.806-1.088 3.358-.644 5.403-1.094 2.045-.451 4.34-.925 2.296-.473 3.24-.651.943-.178 2.082-.453 1.138-.276 2.447-.675 1.308-.399 2.718-.901 1.41-.503 4.021-1.404 2.61-.9 3.386-1.153.776-.253 2.651-1.257 1.875-1.005 5.015-3.01 3.141-2.005 4.739-3.726 1.598-1.72 1.651-1.763.054-.043 1.604-2.588 1.551-2.545 2.3-4.813.749-2.269 1.321-8.548t.459-8.529q-.113-2.25-1.433-8.972-1.321-6.723-2.186-9.825-.865-3.101-1.397-4.649t-1.448-4.261q-.916-2.712-1.575-4.339-.66-1.626-1.957-3.711-1.297-2.084-2.263-3.329-.966-1.246-1.803-2.123-.838-.878-1.654-1.554t-2.734-1.84q-1.917-1.164-3.108-1.822-1.191-.658-3.683-1.677-2.491-1.02-7.679-1.955-5.189-.935-9.215-1.261-4.026-.327-6.838-.286-2.811.041-5.869.227t-7.185.341q-4.128.156-6.801.177-2.673.022-6.407.216-3.735.194-9.589 1.256-5.855 1.063-11.824 1.851-5.97.788-8.991.987-3.02.199-6.453.212-3.433.013-6.128-.116-2.694-.13-7.7-.684-5.005-.554-9.888-1.226-4.883-.671-15.724-.444-10.841.227-15.03 1.027-4.189.8-5.999 1.163-1.811.363-3.071.683-1.261.32-2.313.642-1.053.323-3.14 1.05-2.086.727-4.206 1.255-2.121.529-3.696.806-1.574.277-5.452 1.104-3.879.827-5.558 1.168-1.679.342-2.593.451-.913.109-2.939.328-2.027.218-4.479.97t-3.897 1.261q-1.446.51-2.534.967-1.089.456-3.39 1.308-2.302.853-4.883 1.615t-3.51 1.191q-.928.429-2.904 1.563-1.975 1.133-5.291 2.698-3.315 1.565-6.234 3.087M1514.903 1612.499q-.141 1.332.183 10.745.325 9.413-.093 19.796-.419 10.382-.791 18.006-.372 7.624-.578 12.772-.206 5.148-.733 10.472-.526 5.325-.789 9.867-.263 4.542-.291 9.893-.027 5.351.151 10.427.178 5.075.127 5.442-.051.367 1.584 10.713 1.635 10.347 2.69 14.974 1.055 4.628 2.165 8.858 1.11 4.229 2.333 7.671 1.224 3.441 2.874 6.869 1.65 3.428 3.034 5.544 1.385 2.116 3.347 4.792 1.962 2.675 3.887 4.848 1.926 2.174 4.659 4.716 2.732 2.543 3.994 3.723 1.262 1.181 2.35 2.115 1.087.934 4.296 2.979 3.208 2.044 9.699 4.981t9.49 3.948q2.999 1.011 6.448 1.512 3.448.502 5.118.678 1.67.175 3.471.39 1.801.216 4.852.14 3.05-.075 5.59-.429 2.54-.353 5.878-.712 3.338-.358 5.563-.495 2.225-.137 9.208-.062 6.982.075 13.078.407 6.096.332 11.457.544 5.361.212 8.178.24 2.818.028 5.521.088t6.376.118q3.674.058 6.381-.029 2.708-.086 7.499-.432 4.791-.346 11.13-.62t13.647-.687q7.308-.413 13.513-1.273 6.205-.861 10.002-1.531 3.798-.67 4.782-.901.983-.231 9.215-.851 8.231-.619 12.831-.617 4.601.002 10.321-.18 5.721-.18 7.905-.129 2.183.052 3.98.193 1.795.142 3.879.193 2.083.051 5.493-.195 3.41-.245 4.56-.332 1.151-.086 4.053-.643t5.738-1.97q2.835-1.412 5.278-2.717 2.444-1.306 4.261-2.541 1.818-1.235 3.776-2.943 1.958-1.709 2.243-2.004l2.202-2.273q1.918-1.979 3.9-4.239 1.983-2.26 5.12-6.851 3.138-4.591 5.043-9.952 1.906-5.362 2.654-8.847.748-3.485 1.22-5.879.472-2.394.865-7.584.393-5.19.348-8.128-.046-2.939-.273-4.497-.227-1.559-1.11-11.152-.883-9.593-1.33-15.04-.448-5.448-1.213-11.472-.766-6.023-.966-8.892-.2-2.869-.74-8.238-.541-5.369-1.07-11.108-.528-5.737-1.226-13.634t-1.234-13.9q-.536-6.002-1.098-12.165-.562-6.163-1.496-12.176-.933-6.012-1.471-8.194-.539-2.182-1.298-4.885t-.788-2.964q-.03-.261-1.602-3.762-1.573-3.502-3.14-5.888-1.568-2.386-4.611-5.527-3.042-3.142-4.755-4.738-1.713-1.596-3.949-2.984-2.235-1.389-5.338-2.716-3.104-1.326-4.576-1.79-1.472-.463-4.601-1.156-3.129-.693-3.533-.754-.404-.061-4.332-1.11-3.927-1.049-7.294-1.958-3.366-.909-7.328-1.982t-6.566-1.669q-2.605-.596-2.97-.707-.364-.112-7.202-1.137-6.837-1.025-10.699-1.231-3.863-.206-5.755-.114-1.893.092-7.651.964-5.758.871-12.301 1.071-6.543.2-11.626-.024-5.083-.224-9.937-.605-4.855-.38-7.828-.926-2.973-.545-6.152-.896-3.18-.351-6.308-.459-3.129-.109-3.369-.139-.239-.029-3.349.175-3.11.204-5.895.403-2.785.2-4.083.223-1.298.025-9.206.904-7.907.88-18.723 2.588-10.816 1.708-13.741 2.43-2.925.723-7.639 1.884-4.715 1.162-9.226 2.304-4.512 1.143-9.612 2.246-5.101 1.103-7.908 1.6l-4.115.728q-1.307.232-5.415 1.21-4.107.977-5.569 1.077-1.461.099-1.73.185-.268.086-3.219.22-2.951.135-4.4.146-1.449.011-2.697-.147-1.247-.158-2.115-.216-.867-.059-2.095.031-1.228.09-1.494.056-.266-.033-4.937.895-4.672.929-7.279 2.075-2.608 1.145-4.405 2.424-1.797 1.279-2.876 2.441-1.078 1.162-1.761 2.124-.683.963-2.266 5.344-1.582 4.381-1.994 6.496-.412 2.115-.746 4.057-.334 1.942-.563 3.902-.228 1.959-.424 4.549-.195 2.591-.339 3.964-.144 1.373-.338 2.727-.195 1.355-.713 3.329-.518 1.975-.846 3.541M2571.351 1521.376q.118.13.857.176.578.406.771.51.192.104.321.128.129.025.307-.017t.321-1.138q.144-1.097.268-2.196l.29-2.578q.166-1.48.312-2.99.145-1.511.267-3.048.121-1.537.213-3.097t.15-3.137q.058-1.578.113-3.02l.104-2.747q.048-1.304.088-2.468.041-1.165.088-2.7.047-1.534.145-3.302.097-1.768.179-3.024.082-1.255.18-2.589.099-1.333.199-2.516t.254-2.731q.153-1.548.366-3.009.212-1.462.434-2.662.221-1.199.567-2.606.345-1.406.769-2.546.423-1.141.88-2.12.457-.979 1.088-2.176.63-1.198 1.116-2.036.486-.837.998-1.553t1.675-1.939q1.162-1.224 2.093-2.143.93-.919 2.859-2.391 1.928-1.472 3.533-2.336 1.605-.864 3.11-1.557 1.505-.694 3.445-1.505 1.941-.811 3.411-1.327 1.47-.516 2.971-.847 1.501-.332 3.584-.649 2.082-.317 2.959-.373.877-.056 2.147-.149l2.395-.178 2.527-.19q1.401-.106 2.692-.181 1.291-.075 3.061-.141 1.771-.065 3.687-.028 1.917.037 3.564.121 1.649.084 3.028.215 1.38.132 2.224.217.844.085 1.152.123.308.039 1.222.117.914.078 2.434.196 1.52.118 2.943.209t2.749.155l2.628.127 2.577.127q1.275.063 2.894.131 1.619.069 3.581.143 1.962.075 3.573.111 1.611.036 2.872.033 1.26-.003 2.761-.009 1.501-.006 3.243-.016 1.741-.01 3.556-.097 1.816-.088 3.233-.212 1.417-.125 2.697-.244 1.28-.12 2.896-.276 1.616-.157 3.568-.35 1.951-.193 4.238-.423 2.287-.23 4.178-.429 1.89-.199 3.383-.368 1.494-.168 2.59-.305 1.097-.138 2.146-.297 1.05-.16 2.669-.372 1.62-.211 3.001-.369 1.38-.158 2.581-.283 1.201-.125 2.682-.27 1.482-.145 3.244-.31 1.762-.165 3.805-.35 2.043-.185 4.084-.391 2.04-.206 4.078-.434 2.038-.228 4.073-.478 2.036-.249 4.069-.52t3.984-.496q1.95-.225 3.819-.403 1.868-.179 3.653-.311 1.786-.132 3.49-.218 1.703-.086 3.215-.142 1.513-.056 2.834-.081 1.322-.025 2.453-.02 1.13.005 2.54.058 1.409.053 3.308.219 1.9.166 3.819.427t3.183.427q1.265.165 1.875.234.611.069 1.795.27 1.185.201 2.943.534 1.759.332 3.411.733 1.651.4 3.196.867 1.544.467 2.941.972 1.397.505 2.646 1.047 1.249.542 2.46 1.162 1.211.621 2.384 1.319 1.172.699 2.173 1.418 1.001.72 1.83 1.46.83.741 1.978 2.093 1.148 1.351 2.615 3.314 1.467 1.963 2.4 3.286.934 1.323 1.334 2.006.4.683.847 1.691.448 1.009.943 2.342.496 1.333.864 2.449.369 1.117.611 2.017.242.9.509 2.279t.559 3.236q.293 1.858.499 3.546.206 1.687.297 2.826.091 1.138.166 2.4.075 1.262.165 3.026.089 1.764.168 3.465.078 1.7.133 2.959l.116 2.645q.059 1.385.105 2.734.045 1.35.075 2.665.031 1.315.047 2.595.016 1.28.018 3.148.003 1.868-.052 4.218-.054 2.35-.167 4.56-.112 2.21-.213 3.952-.1 1.742-.188 3.016-.089 1.274-.182 2.164-.092.89-.237 1.649-.145.758-.658 2.23-.512 1.471-.737 2.065-.226.593-.627 1.58-.4.987-1.051 2.564-.651 1.578-1.154 2.7-.504 1.123-1.038 2.124-.534 1.001-1.04 1.964-.506.963-1.095 2.159-.588 1.197-1.427 2.947-.84 1.75-1.422 2.894-.582 1.144-1.069 1.952-.487.807-1.521 1.901-1.033 1.093-2.827 2.223-1.794 1.129-2.672 1.609-.878.48-.998.597-.12.116-1.107.475-.986.358-1.952.696-.966.339-2.242.778-1.274.439-2.436.808-1.161.369-2.733.817-1.571.449-3.212.769-1.642.319-3.336.733t-3.005.795q-1.312.382-2.449.68-1.138.299-2.54.641-1.401.343-3.067.729-1.665.387-3.594.818-1.929.43-3.642.803-1.714.373-3.211.687-1.497.315-2.778.572-1.281.256-2.345.455-1.065.199-2.531.385-1.467.186-3.334.36-1.868.174-3.57.296-1.702.121-2.937.199-1.235.078-2.57.152-1.335.075-2.608.136-1.274.062-3.091.134-1.818.071-3.993.113-2.177.042-4.105.03-1.929-.012-3.61-.078-1.681-.066-3.363-.138-1.682-.071-3.364-.149-1.683-.077-3.366-.159-1.683-.083-3.367-.171-1.684-.089-3.403-.15-1.719-.062-3.473-.097-1.754-.035-3.544-.044-1.789-.008-3.613.01-1.825.019-3.467.053-1.642.035-3.101.086-1.459.051-2.735.119-1.277.067-2.917.193-1.641.127-3.727.325-2.087.199-3.576.371-1.49.172-2.756.272-1.266.1-2.804.186-1.539.086-3.35.158-1.812.071-3.896.128-2.084.057-4.201.059-2.116.001-4.265-.053-2.149-.054-4.33-.164-2.181-.11-4.394-.275-2.213-.166-4.172-.31-1.959-.145-3.664-.268-1.705-.123-3.156-.225-1.45-.103-3.245-.224-1.794-.121-4.006-.232-2.211-.111-4.241-.171-2.03-.059-4.228-.112-2.199-.052-4.567-.098-2.368-.046-4.395-.065-2.027-.02-3.714-.013-1.687.007-3.335-.033-1.649-.039-3.258-.125-1.61-.086-3.082-.237-1.472-.15-2.805-.366-1.333-.215-2.277-.399-.943-.184-1.775-.413-.831-.23-1.094-.251-.263-.022-1.007-.341-.743-.319-2.055-.943-1.311-.623-2.283-1.177-.971-.554-1.918-1.28t-2.171-1.789q-1.223-1.063-1.345-1.133-.122-.07-1.018-1.181-.897-1.11-1.617-2.509-.72-1.398-1.007-2.185-.287-.787-.479-1.282t-.461-1.734q-.268-1.239-.503-2.393-.236-1.155-.524-2.633-.289-1.478-.499-3.169-.21-1.691-.327-3.569-.117-1.878-.108-3.886.008-2.008.203-4.036.194-2.028.501-3.57.307-1.541.68-2.68.373-1.139.748-1.99t.703-1.503M2579.099 1702.68l-.142.753q-.179.96-.193 8.158-.014 7.198.145 12.463.159 5.266.311 10.447.152 5.182.35 12.035.197 6.852.36 11.211.163 4.36.356 7.158.192 2.797.49 4.77.298 1.973.766 4.511.469 2.539.942 5.183.474 2.645.844 4.364.369 1.719 1.465 5.523 1.097 3.803 2.213 6.05 1.115 2.246 1.5 2.775.386.528 2.415 2.477 2.029 1.949 2.564 2.422.534.473 1.84 1.319 1.305.846 9.099 2.357 7.794 1.511 14.083 1.289 6.289-.222 10.093-.713 3.804-.491 5.832-.821 2.028-.331 3.586-.796 1.557-.464 11.166-2.222 9.608-1.758 19.403-2.574 9.795-.817 14.8-1.049 5.005-.232 9.951-.34 4.947-.109 8.494.077 3.548.185 10.79.669 7.243.484 12.266.606t7.4.183q2.376.061 6.575.217 4.199.157 10.722-.112 6.524-.268 10.851-.45 4.328-.181 5.525-.225 1.196-.045 2.105-.112.908-.068 8.636-.554 7.728-.486 11.881-.791 4.153-.306 8.507-.999 4.355-.694 7.087-1.189 2.731-.496 4.792-.895 2.06-.398 2.342-.441.282-.042 3.605-1.049 3.323-1.006 5.189-1.846 1.866-.84 3.015-1.466 1.15-.626 2.346-1.557.55-.743 2.274-6.198 1.723-5.455 1.604-14.589-.118-9.133-.431-12.669-.313-3.535-.859-7.567-.547-4.033-1.724-9.096-1.177-5.064-2.317-8.274-1.139-3.21-1.408-3.79-.268-.581-1.635-2.864-1.366-2.283-2.635-4.332-1.269-2.049-1.805-2.759-.536-.709-2.105-2.454-1.569-1.746-2.481-2.753-.913-1.008-1.851-2.068t-1.787-2.042q-.848-.983-1.524-1.652-.677-.669-1.325-1.212-.649-.542-.951-.695-.302-.152-2.827-1.785t-3.93-2.391q-1.405-.757-3.045-1.187-1.64-.43-4.899-.843-3.26-.412-6.987-.719-3.727-.306-7.183-.176-3.455.129-10.179 1.212-6.724 1.082-10.453 1.374-3.729.292-7.267.225-3.538-.067-8.427-.98-4.889-.914-9.782-1.73-4.894-.816-7.319-1.136-2.426-.319-5.422-.767-2.997-.447-5.76-.616-2.762-.17-7.256-.102-4.494.067-13.368.28-8.873.213-14.076.341-5.202.128-10.307.176-5.105.048-12.524.139-7.419.09-17.337.722-9.917.631-16.225 1.182-6.309.551-9.446.873-3.137.323-4.694.471-1.556.149-2.873.223-1.317.073-2.793.178-1.475.104-3.845.433-2.369.329-2.871.357-.502.027-.825.108-.323.081-4.54-.542t-8.754-1.876M2389.326 1763.422q-.681-8.206-1.754-15.484-1.072-7.279-1.539-9.764-.466-2.486-1.366-9.831-.9-7.345-1.064-14.636-.164-7.29.093-12.65t.471-8.086q.213-2.725.729-7.666.515-4.942.638-6.293t.554-13.872q.43-12.522-.007-19.732-.436-7.21-1.074-11.937-.637-4.727-.73-5.406-.093-.679-1.937-9.624t-2.599-12.376q-.756-3.43-2.002-13.615-1.247-10.184-1.774-17.176-.528-6.992-.662-10.385-.135-3.393-.727-13.365-.593-9.973-.882-37.431-.29-27.459-.427-29.663-.137-2.204-.286-4.022-.149-1.817-.198-2.068-.049-.251-1.625-20.629t-2.22-22.592q-.643-2.214-1.537-4.126-.893-1.912-1.913-3.303t-3.108-3.452q-2.088-2.061-2.324-2.273-.236-.212-2.54-1.267-2.304-1.055-7.37-2.357-5.067-1.303-8.902-2.117-3.835-.815-9.18-1.262-5.345-.446-9.882-.55-4.537-.104-9.148-.547-4.61-.444-11.12-1.968-6.51-1.525-12.184-2.701-5.674-1.176-14.249-1.706t-13.441-.497q-4.868.033-9.228.185-4.361.152-4.544.196-.183.044-6.266.195-6.082.151-13.224.195-7.142.043-10.969.235-3.828.192-5.705.399-1.877.207-4.599.524-2.722.316-4.515.545-1.794.229-3.774.503-1.981.274-4.955.873-2.975.598-6.966 1.959-3.991 1.361-5.276 1.804-1.285.442-3.468 1.197-2.183.755-4.794 2.113-2.61 1.357-5.805 3.382-3.195 2.024-3.811 2.469-.617.444-1.782 1.442-1.165.997-1.883 1.878-.718.882-.991 1.327-.272.446-1.629 2.575t-3.053 5.138q-1.696 3.01-2.386 4.424-.69 1.415-1.517 4.089-.827 2.674-1.001 3.439-.174.764-2.341 11.4-2.168 10.636-3.013 17.175-.845 6.54-1.856 13.939-1.01 7.4-1.402 12.119-.392 4.72-.584 8.752-.193 4.032-.383 15.898-.191 11.866-.19 19.5.001 7.634.267 15.855.267 8.22.726 13.357.459 5.137 1.129 10.91.67 5.772 1.192 9.864.522 4.092 1.044 10.109t1.277 13.414q.755 7.398 2.143 17.775 1.388 10.378 2.04 15.653.652 5.275 1.649 14.111t1.344 14.297q.348 5.46.471 8.832.122 3.371.199 8.268.077 4.897.176 12.318.098 7.42.317 12.061.219 4.64.441 6.601.223 1.961.336 4.197.113 2.235.502 8.174.388 5.939.544 9.707.156 3.768.47 15.984.315 12.216.31 12.285-.005.07.342 5.099.348 5.03 1.45 11.083 1.102 6.053 1.747 8.001.645 1.948 1.148 3.323.502 1.376 1.362 2.937 3.68 4.229 3.927 4.488.247.259 4.064 2.384 3.816 2.126 7.244 3.079 3.428.953 9.725 1.653 6.297.7 14.392.267 8.096-.434 14.895-1.028 6.799-.593 12.296-.853 5.496-.26 12.107-.376 6.612-.116 9.439.079 2.827.196 5.499.523 2.672.327 6.069.641 3.397.315 9.198.868 5.801.553 12.203 1.495 6.402.943 11.096 1.438 4.693.495 10.947.803 6.254.307 10.467.542 4.213.234 8.413.479 4.2.244 10.425-.328 6.225-.573 10.529-1.525 4.304-.953 6.152-1.572 1.849-.62 4.185-1.603 2.336-.982 6.315-3.447 3.98-2.465 5.846-3.918 1.867-1.453 3.269-2.948 1.403-1.495 2.957-3.656 1.555-2.16 2.011-2.911.457-.751 3.367-7.401 2.91-6.65 3.902-9.701.993-3.051 1.484-5.38.491-2.328 1.164-7.636.673-5.307.818-6.947.145-1.639.305-2.83.16-1.19.435-4.245t.527-5.741q.251-2.685.543-5.147"/></svg>
